<svg width="198mm" height="124mm" inkscape:version="1.1.1 (3bf5ae0d25, 2021-09-20)" sodipodi:docname="arrow-links.svg" version="1.1" viewBox="0 0 237.6 148.8" xmlns="http://www.w3.org/2000/svg" xmlns:inkscape="http://www.inkscape.org/namespaces/inkscape" xmlns:sodipodi="http://sodipodi.sourceforge.net/DTD/sodipodi-0.dtd">
 <sodipodi:namedview bordercolor="#111111" borderopacity="1" inkscape:current-layer="layer1" inkscape:cx="397.16576" inkscape:cy="561.25984" inkscape:document-units="mm" inkscape:pagecheckerboard="1" inkscape:pageopacity="0" inkscape:pageshadow="0" inkscape:window-height="991" inkscape:window-maximized="1" inkscape:window-width="1920" inkscape:window-x="-9" inkscape:window-y="-9" inkscape:zoom="0.68862935" pagecolor="#ffffff" scale-x="0.1" showgrid="false" showguides="false"/>
 <g inkscape:groupmode="layer" inkscape:label="Ebene 1">
  <g transform="matrix(-1 0 0 1 250.74 -38.038)">
   <g transform="translate(27.279 -36.885)" stroke-width=".26458">
    <path d="m-11.333 219.93v-1.0679l5.1594 0.1514 0.082117 0.99219 0.082118 0.99219h-5.3236zm10.634 0.0757 0.082117-0.99219h5.0271l0.082117 0.99219 0.082118 0.99219h-5.3556zm10.583 0 0.082117-0.99219h5.0271l0.16424 1.9844h-5.3556zm10.583 0 0.08212-0.99219h5.0271l0.16424 1.9844h-5.3556zm10.583 0 0.08212-0.99219h5.0271l0.16424 1.9844h-5.3556zm10.583 0 0.08212-0.99219h5.0271l0.16424 1.9844h-5.3556zm10.583 0 0.08212-0.99219h5.0271l0.16424 1.9844h-5.3556zm10.583 0 0.08212-0.99219h5.0271l0.16424 1.9844h-5.3556zm10.583 0 0.08212-0.99219h5.0271l0.16424 1.9844h-5.3556zm10.583 0 0.08212-0.99219h5.0271l0.16424 1.9844h-5.3556zm10.583 0 0.08212-0.99219h5.0271l0.16424 1.9844h-5.3556zm10.583 0 0.0821-0.99219h5.0271l0.1642 1.9844h-5.3556zm10.583 0 0.0821-0.99219h5.0271l0.1642 1.9844h-5.3556zm10.583 0 0.0821-0.99219h5.0271l0.1642 1.9844h-5.3556zm10.583 0 0.0821-0.99219h5.0271l0.1642 1.9844h-5.3556zm10.583 0 0.0821-0.99219h5.0271l0.1642 1.9844h-5.3556zm10.583 0 0.0821-0.99219h5.0271l0.1642 1.9844h-5.3556zm10.583 0 0.0821-0.99219h5.0271l0.1642 1.9844h-5.3556zm10.583 0 0.0821-0.99219h5.0271l0.1642 1.9844h-5.3556zm10.583 0 0.0821-0.99219h5.0271l0.1642 1.9844h-5.3556zm10.583 0 0.0821-0.99219h5.0271l0.1642 1.9844h-5.3556zm10.583 0 0.0821-0.99219h5.0271l0.1642 1.9844h-5.3556zm-216.89-1.4673c-0.076578-0.19956-0.10433-1.3649-0.061675-2.5897l0.077558-2.2268h5.0271v5.0271l-2.4519 0.0761c-1.8866 0.0586-2.484-8e-3 -2.5911-0.2867zm10.583 0c-0.076578-0.19956-0.10433-1.3649-0.061675-2.5897l0.077558-2.2268h5.0271v5.0271l-2.4519 0.0761c-1.8866 0.0586-2.484-8e-3 -2.5911-0.2867zm10.583 0c-0.07658-0.19956-0.10433-1.3649-0.06168-2.5897l0.07756-2.2268h5.0271v5.0271l-2.4519 0.0761c-1.8866 0.0586-2.484-8e-3 -2.5911-0.2867zm10.583 0c-0.07658-0.19956-0.10433-1.3649-0.06168-2.5897l0.07756-2.2268h5.0271v5.0271l-2.4519 0.0761c-1.8866 0.0586-2.484-8e-3 -2.5911-0.2867zm10.583 0c-0.07658-0.19956-0.10433-1.3649-0.06167-2.5897l0.07756-2.2268h5.0271v5.0271l-2.4519 0.0761c-1.8866 0.0586-2.484-8e-3 -2.5911-0.2867zm10.583 0c-0.07658-0.19956-0.10433-1.3649-0.06167-2.5897l0.07756-2.2268h5.0271v5.0271l-2.4519 0.0761c-1.8866 0.0586-2.484-8e-3 -2.5911-0.2867zm10.583 0c-0.07658-0.19956-0.10433-1.3649-0.06167-2.5897l0.07756-2.2268h5.0271v5.0271l-2.4519 0.0761c-1.8866 0.0586-2.484-8e-3 -2.5911-0.2867zm10.583 0c-0.07658-0.19956-0.10433-1.3649-0.06168-2.5897l0.07756-2.2268h5.0271v5.0271l-2.4519 0.0761c-1.8866 0.0586-2.484-8e-3 -2.5911-0.2867zm10.583 0c-0.07658-0.19956-0.10433-1.3649-0.06167-2.5897l0.07756-2.2268h5.0271v5.0271l-2.4519 0.0761c-1.8866 0.0586-2.484-8e-3 -2.5911-0.2867zm10.583 0c-0.07658-0.19956-0.10433-1.3649-0.06167-2.5897l0.07756-2.2268h5.0271v5.0271l-2.4519 0.0761c-1.8866 0.0586-2.484-8e-3 -2.5911-0.2867zm10.583 0c-0.07658-0.19956-0.10433-1.3649-0.06167-2.5897l0.07756-2.2268h5.0271v5.0271l-2.4519 0.0761c-1.8866 0.0586-2.484-8e-3 -2.5911-0.2867zm10.583 0c-0.0766-0.19956-0.10433-1.3649-0.0617-2.5897l0.0776-2.2268h5.0271v5.0271l-2.4519 0.0761c-1.8866 0.0586-2.484-8e-3 -2.5911-0.2867zm10.583 0c-0.0766-0.19956-0.10433-1.3649-0.0617-2.5897l0.0775-2.2268h5.0271v5.0271l-2.4519 0.0761c-1.8866 0.0586-2.484-8e-3 -2.5911-0.2867zm10.583 0c-0.0766-0.19956-0.10433-1.3649-0.0617-2.5897l0.0776-2.2268h5.0271v5.0271l-2.4519 0.0761c-1.8866 0.0586-2.484-8e-3 -2.5911-0.2867zm10.583 0c-0.0766-0.19956-0.10433-1.3649-0.0617-2.5897l0.0776-2.2268h5.0271v5.0271l-2.4519 0.0761c-1.8866 0.0586-2.484-8e-3 -2.5911-0.2867zm10.583 0c-0.0766-0.19956-0.10433-1.3649-0.0617-2.5897l0.0776-2.2268h5.0271v5.0271l-2.4519 0.0761c-1.8866 0.0586-2.484-8e-3 -2.5911-0.2867zm10.583 0c-0.0766-0.19956-0.10433-1.3649-0.0617-2.5897l0.0776-2.2268h5.0271v5.0271l-2.4519 0.0761c-1.8866 0.0586-2.484-8e-3 -2.5911-0.2867zm10.583 0c-0.0766-0.19956-0.10433-1.3649-0.0617-2.5897l0.0776-2.2268h5.0271v5.0271l-2.4519 0.0761c-1.8866 0.0586-2.484-8e-3 -2.5911-0.2867zm10.583 0c-0.0766-0.19956-0.10433-1.3649-0.0617-2.5897l0.0776-2.2268h5.0271v5.0271l-2.4519 0.0761c-1.8866 0.0586-2.484-8e-3 -2.5911-0.2867zm10.583 0c-0.0766-0.19956-0.10433-1.3649-0.0617-2.5897l0.0776-2.2268h5.0271v5.0271l-2.4519 0.0761c-1.8866 0.0586-2.484-8e-3 -2.5911-0.2867zm10.583 0c-0.0766-0.19956-0.10433-1.3649-0.0617-2.5897l0.0776-2.2268h5.0271v5.0271l-2.4519 0.0761c-1.8866 0.0586-2.484-8e-3 -2.5911-0.2867zm10.58-0.01c-0.0745-0.19407-0.1005-1.3549-0.0579-2.5797l0.0776-2.2269 5.1594-0.1514v5.3108h-2.5218c-1.8577 0-2.5575-0.0929-2.6572-0.35285zm-227.65-7.5847v-2.665l5.1594 0.1514v5.0271l-5.1594 0.1514zm10.7 2.303c-0.076578-0.19955-0.10433-1.3649-0.061675-2.5897l0.077558-2.2268h5.0271v5.0271l-2.4519 0.0761c-1.8866 0.0586-2.484-8e-3 -2.5911-0.2867zm10.583 0c-0.076578-0.19955-0.10433-1.3649-0.061675-2.5897l0.077558-2.2268h5.0271v5.0271l-2.4519 0.0761c-1.8866 0.0586-2.484-8e-3 -2.5911-0.2867zm10.583 0c-0.07658-0.19955-0.10433-1.3649-0.06167-2.5897l0.07756-2.2268h5.0271v5.0271l-2.4519 0.0761c-1.8866 0.0586-2.484-8e-3 -2.5911-0.2867zm10.583 0c-0.07658-0.19955-0.10433-1.3649-0.06167-2.5897l0.07756-2.2268h5.0271v5.0271l-2.4519 0.0761c-1.8866 0.0586-2.484-8e-3 -2.5911-0.2867zm10.583 0c-0.07658-0.19955-0.10433-1.3649-0.06168-2.5897l0.07756-2.2268h5.0271v5.0271l-2.4519 0.0761c-1.8866 0.0586-2.484-8e-3 -2.5911-0.2867zm10.583 0c-0.07658-0.19955-0.10433-1.3649-0.06168-2.5897l0.07756-2.2268h5.0271v5.0271l-2.4519 0.0761c-1.8866 0.0586-2.484-8e-3 -2.5911-0.2867zm10.583 0c-0.07658-0.19955-0.10433-1.3649-0.06167-2.5897l0.07756-2.2268h5.0271v5.0271l-2.4519 0.0761c-1.8866 0.0586-2.484-8e-3 -2.5911-0.2867zm10.583 0c-0.07658-0.19955-0.10433-1.3649-0.06167-2.5897l0.07756-2.2268h5.0271v5.0271l-2.4519 0.0761c-1.8866 0.0586-2.484-8e-3 -2.5911-0.2867zm10.583 0c-0.07658-0.19955-0.10433-1.3649-0.06167-2.5897l0.07756-2.2268h5.0271v5.0271l-2.4519 0.0761c-1.8866 0.0586-2.484-8e-3 -2.5911-0.2867zm10.583 0c-0.07658-0.19955-0.10433-1.3649-0.06167-2.5897l0.07756-2.2268h5.0271v5.0271l-2.4519 0.0761c-1.8866 0.0586-2.484-8e-3 -2.5911-0.2867zm10.583 0c-0.0766-0.19955-0.10433-1.3649-0.0617-2.5897l0.0775-2.2268h5.0271v5.0271l-2.4519 0.0761c-1.8866 0.0586-2.484-8e-3 -2.5911-0.2867zm10.583 0c-0.0766-0.19955-0.10433-1.3649-0.0617-2.5897l0.0776-2.2268h5.0271v5.0271l-2.4519 0.0761c-1.8866 0.0586-2.484-8e-3 -2.5911-0.2867zm10.583 0c-0.0766-0.19955-0.10433-1.3649-0.0617-2.5897l0.0776-2.2268h5.0271v5.0271l-2.4519 0.0761c-1.8866 0.0586-2.484-8e-3 -2.5911-0.2867zm10.653 0.1757c-0.10208-0.10209-0.18561-1.1278-0.18561-2.2792v-2.0936l-1.707 0.18281c-1.9099 0.20453-2.4206-6e-3 -4.638-1.9115-2.4865-2.1368-2.9154-2.6482-2.9154-3.476 0-0.63006-0.12752-0.81992-0.59532-0.88636-0.5696-0.0809-0.59531-0.19298-0.59531-2.5955v-2.5109l0.79375-0.13664c0.74167-0.12767 0.80505-0.232 0.96602-1.5901 0.0948-0.79941 0.18405-1.9523 0.19844-2.562 0.0258-1.0954 0.0144-1.1095-0.96602-1.1906l-0.99219-0.0821v-5.0271l2.7292-0.1582 0.16772-1.6407c0.0923-0.90236 0.23178-2.0812 0.31009-2.6197l0.14236-0.97902-3.3494-0.1586v-5.0271l1.8923-0.0772c2.1745-0.0887 2.0485 0.0873 2.3507-3.285l0.18272-2.0393-4.4257-0.1546v-5.0271l2.3725-0.0773c2.5744-0.0839 2.7763-0.19821 2.7828-1.5764l4e-3 -0.8599h-5.2612l-0.1628 2.249h-5.0271l-0.0829-0.8599-0.0829-0.85989-1.5046 0.0152c-2.6031 0.0264-3.5777 0.29791-3.7535 1.0457-0.14873 0.63271-0.24719 0.66186-2.4849 0.73564-1.4804 0.0488-2.4641-0.0345-2.6978-0.22843-0.24315-0.20179-0.70507-0.23322-1.3629-0.0927l-0.99509 0.21253 2.1167 0.29637v5.0271h-5.0271l-0.0768-2.1828c-0.0825-2.343-0.12108-2.3916-1.5373-1.9362-0.4219 0.13565-1.4458 0.43492-2.2753 0.66504l-1.5083 0.41839-0.15848 3.0355h-5.027l-0.08487-0.73949c-0.09505-0.82825-0.08415-0.82897-2.6933 0.17791l-1.4552 0.56158 3.9688 0.26458v5.0271h-5.0271l-0.15174-4.8645-1.0809 0.38137c-0.5945 0.20975-1.775 0.69286-2.6233 1.0736l-1.5424 0.6922-0.07892 1.3587-0.07892 1.3587-2.9484-9e-3c-2.1223-6e-3 -2.842 0.0692-2.5685 0.26922 0.29221 0.21367 0.36207 0.82654 0.30258 2.6544l-0.07734 2.3766h-5.0271l-0.07823-1.7859c-0.04303-0.98226-0.17712-1.7859-0.29799-1.7859-0.62231 0-4.902 2.6412-5.0861 3.1388-0.15365 0.41535-0.43279 0.56534-1.0521 0.56534-0.47265 0-1.5752 0.40946-2.5096 0.93202l-1.6666 0.93202-0.07862 1.6477-0.07861 1.6477-5.1404 0.1512-0.15122 5.1404h-5.0271l-0.08212-0.99218c-0.04516-0.54571-0.14865-0.99219-0.22997-0.99219s-0.8778 0.44648-1.77 0.99219l-1.6221 0.99218 3.4396 0.26459v5.0271h-5.0271l-0.07727-2.0505c-0.0425-1.1278-0.1436-2.0505-0.22466-2.0505-0.08106 0-1.2583 0.65378-2.616 1.4528-1.8088 1.0646-2.4913 1.6126-2.5535 2.0505-0.06885 0.48496-0.29885 0.62623-1.2196 0.74911-0.917 0.12238-1.4095 0.42277-2.5666 1.5656-1.2041 1.1892-1.4445 1.586-1.5111 2.4944l-0.0792 1.0803-5.2917 0.26458v5.0271h-5.0271l-0.15416-4.3948-1.1492 0.17232c-0.8872 0.13305-1.3823 0.0489-2.1719-0.36918-0.56249-0.29784-1.2311-0.60322-1.4857-0.67862-0.26071-0.0772-0.4676-0.40085-0.4735-0.74072-0.0058-0.33199-0.33574-1.4371-0.73329-2.4557l-0.72281-1.8521-3.6928-0.26458v-5.0271l0.7276-0.0837c0.40018-0.0461 0.7276-0.19362 0.7276-0.32795 0-0.13432-0.32742-1.0492-0.7276-2.033l-0.7276-1.7887-0.13229 1.9844-0.13229 1.9844h-5.0271v-5.0271l2.3151-0.0764c1.7394-0.0574 2.3151-0.16603 2.3151-0.43667 0-0.19813-0.46764-1.3772-1.0392-2.6203l-1.0392-2.26-2.5518-0.1628v-2.822c0-2.0984-0.078094-2.7571-0.30456-2.569-0.16751 0.13912-1.3581 0.21837-2.6458 0.17611l-2.3413-0.0768v-5.0269l1.7859-0.0782c1.3416-0.0588 1.7859-0.17301 1.7859-0.45914 0-0.20949-0.5-1.3891-1.1111-2.6213-0.91671-1.8484-1.2292-2.2541-1.7859-2.319-0.64948-0.0757-0.67735-0.15319-0.74178-2.063-0.11215-3.3241 0.043316-3.1434-2.7799-3.2312l-2.4448-0.076v-5.0271l1.5214-0.0794c1.7069-0.089 1.732-0.13427 1.1007-1.9871-0.28054-0.82335-0.83656-1.6103-1.6691-2.3622-0.68661-0.62018-1.3217-1.322-1.4112-1.5597-0.089576-0.23767-0.021304-1.3477 0.15172-2.4667l0.31458-2.0346 1.4512-1.0307c0.79816-0.56688 1.9487-1.3619 2.5567-1.7666 0.89529-0.59597 1.1217-0.91203 1.1906-1.662l0.085092-0.92604 2.3413-0.0768c1.4584-0.0479 2.4767 0.0356 2.7004 0.22121 0.19752 0.16393 0.49052 0.21684 0.65113 0.11758 0.19742-0.12201 0.15469-0.28088-0.1319-0.49044-0.34532-0.2525-0.40957-0.75053-0.34656-2.6866l0.077344-2.3766h5.0271l0.08076 1.4118c0.06901 1.2064 0.146 1.3852 0.52917 1.2293 0.24663-0.10034 1.3936-0.5145 2.5487-0.92036 1.4906-0.52371 2.1602-0.89977 2.3066-1.2955 0.18682-0.50503 0.41263-0.55792 2.3976-0.56159 1.2052-2e-3 2.3352-0.0954 2.5109-0.20717 0.20045-0.1274 0.3484-1.0876 0.39688-2.5756l0.07728-2.3725h5.0271l0.07823 1.7859c0.09097 2.0767-0.05278 2.0224 3.0968 1.1689l2.1167-0.5736 0.13229-1.1906 0.13229-1.1906 2.4695-0.0764c2.2956-0.071 2.4794-0.0384 2.6105 0.46302 0.17226 0.65871 0.52123 0.66905 2.5755 0.0764l1.6049-0.46302-3.9688-0.26459v-5.0271h5.0271l0.07608 2.4474c0.04184 1.3461 0.1609 2.4472 0.26458 2.447 0.65475-1e-3 4.6889-0.82241 4.8544-0.98811 0.11105-0.11119 0.23774-1.0356 0.28152-2.0542l0.07962-1.8521h5.0271l0.0794 1.5231c0.07367 1.413 0.12145 1.5141 0.66146 1.3995 0.32013-0.068 1.2964-0.25554 2.1696-0.4168 2.4858-0.45914 2.4753-0.45291 2.5645-1.5266l0.08134-0.97918 2.4695-0.0764c2.2956-0.071 2.4794-0.0384 2.6105 0.46302 0.07758 0.29667 0.21646 0.53728 0.30863 0.53469 1.5139-0.0425 4.9344-0.57304 5.2195-0.80963 0.25997-0.21575 1.2375-0.27487 3.1434-0.19011 2.0545 0.0914 2.6636 0.048 2.3674-0.16851-0.31488-0.23024-0.38244-0.79119-0.32135-2.6682l0.07734-2.3766h5.0271l0.1538 4.6921 0.82753-0.16551c0.45514-0.091 1.6362-0.24067 2.6246-0.33253l1.7971-0.16702 0.15322-4.027h5.0271l0.07877 1.6536 0.07877 1.6536 1.2441-0.0232c0.68428-0.0128 1.8395-0.10205 2.5671-0.19844l1.3229-0.17526 0.13229-1.4552 0.13229-1.4552h5.0271l0.08 1.3891 0.08 1.3891h1.0057c0.55313 0 1.7317-0.0759 2.619-0.16862l1.6133-0.16863 0.1584-2.4409h5.0271l0.08 1.3891 0.08 1.3891h5.2364l0.08-1.3891 0.08-1.3891 1.9323-0.078c2.2183-0.0896 2.1361 0.25082 0.79197-3.2805-0.75806-1.9916-0.79586-2.0373-1.7495-2.1167l-0.97473-0.0811-0.26458-5.2917h-5.0271v-5.0271l1.6536-0.0788c1.1027-0.0525 1.6536-0.18875 1.6536-0.40884 0-0.18154-0.33777-1.3367-0.75061-2.5671-0.72351-2.1562-0.7832-2.2418-1.6536-2.3693l-0.90304-0.13229-0.13229-2.6458-0.1323-2.6458h-5.0271v-5.0271h5.0271l0.1323 1.5875 0.13229 1.5875 0.59531-1.4243c0.73518-1.759 0.73518-1.8263 0-1.9307-0.56965-0.0809-0.59531-0.19289-0.59531-2.5981v-2.5135h5.0271l0.0768 2.3413c0.0422 1.2877-0.037 2.4783-0.17611 2.6458-0.18809 0.22647 0.47064 0.30456 2.569 0.30456h2.822l0.13229 1.7114c0.12922 1.6718 0.15884 1.7292 1.2775 2.4788 0.71468 0.47888 1.6587 0.83017 2.511 0.93439 1.2302 0.15043 1.3792 0.23979 1.5006 0.90026 0.10758 0.58516 0.61459 1.026 2.5103 2.1828 1.3065 0.79726 2.4626 1.4496 2.569 1.4496 0.10643 0 0.22808-0.98227 0.27035-2.1828l0.0768-2.1828h5.0271v5.0271l-1.9844 0.13229c-1.9487 0.12991-1.9725 0.1401-1.3229 0.56614 1.6672 1.0935 2.9213 1.8151 3.1545 1.8151 0.14005 0 0.29124-0.50602 0.33599-1.1245l0.0814-1.1245h5.0271l0.0768 2.3413c0.0423 1.2877-0.037 2.4783-0.17611 2.6458-0.18808 0.22647 0.47064 0.30456 2.569 0.30456h2.822l0.13229 1.971c0.12886 1.9198 0.15635 1.9851 1.0583 2.5135 0.52974 0.31034 1.6054 0.59913 2.5136 0.67481 1.5803 0.13169 1.5881 0.13647 1.7198 1.0563 0.11886 0.83021 0.36058 1.0631 2.3812 2.2946 1.2369 0.75386 2.3932 1.3798 2.5694 1.3911 0.22259 0.0142 0.34376-0.68635 0.39687-2.2946l0.0764-2.3151h5.0271v5.0271l-4.4979 0.26459 2.0599 1.2568c1.133 0.69122 2.1682 1.2568 2.3006 1.2568 0.13238 0 0.27699-0.56555 0.32134-1.2568l0.0806-1.2568h5.0271l0.0773 2.3766c0.063 1.936-1e-3 2.4341-0.34656 2.6866-0.28659 0.20955-0.32932 0.36842-0.1319 0.49043 0.1606 0.0993 0.45361 0.0463 0.65113-0.11757 0.22369-0.18566 1.242-0.26907 2.7004-0.22122l2.3413 0.0768 0.0781 1.7818 0.0781 1.7818 1.1867 0.69547c0.6527 0.3825 1.8029 0.77131 2.556 0.86402 1.1772 0.14491 1.391 0.26096 1.5246 0.82743 0.1151 0.48831 0.73462 0.98189 2.393 1.9065 1.2307 0.68621 2.3812 1.2529 2.5568 1.2594 0.21402 8e-3 0.34474-0.62011 0.39687-1.9065l0.0777-1.9182h5.0271v5.0271l-2.8377 0.26459 1.4685 0.71662 1.4685 0.71663 0.0827-0.71663 0.0827-0.71662h5.0271l0.0765 2.0064 0.0765 2.0064 0.98186 0.47867c0.54001 0.26328 1.6962 0.551 2.5694 0.63939 1.3548 0.13716 1.5992 0.24299 1.6676 0.72214 0.0508 0.35614 0.45204 0.72914 1.0973 1.0201 0.55944 0.25228 1.714 0.92216 2.5657 1.4886l1.5486 1.03 0.13229-2.0501 0.1323-2.05h5.0271v5.0271l-4.8983 0.1522 0.0313 1.1145c0.0172 0.61299-0.0713 1.7694-0.19666 2.5697-0.20017 1.2777-0.30865 1.466-0.88944 1.5433-0.3638 0.0484-1.0186 0.42411-1.4552 0.83479-0.43657 0.41068-1.27 0.96658-1.8521 1.2353-0.99134 0.45772-1.0667 0.57237-1.1906 1.811l-0.13229 1.3224-5.0271 0.26458-0.13229 2.5135-0.13229 2.5136h-5.0271l-0.0821-0.99219c-0.0452-0.5457-0.20635-0.99219-0.35819-0.99219-0.15183 0-1.1269 0.44649-2.1668 0.99219l-1.8908 0.99219 4.2333 0.26458v5.0271h-5.0271l-0.26458-4.718-2.5797 2.1876c-1.4188 1.2032-2.5797 2.2754-2.5797 2.3827 0 0.10731-0.27184 0.31898-0.6041 0.47036-0.33225 0.15139-1.5145 0.99868-2.6271 1.8829-1.5278 1.2141-2.0438 1.7886-2.1079 2.3469-0.0744 0.6487-0.21987 0.7573-1.1868 0.88637-0.80674 0.10768-1.4941 0.48209-2.5655 1.3974-1.347 1.1508-1.4699 1.3498-1.5438 2.4987l-0.0803 1.2484-1.7198 0.13229c-1.2132 0.0933-1.9698 0.31059-2.5683 0.73751-0.8039 0.57341-0.85256 0.70549-0.92602 2.5135l-0.0775 1.9083-2.291 0.0761c-1.4371 0.0477-2.3943 0.20057-2.5681 0.41006-0.15244 0.18368-0.31213 1.3401-0.35486 2.5697l-0.0777 2.2358-5.0271 0.26458-0.13229 2.5136-0.13229 2.5135-2.2358 0.0777c-1.2297 0.0427-2.386 0.20243-2.5697 0.35487-0.20949 0.17386-0.36233 1.1311-0.41007 2.5681l-0.0761 2.291-1.8823 0.077c-2.5577 0.10464-3.0908 0.64412-3.2771 3.3168l-0.13229 1.8978-1.3728 0.13811c-0.75506 0.076-1.4258 0.19502-1.4906 0.26458-0.66584 0.71526-2.296 3.6566-2.296 4.1428 0 0.40715-0.20918 0.70651-0.5966 0.85381-0.56259 0.2139-3.1076 4.3056-3.1076 4.9962 0 0.18125 0.69215 0.32627 1.7859 0.37418l1.7859 0.0782v5.0271l-2.3941 0.0754c-1.3167 0.0415-2.4776-8e-3 -2.5797-0.11024zm10.514-0.1757c-0.0766-0.19955-0.10433-1.3649-0.0617-2.5897l0.0776-2.2268h5.0271v5.0271l-2.4519 0.0761c-1.8866 0.0586-2.484-8e-3 -2.5911-0.2867zm10.583 0c-0.0766-0.19955-0.10433-1.3649-0.0617-2.5897l0.0776-2.2268h5.0271v5.0271l-2.4519 0.0761c-1.8866 0.0586-2.484-8e-3 -2.5911-0.2867zm10.583 0c-0.0766-0.19955-0.10433-1.3649-0.0617-2.5897l0.0776-2.2268h5.0271v5.0271l-2.4519 0.0761c-1.8866 0.0586-2.484-8e-3 -2.5911-0.2867zm10.583 0c-0.0766-0.19955-0.10433-1.3649-0.0617-2.5897l0.0776-2.2268h5.0271v5.0271l-2.4519 0.0761c-1.8866 0.0586-2.484-8e-3 -2.5911-0.2867zm10.583 0c-0.0766-0.19955-0.10433-1.3649-0.0617-2.5897l0.0776-2.2268h5.0271v5.0271l-2.4519 0.0761c-1.8866 0.0586-2.484-8e-3 -2.5911-0.2867zm10.583 0c-0.0766-0.19955-0.10433-1.3649-0.0617-2.5897l0.0776-2.2268h5.0271v5.0271l-2.4519 0.0761c-1.8866 0.0586-2.484-8e-3 -2.5911-0.2867zm10.583 0c-0.0766-0.19955-0.10433-1.3649-0.0617-2.5897l0.0776-2.2268h5.0271v5.0271l-2.4519 0.0761c-1.8866 0.0586-2.484-8e-3 -2.5911-0.2867zm-216.96-5.2916c-0.076578-0.19956-0.10433-1.3649-0.061675-2.5897l0.077558-2.2268h5.0271v5.0271l-2.4519 0.0761c-1.8866 0.0586-2.484-8e-3 -2.5911-0.2867zm10.583 0c-0.076578-0.19956-0.10433-1.3649-0.061675-2.5897l0.077558-2.2268h5.0271v5.0271l-2.4519 0.0761c-1.8866 0.0586-2.484-8e-3 -2.5911-0.2867zm10.583 0c-0.07658-0.19956-0.10433-1.3649-0.06168-2.5897l0.07756-2.2268h5.0271v5.0271l-2.4519 0.0761c-1.8866 0.0586-2.484-8e-3 -2.5911-0.2867zm21.167 0c-0.07658-0.19956-0.10433-1.3649-0.06167-2.5897l0.07756-2.2268h5.0271v5.0271l-2.4519 0.0761c-1.8866 0.0586-2.484-8e-3 -2.5911-0.2867zm10.583 0c-0.07658-0.19956-0.10433-1.3649-0.06167-2.5897l0.07756-2.2268h5.0271v5.0271l-2.4519 0.0761c-1.8866 0.0586-2.484-8e-3 -2.5911-0.2867zm10.583 0c-0.07658-0.19956-0.10433-1.3649-0.06167-2.5897l0.07756-2.2268h5.0271v5.0271l-2.4519 0.0761c-1.8866 0.0586-2.484-8e-3 -2.5911-0.2867zm10.583 0c-0.07658-0.19956-0.10433-1.3649-0.06168-2.5897l0.07756-2.2268h5.0271v5.0271l-2.4519 0.0761c-1.8866 0.0586-2.484-8e-3 -2.5911-0.2867zm10.583 0c-0.07658-0.19956-0.10433-1.3649-0.06167-2.5897l0.07756-2.2268h5.0271v5.0271l-2.4519 0.0761c-1.8866 0.0586-2.484-8e-3 -2.5911-0.2867zm10.583 0c-0.07658-0.19956-0.10433-1.3649-0.06167-2.5897l0.07756-2.2268h5.0271v5.0271l-2.4519 0.0761c-1.8866 0.0586-2.484-8e-3 -2.5911-0.2867zm10.583 0c-0.07658-0.19956-0.10433-1.3649-0.06167-2.5897l0.07756-2.2268h5.0271v5.0271l-2.4519 0.0761c-1.8866 0.0586-2.484-8e-3 -2.5911-0.2867zm10.583 0c-0.0766-0.19956-0.10433-1.3649-0.0617-2.5897l0.0776-2.2268h5.0271v5.0271l-2.4519 0.0761c-1.8866 0.0586-2.484-8e-3 -2.5911-0.2867zm10.583 0c-0.0766-0.19956-0.10433-1.3649-0.0617-2.5897l0.0775-2.2268h5.0271v5.0271l-2.4519 0.0761c-1.8866 0.0586-2.484-8e-3 -2.5911-0.2867zm21.167 0c-0.0766-0.19956-0.10433-1.3649-0.0617-2.5897l0.0776-2.2268h5.0271v5.0271l-2.4519 0.0761c-1.8866 0.0586-2.484-8e-3 -2.5911-0.2867zm10.583 0c-0.0766-0.19956-0.10433-1.3649-0.0617-2.5897l0.0776-2.2268h5.0271v5.0271l-2.4519 0.0761c-1.8866 0.0586-2.484-8e-3 -2.5911-0.2867zm10.583 0c-0.0766-0.19956-0.10433-1.3649-0.0617-2.5897l0.0776-2.2268h5.0271v5.0271l-2.4519 0.0761c-1.8866 0.0586-2.484-8e-3 -2.5911-0.2867zm10.583 0c-0.0766-0.19956-0.10433-1.3649-0.0617-2.5897l0.0776-2.2268h5.0271v5.0271l-2.4519 0.0761c-1.8866 0.0586-2.484-8e-3 -2.5911-0.2867zm10.583 0c-0.0766-0.19956-0.10433-1.3649-0.0617-2.5897l0.0776-2.2268h5.0271v5.0271l-2.4519 0.0761c-1.8866 0.0586-2.484-8e-3 -2.5911-0.2867zm10.583 0c-0.0766-0.19956-0.10433-1.3649-0.0617-2.5897l0.0776-2.2268h5.0271v5.0271l-2.4519 0.0761c-1.8866 0.0586-2.484-8e-3 -2.5911-0.2867zm10.583 0c-0.0766-0.19956-0.10433-1.3649-0.0617-2.5897l0.0776-2.2268h5.0271v5.0271l-2.4519 0.0761c-1.8866 0.0586-2.484-8e-3 -2.5911-0.2867zm10.58-0.01c-0.0745-0.19407-0.1005-1.3549-0.0579-2.5797l0.0776-2.2268 5.1594-0.1514v5.3108h-2.5218c-1.8577 0-2.5575-0.0929-2.6572-0.35285zm-227.65-7.5846v-2.665l5.1594 0.1514v5.0271l-5.1594 0.1514zm10.7 2.303c-0.076578-0.19956-0.10433-1.3649-0.061675-2.5897l0.077558-2.2268h5.0271v5.0271l-2.4519 0.0761c-1.8866 0.0586-2.484-8e-3 -2.5911-0.2867zm10.583 0c-0.076578-0.19956-0.10433-1.3649-0.061675-2.5897l0.077558-2.2268h5.0271v5.0271l-2.4519 0.0761c-1.8866 0.0586-2.484-8e-3 -2.5911-0.2867zm31.75 0c-0.07658-0.19956-0.10433-1.3649-0.06168-2.5897l0.07756-2.2268h5.0271v5.0271l-2.4519 0.0761c-1.8866 0.0586-2.484-8e-3 -2.5911-0.2867zm10.583 0c-0.07658-0.19956-0.10433-1.3649-0.06168-2.5897l0.07756-2.2268h5.0271v5.0271l-2.4519 0.0761c-1.8866 0.0586-2.484-8e-3 -2.5911-0.2867zm10.583 0c-0.07658-0.19956-0.10433-1.3649-0.06167-2.5897l0.07756-2.2268h5.0271v5.0271l-2.4519 0.0761c-1.8866 0.0586-2.484-8e-3 -2.5911-0.2867zm10.583 0c-0.07658-0.19956-0.10433-1.3649-0.06167-2.5897l0.07756-2.2268h5.0271v5.0271l-2.4519 0.0761c-1.8866 0.0586-2.484-8e-3 -2.5911-0.2867zm10.583 0c-0.07658-0.19956-0.10433-1.3649-0.06167-2.5897l0.07756-2.2268h5.0271v5.0271l-2.4519 0.0761c-1.8866 0.0586-2.484-8e-3 -2.5911-0.2867zm10.583 0c-0.07658-0.19956-0.10433-1.3649-0.06167-2.5897l0.07756-2.2268h5.0271v5.0271l-2.4519 0.0761c-1.8866 0.0586-2.484-8e-3 -2.5911-0.2867zm10.583 0c-0.0766-0.19956-0.10433-1.3649-0.0617-2.5897l0.0775-2.2268h5.0271v5.0271l-2.4519 0.0761c-1.8866 0.0586-2.484-8e-3 -2.5911-0.2867zm10.583 0c-0.0766-0.19956-0.10433-1.3649-0.0617-2.5897l0.0776-2.2268h5.0271v5.0271l-2.4519 0.0761c-1.8866 0.0586-2.484-8e-3 -2.5911-0.2867zm31.75 0c-0.0766-0.19956-0.10433-1.3649-0.0617-2.5897l0.0776-2.2268h5.0271v5.0271l-2.4519 0.0761c-1.8866 0.0586-2.484-8e-3 -2.5911-0.2867zm10.583 0c-0.0766-0.19956-0.10433-1.3649-0.0617-2.5897l0.0776-2.2268h5.0271v5.0271l-2.4519 0.0761c-1.8866 0.0586-2.484-8e-3 -2.5911-0.2867zm10.583 0c-0.0766-0.19956-0.10433-1.3649-0.0617-2.5897l0.0776-2.2268h5.0271v5.0271l-2.4519 0.0761c-1.8866 0.0586-2.484-8e-3 -2.5911-0.2867zm10.583 0c-0.0766-0.19956-0.10433-1.3649-0.0617-2.5897l0.0776-2.2268h5.0271v5.0271l-2.4519 0.0761c-1.8866 0.0586-2.484-8e-3 -2.5911-0.2867zm10.583 0c-0.0766-0.19956-0.10433-1.3649-0.0617-2.5897l0.0776-2.2268h5.0271v5.0271l-2.4519 0.0761c-1.8866 0.0586-2.484-8e-3 -2.5911-0.2867zm10.583 0c-0.0766-0.19956-0.10433-1.3649-0.0617-2.5897l0.0776-2.2268h5.0271v5.0271l-2.4519 0.0761c-1.8866 0.0586-2.484-8e-3 -2.5911-0.2867zm10.583 0c-0.0766-0.19956-0.10433-1.3649-0.0617-2.5897l0.0776-2.2268h5.0271v5.0271l-2.4519 0.0761c-1.8866 0.0586-2.484-8e-3 -2.5911-0.2867zm-216.96-5.2917c-0.076578-0.19955-0.10433-1.3649-0.061675-2.5897l0.077558-2.2268h5.0271v5.0271l-2.4519 0.0761c-1.8866 0.0586-2.484-8e-3 -2.5911-0.2867zm10.583 0c-0.076578-0.19955-0.10433-1.3649-0.061675-2.5897l0.077558-2.2268h5.0271v5.0271l-2.4519 0.0761c-1.8866 0.0586-2.484-8e-3 -2.5911-0.2867zm52.917 0c-0.07658-0.19955-0.10433-1.3649-0.06167-2.5897l0.07756-2.2268h5.0271v5.0271l-2.4519 0.0761c-1.8866 0.0586-2.484-8e-3 -2.5911-0.2867zm10.583 0c-0.07658-0.19955-0.10433-1.3649-0.06168-2.5897l0.07756-2.2268h5.0271v5.0271l-2.4519 0.0761c-1.8866 0.0586-2.484-8e-3 -2.5911-0.2867zm10.583 0c-0.07658-0.19955-0.10433-1.3649-0.06167-2.5897l0.07756-2.2268h5.0271v5.0271l-2.4519 0.0761c-1.8866 0.0586-2.484-8e-3 -2.5911-0.2867zm10.583 0c-0.07658-0.19955-0.10433-1.3649-0.06167-2.5897l0.07756-2.2268h5.0271v5.0271l-2.4519 0.0761c-1.8866 0.0586-2.484-8e-3 -2.5911-0.2867zm10.583 0c-0.07658-0.19955-0.10433-1.3649-0.06167-2.5897l0.07756-2.2268h5.0271v5.0271l-2.4519 0.0761c-1.8866 0.0586-2.484-8e-3 -2.5911-0.2867zm10.583 0c-0.0766-0.19955-0.10433-1.3649-0.0617-2.5897l0.0776-2.2268h5.0271v5.0271l-2.4519 0.0761c-1.8866 0.0586-2.484-8e-3 -2.5911-0.2867zm10.583 0c-0.0766-0.19955-0.10433-1.3649-0.0617-2.5897l0.0775-2.2268h5.0271v5.0271l-2.4519 0.0761c-1.8866 0.0586-2.484-8e-3 -2.5911-0.2867zm31.75 0c-0.0766-0.19955-0.10433-1.3649-0.0617-2.5897l0.0776-2.2268h5.0271v5.0271l-2.4519 0.0761c-1.8866 0.0586-2.484-8e-3 -2.5911-0.2867zm10.583 0c-0.0766-0.19955-0.10433-1.3649-0.0617-2.5897l0.0776-2.2268h5.0271v5.0271l-2.4519 0.0761c-1.8866 0.0586-2.484-8e-3 -2.5911-0.2867zm10.583 0c-0.0766-0.19955-0.10433-1.3649-0.0617-2.5897l0.0776-2.2268h5.0271v5.0271l-2.4519 0.0761c-1.8866 0.0586-2.484-8e-3 -2.5911-0.2867zm10.583 0c-0.0766-0.19955-0.10433-1.3649-0.0617-2.5897l0.0776-2.2268h5.0271v5.0271l-2.4519 0.0761c-1.8866 0.0586-2.484-8e-3 -2.5911-0.2867zm10.583 0c-0.0766-0.19955-0.10433-1.3649-0.0617-2.5897l0.0776-2.2268h5.0271v5.0271l-2.4519 0.0761c-1.8866 0.0586-2.484-8e-3 -2.5911-0.2867zm10.583 0c-0.0766-0.19955-0.10433-1.3649-0.0617-2.5897l0.0776-2.2268h5.0271v5.0271l-2.4519 0.0761c-1.8866 0.0586-2.484-8e-3 -2.5911-0.2867zm10.58-0.01c-0.0745-0.19406-0.1005-1.3549-0.0579-2.5797l0.0776-2.2268 5.1594-0.1514v5.3108h-2.5218c-1.8577 0-2.5575-0.0929-2.6572-0.35284zm-227.65-7.5846v-2.665l5.1594 0.1514v5.0271l-5.1594 0.1514zm10.7 2.303c-0.076578-0.19956-0.10433-1.3649-0.061675-2.5897l0.077558-2.2268h5.0271v5.0271l-2.4519 0.0761c-1.8866 0.0586-2.484-8e-3 -2.5911-0.2867zm63.5 0c-0.07658-0.19956-0.10433-1.3649-0.06167-2.5897l0.07756-2.2268h5.0271v5.0271l-2.4519 0.0761c-1.8866 0.0586-2.484-8e-3 -2.5911-0.2867zm10.583 0c-0.07658-0.19956-0.10433-1.3649-0.06167-2.5897l0.07756-2.2268h5.0271v5.0271l-2.4519 0.0761c-1.8866 0.0586-2.484-8e-3 -2.5911-0.2867zm10.583 0c-0.07658-0.19956-0.10433-1.3649-0.06167-2.5897l0.07756-2.2268h5.0271v5.0271l-2.4519 0.0761c-1.8866 0.0586-2.484-8e-3 -2.5911-0.2867zm10.583 0c-0.07658-0.19956-0.10433-1.3649-0.06167-2.5897l0.07756-2.2268h5.0271v5.0271l-2.4519 0.0761c-1.8866 0.0586-2.484-8e-3 -2.5911-0.2867zm10.583 0c-0.0766-0.19956-0.10433-1.3649-0.0617-2.5897l0.0775-2.2268h5.0271v5.0271l-2.4519 0.0761c-1.8866 0.0586-2.484-8e-3 -2.5911-0.2867zm10.583 0c-0.0766-0.19956-0.10433-1.3649-0.0617-2.5897l0.0776-2.2268h5.0271v5.0271l-2.4519 0.0761c-1.8866 0.0586-2.484-8e-3 -2.5911-0.2867zm42.333 0c-0.0766-0.19956-0.10433-1.3649-0.0617-2.5897l0.0776-2.2268h5.0271v5.0271l-2.4519 0.0761c-1.8866 0.0586-2.484-8e-3 -2.5911-0.2867zm10.583 0c-0.0766-0.19956-0.10433-1.3649-0.0617-2.5897l0.0776-2.2268h5.0271v5.0271l-2.4519 0.0761c-1.8866 0.0586-2.484-8e-3 -2.5911-0.2867zm10.583 0c-0.0766-0.19956-0.10433-1.3649-0.0617-2.5897l0.0776-2.2268h5.0271v5.0271l-2.4519 0.0761c-1.8866 0.0586-2.484-8e-3 -2.5911-0.2867zm10.583 0c-0.0766-0.19956-0.10433-1.3649-0.0617-2.5897l0.0776-2.2268h5.0271v5.0271l-2.4519 0.0761c-1.8866 0.0586-2.484-8e-3 -2.5911-0.2867zm10.583 0c-0.0766-0.19956-0.10433-1.3649-0.0617-2.5897l0.0776-2.2268h5.0271v5.0271l-2.4519 0.0761c-1.8866 0.0586-2.484-8e-3 -2.5911-0.2867zm10.583 0c-0.0766-0.19956-0.10433-1.3649-0.0617-2.5897l0.0776-2.2268h5.0271v5.0271l-2.4519 0.0761c-1.8866 0.0586-2.484-8e-3 -2.5911-0.2867zm-216.96-5.2917c-0.076578-0.19956-0.10433-1.3649-0.061675-2.5897l0.077558-2.2268h5.0271v5.0271l-2.4519 0.0761c-1.8866 0.0586-2.484-8e-3 -2.5911-0.2867zm10.583 0c-0.076578-0.19956-0.10433-1.3649-0.061675-2.5897l0.077558-2.2268h5.0271v5.0271l-2.4519 0.0761c-1.8866 0.0586-2.484-8e-3 -2.5911-0.2867zm63.5 0c-0.07658-0.19956-0.10433-1.3649-0.06168-2.5897l0.07756-2.2268h5.0271v5.0271l-2.4519 0.0761c-1.8866 0.0586-2.484-8e-3 -2.5911-0.2867zm10.583 0c-0.07658-0.19956-0.10433-1.3649-0.06167-2.5897l0.07756-2.2268h5.0271v5.0271l-2.4519 0.0761c-1.8866 0.0586-2.484-8e-3 -2.5911-0.2867zm10.583 0c-0.07658-0.19956-0.10433-1.3649-0.06167-2.5897l0.07756-2.2268h5.0271v5.0271l-2.4519 0.0761c-1.8866 0.0586-2.484-8e-3 -2.5911-0.2867zm10.583 0c-0.07658-0.19956-0.10433-1.3649-0.06167-2.5897l0.07756-2.2268h5.0271v5.0271l-2.4519 0.0761c-1.8866 0.0586-2.484-8e-3 -2.5911-0.2867zm10.583 0c-0.0766-0.19956-0.10433-1.3649-0.0617-2.5897l0.0776-2.2268h5.0271v5.0271l-2.4519 0.0761c-1.8866 0.0586-2.484-8e-3 -2.5911-0.2867zm10.583 0c-0.0766-0.19956-0.10433-1.3649-0.0617-2.5897l0.0775-2.2268h5.0271v5.0271l-2.4519 0.0761c-1.8866 0.0586-2.484-8e-3 -2.5911-0.2867zm42.333 0c-0.0766-0.19956-0.10433-1.3649-0.0617-2.5897l0.0776-2.2268h5.0271v5.0271l-2.4519 0.0761c-1.8866 0.0586-2.484-8e-3 -2.5911-0.2867zm10.583 0c-0.0766-0.19956-0.10433-1.3649-0.0617-2.5897l0.0776-2.2268h5.0271v5.0271l-2.4519 0.0761c-1.8866 0.0586-2.484-8e-3 -2.5911-0.2867zm10.583 0c-0.0766-0.19956-0.10433-1.3649-0.0617-2.5897l0.0776-2.2268h5.0271v5.0271l-2.4519 0.0761c-1.8866 0.0586-2.484-8e-3 -2.5911-0.2867zm10.583 0c-0.0766-0.19956-0.10433-1.3649-0.0617-2.5897l0.0776-2.2268h5.0271v5.0271l-2.4519 0.0761c-1.8866 0.0586-2.484-8e-3 -2.5911-0.2867zm10.583 0c-0.0766-0.19956-0.10433-1.3649-0.0617-2.5897l0.0776-2.2268h5.0271v5.0271l-2.4519 0.0761c-1.8866 0.0586-2.484-8e-3 -2.5911-0.2867zm10.58-0.01c-0.0745-0.19406-0.1005-1.3549-0.0579-2.5797l0.0776-2.2268 5.1594-0.1514v5.3108h-2.5218c-1.8577 0-2.5575-0.0929-2.6572-0.35285zm-227.65-7.5846v-2.665l5.1594 0.1514v5.0271l-5.1594 0.1514zm10.7 2.303c-0.076578-0.19956-0.10433-1.3649-0.061675-2.5897l0.077558-2.2268h5.0271v5.0271l-2.4519 0.0761c-1.8866 0.0586-2.484-8e-3 -2.5911-0.2867zm84.667 0c-0.07658-0.19956-0.10433-1.3649-0.06167-2.5897l0.07756-2.2268h5.0271v5.0271l-2.4519 0.0761c-1.8866 0.0586-2.484-8e-3 -2.5911-0.2867zm10.583 0c-0.07658-0.19956-0.10433-1.3649-0.06167-2.5897l0.07756-2.2268h5.0271v5.0271l-2.4519 0.0761c-1.8866 0.0586-2.484-8e-3 -2.5911-0.2867zm10.583 0c-0.0766-0.19956-0.10433-1.3649-0.0617-2.5897l0.0775-2.2268h5.0271v5.0271l-2.4519 0.0761c-1.8866 0.0586-2.484-8e-3 -2.5911-0.2867zm10.583 0c-0.0766-0.19956-0.10433-1.3649-0.0617-2.5897l0.0776-2.2268h5.0271v5.0271l-2.4519 0.0761c-1.8866 0.0586-2.484-8e-3 -2.5911-0.2867zm52.917 0c-0.0766-0.19956-0.10433-1.3649-0.0617-2.5897l0.0776-2.2268h5.0271v5.0271l-2.4519 0.0761c-1.8866 0.0586-2.484-8e-3 -2.5911-0.2867zm10.583 0c-0.0766-0.19956-0.10433-1.3649-0.0617-2.5897l0.0776-2.2268h5.0271v5.0271l-2.4519 0.0761c-1.8866 0.0586-2.484-8e-3 -2.5911-0.2867zm10.583 0c-0.0766-0.19956-0.10433-1.3649-0.0617-2.5897l0.0776-2.2268h5.0271v5.0271l-2.4519 0.0761c-1.8866 0.0586-2.484-8e-3 -2.5911-0.2867zm10.583 0c-0.0766-0.19956-0.10433-1.3649-0.0617-2.5897l0.0776-2.2268h5.0271v5.0271l-2.4519 0.0761c-1.8866 0.0586-2.484-8e-3 -2.5911-0.2867zm10.583 0c-0.0766-0.19956-0.10433-1.3649-0.0617-2.5897l0.0776-2.2268h5.0271v5.0271l-2.4519 0.0761c-1.8866 0.0586-2.484-8e-3 -2.5911-0.2867zm-216.96-5.2917c-0.076578-0.19956-0.10433-1.3649-0.061675-2.5897l0.077558-2.2268h5.0271v5.0271l-2.4519 0.0761c-1.8866 0.0586-2.484-8e-3 -2.5911-0.2867zm105.83 0c-0.07658-0.19956-0.10433-1.3649-0.06167-2.5897l0.07756-2.2268h5.0271v5.0271l-2.4519 0.0761c-1.8866 0.0586-2.484-8e-3 -2.5911-0.2867zm10.583 0c-0.0766-0.19956-0.10433-1.3649-0.0617-2.5897l0.0776-2.2268h5.0271v5.0271l-2.4519 0.0761c-1.8866 0.0586-2.484-8e-3 -2.5911-0.2867zm10.583 0c-0.0766-0.19956-0.10433-1.3649-0.0617-2.5897l0.0775-2.2268h5.0271v5.0271l-2.4519 0.0761c-1.8866 0.0586-2.484-8e-3 -2.5911-0.2867zm52.917 0c-0.0766-0.19956-0.10433-1.3649-0.0617-2.5897l0.0776-2.2268h5.0271v5.0271l-2.4519 0.0761c-1.8866 0.0586-2.484-8e-3 -2.5911-0.2867zm10.583 0c-0.0766-0.19956-0.10433-1.3649-0.0617-2.5897l0.0776-2.2268h5.0271v5.0271l-2.4519 0.0761c-1.8866 0.0586-2.484-8e-3 -2.5911-0.2867zm10.583 0c-0.0766-0.19956-0.10433-1.3649-0.0617-2.5897l0.0776-2.2268h5.0271v5.0271l-2.4519 0.0761c-1.8866 0.0586-2.484-8e-3 -2.5911-0.2867zm10.583 0c-0.0766-0.19956-0.10433-1.3649-0.0617-2.5897l0.0776-2.2268h5.0271v5.0271l-2.4519 0.0761c-1.8866 0.0586-2.484-8e-3 -2.5911-0.2867zm10.58-0.01c-0.0745-0.19407-0.1005-1.3549-0.0579-2.5797l0.0776-2.2268 5.1594-0.1514v5.3108h-2.5218c-1.8577 0-2.5575-0.0929-2.6572-0.35284zm-227.65-7.5846v-2.665l5.1594 0.1514v5.0271l-5.1594 0.1514zm10.7 2.303c-0.076578-0.19956-0.10433-1.3649-0.061675-2.5897l0.077558-2.2268h5.0271v5.0271l-2.4519 0.0761c-1.8866 0.0586-2.484-8e-3 -2.5911-0.2867zm116.42 0c-0.0766-0.19956-0.10433-1.3649-0.0617-2.5897l0.0776-2.2268h5.0271v5.0271l-2.4519 0.0761c-1.8866 0.0586-2.484-8e-3 -2.5911-0.2867zm63.5 0c-0.0766-0.19956-0.10433-1.3649-0.0617-2.5897l0.0776-2.2268h5.0271v5.0271l-2.4519 0.0761c-1.8866 0.0586-2.484-8e-3 -2.5911-0.2867zm10.583 0c-0.0766-0.19956-0.10433-1.3649-0.0617-2.5897l0.0776-2.2268h5.0271v5.0271l-2.4519 0.0761c-1.8866 0.0586-2.484-8e-3 -2.5911-0.2867zm10.583 0c-0.0766-0.19956-0.10433-1.3649-0.0617-2.5897l0.0776-2.2268h5.0271v5.0271l-2.4519 0.0761c-1.8866 0.0586-2.484-8e-3 -2.5911-0.2867zm10.583 0c-0.0766-0.19956-0.10433-1.3649-0.0617-2.5897l0.0776-2.2268h5.0271v5.0271l-2.4519 0.0761c-1.8866 0.0586-2.484-8e-3 -2.5911-0.2867zm-216.96-5.2917c-0.076578-0.19956-0.10433-1.3649-0.061675-2.5897l0.077558-2.2268h5.0271v5.0271l-2.4519 0.0761c-1.8866 0.0586-2.484-8e-3 -2.5911-0.2867zm190.5 0c-0.0766-0.19956-0.10433-1.3649-0.0617-2.5897l0.0776-2.2268h5.0271v5.0271l-2.4519 0.0761c-1.8866 0.0586-2.484-8e-3 -2.5911-0.2867zm10.583 0c-0.0766-0.19956-0.10433-1.3649-0.0617-2.5897l0.0776-2.2268h5.0271v5.0271l-2.4519 0.0761c-1.8866 0.0586-2.484-8e-3 -2.5911-0.2867zm10.583 0c-0.0766-0.19956-0.10433-1.3649-0.0617-2.5897l0.0776-2.2268h5.0271v5.0271l-2.4519 0.0761c-1.8866 0.0586-2.484-8e-3 -2.5911-0.2867zm10.58-0.01c-0.0745-0.19406-0.1005-1.3549-0.0579-2.5797l0.0776-2.2268 5.1594-0.1514v5.3108h-2.5218c-1.8577 0-2.5575-0.0929-2.6572-0.35284zm-227.65-7.5846v-2.665l5.1594 0.1514v5.0271l-5.1594 0.1514zm211.78 2.303c-0.0766-0.19956-0.10433-1.3649-0.0617-2.5897l0.0776-2.2268h5.0271v5.0271l-2.4519 0.0761c-1.8866 0.0586-2.484-8e-3 -2.5911-0.2867zm10.583 0c-0.0766-0.19956-0.10433-1.3649-0.0617-2.5897l0.0776-2.2268h5.0271v5.0271l-2.4519 0.0761c-1.8866 0.0586-2.484-8e-3 -2.5911-0.2867zm-216.96-5.2917c-0.076578-0.19956-0.10433-1.3649-0.061675-2.5897l0.077558-2.2268h5.0271v5.0271l-2.4519 0.0761c-1.8866 0.0586-2.484-8e-3 -2.5911-0.2867zm211.67 0c-0.0766-0.19956-0.10433-1.3649-0.0617-2.5897l0.0776-2.2268h5.0271v5.0271l-2.4519 0.0761c-1.8866 0.0586-2.484-8e-3 -2.5911-0.2867zm10.58-0.01c-0.0745-0.19407-0.1005-1.3549-0.0579-2.5797l0.0776-2.2268 5.1594-0.1514v5.3108h-2.5218c-1.8577 0-2.5575-0.0929-2.6572-0.35285zm-227.65-7.5846v-2.665l5.1594 0.1514v5.0271l-5.1594 0.1514zm222.37 2.303c-0.0766-0.19956-0.10433-1.3649-0.0617-2.5897l0.0776-2.2268h5.0271v5.0271l-2.4519 0.0761c-1.8866 0.0586-2.484-8e-3 -2.5911-0.2867zm-216.96-5.2917c-0.076578-0.19956-0.10433-1.3649-0.061675-2.5897l0.077558-2.2268h5.0271v5.0271l-2.4519 0.0761c-1.8866 0.0586-2.484-8e-3 -2.5911-0.2867zm222.25-0.01c-0.0745-0.19407-0.1005-1.3549-0.0579-2.5797l0.0776-2.2268 5.1594-0.1514v5.3108h-2.5218c-1.8577 0-2.5575-0.0929-2.6572-0.35284zm-227.65-7.5846v-2.665l5.1594 0.1514v5.0271l-5.1594 0.1514zm10.7 2.303c-0.076578-0.19956-0.10433-1.3649-0.061675-2.5897l0.077558-2.2268h5.0271v5.0271l-2.4519 0.0761c-1.8866 0.0586-2.484-8e-3 -2.5911-0.2867zm-5.2917-5.2917c-0.076578-0.19956-0.10433-1.3649-0.061675-2.5897l0.077558-2.2268h5.0271v5.0271l-2.4519 0.0761c-1.8866 0.0586-2.484-8e-3 -2.5911-0.2867zm10.583 0c-0.076578-0.19956-0.10433-1.3649-0.061675-2.5897l0.077558-2.2268h5.0271v5.0271l-2.4519 0.0761c-1.8866 0.0586-2.484-8e-3 -2.5911-0.2867zm10.583 0c-0.07658-0.19956-0.10433-1.3649-0.06168-2.5897l0.07756-2.2268h5.0271v5.0271l-2.4519 0.0761c-1.8866 0.0586-2.484-8e-3 -2.5911-0.2867zm190.5 0c-0.0766-0.19956-0.10433-1.3649-0.0617-2.5897l0.0776-2.2268h5.0271v5.0271l-2.4519 0.0761c-1.8866 0.0586-2.484-8e-3 -2.5911-0.2867zm10.58-0.01c-0.0745-0.19407-0.1005-1.3549-0.0579-2.5797l0.0776-2.2268 5.1594-0.1514v5.3108h-2.5218c-1.8577 0-2.5575-0.0929-2.6572-0.35285zm-227.65-7.5846v-2.665l5.1594 0.1514v5.0271l-5.1594 0.1514zm10.7 2.303c-0.076578-0.19956-0.10433-1.3649-0.061675-2.5897l0.077558-2.2268h5.0271v5.0271l-2.4519 0.0761c-1.8866 0.0586-2.484-8e-3 -2.5911-0.2867zm10.583 0c-0.076578-0.19956-0.10433-1.3649-0.061675-2.5897l0.077558-2.2268h5.0271v5.0271l-2.4519 0.0761c-1.8866 0.0586-2.484-8e-3 -2.5911-0.2867zm10.583 0c-0.07658-0.19956-0.10433-1.3649-0.06167-2.5897l0.07756-2.2268h5.0271v5.0271l-2.4519 0.0761c-1.8866 0.0586-2.484-8e-3 -2.5911-0.2867zm10.583 0c-0.07658-0.19956-0.10433-1.3649-0.06167-2.5897l0.07756-2.2268h5.0271v5.0271l-2.4519 0.0761c-1.8866 0.0586-2.484-8e-3 -2.5911-0.2867zm169.33 0c-0.0766-0.19956-0.10433-1.3649-0.0617-2.5897l0.0776-2.2268h5.0271v5.0271l-2.4519 0.0761c-1.8866 0.0586-2.484-8e-3 -2.5911-0.2867zm10.583 0c-0.0766-0.19956-0.10433-1.3649-0.0617-2.5897l0.0776-2.2268h5.0271v5.0271l-2.4519 0.0761c-1.8866 0.0586-2.484-8e-3 -2.5911-0.2867zm-216.96-5.2917c-0.076578-0.19956-0.10433-1.3649-0.061675-2.5897l0.077558-2.2268h5.0271v5.0271l-2.4519 0.0761c-1.8866 0.0586-2.484-8e-3 -2.5911-0.2867zm10.583 0c-0.076578-0.19956-0.10433-1.3649-0.061675-2.5897l0.077558-2.2268h5.0271v5.0271l-2.4519 0.0761c-1.8866 0.0586-2.484-8e-3 -2.5911-0.2867zm10.583 0c-0.07658-0.19956-0.10433-1.3649-0.06168-2.5897l0.07756-2.2268h5.0271v5.0271l-2.4519 0.0761c-1.8866 0.0586-2.484-8e-3 -2.5911-0.2867zm10.583 0c-0.07658-0.19956-0.10433-1.3649-0.06168-2.5897l0.07756-2.2268h5.0271v5.0271l-2.4519 0.0761c-1.8866 0.0586-2.484-8e-3 -2.5911-0.2867zm10.583 0c-0.07658-0.19956-0.10433-1.3649-0.06167-2.5897l0.07756-2.2268h5.0271v5.0271l-2.4519 0.0761c-1.8866 0.0586-2.484-8e-3 -2.5911-0.2867zm10.583 0c-0.07658-0.19956-0.10433-1.3649-0.06167-2.5897l0.07756-2.2268h5.0271v5.0271l-2.4519 0.0761c-1.8866 0.0586-2.484-8e-3 -2.5911-0.2867zm10.583 0c-0.07658-0.19956-0.10433-1.3649-0.06167-2.5897l0.07756-2.2268h5.0271v5.0271l-2.4519 0.0761c-1.8866 0.0586-2.484-8e-3 -2.5911-0.2867zm10.583 0c-0.07658-0.19956-0.10433-1.3649-0.06168-2.5897l0.07756-2.2268h5.0271v5.0271l-2.4519 0.0761c-1.8866 0.0586-2.484-8e-3 -2.5911-0.2867zm116.42 0c-0.0766-0.19956-0.10433-1.3649-0.0617-2.5897l0.0776-2.2268h5.0271v5.0271l-2.4519 0.0761c-1.8866 0.0586-2.484-8e-3 -2.5911-0.2867zm10.583 0c-0.0766-0.19956-0.10433-1.3649-0.0617-2.5897l0.0776-2.2268h5.0271v5.0271l-2.4519 0.0761c-1.8866 0.0586-2.484-8e-3 -2.5911-0.2867zm10.583 0c-0.0766-0.19956-0.10433-1.3649-0.0617-2.5897l0.0776-2.2268h5.0271v5.0271l-2.4519 0.0761c-1.8866 0.0586-2.484-8e-3 -2.5911-0.2867zm10.58-0.01c-0.0745-0.19406-0.1005-1.3549-0.0579-2.5797l0.0776-2.2269 5.1594-0.1514v5.3108h-2.5218c-1.8577 0-2.5575-0.0929-2.6572-0.35285zm-227.65-7.5847v-2.665l5.1594 0.1514v5.0271l-5.1594 0.1514zm10.7 2.303c-0.076578-0.19956-0.10433-1.3649-0.061675-2.5897l0.077558-2.2268h5.0271v5.0271l-2.4519 0.0761c-1.8866 0.0586-2.484-8e-3 -2.5911-0.2867zm10.583 0c-0.076578-0.19956-0.10433-1.3649-0.061675-2.5897l0.077558-2.2268h5.0271v5.0271l-2.4519 0.0761c-1.8866 0.0586-2.484-8e-3 -2.5911-0.2867zm10.583 0c-0.07658-0.19956-0.10433-1.3649-0.06167-2.5897l0.07756-2.2268h5.0271v5.0271l-2.4519 0.0761c-1.8866 0.0586-2.484-8e-3 -2.5911-0.2867zm10.583 0c-0.07658-0.19956-0.10433-1.3649-0.06167-2.5897l0.07756-2.2268h5.0271v5.0271l-2.4519 0.0761c-1.8866 0.0586-2.484-8e-3 -2.5911-0.2867zm10.583 0c-0.07658-0.19956-0.10433-1.3649-0.06168-2.5897l0.07756-2.2268h5.0271v5.0271l-2.4519 0.0761c-1.8866 0.0586-2.484-8e-3 -2.5911-0.2867zm10.583 0c-0.07658-0.19956-0.10433-1.3649-0.06168-2.5897l0.07756-2.2268h5.0271v5.0271l-2.4519 0.0761c-1.8866 0.0586-2.484-8e-3 -2.5911-0.2867zm10.583 0c-0.07658-0.19956-0.10433-1.3649-0.06167-2.5897l0.07756-2.2268h5.0271v5.0271l-2.4519 0.0761c-1.8866 0.0586-2.484-8e-3 -2.5911-0.2867zm10.583 0c-0.07658-0.19956-0.10433-1.3649-0.06167-2.5897l0.07756-2.2268h5.0271v5.0271l-2.4519 0.0761c-1.8866 0.0586-2.484-8e-3 -2.5911-0.2867zm10.583 0c-0.07658-0.19956-0.10433-1.3649-0.06167-2.5897l0.07756-2.2268h5.0271v5.0271l-2.4519 0.0761c-1.8866 0.0586-2.484-8e-3 -2.5911-0.2867zm10.583 0c-0.07658-0.19956-0.10433-1.3649-0.06167-2.5897l0.07756-2.2268h5.0271v5.0271l-2.4519 0.0761c-1.8866 0.0586-2.484-8e-3 -2.5911-0.2867zm10.583 0c-0.0766-0.19956-0.10433-1.3649-0.0617-2.5897l0.0775-2.2268h5.0271v5.0271l-2.4519 0.0761c-1.8866 0.0586-2.484-8e-3 -2.5911-0.2867zm10.583 0c-0.0766-0.19956-0.10433-1.3649-0.0617-2.5897l0.0776-2.2268h5.0271v5.0271l-2.4519 0.0761c-1.8866 0.0586-2.484-8e-3 -2.5911-0.2867zm63.5 0c-0.0766-0.19956-0.10433-1.3649-0.0617-2.5897l0.0776-2.2268h5.0271v5.0271l-2.4519 0.0761c-1.8866 0.0586-2.484-8e-3 -2.5911-0.2867zm10.583 0c-0.0766-0.19956-0.10433-1.3649-0.0617-2.5897l0.0776-2.2268h5.0271v5.0271l-2.4519 0.0761c-1.8866 0.0586-2.484-8e-3 -2.5911-0.2867zm10.583 0c-0.0766-0.19956-0.10433-1.3649-0.0617-2.5897l0.0776-2.2268h5.0271v5.0271l-2.4519 0.0761c-1.8866 0.0586-2.484-8e-3 -2.5911-0.2867zm10.583 0c-0.0766-0.19956-0.10433-1.3649-0.0617-2.5897l0.0776-2.2268h5.0271v5.0271l-2.4519 0.0761c-1.8866 0.0586-2.484-8e-3 -2.5911-0.2867zm-216.96-5.2916c-0.076578-0.19956-0.10433-1.3649-0.061675-2.5897l0.077558-2.2268h5.0271v5.0271l-2.4519 0.0761c-1.8866 0.0586-2.484-8e-3 -2.5911-0.2867zm10.583 0c-0.076578-0.19956-0.10433-1.3649-0.061675-2.5897l0.077558-2.2268h5.0271v5.0271l-2.4519 0.0761c-1.8866 0.0586-2.484-8e-3 -2.5911-0.2867zm10.583 0c-0.07658-0.19956-0.10433-1.3649-0.06168-2.5897l0.07756-2.2268h5.0271v5.0271l-2.4519 0.0761c-1.8866 0.0586-2.484-8e-3 -2.5911-0.2867zm10.583 0c-0.07658-0.19956-0.10433-1.3649-0.06168-2.5897l0.07756-2.2268h5.0271v5.0271l-2.4519 0.0761c-1.8866 0.0586-2.484-8e-3 -2.5911-0.2867zm10.583 0c-0.07658-0.19956-0.10433-1.3649-0.06167-2.5897l0.07756-2.2268h5.0271v5.0271l-2.4519 0.0761c-1.8866 0.0586-2.484-8e-3 -2.5911-0.2867zm10.583 0c-0.07658-0.19956-0.10433-1.3649-0.06167-2.5897l0.07756-2.2268h5.0271v5.0271l-2.4519 0.0761c-1.8866 0.0586-2.484-8e-3 -2.5911-0.2867zm10.583 0c-0.07658-0.19956-0.10433-1.3649-0.06167-2.5897l0.07756-2.2268h5.0271v5.0271l-2.4519 0.0761c-1.8866 0.0586-2.484-8e-3 -2.5911-0.2867zm10.583 0c-0.07658-0.19956-0.10433-1.3649-0.06168-2.5897l0.07756-2.2268h5.0271v5.0271l-2.4519 0.0761c-1.8866 0.0586-2.484-8e-3 -2.5911-0.2867zm10.583 0c-0.07658-0.19956-0.10433-1.3649-0.06167-2.5897l0.07756-2.2268h5.0271v5.0271l-2.4519 0.0761c-1.8866 0.0586-2.484-8e-3 -2.5911-0.2867zm10.583 0c-0.07658-0.19956-0.10433-1.3649-0.06167-2.5897l0.07756-2.2268h5.0271v5.0271l-2.4519 0.0761c-1.8866 0.0586-2.484-8e-3 -2.5911-0.2867zm10.583 0c-0.07658-0.19956-0.10433-1.3649-0.06167-2.5897l0.07756-2.2268h5.0271v5.0271l-2.4519 0.0761c-1.8866 0.0586-2.484-8e-3 -2.5911-0.2867zm10.583 0c-0.0766-0.19956-0.10433-1.3649-0.0617-2.5897l0.0776-2.2268h5.0271v5.0271l-2.4519 0.0761c-1.8866 0.0586-2.484-8e-3 -2.5911-0.2867zm63.5 0c-0.0766-0.19956-0.10433-1.3649-0.0617-2.5897l0.0776-2.2268h5.0271v5.0271l-2.4519 0.0761c-1.8866 0.0586-2.484-8e-3 -2.5911-0.2867zm10.583 0c-0.0766-0.19956-0.10433-1.3649-0.0617-2.5897l0.0776-2.2268h5.0271v5.0271l-2.4519 0.0761c-1.8866 0.0586-2.484-8e-3 -2.5911-0.2867zm10.583 0c-0.0766-0.19956-0.10433-1.3649-0.0617-2.5897l0.0776-2.2268h5.0271v5.0271l-2.4519 0.0761c-1.8866 0.0586-2.484-8e-3 -2.5911-0.2867zm10.583 0c-0.0766-0.19956-0.10433-1.3649-0.0617-2.5897l0.0776-2.2268h5.0271v5.0271l-2.4519 0.0761c-1.8866 0.0586-2.484-8e-3 -2.5911-0.2867zm10.58-0.01c-0.0745-0.19406-0.1005-1.3549-0.0579-2.5797l0.0776-2.2268 5.1594-0.1514v5.3108h-2.5218c-1.8577 0-2.5575-0.0929-2.6572-0.35284zm-227.65-7.5847v-2.665l5.1594 0.1514v5.0271l-5.1594 0.1514zm10.7 2.303c-0.076578-0.19956-0.10433-1.3649-0.061675-2.5897l0.077558-2.2268h5.0271v5.0271l-2.4519 0.0761c-1.8866 0.0586-2.484-8e-3 -2.5911-0.2867zm10.583 0c-0.076578-0.19956-0.10433-1.3649-0.061675-2.5897l0.077558-2.2268h5.0271v5.0271l-2.4519 0.0761c-1.8866 0.0586-2.484-8e-3 -2.5911-0.2867zm10.583 0c-0.07658-0.19956-0.10433-1.3649-0.06167-2.5897l0.07756-2.2268h5.0271v5.0271l-2.4519 0.0761c-1.8866 0.0586-2.484-8e-3 -2.5911-0.2867zm10.583 0c-0.07658-0.19956-0.10433-1.3649-0.06167-2.5897l0.07756-2.2268h5.0271v5.0271l-2.4519 0.0761c-1.8866 0.0586-2.484-8e-3 -2.5911-0.2867zm10.583 0c-0.07658-0.19956-0.10433-1.3649-0.06168-2.5897l0.07756-2.2268h5.0271v5.0271l-2.4519 0.0761c-1.8866 0.0586-2.484-8e-3 -2.5911-0.2867zm10.583 0c-0.07658-0.19956-0.10433-1.3649-0.06168-2.5897l0.07756-2.2268h5.0271v5.0271l-2.4519 0.0761c-1.8866 0.0586-2.484-8e-3 -2.5911-0.2867zm10.583 0c-0.07658-0.19956-0.10433-1.3649-0.06167-2.5897l0.07756-2.2268h5.0271v5.0271l-2.4519 0.0761c-1.8866 0.0586-2.484-8e-3 -2.5911-0.2867zm10.583 0c-0.07658-0.19956-0.10433-1.3649-0.06167-2.5897l0.07756-2.2268h5.0271v5.0271l-2.4519 0.0761c-1.8866 0.0586-2.484-8e-3 -2.5911-0.2867zm10.583 0c-0.07658-0.19956-0.10433-1.3649-0.06167-2.5897l0.07756-2.2268h5.0271v5.0271l-2.4519 0.0761c-1.8866 0.0586-2.484-8e-3 -2.5911-0.2867zm10.583 0c-0.07658-0.19956-0.10433-1.3649-0.06167-2.5897l0.07756-2.2268h5.0271v5.0271l-2.4519 0.0761c-1.8866 0.0586-2.484-8e-3 -2.5911-0.2867zm10.583 0c-0.0766-0.19956-0.10433-1.3649-0.0617-2.5897l0.0775-2.2268h5.0271v5.0271l-2.4519 0.0761c-1.8866 0.0586-2.484-8e-3 -2.5911-0.2867zm52.917 0c-0.0766-0.19956-0.10433-1.3649-0.0617-2.5897l0.0776-2.2268h5.0271v5.0271l-2.4519 0.0761c-1.8866 0.0586-2.484-8e-3 -2.5911-0.2867zm10.583 0c-0.0766-0.19956-0.10433-1.3649-0.0617-2.5897l0.0776-2.2268h5.0271v5.0271l-2.4519 0.0761c-1.8866 0.0586-2.484-8e-3 -2.5911-0.2867zm10.583 0c-0.0766-0.19956-0.10433-1.3649-0.0617-2.5897l0.0776-2.2268h5.0271v5.0271l-2.4519 0.0761c-1.8866 0.0586-2.484-8e-3 -2.5911-0.2867zm10.583 0c-0.0766-0.19956-0.10433-1.3649-0.0617-2.5897l0.0776-2.2268h5.0271v5.0271l-2.4519 0.0761c-1.8866 0.0586-2.484-8e-3 -2.5911-0.2867zm10.583 0c-0.0766-0.19956-0.10433-1.3649-0.0617-2.5897l0.0776-2.2268h5.0271v5.0271l-2.4519 0.0761c-1.8866 0.0586-2.484-8e-3 -2.5911-0.2867zm10.583 0c-0.0766-0.19956-0.10433-1.3649-0.0617-2.5897l0.0776-2.2268h5.0271v5.0271l-2.4519 0.0761c-1.8866 0.0586-2.484-8e-3 -2.5911-0.2867zm-216.96-5.2916c-0.076578-0.19956-0.10433-1.3649-0.061675-2.5897l0.077558-2.2268h5.0271v5.0271l-2.4519 0.0761c-1.8866 0.0586-2.484-8e-3 -2.5911-0.2867zm10.583 0c-0.076578-0.19956-0.10433-1.3649-0.061675-2.5897l0.077558-2.2268h5.0271v5.0271l-2.4519 0.0761c-1.8866 0.0586-2.484-8e-3 -2.5911-0.2867zm10.583 0c-0.07658-0.19956-0.10433-1.3649-0.06168-2.5897l0.07756-2.2268h5.0271v5.0271l-2.4519 0.0761c-1.8866 0.0586-2.484-8e-3 -2.5911-0.2867zm10.583 0c-0.07658-0.19956-0.10433-1.3649-0.06168-2.5897l0.07756-2.2268h5.0271v5.0271l-2.4519 0.0761c-1.8866 0.0586-2.484-8e-3 -2.5911-0.2867zm10.583 0c-0.07658-0.19956-0.10433-1.3649-0.06167-2.5897l0.07756-2.2268h5.0271v5.0271l-2.4519 0.0761c-1.8866 0.0586-2.484-8e-3 -2.5911-0.2867zm10.583 0c-0.07658-0.19956-0.10433-1.3649-0.06167-2.5897l0.07756-2.2268h5.0271v5.0271l-2.4519 0.0761c-1.8866 0.0586-2.484-8e-3 -2.5911-0.2867zm10.583 0c-0.07658-0.19956-0.10433-1.3649-0.06167-2.5897l0.07756-2.2268h5.0271v5.0271l-2.4519 0.0761c-1.8866 0.0586-2.484-8e-3 -2.5911-0.2867zm10.583 0c-0.07658-0.19956-0.10433-1.3649-0.06168-2.5897l0.07756-2.2268h5.0271v5.0271l-2.4519 0.0761c-1.8866 0.0586-2.484-8e-3 -2.5911-0.2867zm10.583 0c-0.07658-0.19956-0.10433-1.3649-0.06167-2.5897l0.07756-2.2268h5.0271v5.0271l-2.4519 0.0761c-1.8866 0.0586-2.484-8e-3 -2.5911-0.2867zm10.583 0c-0.07658-0.19956-0.10433-1.3649-0.06167-2.5897l0.07756-2.2268h5.0271v5.0271l-2.4519 0.0761c-1.8866 0.0586-2.484-8e-3 -2.5911-0.2867zm10.583 0c-0.07658-0.19956-0.10433-1.3649-0.06167-2.5897l0.07756-2.2268h5.0271v5.0271l-2.4519 0.0761c-1.8866 0.0586-2.484-8e-3 -2.5911-0.2867zm10.583 0c-0.0766-0.19956-0.10433-1.3649-0.0617-2.5897l0.0776-2.2268h5.0271v5.0271l-2.4519 0.0761c-1.8866 0.0586-2.484-8e-3 -2.5911-0.2867zm42.333 0c-0.0766-0.19956-0.10433-1.3649-0.0617-2.5897l0.0776-2.2268h5.0271v5.0271l-2.4519 0.0761c-1.8866 0.0586-2.484-8e-3 -2.5911-0.2867zm10.583 0c-0.0766-0.19956-0.10433-1.3649-0.0617-2.5897l0.0776-2.2268h5.0271v5.0271l-2.4519 0.0761c-1.8866 0.0586-2.484-8e-3 -2.5911-0.2867zm10.583 0c-0.0766-0.19956-0.10433-1.3649-0.0617-2.5897l0.0776-2.2268h5.0271v5.0271l-2.4519 0.0761c-1.8866 0.0586-2.484-8e-3 -2.5911-0.2867zm10.583 0c-0.0766-0.19956-0.10433-1.3649-0.0617-2.5897l0.0776-2.2268h5.0271v5.0271l-2.4519 0.0761c-1.8866 0.0586-2.484-8e-3 -2.5911-0.2867zm10.583 0c-0.0766-0.19956-0.10433-1.3649-0.0617-2.5897l0.0776-2.2268h5.0271v5.0271l-2.4519 0.0761c-1.8866 0.0586-2.484-8e-3 -2.5911-0.2867zm10.583 0c-0.0766-0.19956-0.10433-1.3649-0.0617-2.5897l0.0776-2.2268h5.0271v5.0271l-2.4519 0.0761c-1.8866 0.0586-2.484-8e-3 -2.5911-0.2867zm10.58-0.01c-0.0745-0.19406-0.1005-1.3549-0.0579-2.5797l0.0776-2.2268 5.1594-0.15146v5.3108h-2.5218c-1.8577 0-2.5575-0.0929-2.6572-0.35285zm-227.65-7.5846v-2.665l5.1594 0.15146v5.0271l-5.1594 0.15146zm10.7 2.303c-0.076578-0.19956-0.10433-1.3649-0.061675-2.5897l0.077558-2.2268h5.0271v5.0271l-2.4519 0.07613c-1.8866 0.05858-2.484-0.0075-2.5911-0.2867zm10.583 0c-0.076578-0.19956-0.10433-1.3649-0.061675-2.5897l0.077558-2.2268h5.0271v5.0271l-2.4519 0.07613c-1.8866 0.05858-2.484-0.0075-2.5911-0.2867zm10.583 0c-0.07658-0.19956-0.10433-1.3649-0.06167-2.5897l0.07756-2.2268h5.0271v5.0271l-2.4519 0.07613c-1.8866 0.05858-2.484-0.0075-2.5911-0.2867zm10.583 0c-0.07658-0.19956-0.10433-1.3649-0.06167-2.5897l0.07756-2.2268h5.0271v5.0271l-2.4519 0.07613c-1.8866 0.05858-2.484-0.0075-2.5911-0.2867zm10.583 0c-0.07658-0.19956-0.10433-1.3649-0.06168-2.5897l0.07756-2.2268h5.0271v5.0271l-2.4519 0.07613c-1.8866 0.05858-2.484-0.0075-2.5911-0.2867zm10.583 0c-0.076579-0.19956-0.10433-1.3649-0.061675-2.5897l0.07756-2.2268h5.0271v5.0271l-2.4519 0.07613c-1.8866 0.05858-2.484-0.0075-2.5911-0.2867zm10.583 0c-0.07658-0.19956-0.10433-1.3649-0.06167-2.5897l0.07756-2.2268h5.0271v5.0271l-2.4519 0.07613c-1.8866 0.05858-2.484-0.0075-2.5911-0.2867zm10.583 0c-0.07658-0.19956-0.10433-1.3649-0.06167-2.5897l0.07756-2.2268h5.0271v5.0271l-2.4519 0.07613c-1.8866 0.05858-2.484-0.0075-2.5911-0.2867zm10.583 0c-0.07658-0.19956-0.10433-1.3649-0.06167-2.5897l0.07756-2.2268h5.0271v5.0271l-2.4519 0.07613c-1.8866 0.05858-2.484-0.0075-2.5911-0.2867zm10.583 0c-0.07658-0.19956-0.10433-1.3649-0.06167-2.5897l0.07756-2.2268h5.0271v5.0271l-2.4519 0.07613c-1.8866 0.05858-2.484-0.0075-2.5911-0.2867zm10.583 0c-0.0766-0.19956-0.10433-1.3649-0.0617-2.5897l0.0775-2.2268h5.0271v5.0271l-2.4519 0.07613c-1.8866 0.05858-2.484-0.0075-2.5911-0.2867zm42.333 0c-0.0766-0.19956-0.10433-1.3649-0.0617-2.5897l0.0776-2.2268h5.0271v5.0271l-2.4519 0.07613c-1.8866 0.05858-2.484-0.0075-2.5911-0.2867zm10.583 0c-0.0766-0.19956-0.10433-1.3649-0.0617-2.5897l0.0776-2.2268h5.0271v5.0271l-2.4519 0.07613c-1.8866 0.05858-2.484-0.0075-2.5911-0.2867zm10.583 0c-0.0766-0.19956-0.10433-1.3649-0.0617-2.5897l0.0776-2.2268h5.0271v5.0271l-2.4519 0.07613c-1.8866 0.05858-2.484-0.0075-2.5911-0.2867zm10.583 0c-0.0766-0.19956-0.10433-1.3649-0.0617-2.5897l0.0776-2.2268h5.0271v5.0271l-2.4519 0.07613c-1.8866 0.05858-2.484-0.0075-2.5911-0.2867zm10.583 0c-0.0766-0.19956-0.10433-1.3649-0.0617-2.5897l0.0776-2.2268h5.0271v5.0271l-2.4519 0.07613c-1.8866 0.05858-2.484-0.0075-2.5911-0.2867zm10.583 0c-0.0766-0.19956-0.10433-1.3649-0.0617-2.5897l0.0776-2.2268h5.0271v5.0271l-2.4519 0.07613c-1.8866 0.05858-2.484-0.0075-2.5911-0.2867zm10.583 0c-0.0766-0.19956-0.10433-1.3649-0.0617-2.5897l0.0776-2.2268h5.0271v5.0271l-2.4519 0.07613c-1.8866 0.05858-2.484-0.0075-2.5911-0.2867zm-216.96-5.2917c-0.076578-0.19956-0.10433-1.3649-0.061675-2.5897l0.077558-2.2268h5.0271v5.0271l-2.4519 0.07613c-1.8866 0.05858-2.484-0.0075-2.5911-0.2867zm10.583 0c-0.076578-0.19956-0.10433-1.3649-0.061675-2.5897l0.077558-2.2268h5.0271v5.0271l-2.4519 0.07613c-1.8866 0.05858-2.484-0.0075-2.5911-0.2867zm10.583 0c-0.07658-0.19956-0.10433-1.3649-0.06168-2.5897l0.07756-2.2268h5.0271v5.0271l-2.4519 0.07613c-1.8866 0.05858-2.484-0.0075-2.5911-0.2867zm10.583 0c-0.07658-0.19956-0.10433-1.3649-0.06168-2.5897l0.07756-2.2268h5.0271v5.0271l-2.4519 0.07613c-1.8866 0.05858-2.484-0.0075-2.5911-0.2867zm10.583 0c-0.07658-0.19956-0.10433-1.3649-0.06167-2.5897l0.07756-2.2268h5.0271v5.0271l-2.4519 0.07613c-1.8866 0.05858-2.484-0.0075-2.5911-0.2867zm10.583 0c-0.07658-0.19956-0.10433-1.3649-0.06167-2.5897l0.07756-2.2268h5.0271v5.0271l-2.4519 0.07613c-1.8866 0.05858-2.484-0.0075-2.5911-0.2867zm10.583 0c-0.07658-0.19956-0.10433-1.3649-0.06167-2.5897l0.07756-2.2268h5.0271v5.0271l-2.4519 0.07613c-1.8866 0.05858-2.484-0.0075-2.5911-0.2867zm10.583 0c-0.07658-0.19956-0.10433-1.3649-0.06168-2.5897l0.07756-2.2268h5.0271v5.0271l-2.4519 0.07613c-1.8866 0.05858-2.484-0.0075-2.5911-0.2867zm10.583 0c-0.07658-0.19956-0.10433-1.3649-0.06167-2.5897l0.07756-2.2268h5.0271v5.0271l-2.4519 0.07613c-1.8866 0.05858-2.484-0.0075-2.5911-0.2867zm10.583 0c-0.07658-0.19956-0.10433-1.3649-0.06167-2.5897l0.07756-2.2268h5.0271v5.0271l-2.4519 0.07613c-1.8866 0.05858-2.484-0.0075-2.5911-0.2867zm10.583 0c-0.07658-0.19956-0.10433-1.3649-0.06167-2.5897l0.07756-2.2268h5.0271v5.0271l-2.4519 0.07613c-1.8866 0.05858-2.484-0.0075-2.5911-0.2867zm31.75 0c-0.0766-0.19956-0.10433-1.3649-0.0617-2.5897l0.0776-2.2268h5.0271v5.0271l-2.4519 0.07613c-1.8866 0.05858-2.484-0.0075-2.5911-0.2867zm10.583 0c-0.0766-0.19956-0.10433-1.3649-0.0617-2.5897l0.0776-2.2268h5.0271v5.0271l-2.4519 0.07613c-1.8866 0.05858-2.484-0.0075-2.5911-0.2867zm10.583 0c-0.0766-0.19956-0.10433-1.3649-0.0617-2.5897l0.0776-2.2268h5.0271v5.0271l-2.4519 0.07613c-1.8866 0.05858-2.484-0.0075-2.5911-0.2867zm10.583 0c-0.0766-0.19956-0.10433-1.3649-0.0617-2.5897l0.0776-2.2268h5.0271v5.0271l-2.4519 0.07613c-1.8866 0.05858-2.484-0.0075-2.5911-0.2867zm10.583 0c-0.0766-0.19956-0.10433-1.3649-0.0617-2.5897l0.0776-2.2268h5.0271v5.0271l-2.4519 0.07613c-1.8866 0.05858-2.484-0.0075-2.5911-0.2867zm10.583 0c-0.0766-0.19956-0.10433-1.3649-0.0617-2.5897l0.0776-2.2268h5.0271v5.0271l-2.4519 0.07613c-1.8866 0.05858-2.484-0.0075-2.5911-0.2867zm10.583 0c-0.0766-0.19956-0.10433-1.3649-0.0617-2.5897l0.0776-2.2268h5.0271v5.0271l-2.4519 0.07613c-1.8866 0.05858-2.484-0.0075-2.5911-0.2867zm10.583 0c-0.0766-0.19956-0.10433-1.3649-0.0617-2.5897l0.0776-2.2268h5.0271v5.0271l-2.4519 0.07613c-1.8866 0.05858-2.484-0.0075-2.5911-0.2867zm10.58-0.01c-0.0745-0.19407-0.1005-1.3549-0.0579-2.5797l0.0776-2.2268 5.1594-0.15146v5.3108h-2.5218c-1.8577 0-2.5575-0.09292-2.6572-0.35284zm-227.65-7.5846v-2.665l5.1594 0.15146v5.0271l-5.1594 0.15146zm10.7 2.303c-0.076578-0.19956-0.10433-1.3649-0.061675-2.5897l0.077558-2.2268h5.0271v5.0271l-2.4519 0.07613c-1.8866 0.05858-2.484-0.0075-2.5911-0.2867zm10.583 0c-0.076578-0.19956-0.10433-1.3649-0.061675-2.5897l0.077558-2.2268h5.0271v5.0271l-2.4519 0.07613c-1.8866 0.05858-2.484-0.0075-2.5911-0.2867zm10.583 0c-0.07658-0.19956-0.10433-1.3649-0.06167-2.5897l0.07756-2.2268h5.0271v5.0271l-2.4519 0.07613c-1.8866 0.05858-2.484-0.0075-2.5911-0.2867zm10.583 0c-0.07658-0.19956-0.10433-1.3649-0.06167-2.5897l0.07756-2.2268h5.0271v5.0271l-2.4519 0.07613c-1.8866 0.05858-2.484-0.0075-2.5911-0.2867zm10.583 0c-0.07658-0.19956-0.10433-1.3649-0.06168-2.5897l0.07756-2.2268h5.0271v5.0271l-2.4519 0.07613c-1.8866 0.05858-2.484-0.0075-2.5911-0.2867zm10.583 0c-0.07658-0.19956-0.10433-1.3649-0.06168-2.5897l0.07756-2.2268h5.0271v5.0271l-2.4519 0.07613c-1.8866 0.05858-2.484-0.0075-2.5911-0.2867zm10.583 0c-0.07658-0.19956-0.10433-1.3649-0.06167-2.5897l0.07756-2.2268h5.0271v5.0271l-2.4519 0.07613c-1.8866 0.05858-2.484-0.0075-2.5911-0.2867zm10.583 0c-0.07658-0.19956-0.10433-1.3649-0.06167-2.5897l0.07756-2.2268h5.0271v5.0271l-2.4519 0.07613c-1.8866 0.05858-2.484-0.0075-2.5911-0.2867zm10.583 0c-0.07658-0.19956-0.10433-1.3649-0.06167-2.5897l0.07756-2.2268h5.0271v5.0271l-2.4519 0.07613c-1.8866 0.05858-2.484-0.0075-2.5911-0.2867zm10.583 0c-0.07658-0.19956-0.10433-1.3649-0.06167-2.5897l0.07756-2.2268h5.0271v5.0271l-2.4519 0.07613c-1.8866 0.05858-2.484-0.0075-2.5911-0.2867zm10.583 0c-0.0766-0.19956-0.10433-1.3649-0.0617-2.5897l0.0775-2.2268h5.0271v5.0271l-2.4519 0.07613c-1.8866 0.05858-2.484-0.0075-2.5911-0.2867zm21.167 0c-0.0766-0.19956-0.10433-1.3649-0.0617-2.5897l0.0776-2.2268h5.0271v5.0271l-2.4519 0.07613c-1.8866 0.05858-2.484-0.0075-2.5911-0.2867zm10.583 0c-0.0766-0.19956-0.10433-1.3649-0.0617-2.5897l0.0776-2.2268h5.0271v5.0271l-2.4519 0.07613c-1.8866 0.05858-2.484-0.0075-2.5911-0.2867zm10.583 0c-0.0766-0.19956-0.10433-1.3649-0.0617-2.5897l0.0776-2.2268h5.0271v5.0271l-2.4519 0.07613c-1.8866 0.05858-2.484-0.0075-2.5911-0.2867zm10.583 0c-0.0766-0.19956-0.10433-1.3649-0.0617-2.5897l0.0776-2.2268h5.0271v5.0271l-2.4519 0.07613c-1.8866 0.05858-2.484-0.0075-2.5911-0.2867zm10.583 0c-0.0766-0.19956-0.10433-1.3649-0.0617-2.5897l0.0776-2.2268h5.0271v5.0271l-2.4519 0.07613c-1.8866 0.05858-2.484-0.0075-2.5911-0.2867zm10.583 0c-0.0766-0.19956-0.10433-1.3649-0.0617-2.5897l0.0776-2.2268h5.0271v5.0271l-2.4519 0.07613c-1.8866 0.05858-2.484-0.0075-2.5911-0.2867zm10.583 0c-0.0766-0.19956-0.10433-1.3649-0.0617-2.5897l0.0776-2.2268h5.0271v5.0271l-2.4519 0.07613c-1.8866 0.05858-2.484-0.0075-2.5911-0.2867zm10.583 0c-0.0766-0.19956-0.10433-1.3649-0.0617-2.5897l0.0776-2.2268h5.0271v5.0271l-2.4519 0.07613c-1.8866 0.05858-2.484-0.0075-2.5911-0.2867zm10.583 0c-0.0766-0.19956-0.10433-1.3649-0.0617-2.5897l0.0776-2.2268h5.0271v5.0271l-2.4519 0.07613c-1.8866 0.05858-2.484-0.0075-2.5911-0.2867zm-216.89-5.116c-0.10209-0.10209-0.18561-1.2969-0.18561-2.6551v-2.4694h5.3108l-0.075727 2.5797-0.075727 2.5797-2.3941 0.07537c-1.3167 0.04145-2.4776-0.0082-2.5797-0.11024zm10.583 0c-0.10209-0.10209-0.18561-1.2969-0.18561-2.6551v-2.4694h5.3108l-0.075727 2.5797-0.075727 2.5797-2.3941 0.07537c-1.3167 0.04145-2.4776-0.0082-2.5797-0.11024zm10.583 0c-0.10209-0.10209-0.18561-1.2969-0.18561-2.6551v-2.4694h5.3108l-0.07573 2.5797-0.07573 2.5797-2.3941 0.07537c-1.3167 0.04145-2.4776-0.0082-2.5797-0.11024zm10.583 0c-0.10209-0.10209-0.18561-1.2969-0.18561-2.6551v-2.4694h5.3108l-0.07573 2.5797-0.07573 2.5797-2.3941 0.07537c-1.3167 0.04145-2.4776-0.0082-2.5797-0.11024zm10.583 0c-0.10209-0.10209-0.18561-1.2969-0.18561-2.6551v-2.4694h5.3108l-0.07573 2.5797-0.07573 2.5797-2.3941 0.07537c-1.3167 0.04145-2.4776-0.0082-2.5797-0.11024zm10.583 0c-0.10209-0.10209-0.18561-1.2969-0.18561-2.6551v-2.4694h5.3108l-0.07573 2.5797-0.07573 2.5797-2.3941 0.07537c-1.3167 0.04145-2.4776-0.0082-2.5797-0.11024zm10.583 0c-0.10209-0.10209-0.18561-1.2969-0.18561-2.6551v-2.4694h5.3108l-0.07573 2.5797-0.07573 2.5797-2.3941 0.07537c-1.3167 0.04145-2.4776-0.0082-2.5797-0.11024zm10.583 0c-0.10209-0.10209-0.18561-1.2969-0.18561-2.6551v-2.4694h5.3108l-0.07573 2.5797-0.07573 2.5797-2.3941 0.07537c-1.3167 0.04145-2.4776-0.0082-2.5797-0.11024zm10.583 0c-0.10209-0.10209-0.18561-1.2969-0.18561-2.6551v-2.4694h5.3108l-0.07573 2.5797-0.07573 2.5797-2.3941 0.07537c-1.3167 0.04145-2.4776-0.0082-2.5797-0.11024zm10.583 0c-0.10209-0.10209-0.18561-1.2969-0.18561-2.6551v-2.4694h5.3108l-0.07573 2.5797-0.07573 2.5797-2.3941 0.07537c-1.3167 0.04145-2.4776-0.0082-2.5797-0.11024zm10.583 0c-0.10209-0.10209-0.18561-1.2969-0.18561-2.6551v-2.4694h5.3108l-0.0757 2.5797-0.0757 2.5797-2.3941 0.07537c-1.3168 0.04145-2.4776-0.0082-2.5797-0.11024zm10.583 0c-0.10209-0.10209-0.18561-1.2969-0.18561-2.6551v-2.4694h5.3108l-0.0757 2.5797-0.0757 2.5797-2.3941 0.07537c-1.3167 0.04145-2.4776-0.0082-2.5797-0.11024zm10.583 0c-0.10208-0.10209-0.18561-1.2969-0.18561-2.6551v-2.4694h5.3108l-0.0757 2.5797-0.0757 2.5797-2.3941 0.07537c-1.3167 0.04145-2.4776-0.0082-2.5797-0.11024zm10.583 0c-0.10209-0.10209-0.18562-1.2969-0.18562-2.6551v-2.4694h5.3108l-0.0757 2.5797-0.0757 2.5797-2.3941 0.07537c-1.3168 0.04145-2.4776-0.0082-2.5797-0.11024zm10.583 0c-0.10209-0.10209-0.18561-1.2969-0.18561-2.6551v-2.4694h5.3108l-0.0757 2.5797-0.0757 2.5797-2.3941 0.07537c-1.3168 0.04145-2.4776-0.0082-2.5797-0.11024zm10.583 0c-0.10208-0.10209-0.18561-1.2969-0.18561-2.6551v-2.4694h5.3108l-0.0757 2.5797-0.0757 2.5797-2.3941 0.07537c-1.3167 0.04145-2.4776-0.0082-2.5797-0.11024zm10.583 0c-0.10209-0.10209-0.18562-1.2969-0.18562-2.6551v-2.4694h5.3108l-0.0757 2.5797-0.0757 2.5797-2.3941 0.07537c-1.3168 0.04145-2.4776-0.0082-2.5797-0.11024zm10.583 0c-0.10209-0.10209-0.18561-1.2969-0.18561-2.6551v-2.4694h5.3108l-0.0757 2.5797-0.0757 2.5797-2.3941 0.07537c-1.3168 0.04145-2.4776-0.0082-2.5797-0.11024zm10.583 0c-0.10208-0.10209-0.18561-1.2969-0.18561-2.6551v-2.4694h5.3108l-0.0757 2.5797-0.0757 2.5797-2.3941 0.07537c-1.3167 0.04145-2.4776-0.0082-2.5797-0.11024zm10.583 0c-0.10209-0.10209-0.18562-1.2969-0.18562-2.6551v-2.4694h5.3108l-0.0757 2.5797-0.0757 2.5797-2.3941 0.07537c-1.3167 0.04145-2.4776-0.0082-2.5797-0.11024zm10.583 0c-0.10209-0.10209-0.18561-1.2969-0.18561-2.6551v-2.4694h5.3108l-0.0757 2.5797-0.0757 2.5797-2.3941 0.07537c-1.3168 0.04145-2.4776-0.0082-2.5797-0.11024zm10.574-0.0092c-0.097-0.09701-0.17639-1.2876-0.17639-2.6458v-2.4694h5.2917v5.2917h-2.4694c-1.3582 0-2.5488-0.07937-2.6458-0.17639z" fill="#ededed"/>
    <path d="m130.69 206.99c-1.6292-1.3492-2.6367-2.3835-2.7459-2.8189-0.21595-0.8604-8e-3 -4.4232 0.53811-9.238 0.43501-3.8323 1.1324-10.109 2.0136-18.124 0.27999-2.5466 0.69019-6.2494 0.91156-8.2283 0.22136-1.979 0.40248-3.9733 0.40248-4.4318v-0.83364l-3.9026-2.7e-4c-4.1923-5.3e-4 -8.2924 0.32598-12.105 0.96359-1.3097 0.21905-3.4528 0.55153-4.7625 0.73885-2.5752 0.36833-10.126 2.3621-16.272 4.2966-4.4659 1.4057-9.2777 3.2813-12.361 4.8183-1.1961 0.5962-3.7214 1.6104-5.6117 2.2538-3.5121 1.1954-9.5826 4.2657-14.439 7.3026-1.3097 0.81909-4.1672 2.5459-6.35 3.8374-12.585 7.446-16.541 9.8963-17.727 10.981-3.4623 3.1657-6.4078 4.3566-12.398 5.0126l-2.6081 0.28563-1.19-0.88142c-1.3231-0.98013-1.0153-0.30987-5.369-11.695-1.2799-3.347-3.0978-7.6928-4.0399-9.6573s-2.3824-5.5685-3.2008-8.0088c-0.81837-2.4403-1.8913-5.2383-2.3844-6.2177-0.49303-0.97942-1.8583-4.7314-3.034-8.3377-2.0958-6.4287-2.1665-6.5909-3.6117-8.2945-0.90799-1.0703-1.4251-1.9053-1.3464-2.1744 0.070225-0.24022 0.20693-0.91301 0.30378-1.4951 0.24871-1.4948 0.58105-1.9233 2.8236-3.641 1.7904-1.3714 2.2546-1.5869 4.7324-2.1974 2.0918-0.51542 3.41-1.048 5.5253-2.2324 1.528-0.85551 3.7902-1.9279 5.0271-2.3831 1.8587-0.68399 21.19-5.6205 24.342-6.216 0.50932-0.0962 1.9381-0.45893 3.175-0.80601s4.5707-1.0618 7.4083-1.5883c2.8377-0.52647 7.243-1.358 9.7896-1.8479 6.8381-1.3153 7.401-1.3934 12.303-1.7059 2.4739-0.1577 6.4624-0.57346 8.8635-0.92391 6.5044-0.94934 17.465-1.9448 23.11-2.0988 4.9724-0.13565 15.589 0.21495 18.519 0.61157 1.4802 0.20037 1.5393 0.18599 1.4201-0.34561-0.16061-0.71665-1.9597-5.6669-3.2305-8.889-0.54525-1.3824-2.415-6.7998-4.155-12.039-2.2805-6.866-3.1269-9.7545-3.0322-10.347 0.22902-1.4316 1.3194-3.3884 2.0923-3.7551 0.66773-0.31675 0.89696-0.25131 2.9204 0.83364 2.4429 1.3099 3.499 1.9301 7.7321 4.5408 1.6007 0.98722 6.6609 4.0572 11.245 6.8221 4.5839 2.7649 9.3464 5.7048 10.583 6.533 3.921 2.6254 18.261 11.141 27.384 16.261 2.0373 1.1434 4.8948 2.7591 6.35 3.5904 4.4726 2.5551 13.916 7.2798 18.392 9.2013 2.9019 1.2459 5.0005 2.3164 6.3897 3.2592 1.3608 0.9236 1.5246 1.1401 1.7866 2.3618 0.32762 1.5276 0.27992 1.6649-1.4029 4.0373-1.0079 1.4208-1.3419 1.6625-4.5277 3.2758-1.8918 0.95798-4.0509 2.1326-4.798 2.6103-0.74713 0.47769-3.4856 1.9474-6.0854 3.266-3.3229 1.6854-5.2378 2.8382-6.4468 3.8812-1.7975 1.5506-8.3848 6.8425-14.143 11.362-11.268 8.8433-15.647 12.941-23.464 21.96-4.0331 4.653-8.6869 11.294-11.441 16.326-0.53405 0.97587-1.0574 1.8246-1.163 1.886-0.1056 0.0614-1.0853 0.19314-2.1772 0.29267l-1.9852 0.18095z" fill="#a1a1a1"/>
    <path d="m132.85 208.37c-1.5655-1.0915-4.4453-3.5653-4.5903-3.9432-0.32095-0.83636-0.12993-3.5809 0.88851-12.766 2.3146-20.875 2.9285-26.669 2.926-27.617l-3e-3 -0.99219-4.1672 5.3e-4c-4.3477 5.3e-4 -10.429 0.52187-13.824 1.1852-1.0914 0.21318-2.6392 0.46025-3.4396 0.54904-0.80036 0.0888-3.6579 0.75392-6.35 1.4781-10.123 2.7228-15.331 4.5062-21.273 7.2844-1.7321 0.80978-4.529 1.9358-6.2152 2.5024-4.0502 1.3607-8.5959 3.8364-24.605 13.401-9.6092 5.7409-13.531 8.2284-14.817 9.3986-2.684 2.4424-5.6007 3.5892-10.909 4.2893-2.8393 0.37449-2.9859 0.36948-3.7933-0.12952-0.46192-0.28548-1.0332-0.73273-1.2696-0.99388-0.23634-0.26115-1.8496-4.1643-3.5851-8.6736-1.7354-4.5094-3.8889-9.7415-4.7854-11.627-0.89656-1.8854-2.3297-5.467-3.1847-7.959-0.85504-2.492-1.9659-5.3546-2.4687-6.3615-0.50272-1.0068-1.8894-4.8443-3.0814-8.5277-2.1546-6.6574-2.1758-6.7062-3.5838-8.2377l-1.4164-1.5407 0.37541-1.8164c0.40639-1.9663 0.64587-2.2598 3.4403-4.2157 0.986-0.69014 2.1365-1.1489 4.2333-1.6882 2.2258-0.5724 3.51-1.1008 5.6575-2.328 3.718-2.1246 5.7458-2.7719 17.992-5.7436 5.7481-1.3949 11.82-2.8919 13.494-3.3268 1.6735-0.43488 5.3049-1.2109 8.0698-1.7245 2.7649-0.5136 7.1702-1.3393 9.7896-1.8348 7.2838-1.3781 7.6231-1.4244 12.47-1.7042 2.4927-0.14387 5.9577-0.5048 7.7-0.80207s4.5249-0.65773 6.1835-0.80103c1.6586-0.14329 4.5634-0.4451 6.4552-0.67067 7.5496-0.90022 22.931-0.97295 29.538-0.13967 1.0709 0.13507 2.0388 0.15493 2.1508 0.0441 0.11199-0.11081-0.0303-0.7885-0.31609-1.506-2.8942-7.2648-10.339-28.92-10.339-30.075 0-0.64924 1.1132-3.2186 1.5489-3.575 0.22236-0.1819 0.67002-0.33073 0.99481-0.33073 0.65331 0 4.6887 2.2098 10.156 5.5617 1.9645 1.2044 6.727 4.094 10.583 6.4214 3.8563 2.3274 8.3807 5.1246 10.054 6.2159 3.7705 2.4589 15.74 9.6439 23.151 13.897 14.177 8.1356 21.167 11.81 30.03 15.784 2.4011 1.0766 5.075 2.4428 5.942 3.036 1.3184 0.90214 1.6317 1.2698 1.9147 2.2473 0.39542 1.3658 0.26934 1.7156-1.4638 4.0617-1.0093 1.3663-1.4341 1.6663-4.8737 3.4423-12.639 6.526-14.86 7.804-17.676 10.171-2.6302 2.2103-6.3248 5.1597-13.344 10.652-5.8547 4.5815-6.8686 5.3997-9.1281 7.3656-6.5578 5.7058-15.045 14.889-19.481 21.079-2.0696 2.8877-4.6416 6.9323-5.9323 9.3288-0.64724 1.2018-1.3554 2.235-1.5737 2.2961-0.21828 0.061-1.1112 0.18313-1.9844 0.27128-1.2757 0.12881-1.7205 0.0676-2.2644-0.31168z" opacity="0"/>
    <path d="m132.85 208.37c-1.5655-1.0915-4.4453-3.5653-4.5903-3.9432-0.32095-0.83636-0.12993-3.5809 0.88851-12.766 2.3146-20.875 2.9285-26.669 2.926-27.617l-3e-3 -0.99219-4.1672 5.3e-4c-4.3477 5.3e-4 -10.429 0.52187-13.824 1.1852-1.0914 0.21318-2.6392 0.46025-3.4396 0.54904-0.80036 0.0888-3.6579 0.75392-6.35 1.4781-10.123 2.7228-15.331 4.5062-21.273 7.2844-1.7321 0.80978-4.529 1.9358-6.2152 2.5024-4.0502 1.3607-8.5959 3.8364-24.605 13.401-9.6092 5.7409-13.531 8.2284-14.817 9.3986-2.684 2.4424-5.6007 3.5892-10.909 4.2893-2.8393 0.37449-2.9859 0.36948-3.7933-0.12952-0.46192-0.28548-1.0332-0.73273-1.2696-0.99388-0.23634-0.26115-1.8496-4.1643-3.5851-8.6736-1.7354-4.5094-3.8889-9.7415-4.7854-11.627-0.89656-1.8854-2.3297-5.467-3.1847-7.959-0.85504-2.492-1.9659-5.3546-2.4687-6.3615-0.50272-1.0068-1.8894-4.8443-3.0814-8.5277-2.1546-6.6574-2.1758-6.7062-3.5838-8.2377l-1.4164-1.5407 0.37541-1.8164c0.40639-1.9663 0.64587-2.2598 3.4403-4.2157 0.986-0.69014 2.1365-1.1489 4.2333-1.6882 2.2258-0.5724 3.51-1.1008 5.6575-2.328 3.718-2.1246 5.7458-2.7719 17.992-5.7436 5.7481-1.3949 11.82-2.8919 13.494-3.3268 1.6735-0.43488 5.3049-1.2109 8.0698-1.7245 2.7649-0.5136 7.1702-1.3393 9.7896-1.8348 7.2838-1.3781 7.6231-1.4244 12.47-1.7042 2.4927-0.14387 5.9577-0.5048 7.7-0.80207s4.5249-0.65773 6.1835-0.80103c1.6586-0.14329 4.5634-0.4451 6.4552-0.67067 7.5496-0.90022 22.931-0.97295 29.538-0.13967 1.0709 0.13507 2.0388 0.15493 2.1508 0.0441 0.11199-0.11081-0.0303-0.7885-0.31609-1.506-2.8942-7.2648-10.339-28.92-10.339-30.075 0-0.64924 1.1132-3.2186 1.5489-3.575 0.22236-0.1819 0.67002-0.33073 0.99481-0.33073 0.65331 0 4.6887 2.2098 10.156 5.5617 1.9645 1.2044 6.727 4.094 10.583 6.4214 3.8563 2.3274 8.3807 5.1246 10.054 6.2159 3.7705 2.4589 15.74 9.6439 23.151 13.897 14.177 8.1356 21.167 11.81 30.03 15.784 2.4011 1.0766 5.075 2.4428 5.942 3.036 1.3184 0.90214 1.6317 1.2698 1.9147 2.2473 0.39542 1.3658 0.26934 1.7156-1.4638 4.0617-1.0093 1.3663-1.4341 1.6663-4.8737 3.4423-12.639 6.526-14.86 7.804-17.676 10.171-2.6302 2.2103-6.3248 5.1597-13.344 10.652-5.8547 4.5815-6.8686 5.3997-9.1281 7.3656-6.5578 5.7058-15.045 14.889-19.481 21.079-2.0696 2.8877-4.6416 6.9323-5.9323 9.3288-0.64724 1.2018-1.3554 2.235-1.5737 2.2961-0.21828 0.061-1.1112 0.18313-1.9844 0.27128-1.2757 0.12881-1.7205 0.0676-2.2644-0.31168zm-97.087-19.502c4.9824-2.6251 6.5684-3.5971 7.9826-4.8924 1.1539-1.0568 3.1691-2.4075 5.8208-3.9013 2.2307-1.2566 4.5117-2.5723 5.0688-2.9237 3.8154-2.4064 15.426-8.3205 19.889-10.131 1.0186-0.41319 2.6855-1.1334 3.7042-1.6005 4.7604-2.1829 18.307-6.6646 26.721-8.8401 8.3845-2.168 11.37-2.7517 17.63-3.4464 5.1952-0.5766 5.8521-0.60018 7.1438-0.25639 0.86098 0.22915 2.7801 0.38631 4.862 0.39813l3.4396 0.0196 3.4396 2.196c3.0071 1.9199 3.4495 2.2935 3.5184 2.9713 0.0433 0.42638-0.64567 5.9947-1.5311 12.374s-1.5626 11.646-1.5048 11.704c0.0578 0.0578 1.7282-1.9037 3.712-4.3589 3.4923-4.3222 6.6224-7.4866 12.629-12.768 5.9376-5.2203 15.913-13.152 19.821-15.76 1.0914-0.72828 2.8773-1.9265 3.9688-2.6628 2.4115-1.6267 9.796-6.3871 11.208-7.2249 0.88798-0.52701 0.9611-0.63959 0.5609-0.86355-0.25311-0.14165-4.4631-2.067-9.3555-4.2786-8.4785-3.8326-9.5257-4.3897-22.351-11.889-7.4004-4.3275-17.512-10.42-22.47-13.538-4.9584-3.1186-9.0561-5.6294-9.1061-5.5794-0.20198 0.20198 4.1907 12.159 5.216 14.199 2.094 4.1647 6.0814 13.048 6.0814 13.548 0 0.69931-1.8914 3.8692-2.4116 4.0418-0.40832 0.13549-20.023-2.7811-22.293-3.3149-0.60052-0.14119-3.7355-0.5016-6.9666-0.8009-5.4295-0.50296-5.9368-0.51205-6.695-0.12002-1.0066 0.52052-1.7604 0.59549-9.301 0.92502-8.138 0.35564-17.308 1.3997-18.709 2.1302-0.87894 0.45813-1.6993 0.57161-4.9747 0.68817-5.5267 0.19667-13.701 1.597-15.95 2.7325-1.3054 0.65896-3.4047 1.1817-10.674 2.6577-7.384 1.4994-10.171 2.1967-15.152 3.7906-3.3566 1.0742-6.366 2.0939-6.6875 2.2659-1.7032 0.91154-9.8314 6.4036-9.8314 6.6429 0 0.15405 0.23724 0.60269 0.5272 0.99698 0.32337 0.43971 0.72074 1.7941 1.0278 3.503 0.44799 2.4936 0.73992 3.2642 2.7801 7.3392 1.4078 2.812 2.2795 4.8698 2.2795 5.3813 0 0.4765 0.38524 1.4624 0.90714 2.3215 0.49892 0.82133 1.7334 3.8367 2.7433 6.7009 1.5968 4.5287 2.1391 5.7096 4.1596 9.0585 1.2778 2.118 2.4544 3.8484 2.6145 3.8454 0.16012-3e-3 3.0891-1.4797 6.5088-3.2815z" fill="#00aeda"/>
    <path d="m132.85 208.37c-1.5655-1.0915-4.4453-3.5653-4.5903-3.9432-0.32095-0.83636-0.12993-3.5809 0.88851-12.766 2.3146-20.875 2.9285-26.669 2.926-27.617l-3e-3 -0.99219-4.1672 5.3e-4c-4.3477 5.3e-4 -10.429 0.52187-13.824 1.1852-1.0914 0.21318-2.6392 0.46025-3.4396 0.54904-0.80036 0.0888-3.6579 0.75392-6.35 1.4781-10.123 2.7228-15.331 4.5062-21.273 7.2844-1.7321 0.80978-4.529 1.9358-6.2152 2.5024-4.0502 1.3607-8.5959 3.8364-24.605 13.401-9.6092 5.7409-13.531 8.2284-14.817 9.3986-2.684 2.4424-5.6007 3.5892-10.909 4.2893-2.8393 0.37449-2.9859 0.36948-3.7933-0.12952-0.46192-0.28548-1.0332-0.73273-1.2696-0.99388-0.23634-0.26115-1.8496-4.1643-3.5851-8.6736-1.7354-4.5094-3.8889-9.7415-4.7854-11.627-0.89656-1.8854-2.3297-5.467-3.1847-7.959-0.85504-2.492-1.9659-5.3546-2.4687-6.3615-0.50272-1.0068-1.8894-4.8443-3.0814-8.5277-2.1546-6.6574-2.1758-6.7062-3.5838-8.2377l-1.4164-1.5407 0.37541-1.8164c0.40639-1.9663 0.64587-2.2598 3.4403-4.2157 0.986-0.69014 2.1365-1.1489 4.2333-1.6882 2.2258-0.5724 3.51-1.1008 5.6575-2.328 3.718-2.1246 5.7458-2.7719 17.992-5.7436 5.7481-1.3949 11.82-2.8919 13.494-3.3268 1.6735-0.43488 5.3049-1.2109 8.0698-1.7245 2.7649-0.5136 7.1702-1.3393 9.7896-1.8348 7.2838-1.3781 7.6231-1.4244 12.47-1.7042 2.4927-0.14387 5.9577-0.5048 7.7-0.80207s4.5249-0.65773 6.1835-0.80103c1.6586-0.14329 4.5634-0.4451 6.4552-0.67067 7.5496-0.90022 22.931-0.97295 29.538-0.13967 1.0709 0.13507 2.0388 0.15493 2.1508 0.0441 0.11199-0.11081-0.0303-0.7885-0.31609-1.506-2.8942-7.2648-10.339-28.92-10.339-30.075 0-0.64924 1.1132-3.2186 1.5489-3.575 0.22236-0.1819 0.67002-0.33073 0.99481-0.33073 0.65331 0 4.6887 2.2098 10.156 5.5617 1.9645 1.2044 6.727 4.094 10.583 6.4214 3.8563 2.3274 8.3807 5.1246 10.054 6.2159 3.7705 2.4589 15.74 9.6439 23.151 13.897 14.177 8.1356 21.167 11.81 30.03 15.784 2.4011 1.0766 5.075 2.4428 5.942 3.036 1.3184 0.90214 1.6317 1.2698 1.9147 2.2473 0.39542 1.3658 0.26934 1.7156-1.4638 4.0617-1.0093 1.3663-1.4341 1.6663-4.8737 3.4423-12.639 6.526-14.86 7.804-17.676 10.171-2.6302 2.2103-6.3248 5.1597-13.344 10.652-5.8547 4.5815-6.8686 5.3997-9.1281 7.3656-6.5578 5.7058-15.045 14.889-19.481 21.079-2.0696 2.8877-4.6416 6.9323-5.9323 9.3288-0.64724 1.2018-1.3554 2.235-1.5737 2.2961-0.21828 0.061-1.1112 0.18313-1.9844 0.27128-1.2757 0.12881-1.7205 0.0676-2.2644-0.31168zm-95.235-20.191c3.3695-1.783 5.1345-2.8982 6.4823-4.0956 1.0887-0.9672 3.2699-2.4385 5.2917-3.5694 1.8918-1.0582 4.154-2.3666 5.0271-2.9077s3.433-1.9904 5.6885-3.2208c13.361-7.2883 28.247-13.128 44.185-17.335 8.0286-2.119 12.158-2.9379 18.323-3.633 4.9402-0.55708 5.7036-0.58608 7.0369-0.2673 0.8282 0.19802 2.9756 0.36178 4.8124 0.367l3.3169 9e-3 3.2813 2.0703c1.8048 1.1386 3.3989 2.2567 3.5426 2.4845 0.18183 0.28826-0.24257 4.0792-1.3954 12.464-0.9112 6.6276-1.6167 12.255-1.5678 12.505 0.059 0.30186 1.3738-1.137 3.9128-4.2821 5.6894-7.0475 12.32-13.151 25.635-23.598 3.7095-2.9104 5.4504-4.1634 11.022-7.9332 2.347-1.5879 10.801-6.9982 11.793-7.5468 0.49831-0.27569 0.75715-0.57015 0.61777-0.7028-0.13193-0.12556-4.3889-2.0953-9.4598-4.3772-8.8955-4.0029-9.6916-4.4243-22.622-11.976-7.371-4.3047-17.553-10.435-22.626-13.623-8.6355-5.4262-9.9601-6.2222-9.9572-5.9833 5.3e-4 0.052 1.0005 2.8924 2.2219 6.3122 1.5281 4.2784 3.3433 8.6045 5.8197 13.87 1.9794 4.2088 3.5989 7.8288 3.5989 8.0444 0 0.45612-1.7438 3.6519-2.1192 3.884-0.24682 0.15254-16.622-2.2816-22.222-3.3032-1.528-0.27875-5.0312-0.69852-7.785-0.93282-4.8847-0.41561-5.0428-0.41326-6.4823 0.0964-1.217 0.43085-2.6806 0.57178-8.3546 0.80451-8.5519 0.35078-17.664 1.3681-19.179 2.1415-0.86597 0.44178-1.7476 0.56665-4.8305 0.68419-2.2124 0.0844-5.8491 0.4753-8.7983 0.94582-4.1068 0.65521-5.463 0.98624-7.4083 1.8082-1.9031 0.80412-4.0281 1.3338-10.583 2.6381-6.7212 1.3373-9.4184 2.0152-14.939 3.7546l-6.7367 2.1227-5.1085 3.3178c-2.8097 1.8248-5.1723 3.4211-5.2504 3.5474-0.07803 0.12627 0.16759 0.63532 0.54584 1.1312 0.51687 0.67765 0.80545 1.5818 1.1616 3.6396 0.42496 2.4554 0.70067 3.1884 2.6722 7.1035 1.4275 2.8349 2.2274 4.7406 2.2811 5.4351 0.0496 0.64127 0.50378 1.8066 1.1344 2.9104 0.57839 1.0125 1.8206 4.0493 2.7604 6.7483 1.4944 4.2916 2.0014 5.3872 4.0409 8.7312 1.2827 2.1031 2.4491 3.9041 2.592 4.0022 0.14292 0.0981 1.1009-0.27519 2.1289-0.82944 1.028-0.55424 3.9527-2.1103 6.4993-3.4579z" fill="#5e5e5e"/>
    <path d="m131.01 206.56c-1.9756-1.6443-2.3809-2.115-2.5424-2.9531-0.11457-0.59427 0.0431-3.1347 0.39022-6.2887 3.071-27.902 3.7197-34.09 3.5942-34.293-0.0798-0.12913-2.2514-0.23247-4.8258-0.22963-9.8632 0.0109-19.548 1.7256-32.33 5.7239-4.4043 1.3778-10.34 3.672-13.229 5.1132-1.0914 0.54445-3.4727 1.4943-5.2917 2.1108-2.3018 0.7801-4.7736 1.92-8.1303 3.7495-7.5547 4.1175-29.436 17.34-30.763 18.59-3.1593 2.9746-5.623 3.9854-11.642 4.7764-2.915 0.38311-2.9133 0.38338-4.2563-0.70339-0.62786-0.50809-0.75556-0.80209-3.8264-8.8093-1.562-4.073-3.6708-9.1913-4.6861-11.374-1.0153-2.1828-2.4742-5.8142-3.2419-8.0698-0.76773-2.2556-1.8733-5.1203-2.4569-6.3662-0.58354-1.2458-2.0287-5.2344-3.2114-8.8635-2.0972-6.4352-2.1835-6.6344-3.4862-8.0536-1.306-1.4227-1.3321-1.4835-1.1717-2.7223 0.2628-2.0299 0.53813-2.4559 2.5779-3.9889 1.7054-1.2817 2.255-1.5323 4.7089-2.1471 2.1249-0.53241 3.4935-1.0905 5.8208-2.3737 1.6735-0.92269 3.9131-1.9877 4.9769-2.3666 1.0638-0.37893 6.8383-1.8809 12.832-3.3378 5.994-1.4568 12.208-2.9969 13.809-3.4223 1.6007-0.42544 8.0896-1.7303 14.42-2.8997 9.5985-1.7732 12.234-2.1671 15.875-2.3726 2.4011-0.13554 6.4492-0.55014 8.9958-0.92132 10.665-1.5545 15.445-1.8906 26.855-1.8882 7.157 2e-3 11.472 0.11473 13.329 0.34975 1.8956 0.23993 2.8308 0.26259 3.0202 0.0732 0.18938-0.18939-0.36687-1.9772-1.7964-5.7737-1.1389-3.0247-3.608-10.083-5.4868-15.686l-3.4161-10.186 0.44102-1.3229c0.60252-1.8074 1.0952-2.5135 1.7538-2.5135 0.70852 0 3.2187 1.3811 10.014 5.51 2.9832 1.8125 8.2219 4.9853 11.642 7.0507 3.4197 2.0654 7.5869 4.6454 9.2604 5.7334 3.7019 2.4066 17.592 10.727 24.474 14.66 13.154 7.5178 19.721 10.949 28.575 14.929 5.3882 2.4223 7.4199 3.7017 7.642 4.8123 0.28428 1.4214 0.18876 1.7738-0.9613 3.5465-1.0953 1.6884-1.2102 1.7768-4.4318 3.4082-1.819 0.92119-4.2082 2.2087-5.3094 2.8612s-3.8272 2.1108-6.0579 3.2406c-3.4147 1.7296-4.562 2.4785-7.2583 4.7382-1.7614 1.4762-7.0721 5.7161-11.802 9.422-11.674 9.1474-15.682 12.773-22.414 20.272-5.5292 6.1598-10.484 12.957-13.439 18.436-0.69329 1.2855-1.3932 2.3772-1.5553 2.426-0.16212 0.0488-1.0471 0.14741-1.9665 0.21904l-1.6718 0.13023zm-93.393-18.378c3.3695-1.783 5.1345-2.8982 6.4823-4.0956 1.0887-0.9672 3.2699-2.4385 5.2917-3.5694 1.8918-1.0582 4.154-2.3666 5.0271-2.9077s3.433-1.9904 5.6885-3.2208c13.361-7.2883 28.247-13.128 44.185-17.335 8.0286-2.119 12.158-2.9379 18.323-3.633 4.9402-0.55708 5.7036-0.58608 7.0369-0.2673 0.8282 0.19802 2.9756 0.36178 4.8124 0.367l3.3169 9e-3 3.2813 2.0703c1.8048 1.1386 3.3989 2.2567 3.5426 2.4845 0.18183 0.28826-0.24257 4.0792-1.3954 12.464-0.9112 6.6276-1.6167 12.255-1.5678 12.505 0.059 0.30186 1.3738-1.137 3.9128-4.2821 5.6894-7.0475 12.32-13.151 25.635-23.598 3.7095-2.9104 5.4504-4.1634 11.022-7.9332 2.347-1.5879 10.801-6.9982 11.793-7.5468 0.49831-0.27569 0.75715-0.57015 0.61777-0.7028-0.13193-0.12556-4.3889-2.0953-9.4598-4.3772-8.8955-4.0029-9.6916-4.4243-22.622-11.976-7.371-4.3047-17.553-10.435-22.626-13.623-8.6355-5.4262-9.9601-6.2222-9.9572-5.9833 5.3e-4 0.052 1.0005 2.8924 2.2219 6.3122 1.5281 4.2784 3.3433 8.6045 5.8197 13.87 1.9794 4.2088 3.5989 7.8288 3.5989 8.0444 0 0.45612-1.7438 3.6519-2.1192 3.884-0.24682 0.15254-16.622-2.2816-22.222-3.3032-1.528-0.27875-5.0312-0.69852-7.785-0.93282-4.8847-0.41561-5.0428-0.41326-6.4823 0.0964-1.217 0.43085-2.6806 0.57178-8.3546 0.80451-8.5519 0.35078-17.664 1.3681-19.179 2.1415-0.86597 0.44178-1.7476 0.56665-4.8305 0.68419-2.2124 0.0844-5.8491 0.4753-8.7983 0.94582-4.1068 0.65521-5.463 0.98624-7.4083 1.8082-1.9031 0.80412-4.0281 1.3338-10.583 2.6381-6.7212 1.3373-9.4184 2.0152-14.939 3.7546l-6.7367 2.1227-5.1085 3.3178c-2.8097 1.8248-5.1723 3.4211-5.2504 3.5474-0.07803 0.12627 0.16759 0.63532 0.54584 1.1312 0.51687 0.67765 0.80545 1.5818 1.1616 3.6396 0.42496 2.4554 0.70067 3.1884 2.6722 7.1035 1.4275 2.8349 2.2274 4.7406 2.2811 5.4351 0.0496 0.64127 0.50378 1.8066 1.1344 2.9104 0.57839 1.0125 1.8206 4.0493 2.7604 6.7483 1.4944 4.2916 2.0014 5.3872 4.0409 8.7312 1.2827 2.1031 2.4491 3.9041 2.592 4.0022 0.14292 0.0981 1.1009-0.27519 2.1289-0.82944 1.028-0.55424 3.9527-2.1103 6.4993-3.4579z" fill="#fff"/>
    <path d="m131.01 206.56c-1.9756-1.6443-2.3809-2.115-2.5424-2.9531-0.11457-0.59427 0.0431-3.1347 0.39022-6.2887 3.071-27.902 3.7197-34.09 3.5942-34.293-0.0798-0.12913-2.2514-0.23247-4.8258-0.22963-9.8632 0.0109-19.548 1.7256-32.33 5.7239-4.4043 1.3778-10.34 3.672-13.229 5.1132-1.0914 0.54445-3.4727 1.4943-5.2917 2.1108-2.3018 0.7801-4.7736 1.92-8.1303 3.7495-7.5547 4.1175-29.436 17.34-30.763 18.59-3.1593 2.9746-5.623 3.9854-11.642 4.7764-2.915 0.38311-2.9133 0.38338-4.2563-0.70339-0.62786-0.50809-0.75556-0.80209-3.8264-8.8093-1.562-4.073-3.6708-9.1913-4.6861-11.374-1.0153-2.1828-2.4742-5.8142-3.2419-8.0698-0.76773-2.2556-1.8733-5.1203-2.4569-6.3662-0.58354-1.2458-2.0287-5.2344-3.2114-8.8635-2.0972-6.4352-2.1835-6.6344-3.4862-8.0536-1.306-1.4227-1.3321-1.4835-1.1717-2.7223 0.2628-2.0299 0.53813-2.4559 2.5779-3.9889 1.7054-1.2817 2.255-1.5323 4.7089-2.1471 2.1249-0.53241 3.4935-1.0905 5.8208-2.3737 1.6735-0.92269 3.9131-1.9877 4.9769-2.3666 1.0638-0.37893 6.8383-1.8809 12.832-3.3378 5.994-1.4568 12.208-2.9969 13.809-3.4223 1.6007-0.42544 8.0896-1.7303 14.42-2.8997 9.5985-1.7732 12.234-2.1671 15.875-2.3726 2.4011-0.13554 6.4492-0.55014 8.9958-0.92132 10.665-1.5545 15.445-1.8906 26.855-1.8882 7.157 2e-3 11.472 0.11473 13.329 0.34975 1.8956 0.23993 2.8308 0.26259 3.0202 0.0732 0.18938-0.18939-0.36687-1.9772-1.7964-5.7737-1.1389-3.0247-3.608-10.083-5.4868-15.686l-3.4161-10.186 0.44102-1.3229c0.60252-1.8074 1.0952-2.5135 1.7538-2.5135 0.70852 0 3.2187 1.3811 10.014 5.51 2.9832 1.8125 8.2219 4.9853 11.642 7.0507 3.4197 2.0654 7.5869 4.6454 9.2604 5.7334 3.7019 2.4066 17.592 10.727 24.474 14.66 13.154 7.5178 19.721 10.949 28.575 14.929 5.3882 2.4223 7.4199 3.7017 7.642 4.8123 0.28428 1.4214 0.18876 1.7738-0.9613 3.5465-1.0953 1.6884-1.2102 1.7768-4.4318 3.4082-1.819 0.92119-4.2082 2.2087-5.3094 2.8612s-3.8272 2.1108-6.0579 3.2406c-3.4147 1.7296-4.562 2.4785-7.2583 4.7382-1.7614 1.4762-7.0721 5.7161-11.802 9.422-11.674 9.1474-15.682 12.773-22.414 20.272-5.5292 6.1598-10.484 12.957-13.439 18.436-0.69329 1.2855-1.3932 2.3772-1.5553 2.426-0.16212 0.0488-1.0471 0.14741-1.9665 0.21904l-1.6718 0.13023zm-95.096-17.035c5.0792-2.6883 6.8648-3.776 8.282-5.0448 1.6839-1.5076 3.637-2.7057 14.323-8.7862 1.528-0.86943 3.7902-2.0911 5.0271-2.7148 4.0262-2.0303 9.9685-4.8978 10.149-4.8978 0.09712 0 1.6912-0.67024 3.5424-1.4894 6.3609-2.8148 18.016-6.7612 26.922-9.1154 7.995-2.1135 12.828-3.0669 18.72-3.6927 5.1898-0.55125 5.584-0.55979 7.1924-0.15579 1.305 0.32781 2.3477 0.3879 4.4739 0.25781l2.7722-0.16962 3.3323 2.0641c1.8328 1.1352 3.4449 2.1998 3.5825 2.3656 0.16091 0.19388-0.35811 4.6888-1.4541 12.593-0.93737 6.7603-1.7055 12.569-1.707 12.909-2e-3 0.37431 0.1275 0.57602 0.32802 0.51237 0.18191-0.0577 2.2357-2.4365 4.5641-5.2862 3.9533-4.8385 6.3628-7.317 11.923-12.264 5.3959-4.8015 16.342-13.527 20.356-16.227 1.4552-0.97874 3.3602-2.2651 4.2333-2.8586 2.7305-1.856 10.53-6.8506 11.708-7.4973 0.61846-0.33962 1.1245-0.75808 1.1245-0.92993 0-0.17184-4.316-2.2607-9.5912-4.642-9.3196-4.207-9.9769-4.5548-23.217-12.286-7.4943-4.376-17.84-10.606-22.99-13.844-5.1504-3.2381-9.5201-5.8278-9.7104-5.7547-0.26498 0.10169-0.13858 0.74012 0.53966 2.7258 2.4809 7.2633 3.7668 10.551 5.8512 14.961 1.2559 2.6567 2.9399 6.2164 3.7424 7.9105l1.459 3.0801-0.97782 1.7485c-0.75106 1.343-1.1152 1.7485-1.5701 1.7485-0.74885 0-18.926-2.786-21.587-3.3086-2.1424-0.42075-10.019-1.1893-12.188-1.1893-0.73244 0-1.6727 0.17635-2.0895 0.39187-0.55487 0.28694-2.4467 0.4641-7.0645 0.66157-8.6184 0.36856-18.924 1.476-20.33 2.1846-0.83681 0.42178-1.9168 0.58446-5.1594 0.77719-2.2556 0.13406-6.3632 0.59927-9.1281 1.0338-4.1753 0.6562-5.3633 0.94606-7.0115 1.7106-1.6138 0.74863-3.5657 1.2371-10.451 2.6152-6.9958 1.4002-9.6299 2.0629-15.162 3.8145l-6.6958 2.1199-5.2103 3.4098c-2.8657 1.8754-5.2483 3.6073-5.2948 3.8485-0.04646 0.24128 0.20786 0.82843 0.56516 1.3048 0.47576 0.6343 0.76445 1.5743 1.0786 3.512 0.38376 2.3671 0.66564 3.1282 2.6759 7.2246 1.3126 2.6748 2.2469 4.911 2.2469 5.3777 0 0.45571 0.44872 1.5577 1.0444 2.565 0.57443 0.97133 1.8355 4.0282 2.8023 6.7931 1.5666 4.4802 2.0328 5.4804 4.2848 9.1943 1.3898 2.292 2.694 4.1672 2.8982 4.1672 0.2042 0 3.2852-1.5422 6.8466-3.4272z" fill="none"/>
   </g>
  </g>
 </g>
</svg>
