<svg viewBox="0 0 150 150" version="1.1" xmlns="http://www.w3.org/2000/svg" desc="Created on https://convert2svg.com/" ><path fill="rgb(85,90,93)" stroke="rgb(85,90,93)" stroke-width="1" opacity="1" d="M 66.5 22 L 67.5 24 L 66.5 22 Z " /><path fill="rgb(85,90,93)" stroke="rgb(85,90,93)" stroke-width="1" opacity="1" d="M 56.5 23 L 57 24.5 L 55.5 27 L 55 25.5 L 56.5 23 Z " /><path fill="rgb(85,90,93)" stroke="rgb(85,90,93)" stroke-width="1" opacity="1" d="M 113 35 L 115 35 L 115 41.5 L 115.5 42 L 133.5 42 L 133.5 43 L 122 44 L 122 49 L 128.5 49 L 129 51 L 115 51 L 115 56 L 125.5 56 L 126 58 L 110.5 58 L 110 56 Q 116.4 58.1 114 51 L 100.5 51 L 100 49 L 106 49 L 106 44 L 100 42.5 L 113 42 L 113 35 Z M 108 44 L 108 49 L 121 49 L 121 44 L 108 44 Z " /><path fill="rgb(85,90,93)" stroke="rgb(85,90,93)" stroke-width="1" opacity="1" d="M 60.5 38 L 63 38.5 L 64 40.5 L 62.5 40 L 60.5 38 Z " /><path fill="rgb(85,90,93)" stroke="rgb(85,90,93)" stroke-width="1" opacity="1" d="M 53.5 55 L 56 56 L 55.5 58 L 53.5 55 Z " /><path fill="rgb(85,90,93)" stroke="rgb(85,90,93)" stroke-width="1" opacity="1" d="M 106.5 59 L 109 60.5 L 108.5 62 L 108 60 L 106.5 59 Z " /><path fill="rgb(85,90,93)" stroke="rgb(85,90,93)" stroke-width="1" opacity="1" d="M 63.5 63 L 64.5 65 L 63.5 63 Z " /><path fill="rgb(85,90,93)" stroke="rgb(85,90,93)" stroke-width="1" opacity="1" d="M 57.5 64 L 59 64.5 L 56.5 66 L 57.5 64 Z " /><path fill="rgb(85,90,93)" stroke="rgb(85,90,93)" stroke-width="1" opacity="1" d="M 108.5 68 L 109 71.5 L 108 71.5 L 108.5 68 Z " /><path fill="rgb(85,90,93)" stroke="rgb(85,90,93)" stroke-width="1" opacity="1" d="M 31.5 79 L 32 87 L 41.5 87 L 42 89 Q 38.3 87.7 40 93.5 L 41 96 L 32 96 L 32 101 Q 37.2 99.3 36 103 L 31 103 L 31 95 L 24 95 L 24 89.5 L 22.5 88 L 16 87.5 L 31 87 L 31.5 79 Z M 25 89 L 25 94 L 38 94 L 38 89 L 25 89 Z " /><path fill="rgb(85,90,93)" stroke="rgb(85,90,93)" stroke-width="1" opacity="1" d="M 67.5 88 L 68.5 90 L 67.5 88 Z " /><path fill="rgb(85,90,93)" stroke="rgb(85,90,93)" stroke-width="1" opacity="1" d="M 71.5 89 L 74 90.5 L 72.5 91 L 71.5 89 Z " /><path fill="rgb(85,90,93)" stroke="rgb(85,90,93)" stroke-width="1" opacity="1" d="M 42.5 91 L 43 93.5 L 42 93.5 L 42.5 91 Z " /><path fill="rgb(85,90,93)" stroke="rgb(85,90,93)" stroke-width="1" opacity="1" d="M 94.5 92 L 93.5 94 L 94.5 92 Z " /><path fill="rgb(85,90,93)" stroke="rgb(85,90,93)" stroke-width="1" opacity="1" d="M 89.5 99 L 90 116.5 L 89 116.5 L 89.5 99 Z " /><path fill="rgb(85,90,93)" stroke="rgb(85,90,93)" stroke-width="1" opacity="1" d="M 43.5 110 L 45 112.5 L 43 111.5 L 43.5 110 Z " /><path fill="rgb(85,90,93)" stroke="rgb(85,90,93)" stroke-width="1" opacity="1" d="M 56.5 113 L 59 114.5 L 57.5 115 L 56.5 113 Z " /><path fill="rgb(85,90,93)" stroke="rgb(85,90,93)" stroke-width="1" opacity="1" d="M 65.5 113 L 64.5 115 L 63 114.5 L 65.5 113 Z " /><path fill="rgb(85,90,93)" stroke="rgb(85,90,93)" stroke-width="1" opacity="1" d="M 101.5 116 L 108 117.5 L 101 118 L 101.5 116 Z " /><path fill="rgb(85,90,93)" stroke="rgb(85,90,93)" stroke-width="1" opacity="1" d="M 54.5 118 L 66 118.5 L 54.5 119 L 54.5 118 Z " /><path fill="rgb(74,82,87)" stroke="rgb(74,82,87)" stroke-width="1" opacity="1" d="M 54.5 30 L 53.5 32 L 54.5 30 Z " /><path fill="rgb(74,82,87)" stroke="rgb(74,82,87)" stroke-width="1" opacity="1" d="M 54.5 38 L 55 40.5 L 54 40.5 L 54.5 38 Z " /><path fill="rgb(74,82,87)" stroke="rgb(74,82,87)" stroke-width="1" opacity="1" d="M 53 45 L 55 45.5 L 53.5 49 L 53 45 Z " /><path fill="rgb(74,82,87)" stroke="rgb(74,82,87)" stroke-width="1" opacity="1" d="M 66.5 48 L 67 50 L 65 49.5 L 66.5 48 Z " /><path fill="rgb(74,82,87)" stroke="rgb(74,82,87)" stroke-width="1" opacity="1" d="M 52 54 L 54 54.5 L 52 55.5 L 52 54 Z " /><path fill="rgb(74,82,87)" stroke="rgb(74,82,87)" stroke-width="1" opacity="1" d="M 57.5 55 L 56.5 57 L 57.5 55 Z " /><path fill="rgb(74,82,87)" stroke="rgb(74,82,87)" stroke-width="1" opacity="1" d="M 51.5 60 L 53 63.5 L 52 63.5 L 51.5 60 Z " /><path fill="rgb(74,82,87)" stroke="rgb(74,82,87)" stroke-width="1" opacity="1" d="M 68.5 62 L 69 63.5 L 67 64.5 L 68.5 62 Z " /><path fill="rgb(74,82,87)" stroke="rgb(74,82,87)" stroke-width="1" opacity="1" d="M 50.5 66 L 50 67.5 L 47.5 73 L 47 71.5 L 50.5 66 Z " /><path fill="rgb(74,82,87)" stroke="rgb(74,82,87)" stroke-width="1" opacity="1" d="M 69 68 L 71 68.5 L 70.5 70 L 72 70.5 L 71.5 72 L 73 72.5 L 72.5 74 L 74 74.5 L 72.5 75 L 69 68 Z " /><path fill="rgb(74,82,87)" stroke="rgb(74,82,87)" stroke-width="1" opacity="1" d="M 108.5 72 L 109 74.5 L 108 74.5 L 108.5 72 Z " /><path fill="rgb(74,82,87)" stroke="rgb(74,82,87)" stroke-width="1" opacity="1" d="M 74.5 78 Q 76.8 77.3 76 79.5 L 74.5 78 Z " /><path fill="rgb(74,82,87)" stroke="rgb(74,82,87)" stroke-width="1" opacity="1" d="M 75.5 81 L 76.5 83 Q 73.7 83.7 75.5 81 Z " /><path fill="rgb(74,82,87)" stroke="rgb(74,82,87)" stroke-width="1" opacity="1" d="M 77.5 90 L 78 92.5 L 76 91.5 L 77.5 90 Z " /><path fill="rgb(74,82,87)" stroke="rgb(74,82,87)" stroke-width="1" opacity="1" d="M 101.5 97 L 101 98.5 L 100.5 117 L 100 98.5 L 101.5 97 Z " /><path fill="rgb(74,82,87)" stroke="rgb(74,82,87)" stroke-width="1" opacity="1" d="M 75 103 Q 78.7 101.7 77 107.5 L 76 107.5 L 75 103 Z " /><path fill="rgb(74,82,87)" stroke="rgb(74,82,87)" stroke-width="1" opacity="1" d="M 43.5 104 L 44 109.5 L 43 109.5 L 43.5 104 Z " /><path fill="rgb(74,82,87)" stroke="rgb(74,82,87)" stroke-width="1" opacity="1" d="M 46 106 L 52 106.5 L 46.5 108 L 46 106 Z " /><path fill="rgb(74,82,87)" stroke="rgb(74,82,87)" stroke-width="1" opacity="1" d="M 70.5 106 L 75 106.5 L 70.5 107 L 70.5 106 Z " /><path fill="rgb(74,82,87)" stroke="rgb(74,82,87)" stroke-width="1" opacity="1" d="M 48.5 108 L 53 108.5 L 48.5 109 L 48.5 108 Z " /><path fill="rgb(74,82,87)" stroke="rgb(74,82,87)" stroke-width="1" opacity="1" d="M 69.5 108 L 74 108.5 L 69.5 109 L 69.5 108 Z " /><path fill="rgb(74,82,87)" stroke="rgb(74,82,87)" stroke-width="1" opacity="1" d="M 59.5 109 L 63 109.5 L 59.5 110 L 59.5 109 Z " /><path fill="rgb(74,82,87)" stroke="rgb(74,82,87)" stroke-width="1" opacity="1" d="M 72.5 112 L 76 113.5 Q 76.7 116.1 74 115 Q 75.1 112.3 72.5 113 L 72.5 112 Z " /><path fill="rgb(74,82,87)" stroke="rgb(74,82,87)" stroke-width="1" opacity="1" d="M 73.5 116 L 72.5 118 L 73.5 116 Z " /><path fill="rgb(74,82,87)" stroke="rgb(74,82,87)" stroke-width="1" opacity="1" d="M 45.5 117 L 48 118.5 L 46.5 119 L 45.5 117 Z " /><path fill="rgb(74,82,87)" stroke="rgb(74,82,87)" stroke-width="1" opacity="1" d="M 66.5 118 L 70 118.5 L 66.5 119 L 66.5 118 Z " /><path fill="rgb(134,160,125)" stroke="rgb(134,160,125)" stroke-width="1" opacity="1" d="M 66.5 25 L 67 39.5 L 64.5 41 L 64.5 40 L 66 39.5 L 66.5 25 Z " /><path fill="rgb(134,160,125)" stroke="rgb(134,160,125)" stroke-width="1" opacity="1" d="M 57.5 28 L 62 29.5 L 58.5 30 L 57.5 28 Z " /><path fill="rgb(134,160,125)" stroke="rgb(134,160,125)" stroke-width="1" opacity="1" d="M 54.5 31 L 62 32 Q 63.3 35.3 58.5 34 L 54.5 35 L 53 32.5 L 54.5 31 Z M 56 32 Q 55 35 58 34 Q 59 31 56 32 Z " /><path fill="rgb(134,160,125)" stroke="rgb(134,160,125)" stroke-width="1" opacity="1" d="M 56.5 36 Q 62.6 34.8 62 37.5 L 60.5 37 L 57.5 38 L 56.5 36 Z " /><path fill="rgb(134,160,125)" stroke="rgb(134,160,125)" stroke-width="1" opacity="1" d="M 85 61 L 92.5 61 L 93 62.5 L 92 64.5 L 93 69 L 88 69 L 88 62.5 L 86.5 62 L 85 62.5 L 85 61 Z " /><path fill="rgb(134,160,125)" stroke="rgb(134,160,125)" stroke-width="1" opacity="1" d="M 96.5 61 L 107 61 L 107 68.5 L 105 67.5 L 104.5 66 L 102.5 70 L 98 68.5 L 99 62 Q 95.7 62.8 96.5 61 Z " /><path fill="rgb(134,160,125)" stroke="rgb(134,160,125)" stroke-width="1" opacity="1" d="M 53 64 L 60.5 67 L 67 64 L 67 67.5 L 74 81.5 L 74 89 L 65.5 87 L 56.5 87 L 52.5 89 L 52 86.5 L 55 74 Q 52 72.8 53 76.5 Q 49.8 79.8 51 87.5 L 49.5 89 L 45.5 90 L 45 86.5 L 52 67.5 L 51.5 66 L 53 66.5 L 53 64 Z M 55 71 L 55 73 L 57 72 L 55 71 Z " /><path fill="rgb(134,160,125)" stroke="rgb(134,160,125)" stroke-width="1" opacity="1" d="M 95.5 64 L 96 67.5 L 95 67.5 L 95.5 64 Z " /><path fill="rgb(134,160,125)" stroke="rgb(134,160,125)" stroke-width="1" opacity="1" d="M 84.5 65 L 85 67.5 L 84 67.5 L 84.5 65 Z " /><path fill="rgb(134,160,125)" stroke="rgb(134,160,125)" stroke-width="1" opacity="1" d="M 107.5 70 L 108 73.5 L 107 73.5 L 107.5 70 Z " /><path fill="rgb(134,160,125)" stroke="rgb(134,160,125)" stroke-width="1" opacity="1" d="M 93.5 78 L 94 81.5 L 93 81.5 L 93.5 78 Z " /><path fill="rgb(134,160,125)" stroke="rgb(134,160,125)" stroke-width="1" opacity="1" d="M 96.5 91 L 97.5 93 L 96.5 91 Z " /><path fill="rgb(134,160,125)" stroke="rgb(134,160,125)" stroke-width="1" opacity="1" d="M 86.5 92 L 87.5 94 L 86.5 92 Z " /><path fill="rgb(134,160,125)" stroke="rgb(134,160,125)" stroke-width="1" opacity="1" d="M 99.5 95 L 100.5 97 L 99.5 95 Z " /><path fill="rgb(134,160,125)" stroke="rgb(134,160,125)" stroke-width="1" opacity="1" d="M 45.5 103 L 46 105.5 L 45 105.5 L 45.5 103 Z " /><path fill="rgb(134,160,125)" stroke="rgb(134,160,125)" stroke-width="1" opacity="1" d="M 47 113 L 56.5 115 L 65.5 115 L 72.5 113 L 72 114.5 L 71.5 117 L 48 117 L 47 113 Z " /><path fill="rgb(134,160,125)" stroke="rgb(134,160,125)" stroke-width="1" opacity="1" d="M 115.5 128 L 116.5 130 L 115.5 128 Z " /><path fill="rgb(134,160,125)" stroke="rgb(134,160,125)" stroke-width="1" opacity="1" d="M 25.5 131 L 35 131.5 L 25.5 132 L 25.5 131 Z " /><path fill="rgb(134,160,125)" stroke="rgb(134,160,125)" stroke-width="1" opacity="1" d="M 45.5 131 L 48.5 135 L 45.5 131 Z " /><path fill="rgb(134,160,125)" stroke="rgb(134,160,125)" stroke-width="1" opacity="1" d="M 122.5 131 L 124 133.5 L 122 134 L 122.5 131 Z " /><path fill="rgb(134,160,125)" stroke="rgb(134,160,125)" stroke-width="1" opacity="1" d="M 10.5 143 Q 15.8 141.8 17 144.5 L 14.5 145 L 10.5 144 L 10.5 143 Z " /><path fill="rgb(134,160,125)" stroke="rgb(134,160,125)" stroke-width="1" opacity="1" d="M 32.5 143 L 46 143.5 Q 44.7 146.3 43.5 144 L 40.5 145 L 38.5 145 L 32.5 144 L 31 144.5 L 32.5 143 Z " /><path fill="rgb(134,160,125)" stroke="rgb(134,160,125)" stroke-width="1" opacity="1" d="M 126 143 L 129.5 144 L 136 143 Q 137.3 146.3 132.5 145 L 130.5 144 L 126 145 L 126 143 Z " /><path fill="rgb(134,160,125)" stroke="rgb(134,160,125)" stroke-width="1" opacity="1" d="M 137 143 L 140 143.5 L 137 145 L 137 143 Z " /><path fill="rgb(90,94,99)" stroke="rgb(90,94,99)" stroke-width="1" opacity="1" d="M 0 0 L 150 0 L 150 150 L 0 150 L 0 0 Z M 65 21 L 56 23 L 55 27 L 55 29 L 54 28 L 53 30 L 33 40 Q 27 44 24 52 Q 23 58 26 61 L 38 75 L 41 81 Q 40 84 43 83 L 42 85 L 43 87 L 42 95 L 40 94 Q 38 88 42 89 L 42 87 L 32 87 L 32 79 L 31 87 L 16 88 L 23 88 L 24 90 L 24 95 L 31 95 L 31 103 L 36 103 Q 37 99 32 101 L 32 96 L 41 96 L 35 110 Q 34 117 38 119 L 19 120 L 24 132 Q 35 134 41 129 L 43 129 L 58 142 L 64 142 L 75 137 Q 78 136 77 132 L 77 130 L 86 138 L 90 139 L 91 135 Q 95 134 98 137 Q 105 138 108 136 L 110 130 L 115 128 L 122 138 Q 124 139 123 135 L 126 136 L 131 131 L 131 121 L 132 120 L 110 119 L 108 117 Q 102 118 101 116 L 108 113 L 118 105 L 124 97 L 126 91 Q 127 81 123 77 L 109 64 Q 111 69 107 68 L 109 61 L 106 59 L 100 52 L 114 51 Q 116 58 110 56 L 111 58 L 126 58 L 126 56 L 115 56 L 115 51 L 129 51 L 129 49 L 122 49 L 122 44 L 134 43 L 134 42 L 115 42 L 115 35 L 113 36 L 113 42 L 100 43 L 103 44 L 106 44 L 106 49 Q 101 50 99 48 L 100 39 L 107 30 L 108 25 L 105 22 L 100 21 L 83 22 L 72 25 Q 67 26 68 24 L 65 21 Z M 7 140 L 7 142 L 13 141 Q 14 145 9 143 L 8 145 L 17 145 L 18 144 L 16 143 L 18 142 L 18 140 L 7 140 Z M 19 140 L 19 142 L 22 141 L 19 140 Z M 30 140 L 30 142 L 30 144 L 31 145 L 38 145 L 40 145 L 42 146 L 44 145 Q 47 146 46 143 L 33 143 Q 34 140 36 142 L 38 141 L 30 140 Z M 126 140 L 126 145 L 144 145 L 144 143 L 141 144 L 140 143 L 129 143 L 139 142 L 140 141 L 142 142 L 144 142 L 144 140 L 126 140 Z " /><path fill="rgb(90,94,99)" stroke="rgb(90,94,99)" stroke-width="1" opacity="1" d="M 67.5 26 L 68 39.5 L 67 39.5 L 67.5 26 Z " /><path fill="rgb(90,94,99)" stroke="rgb(90,94,99)" stroke-width="1" opacity="1" d="M 59.5 38 L 60.5 40 L 59.5 38 Z " /><path fill="rgb(90,94,99)" stroke="rgb(90,94,99)" stroke-width="1" opacity="1" d="M 108 44 L 121 44 L 121 49 L 108 49 L 108 44 Z " /><path fill="rgb(90,94,99)" stroke="rgb(90,94,99)" stroke-width="1" opacity="1" d="M 94.5 59 L 97 59.5 L 94.5 60 L 94.5 59 Z " /><path fill="rgb(90,94,99)" stroke="rgb(90,94,99)" stroke-width="1" opacity="1" d="M 82.5 60 L 83 67.5 L 82 67.5 L 82.5 60 Z " /><path fill="rgb(90,94,99)" stroke="rgb(90,94,99)" stroke-width="1" opacity="1" d="M 82.5 77 L 83 78.5 L 82 81.5 Q 84.3 82.8 81.5 84 L 81 78.5 L 82.5 77 Z " /><path fill="rgb(90,94,99)" stroke="rgb(90,94,99)" stroke-width="1" opacity="1" d="M 77.5 85 L 78 88.5 L 77 88.5 L 77.5 85 Z " /><path fill="rgb(90,94,99)" stroke="rgb(90,94,99)" stroke-width="1" opacity="1" d="M 57 87 L 64.5 87 L 65 88.5 L 63.5 88 Q 58.7 86.8 57.5 89 L 57 87 Z " /><path fill="rgb(90,94,99)" stroke="rgb(90,94,99)" stroke-width="1" opacity="1" d="M 25 89 L 38 89 L 38 94 L 25 94 L 25 89 Z " /><path fill="rgb(90,94,99)" stroke="rgb(90,94,99)" stroke-width="1" opacity="1" d="M 94.5 89 L 96 91.5 L 94 90.5 L 94.5 89 Z " /><path fill="rgb(90,94,99)" stroke="rgb(90,94,99)" stroke-width="1" opacity="1" d="M 96.5 93 L 97.5 95 L 96.5 93 Z " /><path fill="rgb(90,94,99)" stroke="rgb(90,94,99)" stroke-width="1" opacity="1" d="M 86.5 94 L 88.5 97 L 86.5 94 Z " /><path fill="rgb(90,94,99)" stroke="rgb(90,94,99)" stroke-width="1" opacity="1" d="M 92.5 95 L 91.5 97 L 92.5 95 Z " /><path fill="rgb(90,94,99)" stroke="rgb(90,94,99)" stroke-width="1" opacity="1" d="M 42.5 97 Q 45.5 98.5 42.5 100 L 42.5 97 Z " /><path fill="rgb(90,94,99)" stroke="rgb(90,94,99)" stroke-width="1" opacity="1" d="M 90.5 98 L 91 117.5 L 90 117.5 L 90.5 98 Z " /><path fill="rgb(90,94,99)" stroke="rgb(90,94,99)" stroke-width="1" opacity="1" d="M 44.5 111 L 44 112.5 L 43.5 114 L 43 112.5 L 44.5 111 Z " /><path fill="rgb(90,94,99)" stroke="rgb(90,94,99)" stroke-width="1" opacity="1" d="M 69.5 112 L 68.5 114 L 69.5 112 Z " /><path fill="rgb(90,94,99)" stroke="rgb(90,94,99)" stroke-width="1" opacity="1" d="M 45.5 116 L 46.5 118 L 45.5 116 Z " /><path fill="rgb(106,116,113)" stroke="rgb(106,116,113)" stroke-width="1" opacity="1" d="M 91.5 21 L 100 21.5 L 91.5 22 L 91.5 21 Z " /><path fill="rgb(106,116,113)" stroke="rgb(106,116,113)" stroke-width="1" opacity="1" d="M 82.5 22 L 85 22.5 L 82.5 23 L 82.5 22 Z " /><path fill="rgb(106,116,113)" stroke="rgb(106,116,113)" stroke-width="1" opacity="1" d="M 76.5 23 L 79 23.5 L 76.5 24 L 76.5 23 Z " /><path fill="rgb(106,116,113)" stroke="rgb(106,116,113)" stroke-width="1" opacity="1" d="M 106.5 23 L 107.5 25 L 106.5 23 Z " /><path fill="rgb(106,116,113)" stroke="rgb(106,116,113)" stroke-width="1" opacity="1" d="M 60.5 27 L 59.5 29 L 58 28.5 L 60.5 27 Z " /><path fill="rgb(106,116,113)" stroke="rgb(106,116,113)" stroke-width="1" opacity="1" d="M 54.5 29 L 53.5 31 L 52 30.5 L 54.5 29 Z " /><path fill="rgb(106,116,113)" stroke="rgb(106,116,113)" stroke-width="1" opacity="1" d="M 106.5 29 L 103 33.5 L 101.5 36 L 102 34.5 L 106.5 29 Z " /><path fill="rgb(106,116,113)" stroke="rgb(106,116,113)" stroke-width="1" opacity="1" d="M 63.5 30 L 64 38.5 L 60.5 38 L 59 37.5 L 60.5 37 L 62 37.5 L 63 34.5 L 61.5 35 L 58 34.5 L 62 34 Q 63.3 30.7 58.5 32 L 58.5 31 L 62.5 32 L 63.5 30 Z " /><path fill="rgb(106,116,113)" stroke="rgb(106,116,113)" stroke-width="1" opacity="1" d="M 42.5 34 L 44 34.5 L 41.5 36 L 42.5 34 Z " /><path fill="rgb(106,116,113)" stroke="rgb(106,116,113)" stroke-width="1" opacity="1" d="M 56.5 37 L 57.5 39 L 55 38.5 L 56.5 37 Z " /><path fill="rgb(106,116,113)" stroke="rgb(106,116,113)" stroke-width="1" opacity="1" d="M 35.5 38 L 34.5 40 L 35.5 38 Z " /><path fill="rgb(106,116,113)" stroke="rgb(106,116,113)" stroke-width="1" opacity="1" d="M 99.5 39 L 100 41.5 L 99 41.5 L 99.5 39 Z " /><path fill="rgb(106,116,113)" stroke="rgb(106,116,113)" stroke-width="1" opacity="1" d="M 32.5 40 L 27.5 46 L 32.5 40 Z " /><path fill="rgb(106,116,113)" stroke="rgb(106,116,113)" stroke-width="1" opacity="1" d="M 26.5 47 L 25.5 49 L 26.5 47 Z " /><path fill="rgb(106,116,113)" stroke="rgb(106,116,113)" stroke-width="1" opacity="1" d="M 99.5 48 L 100 50.5 L 99 50.5 L 99.5 48 Z " /><path fill="rgb(106,116,113)" stroke="rgb(106,116,113)" stroke-width="1" opacity="1" d="M 101.5 54 L 103.5 57 L 101.5 54 Z " /><path fill="rgb(106,116,113)" stroke="rgb(106,116,113)" stroke-width="1" opacity="1" d="M 83.5 59 L 94 59.5 L 83.5 60 L 83.5 59 Z " /><path fill="rgb(106,116,113)" stroke="rgb(106,116,113)" stroke-width="1" opacity="1" d="M 97.5 59 L 106 59.5 L 97.5 60 L 97.5 59 Z " /><path fill="rgb(106,116,113)" stroke="rgb(106,116,113)" stroke-width="1" opacity="1" d="M 26.5 60 L 27.5 62 L 26.5 60 Z " /><path fill="rgb(106,116,113)" stroke="rgb(106,116,113)" stroke-width="1" opacity="1" d="M 28.5 63 L 30.5 66 L 28.5 63 Z " /><path fill="rgb(106,116,113)" stroke="rgb(106,116,113)" stroke-width="1" opacity="1" d="M 67.5 66 L 75 80.5 L 76 90 L 72 89.5 L 74 89 L 74 81.5 L 67 67.5 L 67.5 66 Z " /><path fill="rgb(106,116,113)" stroke="rgb(106,116,113)" stroke-width="1" opacity="1" d="M 35.5 71 L 37.5 74 L 35.5 71 Z " /><path fill="rgb(106,116,113)" stroke="rgb(106,116,113)" stroke-width="1" opacity="1" d="M 46.5 72 L 47.5 74 L 46.5 72 Z " /><path fill="rgb(106,116,113)" stroke="rgb(106,116,113)" stroke-width="1" opacity="1" d="M 81.5 73 L 82 77.5 L 81 77.5 L 81.5 73 Z " /><path fill="rgb(106,116,113)" stroke="rgb(106,116,113)" stroke-width="1" opacity="1" d="M 119.5 73 L 122.5 77 L 119.5 73 Z " /><path fill="rgb(106,116,113)" stroke="rgb(106,116,113)" stroke-width="1" opacity="1" d="M 45.5 74 L 46.5 76 L 45.5 74 Z " /><path fill="rgb(106,116,113)" stroke="rgb(106,116,113)" stroke-width="1" opacity="1" d="M 38.5 75 L 40 77.5 L 39 77.5 L 38.5 75 Z " /><path fill="rgb(106,116,113)" stroke="rgb(106,116,113)" stroke-width="1" opacity="1" d="M 44.5 76 L 45.5 78 L 44.5 76 Z " /><path fill="rgb(106,116,113)" stroke="rgb(106,116,113)" stroke-width="1" opacity="1" d="M 109.5 78 L 110 82.5 L 109 82.5 L 109.5 78 Z " /><path fill="rgb(106,116,113)" stroke="rgb(106,116,113)" stroke-width="1" opacity="1" d="M 125.5 83 L 126 85.5 L 125 85.5 L 125.5 83 Z " /><path fill="rgb(106,116,113)" stroke="rgb(106,116,113)" stroke-width="1" opacity="1" d="M 82.5 87 L 84 91 L 86 91.5 L 85.5 94 L 82 88.5 L 82.5 87 Z " /><path fill="rgb(106,116,113)" stroke="rgb(106,116,113)" stroke-width="1" opacity="1" d="M 125.5 88 L 126 90.5 L 125 90.5 L 125.5 88 Z " /><path fill="rgb(106,116,113)" stroke="rgb(106,116,113)" stroke-width="1" opacity="1" d="M 46.5 89 L 51 89.5 L 45.5 91 L 46.5 89 Z " /><path fill="rgb(106,116,113)" stroke="rgb(106,116,113)" stroke-width="1" opacity="1" d="M 95.5 92 L 93.5 95 L 95.5 92 Z " /><path fill="rgb(106,116,113)" stroke="rgb(106,116,113)" stroke-width="1" opacity="1" d="M 105.5 93 L 104.5 95 L 105.5 93 Z " /><path fill="rgb(106,116,113)" stroke="rgb(106,116,113)" stroke-width="1" opacity="1" d="M 123.5 96 L 122.5 98 L 123.5 96 Z " /><path fill="rgb(106,116,113)" stroke="rgb(106,116,113)" stroke-width="1" opacity="1" d="M 101.5 99 L 102 114.5 L 101 114.5 L 101.5 99 Z " /><path fill="rgb(106,116,113)" stroke="rgb(106,116,113)" stroke-width="1" opacity="1" d="M 121.5 99 L 119.5 102 L 121.5 99 Z " /><path fill="rgb(106,116,113)" stroke="rgb(106,116,113)" stroke-width="1" opacity="1" d="M 113.5 107 L 112.5 109 L 113.5 107 Z " /><path fill="rgb(106,116,113)" stroke="rgb(106,116,113)" stroke-width="1" opacity="1" d="M 109.5 110 L 107.5 113 L 105.5 114 L 106.5 112 L 109.5 110 Z " /><path fill="rgb(106,116,113)" stroke="rgb(106,116,113)" stroke-width="1" opacity="1" d="M 50.5 113 L 53 113.5 L 50.5 114 L 50.5 113 Z " /><path fill="rgb(106,116,113)" stroke="rgb(106,116,113)" stroke-width="1" opacity="1" d="M 73.5 113 L 74 115.5 L 71.5 118 L 51.5 118 L 49 119 L 49.5 117 L 71.5 117 L 72 114.5 L 73.5 113 Z " /><path fill="rgb(106,116,113)" stroke="rgb(106,116,113)" stroke-width="1" opacity="1" d="M 35.5 114 L 37 116.5 L 35 115.5 L 35.5 114 Z " /><path fill="rgb(106,116,113)" stroke="rgb(106,116,113)" stroke-width="1" opacity="1" d="M 82.5 117 L 89 117.5 L 81.5 119 L 82.5 117 Z " /><path fill="rgb(106,116,113)" stroke="rgb(106,116,113)" stroke-width="1" opacity="1" d="M 91.5 117 L 98 117.5 L 91.5 118 L 91.5 117 Z " /><path fill="rgb(106,116,113)" stroke="rgb(106,116,113)" stroke-width="1" opacity="1" d="M 8.5 140 L 9 142 L 7 141.5 L 8.5 140 Z " /><path fill="rgb(106,116,113)" stroke="rgb(106,116,113)" stroke-width="1" opacity="1" d="M 15 140 Q 19.1 138.7 18 142 L 13 143 L 13.5 141 L 15 141.5 L 15 140 Z " /><path fill="rgb(106,116,113)" stroke="rgb(106,116,113)" stroke-width="1" opacity="1" d="M 19.5 140 L 22 140.5 Q 19.9 143.8 19.5 140 Z " /><path fill="rgb(106,116,113)" stroke="rgb(106,116,113)" stroke-width="1" opacity="1" d="M 33.5 140 L 35.5 141 L 37.5 140 L 36.5 142 L 33 141 L 32.5 143 L 30 141.5 L 33.5 140 Z " /><path fill="rgb(106,116,113)" stroke="rgb(106,116,113)" stroke-width="1" opacity="1" d="M 126.5 140 L 129.5 141 L 131 140.5 Q 131.8 142.8 129.5 142 L 126 142.5 L 126.5 140 Z " /><path fill="rgb(106,116,113)" stroke="rgb(106,116,113)" stroke-width="1" opacity="1" d="M 134.5 140 L 135.5 142 L 133 141.5 L 134.5 140 Z " /><path fill="rgb(139,109,75)" stroke="rgb(139,109,75)" stroke-width="1" opacity="1" d="M 58.5 56 Q 63.1 55.4 64.5 58 L 66 57.5 Q 67 62 64.5 63 L 59.5 65 L 54 63 L 54.5 57 L 56.5 57 L 58.5 56 Z " /><path fill="rgb(139,109,75)" stroke="rgb(139,109,75)" stroke-width="1" opacity="1" d="M 92.5 75 L 93 79.5 L 92 79.5 L 92.5 75 Z " /><path fill="rgb(139,109,75)" stroke="rgb(139,109,75)" stroke-width="1" opacity="1" d="M 92.5 82 L 93 84.5 L 92 84.5 L 92.5 82 Z " /><path fill="rgb(139,109,75)" stroke="rgb(139,109,75)" stroke-width="1" opacity="1" d="M 107.5 84 L 108 86.5 L 107 86.5 L 107.5 84 Z " /><path fill="rgb(139,109,75)" stroke="rgb(139,109,75)" stroke-width="1" opacity="1" d="M 58.5 88 L 64 88.5 L 58.5 89 L 58.5 88 Z " /><path fill="rgb(139,109,75)" stroke="rgb(139,109,75)" stroke-width="1" opacity="1" d="M 93.5 92 L 92.5 94 L 93.5 92 Z " /><path fill="rgb(139,109,75)" stroke="rgb(139,109,75)" stroke-width="1" opacity="1" d="M 75.5 96 L 76 99.5 L 75 99.5 L 75.5 96 Z " /><path fill="rgb(139,109,75)" stroke="rgb(139,109,75)" stroke-width="1" opacity="1" d="M 57.5 105 L 61.5 106 L 64.5 105 L 64.5 106 L 60.5 107 L 57.5 106 L 57.5 105 Z " /><path fill="rgb(139,109,75)" stroke="rgb(139,109,75)" stroke-width="1" opacity="1" d="M 65.5 107 L 64.5 109 L 65.5 107 Z " /><path fill="rgb(139,109,75)" stroke="rgb(139,109,75)" stroke-width="1" opacity="1" d="M 56.5 108 L 58 108.5 Q 56.3 110.8 51.5 110 L 51.5 109 L 56.5 108 Z " /><path fill="rgb(139,109,75)" stroke="rgb(139,109,75)" stroke-width="1" opacity="1" d="M 66.5 109 L 71 109.5 L 66.5 110 L 66.5 109 Z " /><path fill="rgb(139,109,75)" stroke="rgb(139,109,75)" stroke-width="1" opacity="1" d="M 73.5 109 Q 76.5 108.2 75 112 L 73 111.5 L 73.5 109 Z " /><path fill="rgb(67,73,85)" stroke="rgb(67,73,85)" stroke-width="1" opacity="1" d="M 63.5 22 L 67 23.5 L 65.5 23 Q 62.5 23.5 63.5 22 Z " /><path fill="rgb(67,73,85)" stroke="rgb(67,73,85)" stroke-width="1" opacity="1" d="M 56.5 26 L 55.5 28 L 56.5 26 Z " /><path fill="rgb(67,73,85)" stroke="rgb(67,73,85)" stroke-width="1" opacity="1" d="M 55.5 30 L 63 30.5 L 55.5 31 L 55.5 30 Z " /><path fill="rgb(67,73,85)" stroke="rgb(67,73,85)" stroke-width="1" opacity="1" d="M 55.5 35 L 63 35.5 L 55 36.5 L 55.5 38 Q 53.3 38.8 54 36.5 L 55.5 35 Z " /><path fill="rgb(67,73,85)" stroke="rgb(67,73,85)" stroke-width="1" opacity="1" d="M 54.5 41 L 55 44.5 L 54 44.5 L 54.5 41 Z " /><path fill="rgb(67,73,85)" stroke="rgb(67,73,85)" stroke-width="1" opacity="1" d="M 65.5 42 L 66 48.5 L 65 48.5 L 65.5 42 Z " /><path fill="rgb(67,73,85)" stroke="rgb(67,73,85)" stroke-width="1" opacity="1" d="M 53.5 49 L 54 53.5 L 53 53.5 L 53.5 49 Z " /><path fill="rgb(67,73,85)" stroke="rgb(67,73,85)" stroke-width="1" opacity="1" d="M 66.5 50 Q 66.3 59.3 69 65.5 L 68 65.5 Q 68.9 62.5 64.5 64 Q 63.3 67.3 57.5 66 L 53 63.5 L 55.5 63 Q 56.8 66.3 62.5 65 Q 63.6 62.3 67 63 Q 64.9 58.4 66.5 50 Z " /><path fill="rgb(67,73,85)" stroke="rgb(67,73,85)" stroke-width="1" opacity="1" d="M 52 56 L 54 56.5 L 51.5 65 L 51 62.5 L 52 56 Z " /><path fill="rgb(67,73,85)" stroke="rgb(67,73,85)" stroke-width="1" opacity="1" d="M 83.5 60 L 93 60.5 L 83.5 61 L 83.5 60 Z " /><path fill="rgb(67,73,85)" stroke="rgb(67,73,85)" stroke-width="1" opacity="1" d="M 94.5 60 L 108 60.5 L 94.5 61 L 94.5 60 Z " /><path fill="rgb(67,73,85)" stroke="rgb(67,73,85)" stroke-width="1" opacity="1" d="M 93.5 65 L 94 70.5 L 93 70.5 L 93.5 65 Z " /><path fill="rgb(67,73,85)" stroke="rgb(67,73,85)" stroke-width="1" opacity="1" d="M 82.5 71 L 83 74.5 L 82 74.5 L 82.5 71 Z " /><path fill="rgb(67,73,85)" stroke="rgb(67,73,85)" stroke-width="1" opacity="1" d="M 108.5 75 L 109 83.5 L 108 83.5 L 108.5 75 Z " /><path fill="rgb(67,73,85)" stroke="rgb(67,73,85)" stroke-width="1" opacity="1" d="M 76.5 83 L 77 91 L 75 90.5 L 76.5 83 Z " /><path fill="rgb(67,73,85)" stroke="rgb(67,73,85)" stroke-width="1" opacity="1" d="M 76.5 92 L 77 102.5 L 76 102.5 L 76.5 92 Z " /><path fill="rgb(67,73,85)" stroke="rgb(67,73,85)" stroke-width="1" opacity="1" d="M 103.5 94 L 102.5 96 L 103.5 94 Z " /><path fill="rgb(67,73,85)" stroke="rgb(67,73,85)" stroke-width="1" opacity="1" d="M 99.5 96 L 100.5 98 L 99.5 96 Z " /><path fill="rgb(67,73,85)" stroke="rgb(67,73,85)" stroke-width="1" opacity="1" d="M 43.5 101 L 44 103.5 L 43 103.5 L 43.5 101 Z " /><path fill="rgb(67,73,85)" stroke="rgb(67,73,85)" stroke-width="1" opacity="1" d="M 75.5 105 L 76 112.5 L 75 112.5 L 74 108.5 L 75.5 105 Z " /><path fill="rgb(67,73,85)" stroke="rgb(67,73,85)" stroke-width="1" opacity="1" d="M 52.5 106 L 57 106.5 Q 55.8 109.3 54.5 107 Q 51.5 107.5 52.5 106 Z " /><path fill="rgb(67,73,85)" stroke="rgb(67,73,85)" stroke-width="1" opacity="1" d="M 65.5 106 L 70 106.5 L 66.5 108 L 65.5 106 Z " /><path fill="rgb(67,73,85)" stroke="rgb(67,73,85)" stroke-width="1" opacity="1" d="M 74.5 115 L 75 116.5 L 73.5 119 L 99.5 118 L 100.5 117 L 108.5 119 L 131 119.5 L 19.5 120 L 19.5 119 L 47.5 119 L 48.5 118 L 49.5 119 L 69.5 119 L 74 116.5 L 74.5 115 Z " /><path fill="rgb(204,137,84)" stroke="rgb(204,137,84)" stroke-width="1" opacity="1" d="M 107.5 74 L 108 78.5 L 107 78.5 L 107.5 74 Z " /><path fill="rgb(204,137,84)" stroke="rgb(204,137,84)" stroke-width="1" opacity="1" d="M 74 91 Q 77.7 89.7 76 95.5 L 75 96.5 L 75 105 Q 72.3 106.9 65.5 106 L 65.5 105 Q 72.2 106.7 74 103.5 L 74 91 Z " /><path fill="rgb(204,137,84)" stroke="rgb(204,137,84)" stroke-width="1" opacity="1" d="M 102.5 94 L 101.5 96 L 102.5 94 Z " /><path fill="rgb(204,137,84)" stroke="rgb(204,137,84)" stroke-width="1" opacity="1" d="M 46.5 98 L 47 104.5 L 46 104.5 L 46.5 98 Z " /><path fill="rgb(204,137,84)" stroke="rgb(204,137,84)" stroke-width="1" opacity="1" d="M 48.5 105 L 57 105.5 L 48.5 106 L 48.5 105 Z " /><path fill="rgb(204,137,84)" stroke="rgb(204,137,84)" stroke-width="1" opacity="1" d="M 47.5 107 L 55 107.5 L 47.5 108 L 47.5 107 Z " /><path fill="rgb(204,137,84)" stroke="rgb(204,137,84)" stroke-width="1" opacity="1" d="M 56.5 107 L 65 107.5 Q 63.8 110.3 58.5 109 L 56.5 107 Z " /><path fill="rgb(204,137,84)" stroke="rgb(204,137,84)" stroke-width="1" opacity="1" d="M 67.5 107 L 75 107.5 L 67.5 108 L 67.5 107 Z " /><path fill="rgb(204,137,84)" stroke="rgb(204,137,84)" stroke-width="1" opacity="1" d="M 47.5 109 L 51 109.5 L 47.5 110 L 47.5 109 Z " /><path fill="rgb(204,137,84)" stroke="rgb(204,137,84)" stroke-width="1" opacity="1" d="M 71.5 109 L 74 110.5 L 71.5 112 L 71.5 111 L 73 110.5 L 71.5 109 Z " /><path fill="rgb(204,137,84)" stroke="rgb(204,137,84)" stroke-width="1" opacity="1" d="M 59.5 110 L 63 110.5 L 59.5 111 L 59.5 110 Z " /><path fill="rgb(204,137,84)" stroke="rgb(204,137,84)" stroke-width="1" opacity="1" d="M 59.5 113 L 63 113.5 L 59.5 114 L 59.5 113 Z " /><path fill="rgb(241,165,90)" stroke="rgb(241,165,90)" stroke-width="1" opacity="1" d="M 56.5 39 L 58.5 40 L 59.5 39 Q 61.3 42.1 63 40.5 L 65 47.5 L 65 55.5 L 63.5 55 L 58.5 54 L 54.5 56 L 55 54.5 L 56.5 39 Z M 57 43 L 57 53 L 59 52 L 59 44 L 57 43 Z " /><path fill="rgb(241,165,90)" stroke="rgb(241,165,90)" stroke-width="1" opacity="1" d="M 84 74 L 88.5 75 L 92 74 Q 90.3 84.6 94 90.5 L 91 96 Q 88.3 97.1 89 94.5 Q 83.7 90.3 83 81.5 L 84 80.5 L 84 74 Z M 85 77 Q 84 80 87 79 Q 88 76 85 77 Z M 86 81 Q 84 88 89 90 L 90 90 L 86 81 Z " /><path fill="rgb(241,165,90)" stroke="rgb(241,165,90)" stroke-width="1" opacity="1" d="M 95 74 L 102.5 76 L 107 74 L 108 81.5 Q 105.8 82.7 107 87.5 L 100.5 96 Q 93.7 90.8 94 78.5 L 95 74 Z M 96 77 Q 95 80 98 79 Q 99 76 96 77 Z M 105 77 Q 103 80 106 79 L 105 77 Z M 97 81 L 97 88 L 100 90 L 97 81 Z " /><path fill="rgb(241,165,90)" stroke="rgb(241,165,90)" stroke-width="1" opacity="1" d="M 56.5 89 L 65.5 89 Q 68.5 91.8 74 91 L 74 103.5 L 72.5 105 L 47.5 105 Q 46.3 104.8 47 98.5 L 46 97.5 L 46 91 Q 53 92.2 56.5 89 Z M 58 94 Q 55 95 55 99 Q 57 103 65 101 Q 68 100 67 97 Q 65 92 58 94 Z " /><path fill="rgb(241,165,90)" stroke="rgb(241,165,90)" stroke-width="1" opacity="1" d="M 47.5 110 L 62.5 111 L 63.5 110 L 72.5 110 L 72.5 111 Q 66.4 114.4 55.5 113 L 47.5 111 L 47.5 110 Z " /><path fill="rgb(113,119,124)" stroke="rgb(113,119,124)" stroke-width="1" opacity="1" d="M 85.5 22 L 102.5 22 L 108 25.5 L 99 39.5 L 99 50.5 L 105 58.5 L 83.5 59 L 82 60.5 L 81 85.5 Q 83.4 93.6 89 98.5 L 89 117 Q 82.4 115.3 80.5 119 L 74.5 119 L 76 116.5 L 78 84.5 L 68 60.5 L 66 42.5 L 68 40.5 L 68 26 L 85.5 22 Z " /><path fill="rgb(113,119,124)" stroke="rgb(113,119,124)" stroke-width="1" opacity="1" d="M 50.5 31 L 53 31.5 L 52 33.5 Q 55 35.5 54 41.5 L 53 42.5 L 53 50.5 L 52 51.5 L 51 62.5 L 43 78.5 L 42.5 83 L 38 73.5 L 26 59.5 L 24 52.5 Q 26.9 44.4 33.5 40 L 50.5 31 Z " /><path fill="rgb(113,119,124)" stroke="rgb(113,119,124)" stroke-width="1" opacity="1" d="M 109 64 L 110.5 64 L 119 72.5 L 125 81.5 L 126 87.5 L 124 95.5 L 114.5 107 L 102.5 115 L 102 97.5 Q 110.2 92.2 110 78.5 L 109 77.5 L 109 64 Z " /><path fill="rgb(113,119,124)" stroke="rgb(113,119,124)" stroke-width="1" opacity="1" d="M 95.5 93 L 100 98.5 L 100 117 L 91 117 L 91 97.5 L 95.5 93 Z " /><path fill="rgb(113,119,124)" stroke="rgb(113,119,124)" stroke-width="1" opacity="1" d="M 41.5 96 L 43 102.5 L 43 114.5 L 46 118.5 L 38.5 119 L 35 111.5 L 41.5 96 Z " /><path fill="rgb(113,119,124)" stroke="rgb(113,119,124)" stroke-width="1" opacity="1" d="M 45.5 106 L 46 108.5 L 44 109.5 L 45.5 106 Z " /><path fill="rgb(113,119,124)" stroke="rgb(113,119,124)" stroke-width="1" opacity="1" d="M 42.5 128 L 44.5 131 L 42.5 128 Z " /><path fill="rgb(113,119,124)" stroke="rgb(113,119,124)" stroke-width="1" opacity="1" d="M 11.5 140 Q 15.9 138.5 15 141.5 L 13.5 141 Q 10.5 141.5 11.5 140 Z " /><path fill="rgb(113,119,124)" stroke="rgb(113,119,124)" stroke-width="1" opacity="1" d="M 30.5 140 L 34 141.5 L 32.5 141 Q 29.5 141.5 30.5 140 Z " /><path fill="rgb(113,119,124)" stroke="rgb(113,119,124)" stroke-width="1" opacity="1" d="M 132 140 L 134 140.5 L 132 141.5 L 132 140 Z " /><path fill="rgb(113,119,124)" stroke="rgb(113,119,124)" stroke-width="1" opacity="1" d="M 135.5 140 L 140.5 141 L 142.5 140 L 142.5 141 L 140.5 142 L 137.5 141 Q 135.7 143.5 135.5 140 Z " /><path fill="rgb(113,119,124)" stroke="rgb(113,119,124)" stroke-width="1" opacity="1" d="M 126.5 141 L 127.5 143 L 126.5 141 Z " /><path fill="rgb(113,119,124)" stroke="rgb(113,119,124)" stroke-width="1" opacity="1" d="M 31.5 142 L 32 144 L 36 144.5 L 32.5 145 L 30 143.5 L 31.5 142 Z " /><path fill="rgb(113,119,124)" stroke="rgb(113,119,124)" stroke-width="1" opacity="1" d="M 16.5 143 L 18 143.5 L 15.5 145 L 16.5 143 Z " /><path fill="rgb(113,119,124)" stroke="rgb(113,119,124)" stroke-width="1" opacity="1" d="M 129.5 143 L 132 144.5 L 130.5 145 L 129.5 143 Z " /><path fill="rgb(113,119,124)" stroke="rgb(113,119,124)" stroke-width="1" opacity="1" d="M 142.5 143 L 143.5 145 Q 140.7 145.7 142.5 143 Z " /><path fill="rgb(251,254,249)" stroke="rgb(251,254,249)" stroke-width="1" opacity="1" d="M 60.5 24 L 66 24 L 66 40 L 64 39.5 L 64 28.5 L 62.5 28 L 57 27 Q 55.8 24 59.5 25 L 60.5 24 Z " /><path fill="rgb(251,254,249)" stroke="rgb(251,254,249)" stroke-width="1" opacity="1" d="M 50.5 69 L 51 70.5 L 49 71.5 L 50.5 69 Z " /><path fill="rgb(251,254,249)" stroke="rgb(251,254,249)" stroke-width="1" opacity="1" d="M 84 69 L 92 70 L 92 74 L 83.5 74 L 84 72.5 L 84 69 Z " /><path fill="rgb(251,254,249)" stroke="rgb(251,254,249)" stroke-width="1" opacity="1" d="M 95.5 69 L 102.5 71 L 105.5 69 Q 108 70.2 107 74 L 101.5 75 L 100.5 74 L 94 74 Q 93 70.2 95.5 69 Z " /><path fill="rgb(251,254,249)" stroke="rgb(251,254,249)" stroke-width="1" opacity="1" d="M 44.5 83 L 45 90.5 L 44 90.5 L 44.5 83 Z " /><path fill="rgb(251,254,249)" stroke="rgb(251,254,249)" stroke-width="1" opacity="1" d="M 59.5 94 Q 64.6 93.4 66 96.5 L 64.5 100 L 60.5 101 L 56 98.5 L 57.5 95 L 59.5 94 Z " /><path fill="rgb(251,254,249)" stroke="rgb(251,254,249)" stroke-width="1" opacity="1" d="M 44.5 96 L 45 101.5 L 44 101.5 L 44.5 96 Z " /><path fill="rgb(251,254,249)" stroke="rgb(251,254,249)" stroke-width="1" opacity="1" d="M 45.5 112 L 48 116.5 L 46 115.5 L 45.5 112 Z " /><path fill="rgb(251,254,249)" stroke="rgb(251,254,249)" stroke-width="1" opacity="1" d="M 21 121 L 130.5 121 L 131 121.5 L 131 128.5 L 125.5 135 L 122.5 130 L 121.5 136 L 115.5 128 L 113.5 127 L 110 129.5 L 105.5 136 L 97.5 136 L 92.5 134 L 87.5 138 L 77.5 129 L 75 129 L 76 134.5 L 60.5 142 L 55.5 140 L 44 129.5 Q 44.9 126.1 39.5 128 Q 35.7 132.7 25.5 131 L 21 121 Z " /><path fill="rgb(210,205,185)" stroke="rgb(210,205,185)" stroke-width="1" opacity="1" d="M 60.5 23 L 63 23.5 L 60.5 24 L 60.5 23 Z " /><path fill="rgb(210,205,185)" stroke="rgb(210,205,185)" stroke-width="1" opacity="1" d="M 55.5 28 L 58 29.5 L 56.5 30 L 55.5 28 Z " /><path fill="rgb(210,205,185)" stroke="rgb(210,205,185)" stroke-width="1" opacity="1" d="M 56 32 Q 59 31 58 34 Q 55 35 56 32 Z " /><path fill="rgb(210,205,185)" stroke="rgb(210,205,185)" stroke-width="1" opacity="1" d="M 55.5 43 L 56 45.5 L 55 45.5 L 55.5 43 Z " /><path fill="rgb(210,205,185)" stroke="rgb(210,205,185)" stroke-width="1" opacity="1" d="M 57 43 L 59 43.5 L 59 51.5 L 57 52.5 L 57 43 Z " /><path fill="rgb(210,205,185)" stroke="rgb(210,205,185)" stroke-width="1" opacity="1" d="M 54.5 51 L 55 54.5 L 54 54.5 L 54.5 51 Z " /><path fill="rgb(210,205,185)" stroke="rgb(210,205,185)" stroke-width="1" opacity="1" d="M 84.5 61 L 85.5 63 L 88 62 L 88 69 L 83 69 L 83 62.5 L 84.5 61 Z M 85 65 L 84 68 L 85 68 L 85 65 Z " /><path fill="rgb(210,205,185)" stroke="rgb(210,205,185)" stroke-width="1" opacity="1" d="M 95.5 61 L 99 62 Q 100.5 67.4 97.5 69 L 94 67.5 Q 92.8 62.3 95.5 61 Z M 96 64 L 95 68 L 96 68 L 96 64 Z " /><path fill="rgb(210,205,185)" stroke="rgb(210,205,185)" stroke-width="1" opacity="1" d="M 104.5 66 L 104.5 68 L 107 69.5 L 105.5 69 L 103.5 70 L 103 67.5 L 104.5 66 Z " /><path fill="rgb(210,205,185)" stroke="rgb(210,205,185)" stroke-width="1" opacity="1" d="M 50.5 68 L 51.5 70 L 50.5 68 Z " /><path fill="rgb(210,205,185)" stroke="rgb(210,205,185)" stroke-width="1" opacity="1" d="M 90.5 69 Q 95.1 67.7 93 73.5 L 92 73.5 Q 93.5 69.1 90.5 70 L 90.5 69 Z " /><path fill="rgb(210,205,185)" stroke="rgb(210,205,185)" stroke-width="1" opacity="1" d="M 49.5 70 L 50.5 72 L 49.5 70 Z " /><path fill="rgb(210,205,185)" stroke="rgb(210,205,185)" stroke-width="1" opacity="1" d="M 55 71 L 57 71.5 L 55 72.5 L 55 71 Z " /><path fill="rgb(210,205,185)" stroke="rgb(210,205,185)" stroke-width="1" opacity="1" d="M 48.5 72 L 49.5 74 L 48.5 72 Z " /><path fill="rgb(210,205,185)" stroke="rgb(210,205,185)" stroke-width="1" opacity="1" d="M 47.5 74 L 48.5 76 L 47.5 74 Z " /><path fill="rgb(210,205,185)" stroke="rgb(210,205,185)" stroke-width="1" opacity="1" d="M 53 74 Q 56 72.8 55 76.5 L 53 80.5 L 52 89 L 50 88.5 L 53 74 Z " /><path fill="rgb(210,205,185)" stroke="rgb(210,205,185)" stroke-width="1" opacity="1" d="M 94.5 74 L 95 77.5 L 94 77.5 L 94.5 74 Z " /><path fill="rgb(210,205,185)" stroke="rgb(210,205,185)" stroke-width="1" opacity="1" d="M 46.5 76 L 47.5 78 L 46.5 76 Z " /><path fill="rgb(210,205,185)" stroke="rgb(210,205,185)" stroke-width="1" opacity="1" d="M 83.5 76 L 84 80.5 L 83 80.5 L 83.5 76 Z " /><path fill="rgb(210,205,185)" stroke="rgb(210,205,185)" stroke-width="1" opacity="1" d="M 85 77 Q 88 76 87 79 Q 84 80 85 77 Z " /><path fill="rgb(210,205,185)" stroke="rgb(210,205,185)" stroke-width="1" opacity="1" d="M 96 77 Q 99 76 98 79 Q 95 80 96 77 Z " /><path fill="rgb(210,205,185)" stroke="rgb(210,205,185)" stroke-width="1" opacity="1" d="M 104.5 77 L 105.5 79 L 104.5 77 Z " /><path fill="rgb(210,205,185)" stroke="rgb(210,205,185)" stroke-width="1" opacity="1" d="M 85.5 81 L 90 89.5 L 88.5 90 Q 83.5 87.7 85.5 81 Z " /><path fill="rgb(210,205,185)" stroke="rgb(210,205,185)" stroke-width="1" opacity="1" d="M 96.5 81 L 100 89.5 L 97 87.5 L 96.5 81 Z " /><path fill="rgb(210,205,185)" stroke="rgb(210,205,185)" stroke-width="1" opacity="1" d="M 94.5 83 L 95 86.5 L 94 86.5 L 94.5 83 Z " /><path fill="rgb(210,205,185)" stroke="rgb(210,205,185)" stroke-width="1" opacity="1" d="M 43.5 86 L 45 92.5 L 43 93.5 L 43.5 86 Z " /><path fill="rgb(210,205,185)" stroke="rgb(210,205,185)" stroke-width="1" opacity="1" d="M 83.5 86 L 85 88.5 L 84 88.5 L 83.5 86 Z " /><path fill="rgb(210,205,185)" stroke="rgb(210,205,185)" stroke-width="1" opacity="1" d="M 44.5 104 L 45 106.5 L 44 106.5 L 44.5 104 Z " /><path fill="rgb(210,205,185)" stroke="rgb(210,205,185)" stroke-width="1" opacity="1" d="M 78.5 130 L 83.5 136 L 78.5 130 Z " /><path fill="rgb(210,205,185)" stroke="rgb(210,205,185)" stroke-width="1" opacity="1" d="M 117.5 130 L 118.5 132 L 117.5 130 Z " /><path fill="rgb(210,205,185)" stroke="rgb(210,205,185)" stroke-width="1" opacity="1" d="M 129.5 131 L 125.5 136 L 124.5 134 L 125.5 135 L 129.5 131 Z " /><path fill="rgb(210,205,185)" stroke="rgb(210,205,185)" stroke-width="1" opacity="1" d="M 122.5 134 L 123 136.5 L 122 136.5 L 122.5 134 Z " /><path fill="rgb(210,205,185)" stroke="rgb(210,205,185)" stroke-width="1" opacity="1" d="M 99.5 136 L 103 136.5 L 99.5 137 L 99.5 136 Z " /><path fill="rgb(210,205,185)" stroke="rgb(210,205,185)" stroke-width="1" opacity="1" d="M 52.5 137 L 53.5 139 L 52.5 137 Z " /><path fill="rgb(230,233,228)" stroke="rgb(230,233,228)" stroke-width="1" opacity="1" d="M 56.5 95 L 56 96.5 L 55.5 98 L 55 96.5 L 56.5 95 Z " /><path fill="rgb(230,233,230)" stroke="rgb(230,233,230)" stroke-width="1" opacity="1" d="M 21.5 120 L 131 120.5 L 21.5 121 L 21.5 120 Z " /></svg>