<?xml version="1.0" encoding="UTF-8" standalone="no"?>
<!-- Created with Inkscape (http://www.inkscape.org/) -->

<svg
   version="1.1"
   id="svg3788"
   width="88.639999"
   height="104"
   viewBox="0 0 88.639999 104"
   sodipodi:docname="lighthousebw.svg"
   inkscape:version="1.1.1 (3bf5ae0d25, 2021-09-20)"
   inkscape:export-filename="C:\Users\fgirs\tailwind-nextjs-starter-blog\public\lighthousebw.png"
   inkscape:export-xdpi="96"
   inkscape:export-ydpi="96"
   xmlns:inkscape="http://www.inkscape.org/namespaces/inkscape"
   xmlns:sodipodi="http://sodipodi.sourceforge.net/DTD/sodipodi-0.dtd"
   xmlns="http://www.w3.org/2000/svg"
   xmlns:svg="http://www.w3.org/2000/svg">
  <defs
     id="defs3792" />
  <sodipodi:namedview
     id="namedview3790"
     pagecolor="#ffffff"
     bordercolor="#111111"
     borderopacity="1"
     inkscape:pageshadow="0"
     inkscape:pageopacity="0"
     inkscape:pagecheckerboard="1"
     showgrid="false"
     inkscape:zoom="3.8557692"
     inkscape:cx="44.219451"
     inkscape:cy="72.229426"
     inkscape:window-width="1920"
     inkscape:window-height="991"
     inkscape:window-x="-9"
     inkscape:window-y="-9"
     inkscape:window-maximized="1"
     inkscape:current-layer="g3794" />
  <g
     inkscape:groupmode="layer"
     inkscape:label="Image"
     id="g3794">
    <g
       id="g3873">
      <path
         style="fill:#cfcfcf;stroke-width:0.32"
         d="m 33.046089,103.77824 c 0.311351,-0.0811 0.743351,-0.0758 0.96,0.0119 0.21665,0.0876 -0.03809,0.15403 -0.566089,0.14751 -0.528,-0.007 -0.705261,-0.0782 -0.393911,-0.15937 z m 1.753911,0.01 c 0.22,-0.0888 0.58,-0.0888 0.8,0 0.22,0.0888 0.04,0.1614 -0.4,0.1614 -0.44,0 -0.62,-0.0726 -0.4,-0.1614 z m 12.179999,-0.007 c 0.230999,-0.0924 0.506999,-0.0811 0.613335,0.0252 0.106333,0.10633 -0.08267,0.18196 -0.42,0.16807 -0.372784,-0.0154 -0.448608,-0.0912 -0.193335,-0.19333 z m 7.98,-0.32724 c 0.396,-0.0763 1.044,-0.0763 1.44,0 0.396,0.0763 0.072,0.13868 -0.72,0.13868 -0.792,0 -1.116,-0.0624 -0.72,-0.13868 z m 1.62,-1.27276 c 0.230999,-0.0924 0.506999,-0.0811 0.613335,0.0252 0.106333,0.10633 -0.08267,0.18196 -0.42,0.16807 -0.372784,-0.0154 -0.448608,-0.0912 -0.193335,-0.19333 z m -50.1799991,-2.147 c 0,-0.06917 0.2234791,-0.211523 0.4966202,-0.316339 0.284776,-0.109277 0.413223,-0.05563 0.3011145,0.125763 -0.1879225,0.304066 -0.7977347,0.449746 -0.7977347,0.190576 z M 32.08,99.9308 c 0.484,-0.07332 1.276,-0.07332 1.76,0 0.484,0.07332 0.088,0.13331 -0.88,0.13331 -0.968,0 -1.364,-0.06 -0.88,-0.13331 z m 39.199999,-0.636634 c 0.396,-0.07628 1.044,-0.07628 1.44,0 0.396,0.07627 0.072,0.138679 -0.72,0.138679 -0.792,0 -1.116,-0.06241 -0.72,-0.138679 z m 4.96609,-1.275923 c 0.31135,-0.08113 0.74335,-0.0758 0.96,0.01187 0.216649,0.08766 -0.03809,0.154039 -0.56609,0.147517 -0.528,-0.0065 -0.705261,-0.07824 -0.39391,-0.159373 z M 21.636188,87.301446 c 0.09242,-0.149536 0.302084,-0.18904 0.465923,-0.08778 0.418682,0.258759 0.371539,0.359667 -0.168035,0.359667 -0.256258,0 -0.390308,-0.122348 -0.297888,-0.271887 z M 78.03918,71.76 c -0.398038,-0.507539 -0.38672,-0.518858 0.120819,-0.120819 0.308,0.241552 0.56,0.493552 0.56,0.56 0,0.263373 -0.262781,0.09386 -0.680819,-0.439181 z m -5.139181,-1.578595 c 0.230999,-0.09244 0.506999,-0.08107 0.613335,0.02525 0.106332,0.106333 -0.08267,0.181965 -0.42,0.16807 -0.372784,-0.01536 -0.448608,-0.09118 -0.193335,-0.193331 z m -59.839999,-3.2 c 0.231,-0.09244 0.507,-0.08107 0.613333,0.02525 0.106333,0.106333 -0.08267,0.181965 -0.42,0.16807 C 12.880552,67.159363 12.804725,67.083542 13.06,66.981392 Z M 10.066842,57.57871 c -0.1160108,-0.187708 -0.1422988,-0.40992 -0.05842,-0.493801 0.08388,-0.08388 0.237781,0.0697 0.342001,0.341289 0.216378,0.563876 0.03195,0.66306 -0.283583,0.152512 z m 37.856889,-7.245033 c 0.398051,-0.07654 0.974051,-0.07364 1.28,0.0065 0.305948,0.08009 -0.01974,0.14272 -0.723732,0.139168 -0.704,-0.0036 -0.95432,-0.06909 -0.556268,-0.145626 z M 44.210524,41.6 c 0,-0.44 0.07263,-0.62 0.161405,-0.4 0.08877,0.22 0.08877,0.58 0,0.8 -0.08877,0.22 -0.161405,0.04 -0.161405,-0.4 z m 1.789475,-5.33193 c 0.22,-0.08877 0.58,-0.08877 0.8,0 0.22,0.08877 0.04,0.161405 -0.4,0.161405 -0.44,0 -0.62,-0.07263 -0.4,-0.161405 z m 5.14,-0.0067 c 0.230999,-0.09244 0.506999,-0.08107 0.613335,0.02525 0.106333,0.106336 -0.08267,0.181965 -0.42,0.168071 -0.372784,-0.01536 -0.448608,-0.09118 -0.193335,-0.193331 z M 57.906627,34.48 c 0.784643,-0.836 1.468643,-1.52 1.52,-1.52 0.240281,0 -0.01376,0.287306 -1.426628,1.613373 L 56.479999,36 Z m -6.766628,-3.658596 c 0.230999,-0.09244 0.506999,-0.08107 0.613335,0.02526 0.106333,0.106333 -0.08267,0.181965 -0.42,0.16807 -0.372784,-0.01535 -0.448608,-0.09118 -0.193335,-0.193334 z m -3.06,-1.601988 c 0.308,-0.08049 0.812,-0.08049 1.12,0 0.308,0.08049 0.056,0.146343 -0.56,0.146343 -0.616,0 -0.868,-0.06585 -0.56,-0.146343 z m -0.14,-4.478012 c 0.230999,-0.09244 0.506999,-0.08107 0.613335,0.02526 0.106333,0.106333 -0.08267,0.181965 -0.42,0.16807 -0.372784,-0.01535 -0.448608,-0.09118 -0.193335,-0.193334 z M 39.731212,21.378885 C 39.703052,19.673272 39.788,18.210546 39.92,18.128382 c 0.132,-0.08216 0.200585,0.881338 0.152412,2.141115 -0.149088,3.898827 -0.287692,4.349491 -0.3412,1.109388 z m 32.65617,0.25339 c 0.22694,-0.246249 0.463036,-0.399829 0.524662,-0.34129 0.189805,0.180307 -0.291245,0.789015 -0.623546,0.789015 -0.172553,0 -0.128054,-0.201476 0.09888,-0.447725 z M 52.319999,15.04 c -0.108774,-0.176 -0.04527,-0.32 0.141114,-0.32 0.186387,0 0.338886,0.144 0.338886,0.32 0,0.176 -0.0635,0.32 -0.141113,0.32 -0.07761,0 -0.230112,-0.144 -0.338887,-0.32 z"
         id="path3887" />
      <path
         style="fill:#afafaf;stroke-width:0.32"
         d="m 46.019999,103.7814 c 0.230999,-0.0924 0.506999,-0.0811 0.613335,0.0252 0.106333,0.10634 -0.08267,0.18197 -0.42,0.16807 -0.372784,-0.0154 -0.448608,-0.0912 -0.193335,-0.19333 z m 21.44,-0.32 c 0.230999,-0.0924 0.506999,-0.0811 0.613335,0.0252 0.106332,0.10634 -0.08267,0.18197 -0.42,0.16807 -0.372784,-0.0154 -0.448608,-0.0912 -0.193335,-0.19333 z M 42.19918,98.96 C 41.801142,98.452461 41.81246,98.441142 42.32,98.839181 42.85304,99.257219 43.022553,99.52 42.75918,99.52 c -0.06645,0 -0.318448,-0.252 -0.56,-0.56 z m 3.500819,-3.178595 c 0.230999,-0.09244 0.506999,-0.08107 0.613335,0.02525 0.106333,0.106333 -0.08267,0.181965 -0.42,0.16807 -0.372784,-0.01536 -0.448608,-0.09118 -0.193335,-0.193331 z M 58.379868,84.4 l -0.939869,-1.04 1.04,0.939869 c 0.969428,0.876089 1.187088,1.140131 0.939869,1.140131 -0.05507,0 -0.523072,-0.468 -1.04,-1.04 z M 49.839999,30.82807 c 0.22,-0.08877 0.58,-0.08877 0.8,0 0.22,0.08877 0.04,0.161404 -0.4,0.161404 -0.44,0 -0.62,-0.07263 -0.4,-0.161404 z m -3.2,-1.6 c 0.22,-0.08877 0.58,-0.08877 0.8,0 0.22,0.08877 0.04,0.161404 -0.4,0.161404 -0.44,0 -0.62,-0.07263 -0.4,-0.161404 z m 3.2,0 c 0.22,-0.08877 0.58,-0.08877 0.8,0 0.22,0.08877 0.04,0.161404 -0.4,0.161404 -0.44,0 -0.62,-0.07263 -0.4,-0.161404 z M 38.524332,22.24 c 6.4e-4,-2.288 0.05153,-3.182011 0.113268,-1.986692 0.06174,1.19532 0.06128,3.06732 -9.6e-4,4.16 C 38.574284,25.505989 38.523772,24.528 38.524332,22.24 Z M 39.68,25.12 c 0,-0.44 0.05521,-0.8 0.122694,-0.8 0.06748,0 0.191514,0.36 0.275626,0.8 0.08411,0.44 0.0289,0.8 -0.122695,0.8 C 39.804032,25.92 39.68,25.56 39.68,25.12 Z m 8.239999,-8.37193 c 0.22,-0.08877 0.58,-0.08877 0.8,0 0.22,0.08877 0.04,0.161404 -0.4,0.161404 -0.44,0 -0.62,-0.07263 -0.4,-0.161404 z m -1.452588,-2.076503 c 0.226921,-0.143972 0.916588,-0.261767 1.532588,-0.261767 0.616,0 1.305668,0.117795 1.532589,0.261767 0.239943,0.15223 -0.401373,0.261766 -1.532589,0.261766 -1.131216,0 -1.772531,-0.109536 -1.532588,-0.261766 z"
         id="path3885" />
      <path
         style="fill:#8f8f8f;stroke-width:0.32"
         d="m 44.566089,103.77824 c 0.31135,-0.0811 0.74335,-0.0758 0.96,0.0119 0.21665,0.0876 -0.03809,0.15403 -0.56609,0.14751 -0.528,-0.007 -0.70526,-0.0782 -0.39391,-0.15937 z m 20.33391,-0.31684 c 0.230999,-0.0924 0.506999,-0.0811 0.613335,0.0252 0.106332,0.10634 -0.08267,0.18197 -0.42,0.16807 -0.372784,-0.0154 -0.448608,-0.0912 -0.193335,-0.19333 z m 6.08,-5.119995 c 0.230999,-0.09244 0.506999,-0.08107 0.613335,0.02525 0.106332,0.106333 -0.08267,0.181965 -0.42,0.16807 -0.372784,-0.01536 -0.448608,-0.09118 -0.193335,-0.193331 z M 50.267516,96.12217 c 0.424867,-0.548807 0.836848,-0.940442 0.915514,-0.870301 0.07867,0.07014 -0.268951,0.519161 -0.772483,0.997827 L 49.495033,97.12 Z M 43.14,95.781405 c 0.230998,-0.09244 0.506998,-0.08107 0.613334,0.02525 0.106333,0.106333 -0.08267,0.181965 -0.42,0.16807 C 42.96055,95.959363 42.884726,95.883542 43.14,95.781392 Z m 1.599999,0 c 0.230999,-0.09244 0.506999,-0.08107 0.613335,0.02525 0.106333,0.106333 -0.08267,0.181965 -0.42,0.16807 -0.372784,-0.01536 -0.448608,-0.09118 -0.193335,-0.193331 z M 30.4,94.917322 c 0,-0.06747 0.288,-0.197991 0.64,-0.290042 0.352,-0.09205 0.64,-0.03684 0.64,0.122678 0,0.159524 -0.288,0.290042 -0.64,0.290042 -0.352,0 -0.64,-0.05521 -0.64,-0.122678 z m 39.842265,-1.153658 c -0.112109,-0.181395 0.01635,-0.23504 0.301113,-0.125763 0.554375,0.212733 0.655805,0.442099 0.195508,0.442099 -0.165613,0 -0.389095,-0.142352 -0.496621,-0.316336 z m -14.217002,-7.87033 c 0.01536,-0.372784 0.09118,-0.448608 0.193332,-0.193334 0.09244,0.230998 0.08107,0.507002 -0.02525,0.613334 -0.106336,0.106333 -0.181965,-0.08267 -0.168071,-0.42 z M 44.1,85.541405 c 0.230998,-0.09244 0.506998,-0.08107 0.613334,0.02525 0.106333,0.106333 -0.08267,0.181965 -0.42,0.16807 C 43.92055,85.719363 43.844726,85.643542 44.1,85.541392 Z m 30.399999,-16.32 c 0.230999,-0.09244 0.506999,-0.08107 0.613335,0.02525 0.106332,0.106333 -0.08267,0.181965 -0.42,0.16807 -0.372784,-0.01536 -0.448608,-0.09118 -0.193335,-0.193331 z m -25.78,-3.201991 c 0.308,-0.08049 0.812,-0.08049 1.12,0 0.308,0.08049 0.056,0.146346 -0.56,0.146346 -0.616,0 -0.868,-0.06586 -0.56,-0.146346 z m -4,-35.191344 c 0.22,-0.08877 0.58,-0.08877 0.8,0 0.22,0.08877 0.04,0.161404 -0.4,0.161404 -0.44,0 -0.62,-0.07263 -0.4,-0.161404 z m 4.18,-0.0067 c 0.230999,-0.09244 0.506999,-0.08107 0.613335,0.02526 0.106333,0.106334 -0.08267,0.181966 -0.42,0.168071 -0.372784,-0.01535 -0.448608,-0.09118 -0.193335,-0.193334 z m -3.2,-1.6 c 0.230999,-0.09244 0.506999,-0.08107 0.613335,0.02526 0.106333,0.106334 -0.08267,0.181966 -0.42,0.168071 -0.372784,-0.01535 -0.448608,-0.09118 -0.193335,-0.193334 z m 1.28,-12.48 c 0.230999,-0.09244 0.506999,-0.08107 0.613335,0.02526 0.106333,0.106334 -0.08267,0.181966 -0.42,0.168071 -0.372784,-0.01535 -0.448608,-0.09118 -0.193335,-0.193334 z m 2.24,0 c 0.230999,-0.09244 0.506999,-0.08107 0.613335,0.02526 0.106333,0.106334 -0.08267,0.181966 -0.42,0.168071 -0.372784,-0.01535 -0.448608,-0.09118 -0.193335,-0.193334 z m -1.62,-1.913334 c 0.22,-0.08877 0.58,-0.08877 0.8,0 0.22,0.08877 0.04,0.161404 -0.4,0.161404 -0.44,0 -0.62,-0.07263 -0.4,-0.161404 z m -1.58,-0.326666 c 0.230999,-0.09244 0.506999,-0.08107 0.613335,0.02526 0.106333,0.106333 -0.08267,0.181965 -0.42,0.16807 -0.372784,-0.01535 -0.448608,-0.09118 -0.193335,-0.193334 z m 3.5,0.0067 c 0.22,-0.08877 0.58,-0.08877 0.8,0 0.22,0.08877 0.04,0.161404 -0.4,0.161404 -0.44,0 -0.62,-0.07263 -0.4,-0.161404 z"
         id="path3883" />
      <path
         style="fill:#707070;stroke-width:0.32"
         d="m 65.859999,103.4614 c 0.230999,-0.0924 0.506999,-0.0811 0.613335,0.0252 0.106332,0.10634 -0.08267,0.18197 -0.42,0.16807 -0.372784,-0.0154 -0.448608,-0.0912 -0.193335,-0.19333 z m -20.5,-0.63333 c 0.22,-0.0888 0.58,-0.0888 0.8,0 0.22,0.0888 0.04,0.16141 -0.4,0.16141 -0.44,0 -0.62,-0.0726 -0.4,-0.16141 z M 32.96,98.757306 c 0,-0.06749 0.355641,-0.190682 0.790316,-0.273776 0.434672,-0.08309 0.714176,-0.02787 0.621114,0.122697 C 34.207564,98.871366 32.96,99.004906 32.96,98.757306 Z M 69.679999,98.34807 c 0.22,-0.08877 0.58,-0.08877 0.8,0 0.22,0.08877 0.04,0.161405 -0.4,0.161405 -0.44,0 -0.62,-0.07263 -0.4,-0.161405 z m -19.44,-1.188889 c 0,-0.06645 0.252,-0.318448 0.56,-0.56 0.50754,-0.398039 0.518858,-0.38672 0.12082,0.120819 -0.418039,0.53304 -0.68082,0.702554 -0.68082,0.439181 z M 31.94,94.821405 c 0.230998,-0.09244 0.506998,-0.08107 0.613334,0.02525 0.106333,0.106333 -0.08267,0.181965 -0.42,0.16807 -0.372783,-0.01536 -0.448609,-0.09118 -0.193334,-0.193331 z m 12.939999,-0.0019 c 0.308,-0.08049 0.812,-0.08049 1.12,0 0.308,0.08049 0.056,0.146345 -0.56,0.146345 -0.616,0 -0.868,-0.06586 -0.56,-0.146345 z M 25.57578,91.92 24.8,91.04 25.68,91.815779 C 26.502492,92.540864 26.706748,92.8 26.45578,92.8 c -0.05732,0 -0.45332,-0.396 -0.88,-0.88 z M 23.499869,91.44 22.56,90.4 23.6,91.339869 c 0.969425,0.876089 1.187088,1.140131 0.939869,1.140131 -0.05507,0 -0.523072,-0.468 -1.04,-1.04 z M 18.56,91.399181 c 0,-0.06645 0.252,-0.318448 0.56,-0.56 0.507538,-0.398039 0.518856,-0.38672 0.120817,0.120819 C 18.822779,91.49304 18.56,91.662554 18.56,91.399181 Z M 57.739868,85.68 l -0.939869,-1.04 1.04,0.939869 c 0.572,0.516928 1.04,0.984928 1.04,1.04 0,0.247219 -0.264041,0.02957 -1.140131,-0.939869 z M 47.279999,66.02807 c 0.22,-0.08877 0.58,-0.08877 0.8,0 0.22,0.08877 0.04,0.161405 -0.4,0.161405 -0.44,0 -0.62,-0.07263 -0.4,-0.161405 z m 3.2,0 c 0.22,-0.08877 0.58,-0.08877 0.8,0 0.22,0.08877 0.04,0.161405 -0.4,0.161405 -0.44,0 -0.62,-0.07263 -0.4,-0.161405 z M 43.865264,46.853334 c 0.01536,-0.372784 0.09118,-0.448608 0.193331,-0.193334 0.09244,0.230998 0.08107,0.506998 -0.02525,0.613334 -0.106336,0.106333 -0.181965,-0.08267 -0.168071,-0.42 z M 35.295891,31.68 c 0,-0.968 0.05999,-1.364 0.133309,-0.88 0.07332,0.484 0.07332,1.276 0,1.76 -0.07332,0.484 -0.133309,0.088 -0.133309,-0.88 z m 22.994633,-0.64 c 0,-0.44 0.07263,-0.62 0.161405,-0.4 0.08877,0.22 0.08877,0.58 0,0.8 -0.08877,0.22 -0.161405,0.04 -0.161405,-0.4 z M 46.484399,30.810374 c 0.48642,-0.07355 1.20642,-0.07159 1.6,0.0044 0.393581,0.07596 -0.0044,0.136136 -0.8844,0.133734 -0.88,-0.0024 -1.202019,-0.06455 -0.7156,-0.138102 z m -9.659135,-2.517041 c 0.01536,-0.372781 0.09118,-0.448608 0.193331,-0.193333 0.09244,0.231 0.08107,0.507 -0.02525,0.613333 -0.106336,0.106334 -0.181965,-0.08267 -0.168071,-0.42 z M 61.810524,21.76 c 0,-0.44 0.07263,-0.62 0.161405,-0.4 0.08877,0.22 0.08877,0.58 0,0.8 -0.08877,0.22 -0.161405,0.04 -0.161405,-0.4 z"
         id="path3881" />
      <path
         style="fill:#505050;stroke-width:0.32"
         d="m 51.459999,103.1414 c 0.230999,-0.0924 0.506999,-0.0811 0.613335,0.0252 0.106333,0.10634 -0.08267,0.18197 -0.42,0.16807 -0.372784,-0.0154 -0.448608,-0.0912 -0.193335,-0.19333 z M 32.26,102.8214 c 0.230998,-0.0924 0.506998,-0.0811 0.613334,0.0252 0.106333,0.10634 -0.08267,0.18197 -0.42,0.16807 -0.372784,-0.0154 -0.448608,-0.0912 -0.193334,-0.19333 z m 1.6,0 c 0.230998,-0.0924 0.506998,-0.0811 0.613334,0.0252 0.106333,0.10634 -0.08267,0.18197 -0.42,0.16807 -0.372784,-0.0154 -0.448608,-0.0912 -0.193334,-0.19333 z m 10.559999,0 c 0.230999,-0.0924 0.506999,-0.0811 0.613335,0.0252 0.106333,0.10634 -0.08267,0.18197 -0.42,0.16807 -0.372784,-0.0154 -0.448608,-0.0912 -0.193335,-0.19333 z m 1.98,0.0928 c 0,-0.0692 0.216,-0.20865 0.48,-0.30996 0.264,-0.10131 0.48,-0.0447 0.48,0.12576 0,0.17048 -0.216,0.30996 -0.48,0.30996 -0.264,0 -0.48,-0.0566 -0.48,-0.12576 z m 19.443731,-0.42056 c 0.398052,-0.0765 0.974052,-0.0736 1.28,0.006 0.305949,0.0801 -0.01974,0.14272 -0.723731,0.13917 -0.704,-0.004 -0.95432,-0.0691 -0.556269,-0.14563 z M 32.26,98.661405 c 0.230998,-0.09244 0.506998,-0.08107 0.613334,0.02525 0.106333,0.106333 -0.08267,0.181965 -0.42,0.16807 C 32.08055,98.839363 32.004726,98.763542 32.26,98.661392 Z m -0.638254,-2.731152 c 0.17065,-0.17065 0.577569,-0.253616 0.904263,-0.184368 0.439943,0.09325 0.359475,0.173721 -0.310272,0.310275 -0.583943,0.119056 -0.794355,0.07446 -0.593991,-0.125907 z M 43.78,94.821405 c 0.230998,-0.09244 0.506998,-0.08107 0.613334,0.02525 0.106333,0.106333 -0.08267,0.181965 -0.42,0.16807 C 43.60055,94.999363 43.524726,94.923542 43.78,94.821392 Z m 2.859999,0.0067 c 0.22,-0.08877 0.58,-0.08877 0.8,0 0.22,0.08877 0.04,0.161405 -0.4,0.161405 -0.44,0 -0.62,-0.07263 -0.4,-0.161405 z M 41.625264,46.853334 c 0.01536,-0.372784 0.09118,-0.448608 0.193331,-0.193334 0.09244,0.230998 0.08107,0.506998 -0.02525,0.613334 -0.106336,0.106333 -0.181965,-0.08267 -0.168071,-0.42 z M 43.890524,45.76 c 0,-0.44 0.07263,-0.62 0.161405,-0.4 0.08877,0.22 0.08877,0.58 0,0.8 -0.08877,0.22 -0.161405,0.04 -0.161405,-0.4 z"
         id="path3879" />
      <path
         style="fill:#2f2f2f;stroke-width:0.32"
         d="m 67.779999,102.5014 c 0.230999,-0.0924 0.506999,-0.0811 0.613335,0.0252 0.106332,0.10634 -0.08267,0.18197 -0.42,0.16807 -0.372784,-0.0154 -0.448608,-0.0912 -0.193335,-0.19333 z M 21.52609,97.698243 c 0.311349,-0.08113 0.743349,-0.0758 0.96,0.01187 0.21665,0.08766 -0.03809,0.154039 -0.56609,0.147517 -0.528,-0.0065 -0.70526,-0.07824 -0.39391,-0.159373 z m 58.233909,-2.558829 c 0.308,-0.08049 0.812,-0.08049 1.12,0 0.308,0.08049 0.056,0.146346 -0.56,0.146346 -0.616,0 -0.868,-0.06586 -0.56,-0.146346 z m -33.44,-9.591344 c 0.22,-0.08877 0.58,-0.08877 0.8,0 0.22,0.08877 0.04,0.161405 -0.4,0.161405 -0.44,0 -0.62,-0.07263 -0.4,-0.161405 z m 6.88,-0.0086 c 0.308,-0.08049 0.812,-0.08049 1.12,0 0.308,0.08049 0.056,0.146346 -0.56,0.146346 -0.616,0 -0.868,-0.06586 -0.56,-0.146346 z m 30.26,-14.718009 c 0.230998,-0.09244 0.507002,-0.08107 0.613334,0.02525 0.106333,0.106333 -0.08267,0.181965 -0.42,0.16807 -0.372784,-0.01536 -0.448608,-0.09118 -0.193334,-0.193331 z m -60.479999,-6.4 c 0.231,-0.09244 0.507,-0.08107 0.613333,0.02525 0.106333,0.106333 -0.08267,0.181965 -0.42,0.16807 C 22.800551,64.599421 22.724725,64.523601 22.98,64.42145 Z m -2.24,-0.96 c 0.231,-0.09244 0.507,-0.08107 0.613333,0.02525 0.106333,0.106333 -0.08267,0.181965 -0.42,0.16807 C 20.560551,63.639421 20.484725,63.563601 20.74,63.46145 Z m 53.038444,-2.311562 c -0.09863,-0.159587 0.10887,-0.21479 0.461114,-0.122678 0.747196,0.195395 0.841648,0.412835 0.179328,0.412835 -0.253613,0 -0.541812,-0.13057 -0.640442,-0.290157 z M 51.459999,50.661405 c 0.230999,-0.09244 0.506999,-0.08107 0.613335,0.02525 0.106333,0.106333 -0.08267,0.181965 -0.42,0.16807 -0.372784,-0.01536 -0.448608,-0.09118 -0.193335,-0.193331 z M 43.890524,44.48 c 0,-0.44 0.07263,-0.62 0.161405,-0.4 0.08877,0.22 0.08877,0.58 0,0.8 -0.08877,0.22 -0.161405,0.04 -0.161405,-0.4 z m 11.789475,-7.881725 c 0,-0.169613 0.612,-0.877613 1.36,-1.573331 l 1.36,-1.264944 -1.28,1.435088 c -0.704,0.789296 -1.316,1.497296 -1.36,1.573331 -0.044,0.07603 -0.08,-6.4e-4 -0.08,-0.170144 z m -6.78,-0.65687 c 0.230999,-0.09244 0.506999,-0.08107 0.613335,0.02525 0.106333,0.106336 -0.08267,0.181965 -0.42,0.16807 -0.372784,-0.01536 -0.448608,-0.09118 -0.193335,-0.193331 z M 59.295891,31.36 c 0,-0.968 0.05999,-1.364 0.133308,-0.88 0.07332,0.484 0.07332,1.276 0,1.76 -0.07332,0.484 -0.133308,0.088 -0.133308,-0.88 z m -23.073507,0.16 c 0.0065,-0.528 0.07824,-0.70526 0.159372,-0.39391 0.08113,0.31135 0.0758,0.74335 -0.01184,0.96 C 36.282259,32.302739 36.215878,32.048 36.2224,31.52 Z M 50.04535,20.8 c 0,-2.376 0.05037,-3.348 0.111945,-2.16 0.06157,1.188 0.06157,3.132 0,4.32 -0.06157,1.188 -0.111945,0.216 -0.111945,-2.16 z"
         id="path3877" />
      <path
         style="fill:#000000;stroke-width:0.32"
         d="m 29.68,103.46587 c -1.012,-0.0758 -1.84,-0.25171 -1.84,-0.39092 0,-0.13921 0.828,-0.43533 1.84,-0.65805 2.280823,-0.50196 7.432531,-2.1439 8.08,-2.575236 0.326448,-0.217478 -0.543677,-0.256099 -2.72,-0.12073 -3.735867,0.232372 -6.970842,-0.191238 -10.363958,-1.357129 -2.704017,-0.929114 -3.020738,-0.902074 -9.315859,0.795398 -5.220515,1.407707 -15.04037167,2.964137 -15.04002662,2.383827 8.605e-5,-0.14467 1.17425582,-0.66772 2.60926622,-1.16234 C 10.702228,97.701574 18.558209,92.678995 20.991242,88.833197 l 0.880514,-1.391792 1.327403,1.803149 C 24.617508,91.171245 28.040467,94.4 28.664695,94.4 c 0.588357,0 0.954295,-0.629859 1.717581,-2.956339 C 31.070809,89.34503 32.156969,88 33.163155,88 33.40342,88 33.6,87.883254 33.6,87.740566 c 0,-0.39456 5.391049,-49.028284 5.567657,-50.226928 0.141783,-0.962297 0.0016,-1.167964 -1.744125,-2.56 L 35.525238,33.44 l -0.0026,-1.84686 c -0.0022,-1.660667 0.07803,-1.883609 0.797379,-2.211365 0.563546,-0.256768 0.8,-0.617888 0.8,-1.221775 0,-0.603887 0.236455,-0.965007 0.8,-1.221775 0.795408,-0.362413 0.8,-0.389114 0.8,-4.653376 V 17.995978 L 37.29022,17.63594 c -1.759177,-0.442965 -2.267875,-1.21669 -1.695555,-2.578914 0.222967,-0.530695 2.905866,-4.055101 5.961997,-7.8320129 l 5.556605,-6.86711208 0.701612,0.86104948 c 4.211495,5.1685362 10.160448,12.9647595 10.426205,13.6637515 0.416122,1.094483 -0.250013,2.286966 -1.445075,2.586908 l -0.79601,0.199771 v 4.12531 c 0,2.536873 0.123216,4.125309 0.32,4.125309 0.59928,0 1.6,1.277594 1.6,2.042678 0,0.493557 0.225834,0.821734 0.64,0.930042 0.553754,0.14481 0.64,0.436485 0.64,2.164401 v 1.997036 L 57.464425,34.687078 55.728851,36.32 57.429683,48.96 c 0.935459,6.952 2.462915,18.436 3.394348,25.52 1.563357,11.890061 1.74065,12.88 2.306743,12.88 1.083798,0 2.640169,1.938445 3.404284,4.24 0.50377,1.517376 0.875965,2.159926 1.251031,2.159747 1.029968,-6.4e-4 4.650838,-1.954205 5.71712,-3.084793 l 1.077069,-1.142023 1.257804,1.428941 c 1.458836,1.657325 3.768004,2.770688 6.285424,3.030509 1.718301,0.177344 2.160163,0.488893 1.21032,0.853382 -0.955373,0.366611 -5.440121,0.194039 -7.257228,-0.279257 -1.382778,-0.360167 -2.213501,-0.398461 -3.470909,-0.16 -0.909175,0.172422 -2.173389,0.315699 -2.809367,0.318393 -2.03438,0.0086 -2.206201,0.461683 -0.544419,1.435552 2.247994,1.317415 5.054003,2.075469 7.816605,2.111693 2.34144,0.03069 2.394029,0.04731 1.171491,0.370035 -0.704,0.185837 -3.512,0.340467 -6.24,0.343619 -4.477507,0.0052 -5.201248,-0.07421 -7.44,-0.816048 -1.364,-0.451977 -2.48,-0.704291 -2.48,-0.560697 0,0.14359 0.600573,0.775145 1.334608,1.403453 1.60241,1.371604 4.058439,2.338764 7.214103,2.840854 1.282211,0.20401 2.331289,0.46758 2.331289,0.58573 0,0.45413 -5.572073,0.99533 -7.963808,0.7735 -1.339907,-0.12427 -2.868192,-0.21534 -3.396192,-0.20237 -8.212336,0.20169 -11.7868,0.32677 -14.72,0.51509 -2.71135,0.17407 -3.821014,0.12006 -4.8303,-0.23511 -0.884925,-0.31141 -1.560176,-0.36795 -2.08,-0.17417 -0.881277,0.32852 -7.547962,0.55518 -10.289699,0.34984 z m 9.322409,-1.0938 c 1.065927,-0.2385 1.910487,-0.19067 3.52,0.19934 1.164675,0.28222 2.83759,0.46354 3.71759,0.40293 l 1.6,-0.1102 -0.96,-0.40836 c -1.923382,-0.81815 -3.545052,-1.7262 -4.665795,-2.612602 l -1.145792,-0.906215 -1.894208,0.921536 c -1.041811,0.506841 -3.153891,1.322021 -4.69351,1.811521 -1.539619,0.48949 -2.79962,1.01864 -2.800001,1.17589 -8e-4,0.33231 5.232564,-0.006 7.321716,-0.47384 z m 21.95759,-0.56067 c 0.67674,-0.19687 1.230656,-0.14312 1.87728,0.18216 1.079997,0.54329 5.64272,0.96287 5.64272,0.51889 0,-0.16495 -0.778921,-0.56468 -1.730941,-0.88828 -0.952016,-0.3236 -2.459155,-1.13953 -3.3492,-1.813181 -0.892982,-0.675872 -1.704963,-1.084535 -1.811708,-0.911818 -0.320423,0.518455 -3.363901,1.961249 -5.742199,2.722159 -1.658227,0.53052 -2.029385,0.74367 -1.44,0.82694 1.017242,0.14372 5.302045,-0.27264 6.554048,-0.63687 z m -6.712294,-0.54261 c 3.58209,-1.03804 6.041904,-2.205801 6.873594,-3.263126 0.787673,-1.001363 0.526713,-1.356243 -1.162554,-1.580947 -0.918934,-0.122237 -1.89033,0.09446 -3.762582,0.839357 -3.568349,1.419705 -7.541636,2.52383 -9.981936,2.773846 -2.322295,0.23793 -2.313434,0.47397 0.05246,1.3978 2.171971,0.84811 4.657756,0.79612 7.981014,-0.16693 z M 10.72,99.378778 c 1.76,-0.429216 5.00237,-1.401028 7.205267,-2.159584 L 21.930534,95.84 l 1.594733,0.868205 c 2.035029,1.107907 5.117991,1.812883 8.872569,2.02887 L 35.36,98.907478 32.413036,97.481504 C 29.238413,95.94537 25.649407,93.399587 23.391061,91.081965 l -1.408939,-1.44592 -1.791061,1.601299 C 17.848856,93.331395 13.816381,95.976429 9.4411164,98.288582 5.4532943,100.39599 5.6970099,100.60375 10.72,99.378778 Z m 35.604339,-0.55626 c 1.459942,-0.464412 2.491616,-1.082931 3.798393,-2.277254 0.986733,-0.901818 1.627939,-1.69504 1.424906,-1.762717 -0.203037,-0.06768 -0.588659,0.05912 -0.856941,0.281773 -0.706669,0.586483 -9.533558,0.606426 -10.911878,0.02464 -0.81208,-0.342768 -1.255821,-0.35359 -2.167085,-0.05285 -0.63025,0.208 -2.402717,0.484439 -3.938819,0.614304 l -2.792915,0.23613 1.814192,0.841274 c 1.945264,0.902064 5.177427,1.832182 6.3668,1.832182 0.400739,0 0.983484,-0.230656 1.294995,-0.512566 0.526214,-0.476221 0.636182,-0.433066 1.550761,0.608585 1.084791,1.235507 1.059959,1.23457 4.417591,0.166499 z m 5.371456,-0.869228 c 1.575312,-0.50969 3.688608,-1.22969 4.696211,-1.6 2.645369,-0.972215 5.347238,-0.918698 6.594275,0.130614 1.384745,1.165187 3.289225,1.736624 6.41839,1.925837 l 2.755328,0.166608 -2.24,-1.079165 C 66.724015,95.957456 64.668783,94.192512 62.520166,91.142534 60.728041,88.598598 56.487727,83.84 56.012991,83.84 c -0.124105,0 -0.166608,0.756 -0.09445,1.68 0.270016,3.457562 -2.26847,8.495514 -5.920972,11.750938 C 49.004643,98.155923 48.336095,98.88 48.511916,98.88 c 0.175821,0 1.608567,-0.417018 3.183879,-0.92671 z M 36.824854,94.270976 c 1.590294,-0.422435 1.939114,-0.420246 3.2,0.02006 1.795152,0.62689 8.177513,1.01528 7.845088,0.477405 -0.125242,-0.202647 -0.510259,-0.368448 -0.855594,-0.368448 -0.345334,0 -2.347577,-0.581091 -4.44943,-1.291312 l -3.821549,-1.291312 -1.613952,0.817849 c -0.88767,0.449821 -2.872928,1.116186 -4.411683,1.480816 C 31.17898,94.480662 29.848,94.85766 29.76,94.953804 c -0.302565,0.33057 5.281657,-0.209162 7.064854,-0.682835 z M 79.21694,93.936742 C 77.584182,93.391248 76.683004,92.860755 75.823135,91.938931 L 74.65239,90.68383 73.566194,91.443712 c -0.597408,0.417936 -1.806195,1.141184 -2.686195,1.607216 -1.356637,0.718451 -1.488611,0.864781 -0.86767,0.962074 0.402784,0.06311 1.441321,-0.03731 2.307862,-0.223149 1.546042,-0.331565 3.282218,-0.153664 5.599808,0.573805 0.528,0.165731 1.536,0.304585 2.24,0.308563 1.216237,0.0069 1.169258,-0.02976 -0.943059,-0.735479 z M 39.36,86.218 c 2.024,-0.273258 6.307775,-0.524096 9.519503,-0.557418 6.53241,-0.06777 6.249655,0.05956 5.374692,-2.420348 C 53.82103,82.012512 53.828396,81.92 54.359331,81.92 c 0.751596,0 3.119168,1.587293 4.503443,3.019245 1.093072,1.130723 2.253257,1.510739 2.261517,0.740755 0.01165,-1.085187 -2.66665,-18.356064 -2.882522,-18.587843 -0.407562,-0.4376 -6.032221,-1.167939 -8.96177,-1.163648 -2.885616,0.0042 -8.679689,0.679008 -10.851212,1.263741 -0.934359,0.251596 -1.344813,0.550889 -1.452631,1.059219 C 36.8935,68.641162 36.452969,72.416 35.997193,76.64 35.541417,80.864 35.08519,84.86 34.983356,85.52 34.765113,86.934461 34.438768,86.882413 39.36,86.218 Z M 38.896275,78.96 c 0.3768,-4.065421 0.534998,-4.546749 1.532521,-4.662819 l 0.883648,-0.102823 -0.222979,3.302823 c -0.122637,1.81655 -0.381939,3.408614 -0.576221,3.53792 -0.194284,0.129305 -0.685964,0.237305 -1.09262,0.24 -0.724576,0.0048 -0.735072,-0.04154 -0.524349,-2.315101 z M 54.603494,59.955338 c -0.11192,-0.816567 -0.203495,-1.958279 -0.203495,-2.537143 0,-0.954006 -0.8227,-2.30216 -1.184246,-1.940617 -0.08143,0.08143 -0.04571,1.456288 0.07937,3.055238 0.205088,2.621654 0.290499,2.907184 0.869645,2.907184 0.57992,0 0.62248,-0.144026 0.438723,-1.484662 z m -8.363495,-9.250295 c 1.608285,-0.119513 4.487479,-0.05177 6.520384,0.153418 2.002215,0.202089 3.691997,0.315827 3.755072,0.252749 0.06308,-0.06308 -0.314656,-3.272903 -0.839404,-7.132948 -0.524752,-3.860044 -0.954535,-7.109913 -0.955072,-7.221929 -0.0032,-0.667936 -8.742221,-0.871978 -12.284643,-0.286826 -1.036013,0.171136 -1.928016,0.355507 -1.982228,0.409715 -0.05421,0.05421 -0.397424,2.902564 -0.762704,6.329671 -0.365276,3.42711 -0.741596,6.745449 -0.836265,7.374093 l -0.172128,1.142985 2.338493,-0.403453 c 1.286172,-0.2219 3.634495,-0.499763 5.218495,-0.617475 z M 41.92,45.644662 c 0,-1.119433 0.09157,-2.703433 0.203494,-3.52 C 42.313676,40.737133 42.389212,40.64 43.278012,40.64 h 0.951024 l -0.230684,3.28 c -0.126874,1.804 -0.294906,3.388 -0.373402,3.52 -0.0785,0.132 -0.494224,0.24 -0.923837,0.24 C 41.954835,47.68 41.92,47.589232 41.92,45.644662 Z M 40.64,31.489423 c 4.091132,-0.67231 10.983155,-0.558156 17.279999,0.286212 0.300666,0.04032 0.516119,-0.246659 0.576669,-0.768111 0.08996,-0.77471 -0.03216,-0.860088 -1.76,-1.230406 C 53.549699,29.094069 45.729011,28.978665 41.92,29.558478 c -5.01097,0.762776 -5.76,1.024319 -5.76,2.011254 0,0.735734 0.09009,0.796463 0.88,0.593164 0.484,-0.12457 2.104,-0.427631 3.6,-0.673473 z m 5.359999,-6.252502 4.24,-0.405254 V 20.735833 16.64 h -2.196323 c -2.225501,0 -4.532515,0.327984 -7.003676,0.995699 l -1.36,0.367476 v 3.994732 3.994733 l 1.04,-0.175233 c 0.572,-0.09638 2.948,-0.357596 5.279999,-0.580486 z m 8.72,-3.484841 c 0,-4.229269 0.159741,-3.88827 -2.16,-4.610914 l -0.72,-0.224294 v 4.1581 c 0,4.539547 -0.06177,4.400937 2,4.487908 l 0.88,0.03712 z M 39.54192,16.180566 c 4.382726,-1.275965 10.88719,-1.4276 14.964204,-0.348852 1.82169,0.482005 2.810023,0.396433 2.221267,-0.192323 -0.530972,-0.530973 -5.653369,-1.23863 -8.887392,-1.227789 -4.498969,0.01508 -11.378774,1.295314 -10.374975,1.930635 0.250236,0.15838 0.464838,0.290168 0.476896,0.292863 0.01206,0.0027 0.732054,-0.201845 1.6,-0.454534 z M 52.041836,11.993633 C 51.806287,11.379803 49.3023,7.68 49.122415,7.68 c -0.130176,0 1.326522,4.041413 1.638855,4.546777 0.08608,0.139273 0.451408,0.253223 0.811853,0.253223 0.454876,0 0.598256,-0.148781 0.468713,-0.486367 z m 27.153226,60.755644 c -0.766,-1.422378 -3.180503,-2.66152 -5.195063,-2.666151 -0.748,-0.0017 -1.36,-0.147126 -1.36,-0.323126 0,-0.417798 3.026592,-0.40903 4.546775,0.01318 0.652726,0.181283 1.619862,0.762691 2.14919,1.292022 0.931878,0.931879 0.99272,0.946749 1.917334,0.468612 1.607018,-0.831021 3.831946,-0.639325 5.600999,0.482576 1.776464,1.126601 1.747459,1.633411 -0.04286,0.748841 -0.74984,-0.370483 -1.904544,-0.599827 -3.030432,-0.601891 -1.550825,-0.0029 -1.9544,0.126397 -2.73751,0.876666 -0.505187,0.484 -0.985895,0.88 -1.06824,0.88 -0.08235,0 -0.433437,-0.526826 -0.780198,-1.170724 z M 16,67.461405 c -0.893524,-0.499114 -1.540598,-0.595968 -3.2,-0.478983 -1.144,0.08065 -2.368,0.246352 -2.72,0.368231 -0.6253979,0.216537 -0.6260827,0.210233 -0.03002,-0.276352 0.928394,-0.757879 4.040139,-1.557213 5.368505,-1.37904 0.90944,0.121981 1.31578,0.01098 1.761109,-0.481107 0.318394,-0.351824 0.968087,-0.840935 1.443762,-1.086916 0.956509,-0.49463 4.005386,-0.596569 4.699252,-0.157123 0.455702,0.288615 0.228427,0.360573 -2.593185,0.821053 C 19.335497,65.01865 17.6,66.35983 17.6,67.209562 c 0,0.886579 -0.361741,0.94352 -1.6,0.251843 z M 77.772194,63.15704 C 76.2551,62.352659 74.285679,62.16232 73.685887,62.762112 73.416409,63.03159 73.206524,62.84359 72.865401,62.027168 72.344498,60.780474 70.72622,59.29407 69.575337,59.005216 c -0.426435,-0.107027 -0.775338,-0.332691 -0.775338,-0.501472 0,-0.746973 4.003024,1.119197 4.707715,2.194691 0.369469,0.563882 0.708615,0.736573 1.202909,0.612512 1.00641,-0.252592 2.88728,0.353975 3.99944,1.289795 0.905616,0.762029 1.278266,1.454448 0.729936,1.356298 -0.132,-0.02362 -0.882512,-0.383629 -1.667805,-0.8 z M 14.24,58.052954 c -0.978428,-0.616922 -1.587835,-0.776036 -2.586579,-0.675341 -1.226986,0.123705 -1.324454,0.07158 -1.6,-0.855699 -0.1751933,-0.589562 -0.8335267,-1.377159 -1.6338678,-1.954669 -0.7372458,-0.531984 -1.3492458,-1.077671 -1.36,-1.212637 -0.039643,-0.497507 3.1864238,1.39703 3.6914938,2.167866 0.4032,0.61536 0.796664,0.797526 1.722601,0.797526 1.25224,0 2.621426,0.827056 3.219633,1.944816 0.43508,0.812954 0.09295,0.763078 -1.453281,-0.211862 z M 26.906349,57.509306 C 26.530848,56.521661 24.833719,55.362979 23.76,55.361197 c -0.396,-6.4e-4 -0.72,-0.151722 -0.72,-0.335696 0,-0.462464 2.07625,-0.07252 3.72946,0.700435 0.812393,0.379834 1.634805,0.54495 2.114552,0.424541 0.838519,-0.210455 2.546583,0.397117 3.595988,1.279117 0.628342,0.528108 0.625427,0.534166 -0.16,0.332553 -0.44,-0.112944 -1.287152,-0.328787 -1.882559,-0.479651 -1.132272,-0.28689 -2.562173,0.06267 -2.972556,0.726682 -0.143318,0.231894 -0.350978,0.04604 -0.558536,-0.499872 z M 66.567913,27.501907 c -5.002397,-2.071422 -5.556598,-2.397492 -4.659779,-2.741634 0.590988,-0.226783 9.451865,3.926786 9.451865,4.430597 0,0.324425 0.47137,0.490559 -4.792086,-1.688963 z m -4.487914,-5.704628 c 0,-0.66234 0.116458,-0.677279 5.28,-0.677279 2.904,0 5.28,0.12545 5.28,0.278777 0,0.153328 -1.476,0.372606 -3.28,0.487285 -1.804,0.114679 -4.18,0.294005 -5.28,0.398502 -1.883206,0.178899 -2,0.150443 -2,-0.487285 z m -0.1,-2.803946 c -0.121001,-0.121 -0.22,-0.348351 -0.22,-0.505225 0,-0.254071 3.025728,-1.760663 7.92,-3.943584 3.033597,-1.353031 1.751895,-0.348675 -2.674131,2.095476 -5.006941,2.764947 -4.739488,2.639713 -5.025869,2.353333 z"
         id="path3875" />
    </g>
    <path
       style="fill:#ffffff;stroke-width:0.259352"
       d="m 35.145699,85.910224 c 0.002,-0.392269 0.409783,-4.272818 0.906286,-8.623441 0.496503,-4.350623 0.903383,-8.101534 0.904177,-8.335358 7.94e-4,-0.233823 0.206991,-0.678973 0.458216,-0.989223 1.302766,-1.608848 14.942219,-2.322445 19.805341,-1.036187 0.756221,0.200014 0.970942,0.401356 1.096261,1.027948 0.140204,0.701024 2.33016,14.989709 2.612944,17.048531 0.171571,1.24915 -0.526921,1.098664 -2.04249,-0.440042 -0.695004,-0.705613 -1.332511,-1.263557 -1.416684,-1.239875 -0.08417,0.02368 -0.619875,-0.262962 -1.190448,-0.636987 -1.276752,-0.836942 -2.106619,-1.098655 -2.331246,-0.7352 -0.09373,0.151651 0.02602,0.867128 0.266104,1.58995 0.33119,0.997118 0.363913,1.386825 0.135619,1.615121 -0.206083,0.206084 -1.890442,0.307749 -5.345416,0.322638 -2.774485,0.01196 -5.122267,0.09949 -5.217292,0.194514 -0.09502,0.09503 -0.76604,0.176471 -1.491144,0.180991 -0.725104,0.0045 -2.543807,0.175884 -4.041563,0.38081 -1.497756,0.204926 -2.810723,0.376291 -2.917706,0.38081 -0.106982,0.0045 -0.192914,-0.31273 -0.190959,-0.705 z m 5.41918,-4.834347 c 0.31172,-0.375599 0.796326,-3.889594 0.799736,-5.799069 0.0019,-1.041848 -0.03892,-1.102244 -0.74433,-1.102244 -0.410464,0 -0.870694,0.149887 -1.022733,0.333083 -0.37496,0.451798 -0.820128,3.324504 -0.822526,5.307814 -0.0019,1.613278 0.0016,1.620948 0.74434,1.620948 0.410464,0 0.880945,-0.16224 1.045513,-0.360532 z"
       id="path4091" />
    <path
       style="fill:#ffffff;stroke-width:0.259352"
       d="m 38.93043,50.790998 c 0.0727,-0.476196 0.460498,-3.704307 0.861765,-7.173579 0.401267,-3.469273 0.832128,-6.409616 0.957468,-6.534096 0.485071,-0.48174 3.801595,-0.747759 8.467718,-0.679196 2.90076,0.04262 4.976404,0.179683 5.135854,0.339133 0.245337,0.245337 2.192117,14.041597 2.007047,14.223354 -0.07631,0.07495 -6.636389,-0.5269 -7.472501,-0.685556 -0.213966,-0.0406 -0.797507,0.0023 -1.296759,0.09525 -0.499251,0.09299 -2.520341,0.357158 -4.49131,0.587044 -1.970968,0.229886 -3.745105,0.479957 -3.942525,0.555715 -0.276051,0.10593 -0.328419,-0.06221 -0.226757,-0.72807 z m 4.933964,-3.268785 c 0.182974,-0.11886 0.338951,-1.483316 0.414614,-3.626951 l 0.121293,-3.436409 -0.803642,0.004 c -1.394847,0.0069 -1.481756,0.193186 -1.705794,3.656461 -0.114295,1.766813 -0.155419,3.299917 -0.09139,3.4069 0.149151,0.249197 1.679718,0.246254 2.064916,-0.004 z"
       id="path4130" />
    <path
       style="fill:#ffffff;stroke-width:0.259352"
       d="m 40.091739,24.727581 c -0.144,-0.521526 -0.208427,-1.034618 -0.143171,-1.140204 0.06526,-0.105586 0.138252,-1.416734 0.162214,-2.913661 l 0.04357,-2.721685 2.097388,-0.471107 c 1.304778,-0.293074 3.175499,-0.475319 4.950257,-0.48225 l 2.852868,-0.01114 v 3.825325 c 0,3.210612 -0.06251,3.831391 -0.389028,3.86307 -0.213965,0.02076 -0.797506,0.06668 -1.296758,0.102032 -0.499252,0.03536 -2.366583,0.249357 -4.149626,0.475552 -1.783042,0.226196 -3.382294,0.413748 -3.553894,0.416782 -0.171599,0.003 -0.429817,-0.421185 -0.573818,-0.942711 z"
       id="path4169" />
    <path
       style="fill:#ffffff;stroke-width:0.259352"
       d="m 52.268477,24.914806 c -0.268996,-0.502623 -0.391057,-7.797599 -0.130471,-7.797599 0.379704,0 2.073768,0.838242 2.247936,1.112304 0.109797,0.172771 0.201418,1.860514 0.203603,3.750539 l 0.004,3.436409 h -1.028281 c -0.751197,0 -1.100627,-0.135178 -1.296758,-0.501653 z"
       id="path4208" />
    <path
       style="fill:#ffffff;stroke-width:0.259352"
       d="m 50.086194,97.573308 c 2.275763,-2.054501 4.636852,-5.778687 5.42295,-8.553714 0.231899,-0.818632 0.532334,-1.855418 0.667633,-2.303969 0.169794,-0.562909 0.150469,-1.025213 -0.06238,-1.492368 -0.169609,-0.372252 -0.230419,-0.754782 -0.135133,-0.850068 0.257193,-0.257193 3.835638,3.555295 6.193073,6.598121 2.494782,3.220106 4.172029,4.739653 6.857726,6.212944 l 2.032282,1.114848 -2.074813,-0.11887 c -2.471276,-0.141586 -4.228853,-0.638139 -5.584836,-1.577835 -1.248811,-0.865427 -2.832241,-1.23111 -4.374293,-1.010214 -0.656145,0.09399 -3.085416,0.798765 -5.398381,1.566163 -2.312964,0.767399 -4.297004,1.391787 -4.408977,1.38753 -0.111973,-0.0043 0.277344,-0.441912 0.865149,-0.972568 z"
       id="path4286" />
    <path
       style="fill:#ffffff;stroke-width:0.259352"
       d="m 7.5341646,99.617708 c 0.1355112,-0.127966 1.3551122,-0.841069 2.7102244,-1.584673 3.414319,-1.873572 7.830801,-4.805769 9.942364,-6.600949 l 1.772789,-1.507164 1.165029,1.331803 c 0.640766,0.732492 1.312953,1.331804 1.493749,1.331804 0.180795,0 0.53527,0.228236 0.787722,0.507192 0.640474,0.707717 4.328323,3.145613 6.450772,4.264359 2.095705,1.10465 1.868923,1.348247 -1.012128,1.087172 -2.601326,-0.235726 -5.43,-0.987442 -7.335765,-1.949469 l -1.573739,-0.794421 -4.224449,1.407203 C 11.748729,99.096564 6.7931829,100.31743 7.5341646,99.617708 Z"
       id="path4325" />
    <path
       style="fill:#ffffff;stroke-width:0.259352"
       d="m 42.078899,98.501302 c -1.157354,-0.976893 -1.24289,-1.00619 -1.799476,-0.616342 -0.864266,0.605355 -2.251223,0.501981 -4.939663,-0.368169 -2.827296,-0.915093 -3.257293,-1.138912 -2.768466,-1.441024 0.400421,-0.247473 4.957138,-0.951116 6.072098,-0.937646 1.820613,0.022 4.028801,0.390469 4.300273,0.717572 0.217992,0.262665 0.422708,0.283359 0.800895,0.08096 0.284687,-0.152359 0.643288,-0.17599 0.815659,-0.05375 0.363727,0.257946 1.214387,0.205818 2.641776,-0.161889 1.28001,-0.329741 3.241895,-0.360269 3.241895,-0.05045 0,0.327552 -1.903687,2.003179 -2.805834,2.469697 -0.419104,0.216727 -1.567965,0.617392 -2.553025,0.890366 l -1.791019,0.496317 z"
       id="path4364" />
    <path
       style="fill:#ffffff;stroke-width:0.259352"
       d="m 32.579547,102.58587 c 0.06455,-0.0645 1.163556,-0.48487 2.442228,-0.93404 1.278672,-0.44917 3.148589,-1.19537 4.15537,-1.658213 l 1.830512,-0.841541 1.388605,0.999034 c 0.763732,0.54946 2.040749,1.3193 2.837817,1.71074 l 1.449213,0.71172 -1.037407,0.0904 c -0.570573,0.0497 -2.007903,-0.0578 -3.194065,-0.23896 -1.692188,-0.25841 -2.648062,-0.26391 -4.438372,-0.0255 -2.244802,0.29888 -5.663646,0.41617 -5.433901,0.18642 z"
       id="path4403" />
    <path
       style="fill:#ffffff;stroke-width:0.259352"
       d="m 43.700748,94.728246 c -0.499252,-0.03562 -1.907343,-0.257757 -3.129092,-0.49363 -2.066153,-0.398894 -2.370048,-0.398899 -4.349406,-6.6e-5 -1.170425,0.235835 -2.680039,0.422173 -3.354699,0.414083 -1.209889,-0.01451 -1.194753,-0.02456 1.107511,-0.735268 1.283791,-0.396308 2.864459,-0.984792 3.512597,-1.307743 l 1.178432,-0.587183 3.742004,1.192775 c 2.058102,0.656027 3.968955,1.192776 4.246339,1.192776 0.277385,0 0.434553,0.06978 0.349262,0.155074 -0.17566,0.175659 -1.943294,0.2662 -3.302948,0.169182 z"
       id="path4442" />
    <path
       style="fill:#ffffff;stroke-width:0.259352"
       d=""
       id="path4481" />
  </g>
</svg>
