<?xml version="1.0" encoding="UTF-8" standalone="no"?>
<!-- Generator: Adobe Illustrator 19.2.1, SVG Export Plug-In . SVG Version: 6.00 Build 0)  -->

<svg
   version="1.1"
   id="layer"
   x="0px"
   y="0px"
   viewBox="0 0 652 225"
   xml:space="preserve"
   sodipodi:docname="sc-freiburg-logo-vector.svg"
   width="652"
   height="225"
   inkscape:version="1.1.1 (3bf5ae0d25, 2021-09-20)"
   xmlns:inkscape="http://www.inkscape.org/namespaces/inkscape"
   xmlns:sodipodi="http://sodipodi.sourceforge.net/DTD/sodipodi-0.dtd"
   xmlns="http://www.w3.org/2000/svg"
   xmlns:svg="http://www.w3.org/2000/svg"><defs
   id="defs97" /><sodipodi:namedview
   id="namedview95"
   pagecolor="#ffffff"
   bordercolor="#111111"
   borderopacity="1"
   inkscape:pageshadow="0"
   inkscape:pageopacity="0"
   inkscape:pagecheckerboard="1"
   showgrid="false"
   inkscape:zoom="0.59279141"
   inkscape:cx="22.773609"
   inkscape:cy="334.8564"
   inkscape:window-width="1920"
   inkscape:window-height="991"
   inkscape:window-x="-9"
   inkscape:window-y="-9"
   inkscape:window-maximized="1"
   inkscape:current-layer="layer" />
<style
   type="text/css"
   id="style54">
	.st0{fill:#E40521;}
	.st1{fill:#2B2B2A;}
	.st2{fill:#FFFFFF;}
</style>


















<g
   id="g198"
   transform="matrix(1.7225701,0,0,1.111264,-403.38557,-37.254627)"><path
     class="st0"
     d="m 281.9,350.1 h 8.6 v 57.7 h -8.6 z m 0,-22.7 h 8.6 v 8.6 h -8.6 z m -125,30.2 H 149 v -7.5 h 7.9 v -5 c 0,-6.6 1.8,-11.6 5,-14.8 2.9,-2.9 7.1,-4.5 12.4,-4.5 4,0 6.7,0.4 9.5,1.4 v 7.5 c -3.1,-0.9 -5.5,-1.4 -8.4,-1.4 -6.7,0 -10,4 -10,12.3 v 4.7 h 15.5 v 7.4 h -15.4 v 50.1 h -8.6 z m 31,-7.6 h 8.6 v 15.1 c 4.2,-9.6 12.6,-16.5 23.5,-16.1 v 9.3 h -0.7 c -12.6,0 -22.9,9 -22.9,26.4 v 23 h -8.6 V 350 Z m 60.4,51.5 c 7.9,0 13.5,-3.2 18.2,-8.1 l 5.4,4.8 c -5.8,6.5 -12.8,10.8 -23.8,10.8 -15.8,0 -28.8,-12.2 -28.8,-30.1 0,-16.7 11.7,-30.1 27.7,-30.1 17.1,0 26.9,13.6 26.9,30.6 0,0.8 0,1.7 -0.1,3 h -45.7 c 1.1,12.1 10,19.1 20.2,19.1 m 16.8,-26.1 c -1,-10.5 -7,-19.4 -18.4,-19.4 -9.9,0 -17.5,8.3 -18.7,19.4 z m 46,21.2 v 11 h -8.6 v -80.2 h 8.6 v 34.2 c 4.7,-6.9 11.5,-12.8 22.1,-12.8 13.8,0 27.5,10.9 27.5,29.9 v 0.2 c 0,18.8 -13.6,30 -27.5,30 -10.7,0 -17.6,-5.8 -22.1,-12.3 M 352,379 v -0.2 c 0,-13.6 -9.4,-22.3 -20.3,-22.3 -10.7,0 -20.9,9 -20.9,22.2 v 0.2 c 0,13.4 10.1,22.3 20.9,22.3 11.1,0 20.3,-8.3 20.3,-22.2 m 15.9,6.8 V 350 h 8.6 v 33.7 c 0,10.7 5.8,17.4 15.9,17.4 9.8,0 17.3,-7.2 17.3,-18.1 v -33 h 8.5 v 57.7 h -8.5 v -10 c -3.9,6.2 -9.8,11.3 -19.7,11.3 -14,-0.1 -22.1,-9.5 -22.1,-23.2 M 429.7,350 h 8.6 v 15.1 c 4.2,-9.6 12.6,-16.5 23.5,-16.1 v 9.3 h -0.7 c -12.6,0 -22.9,9 -22.9,26.4 v 23 h -8.6 V 350 Z m 34.3,67.7 3.9,-6.7 c 6.6,4.8 13.9,7.4 22.2,7.4 12.7,0 21,-7 21,-20.5 v -6.8 c -5,6.7 -12,12.2 -22.6,12.2 -13.8,0 -27.1,-10.4 -27.1,-27 v -0.2 c 0,-16.8 13.4,-27.2 27.1,-27.2 10.8,0 17.8,5.4 22.5,11.6 v -10.4 h 8.6 v 47.6 c 0,8.9 -2.7,15.7 -7.4,20.4 -5.1,5.1 -12.8,7.7 -22,7.7 -9.6,-0.1 -18.5,-2.8 -26.2,-8.1 m 47.3,-41.6 v -0.2 c 0,-11.8 -10.3,-19.5 -21.2,-19.5 -10.9,0 -20,7.6 -20,19.4 v 0.2 c 0,11.6 9.3,19.6 20,19.6 10.9,0 21.2,-7.9 21.2,-19.5"
     id="path56" /><path
     d="m 116.8,352.6 c 4.2,0 7.7,2 10,5 H 149 c -3.7,-13.2 -16,-23 -32.1,-23 -19.4,0 -33.5,14.4 -33.5,31.6 v 0.2 c 0,17.2 13.9,31.3 33.2,31.3 16,0 28.3,-9.8 32.2,-22.9 h -22 c -2.2,3 -5.6,4.9 -9.9,4.9 -7.5,0 -12.8,-6.2 -12.8,-13.6 V 366 c 0.1,-7.2 5,-13.4 12.7,-13.4 m -38.3,2.1 H 57.2 c 0,-4.6 -2.5,-6.6 -6.7,-6.6 -3.6,0 -5.5,1.4 -5.5,4 0,2.9 2.3,3.9 11.6,6.3 11.6,3 24.1,6.8 24.1,20.4 0,11.7 -10.3,19.5 -29,19.5 -19.8,0 -30.4,-6.8 -30.4,-21.2 h 22.5 c 0,5 2.5,7.4 8,7.4 4.2,0 6.3,-1.5 6.3,-4.1 0,-3.5 -3.3,-4.6 -13.7,-7.3 -10.4,-2.7 -21.6,-5.9 -21.6,-19.2 0,-10.8 8.8,-18.9 28,-18.9 17.1,0 27.7,6.3 27.7,19.7"
     id="path58" /><path
     class="st1"
     d="m 576.1,357.7 c -24.9,0 -45.2,-29 -45.2,-64.5 0,-35.6 20.3,-64.5 45.2,-64.5 24.9,0 45.2,29 45.2,64.5 0,35.5 -20.3,64.5 -45.2,64.5"
     id="path60" /><path
     class="st2"
     d="m 576.1,231.8 c -23.1,0 -41.9,27.5 -41.9,61.3 0,33.8 18.8,61.3 41.9,61.3 23.1,0 41.9,-27.5 41.9,-61.3 0,-33.8 -18.8,-61.3 -41.9,-61.3"
     id="path62" /><path
     class="st1"
     d="m 576.2,233.4 c -22.2,0 -40.3,26.7 -40.3,59.6 0,32.9 18.1,59.6 40.3,59.6 22.2,0 40.3,-26.7 40.3,-59.6 0,-32.9 -18.1,-59.6 -40.3,-59.6 M 537,293 c 0,-32.3 17.6,-58.6 39.2,-58.6 6.6,0 12.8,2.5 18.3,6.8 l -38.4,102 C 544.6,333 537,314.3 537,293"
     id="path64" /><path
     class="st1"
     d="m 579.1,253.4 c -2.2,-3.3 -6.3,-4.1 -10,-3.3 -4.2,0.7 -8.4,0.7 -12.7,0.5 -0.9,0.4 -1.4,1.1 -2.1,1.8 -0.7,1.1 -2.4,0.2 -2.9,1.5 -0.8,0.8 -2.4,0.5 -2.8,1.8 -0.3,1.6 -0.3,3.3 0.3,4.8 0.7,0.7 1.7,0.9 2.7,0.8 0.5,-0.3 -0.1,-0.6 0,-1 0.1,-0.8 0.3,-1.7 1.2,-1.9 1.1,-0.3 2.3,-0.2 3.5,-0.1 1.8,0.1 3.5,-0.3 5.2,-0.3 2,0.3 4.2,0.5 5.9,1.7 0.2,0.3 0.3,0.7 0.2,1 -0.1,0.3 -0.3,0.4 -0.6,0.6 -1.5,0.1 -3,-0.5 -4.5,-0.4 -0.7,0.2 -1.7,-0.1 -2.2,0.5 -0.1,0.1 0,0.3 0,0.4 2.5,0.4 5.1,0.8 7.4,1.7 0.3,0.3 1,0.4 0.9,1 -0.8,0.7 -1.9,0.4 -2.8,0.6 -3.2,0 -6.7,0.3 -10.1,0 l -0.2,0.1 c -0.1,0.5 0.1,1 0.5,1.3 2.4,1.8 5.8,1.7 8.8,1.7 1.2,0.2 2.7,-0.3 3.5,0.8 0.4,0.8 -0.1,1.7 -0.6,2.2 -3.4,2.2 -6.9,4 -10.5,5.7 -3.4,2 -7,3.5 -9.9,6.3 -0.9,1.2 -2.1,2.3 -2.2,3.9 0.1,0.1 0.1,0.4 0.4,0.4 2.6,-1.3 5.1,-2.6 7.8,-3.7 0.5,-0.1 1.1,-0.2 1.5,0.1 0.6,0.9 -0.4,1.6 -0.9,2.4 -3.4,4.1 -6.8,8.6 -8.3,13.7 -0.1,0.6 -0.3,1.4 0.2,1.9 0.2,0.1 0.4,0.3 0.7,0.2 3.4,-4 6.5,-8.3 10.6,-11.8 l 0.7,-0.1 c 0.4,0.2 0.2,0.6 0.3,1 -1.3,4.8 -3.5,9.8 -2.8,15.2 0.1,0.8 0.1,1.8 1,2 0.5,-0.1 0.6,-0.7 0.7,-1.1 1.8,-4.9 3.6,-9.8 5.6,-14.6 0.5,-0.9 0.8,-2 1.7,-2.6 0.1,0.1 0.1,0 0.2,-0.1 0.6,0.1 0.5,0.9 0.6,1.4 0.1,2.3 -0.2,4.9 -0.1,7.4 0.1,1.6 0.4,3.4 1.9,4.4 0.4,0.2 0.7,0 0.9,-0.3 0.1,-3.2 0.5,-6.5 1.1,-9.7 0.7,-2.4 1,-4.9 2.3,-7 0.2,-0.1 0.5,-0.2 0.7,0 0.4,0 0.7,0.4 1,0.2 0.3,-1.4 -0.3,-2.9 -0.2,-4.4 0,-1.4 0.1,-3.6 0.5,-3.9 0.1,-0.4 0.4,-0.8 0.8,-0.8 0.7,0.4 0.8,1.3 1.3,1.8 0.2,0.2 0.5,0.2 0.7,0 0.2,-0.3 0.3,-0.7 0.3,-1 0.1,-1.8 -0.7,-3.5 -0.2,-5.3 0.2,-1 0.5,-2.1 1.3,-2.7 0.5,0 0.8,0.7 1.2,0.9 0.3,0.3 0.6,0 0.7,-0.2 0.6,-1.5 0.1,-3 0.4,-4.6 -0.1,-2 1,-3.5 1.3,-5.3 0.4,-2.7 -0.3,-5.5 -1.9,-7.5"
     id="path66" /><path
     class="st2"
     d="m 602.1,328.7 c -3.3,2.4 -7.2,3.7 -11.3,3.7 -10.4,0 -18.9,-8.5 -18.9,-18.9 0,-10.4 8.5,-18.9 18.9,-18.9 7.5,0 14.2,4.4 17.3,11.2 v 0.1 h -3 v 0 c -2.8,-5.3 -8.3,-8.6 -14.3,-8.6 -8.9,0 -16.2,7.3 -16.2,16.2 0,8.9 7.3,16.2 16.2,16.2 6.7,0 12.8,-4.2 15.2,-10.5 v 0 h 2.8 v 0.1 c -1.2,3.7 -3.6,7 -6.7,9.4"
     id="path68" /><path
     class="st2"
     d="m 599.9,308.8 v -2.3 H 588 v 3 c -1.1,-0.7 -1.8,-1.7 -1.8,-3.1 0,-2.2 2.2,-4 4.3,-4 2,0 3.6,1.1 4.4,2.9 l 2.1,-1.1 c -1.1,-2.4 -3.9,-4.1 -6.5,-4.1 -3.7,0 -6.9,2.6 -6.9,6.4 0,3 1.9,4.6 4.3,5.8 V 324 c -2,-0.8 -3.3,-2.5 -4,-4.7 l -2.4,0.8 c 0.8,3.3 3.3,5.6 6.4,6.4 v 1.5 0 c 0.5,0 1.7,0 2.2,0 v 0 -1.2 c 0,0 0,0 0.1,0 4.6,0 8.2,-3.2 8.2,-7.9 0,-0.4 -0.1,-0.8 -0.1,-1.1 h 1.2 v -2.4 h -2 c -1.5,-2.6 -4.7,-3.5 -7.4,-4.5 V 309 Z m -3.9,9.9 c 0,3.2 -2.5,5.7 -5.7,5.7 0,0 0,0 -0.1,0 v -6.7 h 5.7 c 0.1,0.3 0.1,0.6 0.1,1 m -4.9,-5 c 1.2,0.4 2.4,0.9 3.3,1.6 h -4.1 v -1.9 c 0.2,0.1 0.5,0.2 0.8,0.3"
     id="path70" /><path
     class="st2"
     d="m 553.1,254.3 c 0.2,-0.1 0.3,-0.2 0.5,-0.2 0.3,0.2 0.6,0.4 0.6,0.8 -0.1,0.3 -0.5,0.2 -0.7,0.1 -0.1,-0.2 -0.7,-0.3 -0.4,-0.7"
     id="path72" /><path
     class="st2"
     d="m 551.1,258.1 c -0.2,0.5 -0.7,0.9 -0.6,1.4 -0.1,0 -0.3,0.1 -0.4,-0.1 -0.1,-1 -0.4,-2.1 -0.2,-3.2 0.4,-0.7 1.2,-0.8 1.9,-1 0.3,0.2 0.5,0.7 0.9,0.8 0.6,0.4 1.2,0.5 1.8,0.4 0.3,0 0.5,-0.5 0.8,-0.3 l 0.5,0.6 c -1.5,0.4 -3.5,0 -4.7,1.4"
     id="path74" /><path
     class="st2"
     d="m 550.5,283.4 c 3.9,-3.9 11.2,-6.5 12.2,-6.7 0.4,0.4 0.4,1.1 0.3,1.6 -4.3,1.4 -8.6,3.1 -12.5,5.1"
     id="path76" /><path
     class="st2"
     d="m 549.4,296.4 c 2.4,-5.7 8.6,-13.6 11.4,-15.6 0.6,-0.1 1.1,0.3 1.3,0.7 -3.3,3.5 -8.6,10 -12.7,14.9"
     id="path78" /><path
     class="st2"
     d="m 557.1,301.9 c 0.9,-8.3 3.4,-15.3 6.2,-19.7 0.5,-0.2 1.1,0.3 1.4,0.6 -3,6.7 -5.1,11.5 -7.6,19.1"
     id="path80" /><path
     class="st2"
     d="m 567.9,256.7 c -0.5,-0.2 -1.3,-0.3 -1.5,-1 -0.2,-0.3 -0.1,-0.8 0,-1.1 0.4,-0.7 1.2,-1.1 1.9,-1.1 0.7,0.1 1.6,0 2,0.8 0.2,0.3 0.4,0.9 0.2,1.3 -0.5,1 -1.7,0.9 -2.6,1.1"
     id="path82" /><path
     class="st2"
     d="m 566.8,295.9 c -0.6,-5.6 -0.9,-9.2 0.5,-15.1 0.6,-0.1 1.4,0.1 1.6,0.3 -0.6,1.9 -1.8,10.1 -2.1,14.8"
     id="path84" /><path
     class="st2"
     d="m 571.3,276.1 c -0.2,-0.1 -0.2,-0.5 -0.4,-0.8 -0.3,-1.2 -0.6,-2.6 -1.1,-3.9 0.3,-0.4 0.8,-0.5 1.3,-0.2 0.3,0.5 0.4,0.9 0.5,1.4 0.1,1.2 0.2,2.5 -0.3,3.5"
     id="path86" /><path
     class="st2"
     d="m 574,271 c -0.4,-1.5 -0.4,-3.1 -1,-4.6 -0.1,-0.3 0.3,-0.4 0.5,-0.5 0.2,-0.1 0.4,-0.1 0.6,0 0.3,0.2 0.1,0.5 0.3,0.7 0.3,0.7 0.3,2.2 0.3,2.2 -0.1,0.7 -0.3,1.7 -0.7,2.2"
     id="path88" /><path
     class="st2"
     d="m 576.3,264.9 v 0 0 c -0.3,-0.6 -0.1,-1.2 -0.1,-2 0,-1 -0.2,-1.9 -0.2,-2.8 0.4,-0.3 1.4,-0.3 1.4,0.4 0.2,1.5 0.2,3.4 -1.1,4.4"
     id="path90" /><path
     class="st1"
     d="m 568.9,254.5 c 0.3,0.4 0.7,0.5 0.8,1 -0.6,0.1 -1.3,0.6 -1.8,0.1 -0.3,-0.3 -0.7,-0.6 -0.6,-1 0,-0.2 0.2,-0.2 0.3,-0.2 0.5,-0.1 0.9,0 1.3,0.1"
     id="path92" /></g>
</svg>
