<?xml version="1.0" encoding="UTF-8" standalone="no"?>
<!-- Created with Inkscape (http://www.inkscape.org/) -->

<svg
   width="210mm"
   height="261mm"
   viewBox="0 0 210 260.99999"
   version="1.1"
   id="svg6594"
   xmlns="http://www.w3.org/2000/svg"
   xmlns:svg="http://www.w3.org/2000/svg">
  <defs
     id="defs6591" />
  <g
     id="layer1">
    <g
       id="g6708"
       transform="matrix(6.0303711,0,0,7.115161,-460.74229,-430.86579)">
      <path
         style="fill:#e1caaa;stroke-width:0.273238"
         d="m 87.422657,96.389676 c -3.787407,-0.378889 -6.795206,-1.496651 -8.698823,-3.232672 -1.178326,-1.074585 -1.381648,-1.595216 -0.9063,-2.32069 0.223797,-0.341559 0.447711,-0.978837 0.497586,-1.416177 0.07777,-0.681969 0.194002,-0.78313 0.816502,-0.710648 0.777714,0.09055 0.791793,0.05791 1.627634,-3.773227 0.147541,-0.676264 0.315452,-3.904228 0.373137,-7.173254 0.08712,-4.937301 0.177455,-6.016255 0.533502,-6.372302 0.235741,-0.235741 0.439326,-0.450576 0.452412,-0.477413 0.01309,-0.02683 0.11853,-1.093928 0.23432,-2.371316 0.115791,-1.277388 0.347498,-2.691395 0.514904,-3.142238 0.167407,-0.450842 0.37296,-1.162875 0.456785,-1.582293 0.222018,-1.110863 0.682865,-0.626366 0.682865,0.717908 0,0.633956 0.188259,1.421424 0.418352,1.749929 0.358976,0.512511 0.523791,0.556508 1.161262,0.310003 0.4086,-0.158003 1.903295,-0.330891 3.321543,-0.384196 1.418247,-0.05331 3.42317,-0.247846 4.455384,-0.432313 2.104638,-0.37612 2.473032,-0.745457 2.375854,-2.381943 -0.120861,-2.035363 -0.158795,-1.993489 1.724581,-1.903775 1.648866,0.07854 1.71079,0.107992 1.79627,0.854226 0.06154,0.537212 0.207338,0.727287 0.478166,0.623361 0.280067,-0.107472 0.389637,0.06519 0.389637,0.613992 0,0.796959 0.97089,1.951721 1.64095,1.951721 0.25627,0 0.21558,0.117423 -0.12766,0.368405 -0.88642,0.648165 -0.22486,0.997785 1.88804,0.997785 3.02144,0 3.61938,0.802697 3.86725,5.191523 0.0721,1.277388 0.24636,3.36766 0.38714,4.645048 0.14079,1.277388 0.18373,2.721208 0.0954,3.20849 -0.0883,0.487282 -0.0773,1.102067 0.0245,1.36619 0.172,0.446444 0.20605,0.442739 0.48409,-0.05269 0.52123,-0.928755 0.59967,-5.559578 0.12552,-7.410361 -0.23367,-0.912132 -0.50045,-2.756404 -0.59284,-4.098384 -0.15105,-2.194197 -0.129,-2.371158 0.21888,-1.756868 0.61273,1.081973 1.06689,3.414375 1.13552,5.831669 0.0348,1.225871 0.15322,2.555535 0.26314,2.95481 0.11823,0.429492 0.0662,0.975621 -0.12734,1.337317 -0.25519,0.476825 -0.25267,0.837172 0.0115,1.637472 0.28913,0.876078 0.27365,1.11891 -0.1059,1.660791 -0.2445,0.349072 -0.44421,0.883971 -0.44379,1.188667 0.001,0.918575 -1.18028,2.883468 -1.83391,3.049785 -0.33197,0.08447 -0.75726,0.338761 -0.9451,0.565095 -0.18784,0.226331 -0.62639,0.519816 -0.97455,0.652186 -0.82902,0.315194 -1.11073,1.061211 -0.5246,1.389228 0.56408,0.31568 0.59063,1.207149 0.0422,1.4176 -0.22542,0.0865 -0.40986,0.34943 -0.40986,0.584284 0,0.234853 0.18444,0.497782 0.40986,0.584284 0.75053,0.288007 0.45626,1.336541 -0.61478,2.190563 -3.29121,2.624321 -10.10654,3.999941 -16.599218,3.350424 z m -1.002509,-2.741485 c 0.701661,-0.110705 1.890533,-0.364035 2.641938,-0.562961 l 1.36619,-0.361682 -1.912666,-0.0668 c -2.632225,-0.09193 -3.688714,-0.302639 -3.688714,-0.735672 0,-0.202319 0.338132,-0.453349 0.751404,-0.557843 l 0.751405,-0.189988 -0.802179,-0.641787 c -0.625053,-0.500078 -0.916311,-0.580705 -1.319073,-0.365153 -0.284292,0.152148 -0.457675,0.420899 -0.385296,0.597225 0.07238,0.176326 0.21438,0.526262 0.315557,0.777633 0.115572,0.287135 -0.02705,0.668045 -0.383644,1.024643 -0.312182,0.312182 -0.464382,0.567603 -0.338224,0.567603 0.126159,0 0.375138,0.319904 0.553287,0.7109 0.275061,0.603692 0.388027,0.657684 0.749087,0.358032 0.233849,-0.194079 0.999266,-0.443444 1.700928,-0.554146 z m 10.565842,-0.427216 1.366191,-0.206363 -1.50281,-0.186819 c -0.826545,-0.102751 -2.547945,-0.188676 -3.825333,-0.190941 l -2.322524,-0.0041 1.566264,0.336561 c 0.861446,0.185111 1.654741,0.425038 1.762877,0.533178 0.108137,0.108136 0.509934,0.135471 0.892879,0.06074 0.382946,-0.07473 1.311051,-0.228736 2.062456,-0.342236 z m -14.253324,-2.45623 c 0.243027,-0.243026 -0.623418,-1.183435 -1.090357,-1.183435 -0.377201,0 -0.511496,0.857885 -0.18535,1.18403 0.235487,0.235488 1.04,0.235111 1.275707,-5.46e-4 z m 20.811034,-2.00315 c 0.0929,-0.150281 -0.0156,-0.273238 -0.24098,-0.273238 -0.22543,0 -0.48585,0.122957 -0.57873,0.273238 -0.0929,0.150281 0.0156,0.273238 0.24099,0.273238 0.22542,0 0.48585,-0.122957 0.57872,-0.273238 z m 0.85753,-2.595761 c 0.0865,-0.225422 0.39049,-0.409858 0.67554,-0.409858 0.7479,0 3.14705,-2.320785 2.6907,-2.602819 -0.22778,-0.140778 -0.55716,0.03925 -0.93209,0.509458 -0.3189,0.399944 -0.77132,0.727171 -1.00538,0.727171 -0.23405,0 -0.6481,0.245914 -0.92011,0.546476 -0.272,0.300562 -0.76783,0.546476 -1.10184,0.546476 -0.64459,0 -1.33811,0.611204 -1.03615,0.913165 0.33952,0.339523 1.47212,0.179594 1.62933,-0.230069 z m -1.49069,-2.126856 c 1.71659,-0.908101 3.22365,-1.862442 3.26416,-2.067016 0.59929,-3.026587 0.51587,-6.713538 -0.26623,-11.766648 -0.29924,-1.933375 -0.95041,-2.483051 -2.94151,-2.483051 -2.31561,0 -2.44356,0.239368 -2.64711,4.95227 -0.31498,7.292807 0.14035,11.988491 1.16249,11.988491 0.13671,0 0.7794,-0.28082 1.4282,-0.624046 z m 2.54583,6.635284 c -0.10906,-0.176471 -0.0753,-0.44381 0.0749,-0.594091 0.18216,-0.182159 0.33934,-0.166287 0.47154,0.04761 0.10906,0.176471 0.0753,0.443809 -0.0749,0.59409 -0.18216,0.18216 -0.33934,0.166288 -0.47154,-0.04761 z m 1.64095,-24.043276 c -0.27284,-0.301483 -0.36912,-0.548151 -0.21394,-0.548151 0.3438,0 1.02529,0.781014 0.8417,0.964611 -0.0724,0.07243 -0.35493,-0.114977 -0.62776,-0.41646 z"
         id="path6722" />
      <path
         style="fill:#cdb29c;stroke-width:0.273238"
         d="m 87.695895,96.235474 c -1.862466,-0.194458 -4.988292,-0.94383 -5.50111,-1.318811 -0.419199,-0.306527 -0.441155,-0.461119 -0.15476,-1.089687 0.398842,-0.875365 1.128253,-0.837101 1.5871,0.08325 0.58367,1.170725 0.866735,1.287274 1.55531,0.640394 0.349808,-0.328629 0.911211,-0.597506 1.247561,-0.597506 0.33635,0 1.476419,-0.196712 2.533487,-0.437137 1.752007,-0.398485 2.072972,-0.399198 3.630107,-0.0081 1.345479,0.337974 2.080156,0.372241 3.460139,0.161391 4.630001,-0.707422 3.913988,-0.918801 -3.66641,-1.082386 C 88.905351,92.511742 85.885216,92.33994 85.67591,92.2051 85.378009,92.013186 85.458375,91.87452 86.045927,91.566671 L 86.7965,91.173449 86.027152,90.370424 c -0.910275,-0.95012 -0.96287,-2.101704 -0.192449,-4.213763 0.440194,-1.206764 0.495002,-2.349148 0.495002,-10.317503 0,-8.741807 0.01334,-8.963161 0.546476,-9.07005 0.300562,-0.06026 2.021962,-0.18442 3.825333,-0.275913 1.803372,-0.09149 3.58625,-0.211263 3.961952,-0.266157 0.375703,-0.05489 0.839836,-0.109796 1.031406,-0.122005 0.501832,-0.03198 0.971165,-1.329671 0.99624,-2.754579 0.02145,-1.219144 0.03033,-1.230291 1.046283,-1.314375 l 1.024643,-0.0848 v 1.776416 c 0,1.878605 0.373385,2.515485 0.984657,1.679522 0.511405,-0.699389 1.201245,-0.325583 1.201245,0.65092 0,0.446691 0.13304,0.894387 0.29565,0.994882 0.18836,0.116413 0.047,0.444511 -0.38952,0.904149 -0.66394,0.699091 -0.68656,0.848355 -0.73056,4.820004 -0.10863,9.805678 -0.0585,10.688978 0.65415,11.517441 l 0.64943,0.755009 1.19493,-0.518901 c 1.91584,-0.831961 3.71061,-2.250496 4.0389,-3.19223 0.16404,-0.470568 0.29826,-1.462266 0.29826,-2.203769 0,-0.959202 0.0985,-1.314204 0.34155,-1.230413 0.52743,0.181873 0.28147,4.561145 -0.29246,5.207006 -0.24318,0.273667 -1.30663,0.905295 -2.36321,1.403621 -2.58204,1.217784 -3.93119,2.555325 -3.25727,3.229245 0.0916,0.09164 0.61239,-0.0723 1.15722,-0.364317 1.18814,-0.636808 1.40855,-0.65685 1.40855,-0.128091 0,0.221563 -0.35886,0.588413 -0.79746,0.815225 -0.74839,0.387006 -1.68299,1.776269 -1.64436,2.44432 0.01,0.164762 0.13327,0.01006 0.275,-0.343778 0.17222,-0.429986 0.40043,-0.588563 0.68812,-0.478166 0.23674,0.09085 0.53358,0.165178 0.65962,0.165178 0.12605,0 0.30795,0.3586 0.40421,0.796888 0.0963,0.438287 0.35974,0.867768 0.58551,0.954404 0.22576,0.08663 0.33394,0.281339 0.24041,0.432683 -0.25622,0.414568 -0.68429,0.330312 -0.68429,-0.13469 0,-0.225421 -0.19812,-0.409857 -0.44026,-0.409857 -0.35535,0 -0.40559,0.184838 -0.2605,0.958252 0.16325,0.870192 0.10955,0.984651 -0.58438,1.245525 -0.42028,0.158 -1.44041,0.607526 -2.26695,0.998948 -0.826547,0.391422 -2.240554,0.87511 -3.14224,1.074864 -1.706418,0.378027 -7.39294,0.66199 -9.290095,0.463909 z M 92.7508,91.220738 c 0.441299,-0.14133 -0.284094,-0.221607 -2.049286,-0.226796 -1.75873,-0.0052 -2.537651,0.07565 -2.185904,0.226796 0.681398,0.292808 3.3209,0.292808 4.23519,0 z m 6.697382,-0.547635 c 0.374025,-0.142204 0.680048,-0.446033 0.680048,-0.675174 0,-0.535251 -0.142332,-0.526232 -2.049288,0.129857 -0.873599,0.300562 -1.80777,0.546476 -2.075934,0.546476 -0.268167,0 -0.575262,0.141879 -0.682434,0.315287 -0.226203,0.366005 2.978924,0.120282 4.127608,-0.316446 z m -19.381921,3.023404 c -1.260411,-0.831283 -1.360915,-1.237233 -0.679565,-2.744835 0.697468,-1.543262 1.487434,-2.119264 1.223247,-0.891928 -0.133773,0.621475 -0.03948,0.807402 0.546225,1.077077 0.529608,0.243843 0.877112,0.248844 1.379697,0.01986 0.540744,-0.246379 0.757059,-0.220818 1.108916,0.131039 0.628097,0.628098 0.263485,1.299217 -0.705851,1.299217 -0.44669,0 -0.883343,-0.11517 -0.970341,-0.255936 -0.087,-0.140765 -0.524604,-0.438733 -0.972459,-0.662152 -0.905191,-0.45157 -1.096183,-0.119533 -0.383944,0.667482 0.236686,0.261533 0.390382,0.793088 0.341548,1.18123 l -0.08879,0.705698 z m 2.57473,-4.251816 c -0.352954,-0.375703 -0.943685,-0.683096 -1.312736,-0.683096 -0.743941,0 -0.742871,0.06285 -0.06978,-4.098571 0.302893,-1.87264 0.414569,-11.325915 0.139065,-11.77169 -0.08863,-0.143413 0.112847,-0.704094 0.447738,-1.245958 0.440364,-0.712524 0.645691,-1.561938 0.741851,-3.068945 0.0739,-1.158211 0.312133,-2.357932 0.536351,-2.701058 l 0.403392,-0.61732 0.581701,1.027177 c 0.567239,1.00164 0.58113,1.293263 0.558767,11.73048 -0.02049,9.562038 -0.07215,10.778409 -0.484466,11.40769 -0.572539,0.873804 -0.738834,0.8761 -1.541886,0.02129 z m 24.318189,-4.508429 c 0,-0.150281 0.13021,-0.273238 0.28936,-0.273238 0.15915,0 0.21338,0.122957 0.1205,0.273238 -0.0929,0.150281 -0.2231,0.273238 -0.28937,0.273238 -0.0663,0 -0.12049,-0.122957 -0.12049,-0.273238 z m -0.24235,-12.897571 c -0.14171,-0.372706 -0.34682,-1.272305 -0.45581,-1.999108 -0.13298,-0.886771 -0.42435,-1.531085 -0.88578,-1.958722 -0.7618,-0.706009 -0.67379,-1.051417 0.19745,-0.774898 0.79842,0.253409 1.09028,0.933728 1.37568,3.20669 0.26517,2.111804 0.18701,2.626918 -0.23154,1.526038 z"
         id="path6720" />
      <path
         style="fill:#b1a8a1;stroke-width:0.273238"
         d="m 88.378991,96.229291 c -0.525984,-0.05939 -1.624191,-0.240313 -2.440461,-0.40204 -1.27042,-0.25171 -1.408128,-0.336105 -0.956334,-0.58609 0.290287,-0.160621 0.671533,-0.4854 0.847213,-0.721732 0.262207,-0.352728 1.069713,-0.441536 4.508428,-0.495815 6.980987,-0.110197 10.027813,-0.492795 9.341559,-1.173049 -0.128845,-0.12772 -3.220537,-0.296327 -6.870426,-0.374686 -3.64989,-0.07836 -6.763588,-0.221224 -6.919329,-0.317478 -0.171549,-0.106022 -0.07953,-0.317636 0.233446,-0.536855 0.496245,-0.347584 0.512177,-0.832652 0.404104,-12.303411 -0.09229,-9.795652 -0.04649,-11.983401 0.25486,-12.17439 0.202052,-0.128055 1.732599,-0.234711 3.401215,-0.237012 1.668616,-0.0023 3.789602,-0.08318 4.713305,-0.179722 1.666094,-0.174142 1.68168,-0.18379 1.958699,-1.212556 0.153582,-0.57036 0.197918,-1.545574 0.09852,-2.167143 l -0.180715,-1.130124 0.926171,0.08847 0.926168,0.08847 0.02358,1.717641 c 0.02852,2.078984 0.450657,2.683986 1.217768,1.745301 0.603248,-0.73818 1.015078,-0.614018 0.937048,0.282512 -0.03,0.344495 0.0738,0.788546 0.23055,0.986779 0.21252,0.268703 0.0917,0.514586 -0.47467,0.966216 l -0.759727,0.605792 -0.02618,7.445211 -0.02618,7.445207 0.805107,0.799899 0.80511,0.799897 1.50281,-0.755157 c 3.55748,-1.787624 3.88184,-2.148457 4.09191,-4.552061 0.0839,-0.959927 0.25653,-1.582803 0.41651,-1.50281 0.15029,0.07514 0.23899,0.444012 0.19712,0.819715 -0.0419,0.375702 -0.0778,1.258944 -0.0798,1.962762 -0.003,1.117685 -0.12449,1.385735 -0.95803,2.117595 -0.52489,0.460859 -1.08768,0.837928 -1.25065,0.837928 -0.48393,0 -3.60775,1.948376 -4.11872,2.568919 -0.25965,0.315325 -0.47483,0.727015 -0.47817,0.914867 -0.008,0.463701 1.21632,0.434183 1.60884,-0.03878 0.38991,-0.4698 1.34105,-0.740776 1.52956,-0.43576 0.1557,0.251975 -0.58857,1.089329 -0.96827,1.089329 -0.31234,0 -1.62976,1.928679 -1.62976,2.385951 0,0.55434 0.49275,0.399692 0.68815,-0.215976 0.2545,-0.801866 1.33116,-0.60605 1.45417,0.264473 0.0551,0.390009 -0.0802,0.75535 -0.33196,0.896229 -0.34662,0.19398 -0.36766,0.363631 -0.1141,0.920132 0.33853,0.742986 0.16249,1.045329 -0.77266,1.326983 -0.48621,0.146442 -0.60715,0.0347 -0.7533,-0.696027 -0.19692,-0.984608 -0.43265,-0.877431 -0.84387,0.383683 -0.39484,1.210844 -1.877875,1.962781 -4.597731,2.331167 -2.720946,0.368529 -6.271074,0.564332 -7.570891,0.417557 z m 4.16688,-4.910693 c 0.563554,-0.09315 1.024643,-0.276232 1.024643,-0.406848 0,-0.320585 -5.664075,-0.304918 -5.862545,0.0162 -0.287775,0.465627 2.850923,0.719061 4.837902,0.390632 z m 6.352786,-0.463646 c 1.285913,-0.334373 1.360613,-0.402297 1.271313,-1.155992 -0.0522,-0.44041 -0.1254,-0.832977 -0.16271,-0.872369 -0.07223,-0.07628 -2.197842,0.876711 -2.884651,1.29329 -0.225421,0.136726 -0.747989,0.319738 -1.161262,0.406693 -0.413272,0.08696 -0.751404,0.278714 -0.751404,0.426131 0,0.378304 2.068751,0.323479 3.688714,-0.09775 z m -16.213263,4.224345 c -0.422529,-0.267823 -0.328988,-1.444566 0.126745,-1.594453 0.169272,-0.05567 0.564736,0.334309 0.878809,0.866623 l 0.571041,0.967842 -0.60557,-0.0042 c -0.333064,-0.0022 -0.770025,-0.108427 -0.971025,-0.235829 z m -3.39157,-2.10354 c -0.11271,-0.113667 -0.204928,-0.456682 -0.204928,-0.762255 0,-0.402146 0.08254,-0.473046 0.298862,-0.256721 0.164374,0.164375 0.256592,0.50739 0.204929,0.762255 -0.05166,0.254866 -0.186152,0.370391 -0.298863,0.256721 z m 2.855338,-0.716714 c -0.461028,-0.461029 -0.41036,-0.7017 0.218591,-1.038305 0.637843,-0.341364 1.639428,0.06398 1.639428,0.663474 0,0.669469 -1.300936,0.931914 -1.858019,0.374831 z M 103.80846,92.02673 c -0.25963,-0.420098 0.096,-0.691147 0.4467,-0.340449 0.19624,0.196234 0.20095,0.349067 0.0143,0.464407 -0.15299,0.09455 -0.36045,0.03877 -0.46103,-0.123958 z M 79.64374,90.9475 c 0,-0.225421 0.119192,-0.594293 0.26487,-0.819714 0.23544,-0.364317 0.26487,-0.364317 0.26487,0 0,0.225421 -0.119191,0.594293 -0.26487,0.819714 -0.23544,0.364317 -0.26487,0.364317 -0.26487,0 z m 3.170199,-1.714878 c -0.79886,-0.79886 -0.923575,-1.600874 -0.326053,-2.096771 0.330007,-0.273883 0.367685,-1.323921 0.233916,-6.518802 -0.1471,-5.71254 -0.203687,-6.25216 -0.730333,-6.964487 -0.561749,-0.759806 -0.562753,-0.786089 -0.06279,-1.643489 0.333175,-0.571366 0.568147,-1.691092 0.682536,-3.252532 0.190834,-2.604921 0.585627,-3.412243 1.234615,-2.524699 0.572385,0.782783 0.817393,6.370669 0.58051,13.239659 -0.111425,3.23104 -0.184105,6.67384 -0.161511,7.650666 0.02677,1.157447 -0.09346,1.959573 -0.345194,2.302962 -0.375991,0.51289 -0.405427,0.507764 -1.105699,-0.192507 z m -1.643697,-1.238867 c -0.217023,-0.351149 0.133267,-1.432573 0.408861,-1.262248 0.319681,0.197576 0.311123,1.13551 -0.01218,1.335323 -0.139896,0.08646 -0.318401,0.05358 -0.396676,-0.07308 z m 25.788938,-3.057493 c 0,-0.150281 0.13021,-0.273238 0.28936,-0.273238 0.15915,0 0.21338,0.122957 0.1205,0.273238 -0.0929,0.150281 -0.2231,0.273238 -0.28937,0.273238 -0.0663,0 -0.12049,-0.122957 -0.12049,-0.273238 z M 106.54211,71.06943 c -0.40377,-1.966912 -0.73714,-2.812608 -1.25043,-3.172134 -0.6122,-0.428802 -0.29572,-0.828607 0.4342,-0.548511 0.57756,0.221631 0.858,0.964242 1.10219,2.918709 0.19814,1.585845 -0.007,2.161033 -0.28596,0.801936 z"
         id="path6718" />
      <path
         style="fill:#f6d618;stroke-width:0.273238"
         d="m 88.242372,95.95996 c -1.697938,-0.222471 -2.049286,-0.377285 -2.049286,-0.90297 0,-0.288829 0.107068,-0.591315 0.237929,-0.67219 0.13086,-0.08088 1.760042,-0.16235 3.620403,-0.181053 6.440309,-0.06474 10.774382,-0.784959 9.553231,-1.587508 -0.212828,-0.139874 -1.81127,-0.351639 -3.552095,-0.47059 l -3.165135,-0.216273 2.459143,-0.213648 c 1.352528,-0.117506 3.064507,-0.341701 3.804395,-0.498211 1.666373,-0.352494 1.911973,-0.142366 1.611213,1.378494 -0.29514,1.492385 -1.022995,2.029219 -3.639561,2.68437 -1.987219,0.497572 -7.215617,0.897686 -8.880237,0.679579 z M 82.7093,94.865111 c -0.477671,-0.192745 -0.42852,-1.18523 0.0587,-1.18523 0.34971,0 0.965947,0.77296 0.965947,1.211609 0,0.182506 -0.541518,0.168566 -1.024643,-0.02637 z m -0.206121,-2.826588 c -0.207464,-0.335684 0.544515,-0.663181 0.948899,-0.413259 0.159928,0.09884 0.220039,0.294171 0.133578,0.434069 -0.208547,0.337435 -0.868915,0.324738 -1.082477,-0.02082 z m 6.49384,-1.581095 c -1.539481,-0.06244 -2.028486,-0.183534 -2.206762,-0.546476 -0.125965,-0.256445 -0.258344,-5.472423 -0.294174,-11.591068 l -0.06515,-11.124804 0.632479,-0.129092 c 0.347864,-0.071 2.784229,-0.20976 5.414146,-0.308354 2.629916,-0.09859 5.49999,-0.211019 6.377942,-0.249834 l 1.59628,-0.07057 -0.17769,0.984065 c -0.375342,2.078619 -0.660023,9.068991 -0.513005,12.596683 0.138972,3.334551 0.218784,3.78532 0.831275,4.694891 0.62719,0.93139 0.65081,1.080132 0.31774,2.001191 -0.33519,0.92696 -0.31797,1.026569 0.25179,1.456334 0.58206,0.439052 0.58971,0.492536 0.15846,1.108234 l -0.45312,0.646916 -0.43781,-0.578579 -0.437815,-0.578579 -1.762574,0.712712 c -1.890523,0.764446 -5.373771,1.132818 -9.232016,0.976331 z M 83.034432,89.28151 c -0.111712,-0.180755 -0.236302,-2.677127 -0.276866,-5.547493 -0.04056,-2.870368 -0.101835,-6.755814 -0.136158,-8.634326 -0.06504,-3.559716 0.246211,-8.409322 0.551839,-8.598211 1.049471,-0.648609 1.435608,3.430782 1.214752,12.833402 -0.164557,7.00578 -0.412711,10.032343 -0.833945,10.171049 -0.174079,0.05733 -0.407909,-0.04367 -0.519622,-0.224421 z"
         id="path6716" />
      <path
         style="fill:#e7a71f;stroke-width:0.273238"
         d="m 88.242372,95.95996 c -1.697938,-0.222471 -2.049286,-0.377285 -2.049286,-0.90297 0,-0.288829 0.107068,-0.591315 0.237929,-0.67219 0.13086,-0.08088 1.760042,-0.16235 3.620403,-0.181053 6.440309,-0.06474 10.774382,-0.784959 9.553231,-1.587508 -0.212828,-0.139874 -1.81127,-0.351639 -3.552095,-0.47059 l -3.165135,-0.216273 2.459143,-0.213648 c 1.352528,-0.117506 3.064507,-0.341701 3.804395,-0.498211 1.666373,-0.352494 1.911973,-0.142366 1.611213,1.378494 -0.29514,1.492385 -1.022995,2.029219 -3.639561,2.68437 -1.987219,0.497572 -7.215617,0.897686 -8.880237,0.679579 z M 82.7093,94.865111 c -0.477671,-0.192745 -0.42852,-1.18523 0.0587,-1.18523 0.34971,0 0.965947,0.77296 0.965947,1.211609 0,0.182506 -0.541518,0.168566 -1.024643,-0.02637 z m -0.206121,-2.826588 c -0.207464,-0.335684 0.544515,-0.663181 0.948899,-0.413259 0.159928,0.09884 0.220039,0.294171 0.133578,0.434069 -0.208547,0.337435 -0.868915,0.324738 -1.082477,-0.02082 z m 6.49384,-1.581095 c -1.530807,-0.06209 -2.033436,-0.18558 -2.224223,-0.546476 -0.301183,-0.569723 -0.20303,-7.757756 0.112913,-8.268963 0.31381,-0.507755 0.14701,-8.238351 -0.186424,-8.640114 -0.179305,-0.21605 -0.177094,-0.50164 0.0065,-0.844761 0.276356,-0.516376 0.205866,-3.462077 -0.10639,-4.445907 -0.218295,-0.687788 0.0802,-0.736211 5.878128,-0.953573 2.629916,-0.09859 5.49999,-0.211019 6.377942,-0.249834 l 1.596275,-0.07057 -0.17769,0.984065 c -0.375337,2.078619 -0.660018,9.068991 -0.513,12.596683 0.138972,3.334551 0.218784,3.78532 0.83127,4.694891 0.62719,0.93139 0.65081,1.080132 0.31774,2.001191 -0.33519,0.92696 -0.31797,1.026569 0.25179,1.456334 0.58206,0.439052 0.58971,0.492536 0.15846,1.108234 l -0.45312,0.646916 -0.43781,-0.578579 -0.43781,-0.578579 -1.762574,0.712712 c -1.890523,0.764446 -5.373771,1.132818 -9.232016,0.976331 z m 6.318823,-8.247647 c 1.252465,-1.270891 1.253302,-1.276317 1.28638,-8.339661 0.01353,-2.885706 -0.09725,-5.228818 -0.268006,-5.66969 -0.26189,-0.676159 -0.42168,-0.75056 -1.595677,-0.742968 -2.112144,0.01366 -5.35387,0.510381 -5.56549,0.852789 -0.107681,0.174233 -0.200401,0.912788 -0.206044,1.641234 -0.0056,0.728445 -0.0911,1.455249 -0.189905,1.615119 -0.303055,0.490354 0.439274,6.846025 1.008622,8.635623 0.595579,1.872044 0.855713,2.171663 2.347702,2.704065 1.583975,0.565223 2.036602,0.46616 3.182418,-0.696511 z m -12.28141,7.071729 c -0.111712,-0.180755 -0.236302,-2.677127 -0.276866,-5.547493 -0.04056,-2.870368 -0.101835,-6.755814 -0.136158,-8.634326 -0.06504,-3.559716 0.246211,-8.409322 0.551839,-8.598211 1.049471,-0.648609 1.435608,3.430782 1.214752,12.833402 -0.164557,7.00578 -0.412711,10.032343 -0.833945,10.171049 -0.174079,0.05733 -0.407909,-0.04367 -0.519622,-0.224421 z"
         id="path6714" />
      <path
         style="fill:#a86432;stroke-width:0.273238"
         d="m 88.242372,95.95996 c -1.697938,-0.222471 -2.049286,-0.377285 -2.049286,-0.90297 0,-0.288829 0.111062,-0.593785 0.246806,-0.677677 0.135743,-0.08389 1.826403,-0.165473 3.757023,-0.181285 3.789965,-0.03104 8.285947,-0.438067 9.384837,-0.849618 1.311968,-0.491353 -0.0746,-0.967052 -3.500582,-1.200971 l -3.193751,-0.218063 2.459143,-0.213648 c 1.352528,-0.117506 3.064507,-0.341701 3.804395,-0.498211 1.582203,-0.334692 1.960873,-0.103631 1.651683,1.007857 -0.11802,0.424276 -0.22582,0.942109 -0.23957,1.15074 -0.079,1.199949 -3.884902,2.344262 -8.495365,2.554314 -1.653091,0.07531 -3.374491,0.0886 -3.825333,0.02953 z M 82.7093,94.865111 c -0.477671,-0.192745 -0.42852,-1.18523 0.0587,-1.18523 0.34971,0 0.965947,0.77296 0.965947,1.211609 0,0.182506 -0.541518,0.168566 -1.024643,-0.02637 z m -0.206121,-2.826588 c -0.207464,-0.335684 0.544515,-0.663181 0.948899,-0.413259 0.159928,0.09884 0.220039,0.294171 0.133578,0.434069 -0.208547,0.337435 -0.868915,0.324738 -1.082477,-0.02082 z m 6.558907,-1.578305 c -1.395143,-0.05648 -2.005082,-0.199988 -2.254214,-0.53039 -0.446147,-0.591687 -0.438057,-2.29799 0.01382,-2.915975 0.311495,-0.425995 0.539221,-0.452338 1.844358,-0.213345 2.213521,0.405333 5.997289,-0.05088 7.820591,-0.942939 0.806443,-0.394556 1.556099,-0.855478 1.665899,-1.024268 0.109798,-0.168793 0.222422,-2.151253 0.25027,-4.405467 0.02785,-2.254214 0.125296,-5.02075 0.216555,-6.147857 0.397996,-4.915613 0.396676,-5.216054 -0.02363,-5.377345 -0.350237,-0.134398 -0.345652,-0.219146 0.03459,-0.63931 0.408283,-0.451148 0.378101,-0.514431 -0.440039,-0.922573 -0.483124,-0.24101 -1.064438,-0.4382 -1.291816,-0.4382 -0.227381,0 -0.332181,-0.08124 -0.232889,-0.18053 0.09929,-0.09929 0.992136,-0.20681 1.984096,-0.23893 l 1.803563,-0.0584 -0.17842,0.990334 c -0.37613,2.087683 -0.660858,9.072695 -0.513733,12.602953 0.138972,3.334551 0.218784,3.78532 0.831273,4.694891 0.62719,0.93139 0.65081,1.080132 0.31774,2.001191 -0.33519,0.92696 -0.31797,1.026569 0.25179,1.456334 0.58206,0.439052 0.58971,0.492536 0.15846,1.108234 l -0.45312,0.646916 -0.43781,-0.578579 -0.437813,-0.578579 -1.762574,0.712712 c -1.879496,0.759987 -5.370101,1.132818 -9.166949,0.979121 z M 82.962563,89.22969 c -0.388566,-0.468193 -0.208916,-3.634088 0.236686,-4.171003 0.193876,-0.233608 0.251185,-0.697367 0.141553,-1.145496 -0.471811,-1.928564 -0.643472,-3.845223 -0.705132,-7.873063 -0.07003,-4.574595 0.214466,-9.338954 0.570812,-9.559188 0.431963,-0.266968 1.074077,0.768941 1.077933,1.739007 0.0022,0.552819 0.08003,3.525747 0.172961,6.606506 0.120804,4.004742 0.06919,6.185517 -0.181087,7.650667 -0.192529,1.127107 -0.36258,3.145063 -0.37789,4.484345 -0.02769,2.422332 -0.286778,3.050293 -0.935836,2.268225 z"
         id="path6712" />
      <path
         style="fill:#6f3e29;stroke-width:0.273238"
         d="M 87.354348,95.703132 C 87.166497,95.617265 87.0128,95.30735 87.0128,95.014436 c 0,-0.498321 0.180134,-0.527609 2.800691,-0.455398 1.540379,0.04245 2.87941,0.185551 2.975625,0.318008 0.09638,0.132696 0.762364,0.04068 1.483175,-0.204928 0.719531,-0.245169 1.655208,-0.445761 2.079279,-0.445761 1.071959,0 0.99392,0.706588 -0.116985,1.05921 -0.993264,0.315281 -8.347488,0.661091 -8.880237,0.417565 z M 82.82315,92.131531 c -0.314397,-0.314396 -0.198983,-0.637555 0.227698,-0.637555 0.225421,0 0.409857,0.184436 0.409857,0.409857 0,0.426681 -0.323159,0.542096 -0.637555,0.227698 z m 13.767232,-0.07649 c -0.427237,-0.270295 -0.48879,-0.250715 2.401375,-0.763908 1.132403,-0.201076 1.489763,-0.179706 1.595333,0.0954 0.0748,0.194982 0.0564,0.483361 -0.0409,0.640836 -0.21716,0.351381 -3.408825,0.37371 -3.955788,0.02768 z m -1.158433,-0.201242 c 0.197242,-0.07893 0.43291,-0.06923 0.523707,0.02156 0.09079,0.09079 -0.07059,0.155374 -0.358625,0.14351 -0.318309,-0.01311 -0.383053,-0.07786 -0.165082,-0.165079 z m 5.242751,-2.785512 c 0,-0.333337 0.17428,-0.579932 0.40986,-0.579932 0.22542,0 0.40986,0.107902 0.40986,0.239783 0,0.131878 -0.18444,0.392848 -0.40986,0.579932 -0.34242,0.284186 -0.40986,0.244733 -0.40986,-0.239783 z m -4.521938,-0.05052 c -0.480342,-0.179602 -0.452029,-0.236124 0.286752,-0.572475 0.450843,-0.205256 1.346856,-0.714315 1.991141,-1.131241 1.252651,-0.810613 1.547216,-0.796358 1.777965,0.08603 0.10029,0.383512 -0.0458,0.685549 -0.464024,0.959604 -0.798778,0.52338 -2.915092,0.911126 -3.591834,0.658086 z M 83.187467,88.641103 c 0,-0.216552 0.122957,-0.469724 0.273238,-0.562603 0.150281,-0.09288 0.273238,0.0843 0.273238,0.393731 0,0.309431 -0.122957,0.562602 -0.273238,0.562602 -0.150281,0 -0.273238,-0.177178 -0.273238,-0.39373 z m 17.085913,-2.965221 c -0.11696,-0.269473 -0.13599,-0.566619 -0.0423,-0.660323 0.27747,-0.277474 0.50114,0.112284 0.37344,0.650722 -0.11322,0.477333 -0.12795,0.477759 -0.33115,0.0096 z M 83.645759,78.730157 c -0.346967,-0.561406 -0.764011,-11.775383 -0.445246,-11.972322 0.08232,-0.05086 0.299886,3.82e-4 0.483489,0.113849 0.244423,0.151061 0.341671,1.759031 0.363124,6.004126 0.02736,5.414007 -0.04262,6.434803 -0.401367,5.854347 z"
         id="path6710" />
    </g>
  </g>
</svg>
