<svg width="210mm" height="292mm" inkscape:version="1.1.1 (3bf5ae0d25, 2021-09-20)" sodipodi:docname="Zeichnung.svg" version="1.1" viewBox="0 0 273 379.6" xmlns="http://www.w3.org/2000/svg" xmlns:inkscape="http://www.inkscape.org/namespaces/inkscape" xmlns:sodipodi="http://sodipodi.sourceforge.net/DTD/sodipodi-0.dtd">
 <sodipodi:namedview bordercolor="#111111" borderopacity="1" inkscape:current-layer="layer1" inkscape:cx="395.74268" inkscape:cy="1085.057" inkscape:document-units="mm" inkscape:pagecheckerboard="1" inkscape:pageopacity="0" inkscape:pageshadow="0" inkscape:window-height="793" inkscape:window-maximized="1" inkscape:window-width="1536" inkscape:window-x="-8" inkscape:window-y="-8" inkscape:zoom="0.73406285" pagecolor="#ffffff" scale-x="1.30001" showgrid="false"/>
 <g inkscape:groupmode="layer" inkscape:label="Ebene 1">
  <rect x="-14.994" y="-56.789" width="311.81" height="477.57" fill="#ff1c3d" opacity=".16" stroke-width="1.17" sodipodi:insensitive="true"/>
  <g transform="translate(-8.4397 -12.799)" stroke-width=".11007">
   <path d="m257.99 451.62c-1.5257-0.15263-2.7373-0.60289-3.5041-1.3022-0.47466-0.43287-0.55656-0.64259-0.36508-0.93483 0.0901-0.13759 0.18035-0.3943 0.20044-0.57047 0.0313-0.27472 0.0781-0.31547 0.32891-0.28627 0.31329 0.0365 0.31896 0.0233 0.65566-1.52 0.0594-0.27241 0.12707-1.5727 0.1503-2.8896 0.0351-1.9889 0.0715-2.4235 0.21491-2.5669 0.095-0.095 0.17698-0.18151 0.18225-0.19232 5e-3 -0.0108 0.0477-0.44066 0.0944-0.95523 0.0466-0.51456 0.13998-1.0842 0.20741-1.2658 0.0674-0.18161 0.15024-0.46844 0.18401-0.63739 0.0894-0.44749 0.27508-0.25232 0.27508 0.28919 0 0.25537 0.0758 0.57259 0.16852 0.70492 0.1446 0.20645 0.211 0.22417 0.46779 0.12487 0.16459-0.0636 0.76669-0.13329 1.338-0.15476 0.57131-0.0215 1.3789-0.0998 1.7948-0.17415 0.8478-0.15151 0.9962-0.30029 0.95705-0.95951-0.0487-0.81989-0.064-0.80303 0.69471-0.76689 0.66421 0.0316 0.68915 0.0435 0.72358 0.34411 0.0248 0.2164 0.0835 0.29297 0.19262 0.2511 0.11282-0.0433 0.15696 0.0263 0.15696 0.24734 0 0.32103 0.3911 0.7862 0.66102 0.7862 0.10323 0 0.0868 0.0473-0.0514 0.1484-0.35707 0.2611-0.0906 0.40194 0.76055 0.40194 1.2171 0 1.458 0.32335 1.5578 2.0913 0.0291 0.51457 0.0992 1.3566 0.15596 1.8712 0.0567 0.51456 0.074 1.0962 0.0384 1.2925s-0.0311 0.44394 0.01 0.55034c0.0693 0.17984 0.083 0.17835 0.19501-0.0212 0.20996-0.37413 0.24156-2.2396 0.0506-2.9851-0.0941-0.36743-0.2016-1.1104-0.23881-1.6509-0.0609-0.88388-0.052-0.95516 0.0882-0.70771 0.24682 0.43584 0.42977 1.3754 0.45742 2.3492 0.014 0.49381 0.0617 1.0294 0.10599 1.1903 0.0476 0.17301 0.0267 0.39301-0.0513 0.53871-0.1028 0.19208-0.10178 0.33723 5e-3 0.65962 0.11647 0.3529 0.11023 0.45072-0.0427 0.66901-0.0985 0.14061-0.17894 0.35608-0.17877 0.47882 5.5e-4 0.37003-0.47545 1.1615-0.73874 1.2285-0.13373 0.034-0.30505 0.13646-0.38072 0.22763-0.0757 0.0912-0.25232 0.2094-0.39257 0.26272-0.33395 0.12697-0.44743 0.42748-0.21132 0.55962 0.22722 0.12716 0.23792 0.48627 0.017 0.57104-0.0908 0.0349-0.1651 0.14076-0.1651 0.23537 0 0.0946 0.0743 0.20052 0.1651 0.23536 0.30233 0.11602 0.18379 0.5384-0.24765 0.88242-1.3258 1.0572-4.0712 1.6113-6.6866 1.3496zm-0.40384-1.1043c0.28265-0.0446 0.76156-0.14665 1.0642-0.22678l0.55034-0.14569-0.77047-0.0269c-1.0603-0.037-1.4859-0.12191-1.4859-0.29635 0-0.0815 0.13621-0.18262 0.30268-0.22472l0.30269-0.0765-0.32314-0.25853c-0.25179-0.20144-0.36911-0.23392-0.53136-0.14709-0.11452 0.0613-0.18436 0.16955-0.1552 0.24058 0.0291 0.071 0.0863 0.21199 0.12711 0.31325 0.0466 0.11567-0.0109 0.26911-0.15454 0.41275-0.12576 0.12576-0.18707 0.22865-0.13625 0.22865 0.0508 0 0.15112 0.12886 0.22288 0.28637 0.1108 0.24318 0.15631 0.26493 0.30175 0.14422 0.0942-0.0782 0.40253-0.17863 0.68518-0.22322zm4.2562-0.1721 0.55034-0.0831-0.60537-0.0753c-0.33296-0.0414-1.0264-0.076-1.541-0.0769l-0.93557-2e-3 0.63093 0.13558c0.34701 0.0746 0.66657 0.17121 0.71014 0.21478 0.0436 0.0436 0.20541 0.0546 0.35967 0.0245s0.52813-0.0921 0.83081-0.13786zm-5.7416-0.98943c0.0979-0.0979-0.25113-0.47672-0.43923-0.47672-0.15194 0-0.20604 0.34558-0.0747 0.47696 0.0949 0.0949 0.41894 0.0947 0.51389-2.2e-4zm8.3832-0.80692c0.0374-0.0605-6e-3 -0.11007-0.0971-0.11007-0.0908 0-0.19572 0.0495-0.23313 0.11007-0.0374 0.0605 6e-3 0.11007 0.0971 0.11007 0.0908 0 0.19571-0.0495 0.23312-0.11007zm0.34543-1.0456c0.0349-0.0908 0.15731-0.1651 0.27213-0.1651 0.30128 0 1.2677-0.93488 1.0839-1.0485-0.0918-0.0567-0.22444 0.0158-0.37547 0.20522-0.12847 0.16111-0.31071 0.29293-0.405 0.29293-0.0943 0-0.26107 0.0991-0.37064 0.22013-0.10957 0.12108-0.3093 0.22014-0.44385 0.22014-0.25966 0-0.53903 0.24621-0.41739 0.36784 0.13677 0.13677 0.59301 0.0723 0.65633-0.0927zm-0.60048-0.85676c0.69148-0.3658 1.2986-0.75024 1.3149-0.83264 0.24141-1.2192 0.2078-2.7044-0.10725-4.7399-0.12054-0.77882-0.38285-1.0002-1.1849-1.0002-0.93278 0-0.98432 0.0964-1.0663 1.9949-0.12688 2.9377 0.0565 4.8293 0.46828 4.8293 0.0551 0 0.31396-0.11313 0.57532-0.25139zm1.0255 2.6729c-0.0439-0.0711-0.0303-0.17878 0.0302-0.23931 0.0734-0.0734 0.1367-0.067 0.18995 0.0192 0.0439 0.0711 0.0303 0.17877-0.0302 0.23931-0.0734 0.0734-0.13669 0.067-0.18995-0.0192zm0.66102-9.6853c-0.10991-0.12145-0.14869-0.22081-0.0862-0.22081 0.13849 0 0.41302 0.31461 0.33906 0.38857-0.0292 0.0292-0.14297-0.0463-0.25288-0.16776z" fill="#e1caaa"/>
   <path d="m258.1 451.56c-0.75025-0.0783-2.0094-0.3802-2.216-0.53125-0.16886-0.12348-0.1777-0.18575-0.0623-0.43895 0.16067-0.35262 0.45449-0.33721 0.63933 0.0335 0.23512 0.4716 0.34914 0.51855 0.62652 0.25797 0.14091-0.13238 0.36706-0.24069 0.50255-0.24069s0.59474-0.0792 1.0206-0.17609c0.70576-0.16052 0.83505-0.16081 1.4623-3e-3 0.54199 0.13615 0.83794 0.14995 1.3938 0.065 1.8651-0.28497 1.5767-0.37012-1.4769-0.43602-1.4026-0.0303-2.6192-0.0995-2.7035-0.15379-0.12-0.0773-0.0876-0.13317 0.14906-0.25718l0.30235-0.15841-0.30992-0.32348c-0.36668-0.38274-0.38787-0.84662-0.0775-1.6974 0.17732-0.48611 0.1994-0.9463 0.1994-4.1562 0-3.5214 5e-3 -3.6106 0.22013-3.6537 0.12108-0.0243 0.8145-0.0743 1.541-0.11114 0.72644-0.0369 1.4446-0.0851 1.596-0.10722 0.15134-0.0221 0.33831-0.0442 0.41548-0.0491 0.20215-0.0129 0.39121-0.53563 0.40131-1.1096 9e-3 -0.4911 0.0122-0.49559 0.42147-0.52946l0.41275-0.0342v0.71559c0 0.75675 0.15041 1.0133 0.39665 0.67656 0.206-0.28174 0.48389-0.13116 0.48389 0.26221 0 0.17993 0.0536 0.36028 0.11909 0.40076 0.0759 0.0469 0.0189 0.17906-0.1569 0.36421-0.26746 0.28162-0.27657 0.34174-0.29429 1.9416-0.0438 3.95-0.0236 4.3058 0.26351 4.6395l0.26161 0.30414 0.48134-0.20903c0.77175-0.33514 1.4947-0.90656 1.627-1.2859 0.0661-0.18955 0.12015-0.58903 0.12015-0.88773 0-0.38639 0.0397-0.5294 0.13758-0.49564 0.21247 0.0733 0.11339 1.8373-0.11781 2.0975-0.098 0.11024-0.52634 0.36468-0.95196 0.56542-1.0401 0.49056-1.5836 1.0294-1.3121 1.3008 0.0369 0.0369 0.24669-0.0291 0.46616-0.14676 0.47862-0.25652 0.5674-0.2646 0.5674-0.0516 0 0.0892-0.14455 0.23703-0.32124 0.32839-0.30147 0.1559-0.67795 0.71553-0.66239 0.98464 4e-3 0.0664 0.0537 4e-3 0.11078-0.13848 0.0694-0.17321 0.1613-0.23709 0.27719-0.19262 0.0954 0.0366 0.21494 0.0665 0.26572 0.0665 0.0508 0 0.12404 0.14445 0.16282 0.32101 0.0388 0.17655 0.14492 0.34956 0.23586 0.38445 0.0909 0.0349 0.13452 0.11334 0.0969 0.1743-0.10322 0.167-0.27565 0.13306-0.27565-0.0543 0-0.0908-0.0798-0.1651-0.17735-0.1651-0.14315 0-0.16339 0.0745-0.10494 0.38601 0.0658 0.35054 0.0441 0.39665-0.2354 0.50173-0.1693 0.0636-0.58024 0.24473-0.91319 0.40241-0.33296 0.15767-0.90256 0.35251-1.2658 0.43298-0.68739 0.15228-2.9781 0.26667-3.7423 0.18687zm2.0362-2.0201c0.17776-0.0569-0.11444-0.0893-0.82551-0.0914-0.70846-2e-3 -1.0222 0.0305-0.88054 0.0914 0.27448 0.11795 1.3378 0.11795 1.706 0zm2.6979-0.22061c0.15066-0.0573 0.27394-0.17967 0.27394-0.27197 0-0.21562-0.0573-0.21198-0.82551 0.0523-0.35191 0.12107-0.72822 0.22013-0.83624 0.22013s-0.23173 0.0572-0.2749 0.12701c-0.0911 0.14743 1.2 0.0485 1.6627-0.12748zm-7.8076 1.2179c-0.50773-0.33486-0.54821-0.49839-0.27375-1.1057 0.28096-0.62167 0.59918-0.8537 0.49276-0.35929-0.0539 0.25034-0.0159 0.32524 0.22003 0.43387 0.21334 0.0982 0.35333 0.10024 0.55578 8e-3 0.21783-0.0992 0.30496-0.089 0.4467 0.0528 0.25302 0.25301 0.10614 0.52336-0.28433 0.52336-0.17994 0-0.35584-0.0464-0.39088-0.1031-0.035-0.0567-0.21133-0.17673-0.39174-0.26673-0.36463-0.18191-0.44157-0.0481-0.15466 0.26888 0.0953 0.10535 0.15726 0.31947 0.13759 0.47583l-0.0358 0.28427zm1.0372-1.7127c-0.14218-0.15135-0.38014-0.27517-0.52881-0.27517-0.29968 0-0.29924 0.0253-0.0281-1.651 0.12201-0.75435 0.16699-4.5624 0.056-4.742-0.0357-0.0578 0.0455-0.28363 0.18036-0.50191 0.17739-0.28702 0.26011-0.62919 0.29884-1.2362 0.0298-0.46656 0.12574-0.94984 0.21606-1.0881l0.1625-0.24867 0.23432 0.41378c0.2285 0.40348 0.23409 0.52096 0.22509 4.7253-8e-3 3.8518-0.0291 4.3418-0.19516 4.5953-0.23063 0.35199-0.29762 0.35292-0.62111 9e-3zm9.796-1.8161c0-0.0605 0.0524-0.11006 0.11656-0.11006 0.0641 0 0.0859 0.0495 0.0485 0.11006-0.0374 0.0605-0.0899 0.11007-0.11657 0.11007-0.0267 0-0.0485-0.0495-0.0485-0.11007zm-0.0976-5.1955c-0.0571-0.15013-0.13971-0.51252-0.18361-0.80529-0.0536-0.35722-0.17094-0.61676-0.35682-0.78903-0.30687-0.2844-0.27142-0.42354 0.0795-0.31215 0.32163 0.10208 0.43919 0.37613 0.55416 1.2917 0.10682 0.85069 0.0753 1.0582-0.0933 0.61473z" fill="#cdb29c"/>
   <path d="m258.38 451.56c-0.21188-0.0239-0.65427-0.0968-0.98309-0.16195-0.51175-0.10139-0.56723-0.13539-0.38523-0.23609 0.11693-0.0647 0.27051-0.19553 0.34128-0.29073 0.10562-0.14209 0.43091-0.17787 1.8161-0.19973 2.8121-0.0444 4.0395-0.19851 3.763-0.47254-0.0519-0.0514-1.2973-0.11937-2.7676-0.15093-1.4703-0.0316-2.7246-0.0891-2.7873-0.12789-0.0691-0.0427-0.032-0.12795 0.094-0.21626 0.1999-0.14001 0.20632-0.33541 0.16278-4.9561-0.0372-3.9459-0.0187-4.8272 0.10267-4.9042 0.0814-0.0516 0.69793-0.0946 1.3701-0.0955 0.67216-9.2e-4 1.5266-0.0335 1.8986-0.0724 0.67115-0.0702 0.67742-0.074 0.78901-0.48845 0.0619-0.22976 0.0797-0.6226 0.0397-0.87299l-0.0728-0.45524 0.74617 0.0712 0.01 0.69192c0.0115 0.83747 0.18153 1.0812 0.49054 0.70305 0.24301-0.29736 0.40891-0.24734 0.37747 0.1138-0.0121 0.13877 0.0297 0.31765 0.0929 0.3975 0.0856 0.10824 0.037 0.20729-0.19121 0.38922l-0.30604 0.24403-0.0106 2.9991-0.0105 2.9991 0.32432 0.32222 0.32431 0.32222 0.60537-0.3042c1.433-0.7201 1.5637-0.86545 1.6483-1.8337 0.0338-0.38668 0.10334-0.63759 0.16779-0.60537 0.0605 0.0303 0.0963 0.17886 0.0794 0.33021-0.0169 0.15134-0.0313 0.50713-0.0322 0.79065-1e-3 0.45023-0.0501 0.55821-0.38591 0.85302-0.21144 0.18565-0.43815 0.33754-0.5038 0.33754-0.19494 0-1.4533 0.78486-1.6591 1.0348-0.10459 0.12702-0.19127 0.29286-0.19262 0.36853-3e-3 0.18679 0.48997 0.1749 0.64809-0.0156 0.15706-0.18925 0.54021-0.29841 0.61614-0.17554 0.0627 0.1015-0.23709 0.43881-0.39004 0.43881-0.12582 0-0.65651 0.77693-0.65651 0.96113 0 0.2233 0.19849 0.161 0.2772-0.087 0.10252-0.32302 0.53623-0.24414 0.58578 0.10653 0.0222 0.15711-0.0323 0.30428-0.13372 0.36103-0.13963 0.0781-0.1481 0.14648-0.046 0.37065 0.13637 0.2993 0.0654 0.42109-0.31125 0.53454-0.19586 0.059-0.24458 0.014-0.30345-0.28037-0.0793-0.39663-0.17428-0.35346-0.33993 0.15455-0.15906 0.48776-0.75646 0.79066-1.8521 0.93906-1.0961 0.14845-2.5262 0.22733-3.0498 0.1682zm1.6785-1.9782c0.22702-0.0375 0.41276-0.11128 0.41276-0.16389 0-0.12914-2.2816-0.12283-2.3616 7e-3 -0.11592 0.18757 1.1484 0.28966 1.9488 0.15736zm2.5591-0.18677c0.518-0.1347 0.5481-0.16206 0.51212-0.46567-0.021-0.17741-0.0505-0.33554-0.0655-0.35141-0.0291-0.0307-0.88535 0.35316-1.162 0.52097-0.0908 0.0551-0.30131 0.1288-0.46779 0.16383-0.16648 0.035-0.30269 0.11227-0.30269 0.17166 0 0.15239 0.83335 0.1303 1.4859-0.0394zm-6.5311 1.7017c-0.1702-0.10789-0.13252-0.58191 0.0511-0.64229 0.0682-0.0224 0.22749 0.13467 0.35401 0.3491l0.23003 0.38987-0.24394-2e-3c-0.13417-8.8e-4 -0.31019-0.0437-0.39116-0.095zm-1.3662-0.84737c-0.0454-0.0458-0.0825-0.18396-0.0825-0.30705 0-0.162 0.0332-0.19056 0.12039-0.10342 0.0662 0.0662 0.10336 0.20439 0.0825 0.30706-0.0208 0.10267-0.075 0.1492-0.12039 0.10341zm1.1502-0.28871c-0.18572-0.18571-0.16531-0.28266 0.0881-0.41825 0.25694-0.13751 0.66041 0.0258 0.66041 0.26726 0 0.26968-0.52406 0.3754-0.74846 0.15099zm8.7249-0.0936c-0.10458-0.16923 0.0387-0.27841 0.17995-0.13714 0.079 0.079 0.0809 0.14061 6e-3 0.18707-0.0616 0.0381-0.1452 0.0156-0.18571-0.0499zm-9.7342-0.43474c0-0.0908 0.048-0.2394 0.10669-0.3302 0.0948-0.14676 0.1067-0.14676 0.1067 0 0 0.0908-0.048 0.23939-0.1067 0.3302-0.0948 0.14675-0.10669 0.14675-0.10669 0zm1.277-0.6908c-0.32181-0.3218-0.37204-0.64487-0.13135-0.84463 0.13294-0.11033 0.14812-0.53331 0.0942-2.626-0.0593-2.3012-0.082-2.5185-0.2942-2.8055-0.22628-0.30607-0.22669-0.31666-0.0253-0.66204 0.13421-0.23016 0.22887-0.68122 0.27494-1.3102 0.0769-1.0493 0.23591-1.3745 0.49734-1.017 0.23057 0.31533 0.32927 2.5663 0.23384 5.3333-0.0449 1.3016-0.0742 2.6884-0.0651 3.0819 0.0108 0.46625-0.0376 0.78937-0.13905 0.9277-0.15146 0.2066-0.16332 0.20454-0.4454-0.0776zm-0.66213-0.49905c-0.0874-0.14145 0.0537-0.57708 0.1647-0.50846 0.12878 0.0796 0.12533 0.45741-5e-3 0.5379-0.0563 0.0348-0.12826 0.0216-0.15979-0.0294zm10.388-1.2316c0-0.0605 0.0524-0.11006 0.11656-0.11006 0.0641 0 0.0859 0.0495 0.0485 0.11006-0.0374 0.0605-0.0899 0.11007-0.11657 0.11007-0.0267 0-0.0485-0.0495-0.0485-0.11007zm-0.16801-5.5859c-0.16265-0.79233-0.29694-1.133-0.50371-1.2778-0.24661-0.17273-0.11912-0.33379 0.17491-0.22096 0.23266 0.0893 0.34562 0.38843 0.44399 1.1757 0.0798 0.63882-3e-3 0.87052-0.11519 0.32304z" fill="#b1a8a1"/>
   <path d="m258.32 451.45c-0.68397-0.0896-0.8255-0.15198-0.8255-0.36374 0-0.11635 0.0431-0.2382 0.0958-0.27078 0.0527-0.0326 0.70899-0.0654 1.4584-0.0729 2.5943-0.0261 4.3402-0.3162 3.8483-0.63949-0.0857-0.0563-0.72963-0.14165-1.4309-0.18957l-1.275-0.0871 0.99061-0.0861c0.54483-0.0473 1.2345-0.13765 1.5325-0.20069 0.67126-0.142 0.77019-0.0573 0.64903 0.55529-0.11888 0.60117-0.41208 0.81742-1.4661 1.0813-0.80051 0.20043-2.9066 0.36161-3.5772 0.27375zm-2.2289-0.44103c-0.19241-0.0777-0.17261-0.47745 0.0237-0.47745 0.14087 0 0.38911 0.31137 0.38911 0.48807 0 0.0735-0.21814 0.0679-0.41276-0.0106zm-0.083-1.1386c-0.0836-0.13522 0.21935-0.26715 0.38224-0.16647 0.0644 0.0398 0.0886 0.1185 0.0538 0.17485-0.084 0.13593-0.35002 0.13082-0.43605-8e-3zm2.6159-0.63691c-0.62014-0.0251-0.81712-0.0739-0.88894-0.22013-0.0507-0.1033-0.10407-2.2044-0.1185-4.6692l-0.0262-4.4814 0.25478-0.052c0.14013-0.0286 1.1216-0.0845 2.181-0.12422 1.0594-0.0397 2.2155-0.085 2.5692-0.10064l0.64302-0.0284-0.0716 0.39641c-0.15119 0.83732-0.26587 3.6532-0.20665 5.0743 0.056 1.3432 0.0881 1.5248 0.33486 1.8912 0.25265 0.37519 0.26216 0.43511 0.128 0.80614-0.13503 0.3734-0.12809 0.41353 0.10142 0.58665 0.23447 0.17686 0.23755 0.1984 0.0638 0.44642l-0.18252 0.2606-0.17636-0.23307-0.17637-0.23307-0.71001 0.2871c-0.76155 0.30794-2.1647 0.45633-3.7189 0.39329zm-2.4019-0.47369c-0.045-0.0728-0.0952-1.0784-0.11153-2.2347-0.0163-1.1563-0.041-2.7214-0.0548-3.4781-0.0262-1.4339 0.0992-3.3875 0.22229-3.4636 0.42276-0.26128 0.57831 1.382 0.48934 5.1696-0.0663 2.8221-0.16625 4.0413-0.33594 4.0972-0.0701 0.0231-0.16431-0.0176-0.20931-0.0904z" fill="#f6d618"/>
   <path d="m258.32 451.45c-0.68397-0.0896-0.8255-0.15198-0.8255-0.36374 0-0.11635 0.0431-0.2382 0.0958-0.27078 0.0527-0.0326 0.70899-0.0654 1.4584-0.0729 2.5943-0.0261 4.3402-0.3162 3.8483-0.63949-0.0857-0.0563-0.72963-0.14165-1.4309-0.18957l-1.275-0.0871 0.99061-0.0861c0.54483-0.0473 1.2345-0.13765 1.5325-0.20069 0.67126-0.142 0.77019-0.0573 0.64903 0.55529-0.11888 0.60117-0.41208 0.81742-1.4661 1.0813-0.80051 0.20043-2.9066 0.36161-3.5772 0.27375zm-2.2289-0.44103c-0.19241-0.0777-0.17261-0.47745 0.0237-0.47745 0.14087 0 0.38911 0.31137 0.38911 0.48807 0 0.0735-0.21814 0.0679-0.41276-0.0106zm-0.083-1.1386c-0.0836-0.13522 0.21935-0.26715 0.38224-0.16647 0.0644 0.0398 0.0886 0.1185 0.0538 0.17485-0.084 0.13593-0.35002 0.13082-0.43605-8e-3zm2.6159-0.63691c-0.61665-0.025-0.81912-0.0747-0.89597-0.22013-0.12133-0.2295-0.0818-3.125 0.0455-3.331 0.12641-0.20453 0.0592-3.3186-0.0751-3.4805-0.0722-0.087-0.0713-0.20208 3e-3 -0.34029 0.11132-0.20801 0.0829-1.3946-0.0429-1.7909-0.0879-0.27706 0.0323-0.29657 2.3679-0.38413 1.0594-0.0397 2.2155-0.085 2.5692-0.10064l0.64302-0.0284-0.0716 0.39641c-0.15119 0.83732-0.26587 3.6532-0.20665 5.0743 0.056 1.3432 0.0881 1.5248 0.33486 1.8912 0.25265 0.37519 0.26216 0.43511 0.128 0.80614-0.13503 0.3734-0.12809 0.41353 0.10142 0.58665 0.23447 0.17686 0.23755 0.1984 0.0638 0.44642l-0.18252 0.2606-0.17636-0.23307-0.17637-0.23307-0.71001 0.2871c-0.76155 0.30794-2.1647 0.45633-3.7189 0.39329zm2.5454-3.3224c0.50453-0.51194 0.50487-0.51413 0.51819-3.3594 5e-3 -1.1624-0.0392-2.1063-0.10796-2.2839-0.1055-0.27238-0.16986-0.30235-0.64278-0.29929-0.85083 5e-3 -2.1567 0.2056-2.2419 0.34353-0.0434 0.0702-0.0807 0.36769-0.083 0.66113-2e-3 0.29344-0.0367 0.58621-0.0765 0.65061-0.12207 0.19753 0.17696 2.7578 0.4063 3.4787 0.23992 0.75411 0.34471 0.8748 0.94572 1.0893 0.63807 0.22768 0.8204 0.18778 1.282-0.28058zm-4.9473 2.8487c-0.045-0.0728-0.0952-1.0784-0.11153-2.2347-0.0163-1.1563-0.041-2.7214-0.0548-3.4781-0.0262-1.4339 0.0992-3.3875 0.22229-3.4636 0.42276-0.26128 0.57831 1.382 0.48934 5.1696-0.0663 2.8221-0.16625 4.0413-0.33594 4.0972-0.0701 0.0231-0.16431-0.0176-0.20931-0.0904z" fill="#e7a71f"/>
   <path d="m258.32 451.45c-0.68397-0.0896-0.8255-0.15198-0.8255-0.36374 0-0.11635 0.0447-0.23919 0.0994-0.27299s0.73572-0.0667 1.5134-0.073c1.5267-0.0125 3.3378-0.17647 3.7805-0.34225 0.5285-0.19793-0.0301-0.38956-1.4101-0.48378l-1.2865-0.0879 0.99061-0.0861c0.54483-0.0473 1.2345-0.13765 1.5325-0.20069 0.63735-0.13482 0.78989-0.0417 0.66534 0.40599-0.0475 0.17091-0.091 0.37951-0.0965 0.46355-0.0319 0.48337-1.565 0.94433-3.4222 1.0289-0.66591 0.0303-1.3593 0.0357-1.541 0.0119zm-2.2289-0.44103c-0.19241-0.0777-0.17261-0.47745 0.0237-0.47745 0.14087 0 0.38911 0.31137 0.38911 0.48807 0 0.0735-0.21814 0.0679-0.41276-0.0106zm-0.083-1.1386c-0.0836-0.13522 0.21935-0.26715 0.38224-0.16647 0.0644 0.0398 0.0886 0.1185 0.0538 0.17485-0.084 0.13593-0.35002 0.13082-0.43605-8e-3zm2.6421-0.63578c-0.562-0.0228-0.8077-0.0806-0.90805-0.21366-0.17972-0.23834-0.17646-0.92569 6e-3 -1.1746 0.12547-0.1716 0.21721-0.18221 0.74295-0.0859 0.89167 0.16328 2.4159-0.0205 3.1503-0.37984 0.32486-0.15894 0.62684-0.34461 0.67107-0.4126 0.0442-0.068 0.0896-0.86658 0.10082-1.7746 0.0112-0.90806 0.0505-2.0225 0.0872-2.4765 0.16032-1.9801 0.15979-2.1012-0.01-2.1661-0.14109-0.0541-0.13924-0.0883 0.0139-0.25753 0.16447-0.18173 0.15231-0.20722-0.17726-0.37163-0.19461-0.0971-0.42878-0.17652-0.52037-0.17652-0.0916 0-0.13381-0.0327-0.0938-0.0727 0.04-0.04 0.39966-0.0833 0.79925-0.0962l0.72652-0.0235-0.0719 0.39894c-0.15152 0.84097-0.26621 3.6547-0.20695 5.0768 0.056 1.3432 0.0881 1.5248 0.33486 1.8912 0.25265 0.37519 0.26216 0.43511 0.128 0.80614-0.13503 0.3734-0.12809 0.41353 0.10142 0.58665 0.23447 0.17686 0.23755 0.1984 0.0638 0.44642l-0.18252 0.2606-0.17636-0.23307-0.17637-0.23307-0.71001 0.2871c-0.75711 0.30615-2.1632 0.45633-3.6927 0.39442zm-2.457-0.49569c-0.15653-0.1886-0.0842-1.4639 0.0953-1.6802 0.0781-0.0941 0.10118-0.28092 0.057-0.46144-0.19006-0.77687-0.25921-1.549-0.28405-3.1715-0.0282-1.8428 0.0864-3.762 0.22994-3.8507 0.17401-0.10754 0.43267 0.30975 0.43422 0.70052 8.8e-4 0.22269 0.0322 1.4203 0.0697 2.6613 0.0487 1.6132 0.0279 2.4917-0.0729 3.0819-0.0776 0.45402-0.14606 1.2669-0.15223 1.8064-0.0111 0.97578-0.11552 1.2287-0.37697 0.9137z" fill="#a86432"/>
   <path d="m257.97 451.35c-0.0757-0.0346-0.13758-0.15943-0.13758-0.27742 0-0.20074 0.0726-0.21254 1.1282-0.18345 0.62051 0.0171 1.1599 0.0747 1.1987 0.1281 0.0388 0.0535 0.3071 0.0164 0.59746-0.0826 0.28985-0.0988 0.66676-0.17956 0.83759-0.17956 0.43181 0 0.40038 0.28463-0.0471 0.42668-0.40012 0.127-3.3626 0.2663-3.5772 0.1682zm-1.8253-1.4387c-0.12665-0.12665-0.0802-0.25683 0.0917-0.25683 0.0908 0 0.1651 0.0743 0.1651 0.1651 0 0.17188-0.13018 0.21838-0.25682 0.0917zm5.5458-0.0308c-0.1721-0.10889-0.1969-0.101 0.96734-0.30773 0.45616-0.081 0.60011-0.0724 0.64264 0.0384 0.0301 0.0786 0.0227 0.19471-0.0165 0.25815-0.0875 0.14154-1.3732 0.15054-1.5935 0.0111zm-0.46665-0.0811c0.0795-0.0318 0.17439-0.0279 0.21097 9e-3 0.0366 0.0366-0.0284 0.0626-0.14447 0.0578-0.12822-5e-3 -0.1543-0.0314-0.0665-0.0665zm2.1119-1.1221c0-0.13427 0.0702-0.23361 0.1651-0.23361 0.0908 0 0.16511 0.0435 0.16511 0.0966s-0.0743 0.15825-0.16511 0.23361c-0.13793 0.11448-0.1651 0.0986-0.1651-0.0966zm-1.8216-0.0204c-0.1935-0.0723-0.18209-0.0951 0.11551-0.23061 0.18161-0.0827 0.54255-0.28774 0.80208-0.45569 0.5046-0.32654 0.62326-0.32079 0.71621 0.0346 0.0404 0.15449-0.0184 0.27616-0.18692 0.38656-0.32177 0.21083-1.1743 0.36702-1.4469 0.26509zm-5.2228-0.15173c0-0.0872 0.0495-0.18922 0.11007-0.22663 0.0605-0.0374 0.11007 0.034 0.11007 0.1586 0 0.12465-0.0495 0.22664-0.11007 0.22664-0.0605 0-0.11007-0.0714-0.11007-0.15861zm6.8827-1.1945c-0.0471-0.10855-0.0548-0.22825-0.017-0.26599 0.11178-0.11178 0.20188 0.0452 0.15043 0.26212-0.0456 0.19229-0.0515 0.19246-0.13339 4e-3zm-6.698-2.7979c-0.13977-0.22615-0.30777-4.7434-0.17936-4.8228 0.0332-0.0205 0.1208 1.6e-4 0.19476 0.0459 0.0985 0.0609 0.13763 0.70859 0.14628 2.4186 0.011 2.1809-0.0172 2.5921-0.16168 2.3583z" fill="#6f3e29"/>
  </g>
 </g>
</svg>
