<svg width="210mm" height="149mm" inkscape:version="1.1.1 (3bf5ae0d25, 2021-09-20)" sodipodi:docname="Arena.svg" version="1.1" viewBox="0 0 168 119.2" xmlns="http://www.w3.org/2000/svg" xmlns:inkscape="http://www.inkscape.org/namespaces/inkscape" xmlns:sodipodi="http://sodipodi.sourceforge.net/DTD/sodipodi-0.dtd">
 <sodipodi:namedview height="129mm" bordercolor="#111111" borderopacity="1" inkscape:current-layer="layer1" inkscape:cx="396.87064" inkscape:cy="561.16123" inkscape:document-units="mm" inkscape:pagecheckerboard="1" inkscape:pageopacity="0" inkscape:pageshadow="0" inkscape:window-height="991" inkscape:window-maximized="1" inkscape:window-width="1920" inkscape:window-x="-9" inkscape:window-y="-9" inkscape:zoom="0.5052024" pagecolor="#ffffff" scale-x="0.8" showgrid="false"/>
 <g inkscape:groupmode="layer" inkscape:label="Ebene 1">
  <g transform="translate(-23.487 -34.794)">
   <g stroke-width=".5558">
    <path d="m78.772 146.11c-4.966-0.43258-4.7243-0.1212-4.7243-6.0858v-5.3335l3.1958 0.35417c1.7577 0.19479 4.3839 0.49719 5.8359 0.67199l2.64 0.31783v10.456l-2.3621-0.0934c-1.2992-0.0514-3.3626-0.18058-4.5853-0.2871zm45.853-4.7817v-5.2937l2.64-0.31783c1.452-0.1748 4.0782-0.4772 5.8359-0.67199l3.1958-0.35417v5.3067c0 6.147 0.51432 5.6752-6.8085 6.2458l-4.8632 0.37891zm-62.249 2.2852c-1.3756-0.2941-3.439-0.77717-4.5853-1.0735l-2.0842-0.53878v-5.3235c0-5.2508 0.01709-5.3188 1.2505-4.9838 0.6878 0.1868 3.439 0.76469 6.1138 1.2842l4.8632 0.94452v10.345l-1.5284-0.0595c-0.84065-0.0327-2.6539-0.30015-4.0295-0.59424zm80.035-4.4998v-5.1535l6.5306-1.3109c7.4745-1.5004 14.905-3.7964 18.997-5.8699l2.818-1.428v4.1029c0 3.2586-0.22829 4.3931-1.1094 5.5132-2.3621 3.0029-9.2594 5.8591-19.733 8.1714-7.9866 1.7632-7.5033 2.0225-7.5033-4.0251zm-62.805-9.6696c-1.0699-0.10694-2.7582-0.32836-3.7516-0.49204l-1.8063-0.2976v-10.652l2.2175 0.3546c1.2196 0.19502 4.5336 0.49308 7.3643 0.66235 8.2321 0.49224 7.9829 0.34412 5.672 3.3716-1.0759 1.4096-2.2489 3.6569-2.6065 4.9941-0.63834 2.3867-0.69145 2.4296-2.8971 2.3423-1.2358-0.0489-3.1223-0.17644-4.1922-0.28338zm44.884 0.0143c-0.15074-0.26162-0.58005-1.4246-0.95403-2.5844-0.37399-1.1598-1.5279-3.2196-2.5642-4.5772-2.2303-2.9218-2.4679-2.7862 5.744-3.2772 2.8308-0.16927 6.1447-0.46733 7.3643-0.66235l2.2175-0.35458v10.614l-1.5284 0.29795c-3.2749 0.63839-10.019 0.99528-10.279 0.54394zm-62.669-2.7478c-1.987-0.4241-4.1754-0.90398-4.8632-1.0664-1.1894-0.28084-1.2505-0.55593-1.2505-5.6242 0-4.1244 0.16215-5.2667 0.71736-5.0537 0.39455 0.1514 3.1458 0.7288 6.1138 1.2831l5.3964 1.0078v5.168c0 5.9459 0.38893 5.6733-6.1138 4.2853zm80.591-4.2853v-5.168l5.419-1.0103c7.1871-1.34 15.618-3.8773 19.656-5.9155l3.2711-1.6512v4.1015c0 3.326-0.22085 4.3823-1.1681 5.5865-1.4257 1.8125-6.121 4.2393-11.337 5.8597-3.8397 1.1928-13.567 3.3654-15.068 3.3654-0.60411 0-0.77252-1.1267-0.77252-5.168zm-46.409-8.5449c-5.4148-0.15717-17.952-1.1655-20.426-1.6428l-1.5284-0.29492v-10.6l2.9179 0.34587c6.5633 0.77795 15.992 1.4404 20.565 1.4449l4.8632 5e-3v5.558c0 4.1368-0.17764 5.5288-0.69474 5.4437-0.38212-0.0628-2.9457-0.17962-5.6969-0.25947zm11.95-5.3035v-5.4387l4.8632-5e-3c4.5728-4e-3 14.001-0.66691 20.565-1.4449l2.9179-0.34587v10.6l-1.5284 0.29492c-2.5056 0.48346-15.005 1.439-21.12 1.6145l-5.6969 0.16352v-5.4387zm-45.36 1.7679c-1.257-0.24906-3.3477-0.73885-4.6459-1.0884l-2.3605-0.63561 0.21787-3.8558c0.16418-2.9055 0.4873-4.1184 1.3111-4.9214 1.0528-1.0262 1.2734-1.0331 5.9565-0.18554l4.8632 0.88013v10.381l-1.5284-0.0609c-0.84065-0.0335-2.5569-0.26467-3.8139-0.51372zm79.819-4.5934v-5.168l5.419-1.0081c7.4994-1.3952 14.138-3.3633 18.897-5.6023l4.0295-1.8958v4.0661c0 3.2901-0.22293 4.3496-1.1681 5.5511-2.1914 2.7859-11.029 6.3584-20.64 8.3436-6.9557 1.4367-6.5379 1.7106-6.5379-4.2865zm15.324-16.393-1.0579-1.4025 1.8291 0.36583c1.006 0.2012 2.173 0.36583 2.5934 0.36583 1.322 0 0.83081 0.97964-0.77122 1.5381-1.3234 0.46132-1.6816 0.34152-2.5934-0.86726zm-100.36-39.021v-2.779h5.0022c2.7512 0 5.0022 0.22366 5.0022 0.49702 0 0.27336-0.70223 1.2488-1.5605 2.1676-1.517 1.624-4.653 2.884-7.1933 2.8903-1.1305 0.0028-1.2505-0.26359-1.2505-2.7759z" fill="#999"/>
    <path d="m92.538 152.78c0.54078-0.14091 1.2911-0.13165 1.6674 0.0206 0.37629 0.15225-0.06616 0.26755-0.98322 0.25622-0.91707-0.0113-1.2249-0.13589-0.68417-0.27681zm23.899 0c0.54077-0.14091 1.2911-0.13165 1.6674 0.0206 0.3763 0.15225-0.0661 0.26755-0.98322 0.25622-0.91707-0.0113-1.225-0.13589-0.68417-0.27681zm-20.009-5.558c0.54078-0.14092 1.2911-0.13166 1.6674 0.0206 0.37629 0.15225-0.06616 0.26754-0.98322 0.25621-0.91707-0.0113-1.2249-0.13589-0.68417-0.27681zm14.169-8e-3c0.69136-0.13294 1.6918-0.1279 2.2232 0.0112 0.53139 0.13911-0.0343 0.24788-1.257 0.24171-1.2228-6e-3 -1.6575-0.11999-0.96616-0.25293zm3.9522-23.367c-0.69134-0.88153-0.67169-0.90118 0.20984-0.20984 0.53496 0.41954 0.97265 0.85723 0.97265 0.97265 0 0.45744-0.45641 0.16302-1.1825-0.76281zm-8.3703-3.8534c0.40122-0.16055 0.88059-0.14081 1.0653 0.0439 0.18469 0.18469-0.14358 0.31605-0.72948 0.29192-0.64748-0.0267-0.77918-0.15837-0.3358-0.33579zm-65.551-1.1488c-0.69134-0.88153-0.67168-0.90119 0.20984-0.20985 0.53496 0.41954 0.97265 0.85724 0.97265 0.97265 0 0.45744-0.45641 0.16302-1.1825-0.7628zm50.093-21.84c-3.2097-0.21696-7.2888-0.42512-9.0645-0.46258-1.8273-0.03852-3.0903-0.29198-2.9099-0.58389 0.17532-0.28368-0.14552-0.66315-0.71299-0.84325-0.56747-0.18011-1.6127-0.94582-2.3227-1.7016-1.2484-1.3289-1.258-1.4105-0.29021-2.4799 2.0431-2.2576 6.4699-3.3177 16.572-3.9686 19.559-1.2603 49.949 1.0822 58.477 4.5075l1.6674 0.66974-1.3895 0.56216c-3.8533 1.559-17.728 3.4797-31.125 4.3087-9.9434 0.61531-19.718 0.61252-28.902-0.0082zm-8.997-15.361c0.40122-0.16055 0.88059-0.14081 1.0653 0.04385 0.18469 0.18469-0.14358 0.31605-0.72949 0.29192-0.64747-0.02668-0.77917-0.15837-0.3358-0.33579zm46.131 0c0.40122-0.16055 0.88059-0.14081 1.0653 0.04385 0.18469 0.18469-0.14358 0.31605-0.72948 0.29192-0.64748-0.02668-0.77918-0.15837-0.3358-0.33579zm-37.794-0.5558c0.40121-0.16055 0.88059-0.14081 1.0653 0.04385 0.18469 0.18469-0.14358 0.31605-0.72949 0.29192-0.64748-0.02668-0.77917-0.15837-0.3358-0.33579zm7.1971-11.129c0.69136-0.13294 1.6918-0.1279 2.2232 0.01122 0.53139 0.13911-0.03429 0.24788-1.257 0.24172-1.2228-0.0062-1.6575-0.11999-0.96617-0.25293zm13.895 0c0.69137-0.13294 1.6918-0.1279 2.2232 0.01122 0.53139 0.13911-0.0343 0.24788-1.257 0.24172-1.2228-0.0062-1.6575-0.11999-0.96617-0.25293zm-18.059-5.5501c0.54078-0.14092 1.2911-0.13165 1.6674 0.02059 0.37629 0.15225-0.06616 0.26754-0.98322 0.25622-0.91707-0.01133-1.2249-0.13589-0.68417-0.27681zm23.055 0.01707c0.38211-0.15419 1.0074-0.15419 1.3895 0 0.38211 0.15418 0.0695 0.28034-0.69475 0.28034-0.76422 0-1.0769-0.12615-0.69475-0.28034zm-8.198-19.641v-2.779h5.2801c2.904 0 5.2801 0.11635 5.2801 0.25856 0 0.56045-3.4847 4.1878-4.0231 4.1878-0.31524 0 0.0858-0.51837 0.89128-1.1519 2.6603-2.0926 1.9615-2.8075-2.5651-2.6241l-4.0295 0.1633v1.9398c0 1.7056 0.20133 1.9829 1.6674 2.2964 1.6152 0.3454 1.6022 0.3586-0.41684 0.42231l-2.0842 0.06576z" fill="#85dc75"/>
    <path d="m159.08 50.339v-2.779h5.0022c3.3529 0 5.0022 0.20743 5.0022 0.62912 0 1.1287-3.7604 4.2081-5.5842 4.5728-4.0869 0.81738-4.4202 0.63467-4.4202-2.423zm-48.632-3.3051c-1.4733-0.28142-1.6674-0.54426-1.6674-2.2583v-1.9398l4.0295-0.1633c4.5729-0.18532 5.1098 0.40656 2.4878 2.7427-1.9512 1.7385-2.7781 2.0145-4.85 1.6187z" fill="#e3634c"/>
    <path d="m168.53 136.28c0-0.11541 0.43769-0.55311 0.97265-0.97265 0.88153-0.69134 0.90119-0.67168 0.20985 0.20985-0.72608 0.92582-1.1825 1.2202-1.1825 0.7628zm-90.699-1.2814c0.40122-0.16056 0.88059-0.14082 1.0653 0.0438 0.18469 0.18469-0.14358 0.31605-0.72949 0.29192-0.64747-0.0267-0.77917-0.15837-0.3358-0.3358zm53.912 0c0.40122-0.16056 0.88059-0.14082 1.0653 0.0438 0.18468 0.18469-0.14359 0.31605-0.72949 0.29192-0.64748-0.0267-0.77917-0.15837-0.3358-0.3358zm-51.689-5.558c0.40122-0.16055 0.88059-0.14081 1.0653 0.0439 0.18469 0.18469-0.14358 0.31605-0.72949 0.29192-0.64747-0.0267-0.77917-0.15837-0.3358-0.33579zm49.466 0c0.40121-0.16055 0.88059-0.14081 1.0653 0.0439 0.18469 0.18469-0.14358 0.31605-0.72949 0.29192-0.64747-0.0267-0.77917-0.15837-0.33579-0.33579zm-55.024-0.5558c0.40122-0.16055 0.88059-0.14081 1.0653 0.0439 0.18469 0.18469-0.14358 0.31605-0.72949 0.29192-0.64747-0.0267-0.77917-0.15837-0.3358-0.33579zm60.582 0c0.40121-0.16055 0.88059-0.14081 1.0653 0.0439 0.18468 0.18469-0.14359 0.31605-0.72949 0.29192-0.64748-0.0267-0.77917-0.15837-0.33579-0.33579zm33.452-9.2788c0-0.11541 0.43769-0.55311 0.97265-0.97265 0.88153-0.69134 0.90119-0.67168 0.20985 0.20985-0.72608 0.92582-1.1825 1.2202-1.1825 0.7628zm-86.288-0.71405c0.38211-0.15418 1.0074-0.15418 1.3895 0 0.38211 0.15419 0.06947 0.28034-0.69475 0.28034-0.76422 0-1.0769-0.12615-0.69475-0.28034zm44.464 0c0.38211-0.15418 1.0074-0.15418 1.3895 0 0.38212 0.15419 0.0695 0.28034-0.69474 0.28034-0.76423 0-1.0769-0.12615-0.69475-0.28034zm-49.431-0.56738c0.40122-0.16055 0.88059-0.14081 1.0653 0.0439 0.18469 0.18468-0.14358 0.31605-0.72949 0.29191-0.64747-0.0267-0.77917-0.15837-0.3358-0.33579zm55.024 0c0.40122-0.16055 0.88059-0.14081 1.0653 0.0439 0.18469 0.18468-0.14358 0.31605-0.72948 0.29191-0.64748-0.0267-0.77918-0.15837-0.3358-0.33579zm-35.05-4.459c0.6878-0.13248 1.8133-0.13248 2.5011 0 0.6878 0.13248 0.12505 0.24087-1.2505 0.24087-1.3756 0-1.9383-0.10839-1.2505-0.24087zm13.339 0c0.68781-0.13248 1.8133-0.13248 2.5011 0s0.12505 0.24087-1.2506 0.24087-1.9384-0.10839-1.2506-0.24087zm-24.976-0.54322c0.40122-0.16056 0.88059-0.14082 1.0653 0.0438 0.18469 0.18469-0.14358 0.31605-0.72949 0.29192-0.64747-0.0267-0.77917-0.15837-0.3358-0.3358zm38.35 0c0.40122-0.16056 0.88059-0.14082 1.0653 0.0438 0.18469 0.18469-0.14358 0.31605-0.72948 0.29192-0.64748-0.0267-0.77918-0.15837-0.3358-0.3358zm-43.908-0.5558c0.40122-0.16056 0.88059-0.14081 1.0653 0.0439 0.18469 0.18469-0.14358 0.31605-0.72949 0.29192-0.64747-0.0267-0.77917-0.15837-0.3358-0.33579zm49.466 0c0.40121-0.16056 0.88059-0.14081 1.0653 0.0439 0.18469 0.18469-0.14358 0.31605-0.72949 0.29192-0.64747-0.0267-0.77917-0.15837-0.33579-0.33579zm-55.024-0.5558c0.40122-0.16055 0.88059-0.14081 1.0653 0.0439 0.18469 0.18469-0.14358 0.31605-0.72949 0.29192-0.64747-0.0267-0.77917-0.15837-0.3358-0.33579zm60.582 0c0.40121-0.16055 0.88059-0.14081 1.0653 0.0439 0.18468 0.18469-0.14359 0.31605-0.72949 0.29192-0.64748-0.0267-0.77917-0.15837-0.33579-0.33579zm-66.97-6.8457c0-1.987 0.10088-2.7998 0.22417-1.8064s0.12329 2.6192 0 3.6127-0.22417 0.18064-0.22417-1.8063zm23.027-2.6154c0.6878-0.13248 1.8133-0.13248 2.5011 0 0.6878 0.13247 0.12505 0.24087-1.2505 0.24087-1.3756 0-1.9383-0.1084-1.2505-0.24087zm24.733-6e-3c0.84065-0.12735 2.2162-0.12735 3.0569 0 0.84064 0.12735 0.15284 0.23154-1.5284 0.23154s-2.3691-0.10419-1.5284-0.23154zm52.662 0.18825c0-0.11542 0.43769-0.55311 0.97265-0.97265 0.88153-0.69134 0.90119-0.67168 0.20985 0.20985-0.72608 0.92581-1.1825 1.2202-1.1825 0.76279zm-85.141-0.72548c0.40122-0.16055 0.88059-0.14081 1.0653 0.0439 0.18469 0.18469-0.14358 0.31605-0.72949 0.29192-0.64747-0.0267-0.77917-0.15837-0.3358-0.33579zm42.797 0c0.40121-0.16055 0.88059-0.14081 1.0653 0.0439 0.18468 0.18469-0.14359 0.31605-0.72949 0.29192-0.64748-0.0267-0.77917-0.15837-0.33579-0.33579z" fill="#3b748e"/>
    <path d="m95.862 152.76c0.84064-0.12735 2.2162-0.12735 3.0569 0 0.84064 0.12734 0.15284 0.23154-1.5284 0.23154s-2.3691-0.1042-1.5284-0.23154zm15.562 0c0.84065-0.12735 2.2162-0.12735 3.0569 0 0.84064 0.12734 0.15284 0.23154-1.5284 0.23154s-2.3691-0.1042-1.5284-0.23154zm-26.956-0.52581c0.38211-0.15418 1.0074-0.15418 1.3895 0 0.38211 0.15419 0.06947 0.28034-0.69475 0.28034-0.76422 0-1.0769-0.12615-0.69475-0.28034zm40.018 0c0.38211-0.15418 1.0074-0.15418 1.3895 0 0.38211 0.15419 0.0695 0.28034-0.69475 0.28034-0.76422 0-1.0769-0.12615-0.69475-0.28034zm-46.097-0.56737c0.40122-0.16056 0.88059-0.14081 1.0653 0.0438 0.18469 0.18469-0.14358 0.31605-0.72949 0.29192-0.64747-0.0267-0.77917-0.15837-0.3358-0.33579zm52.801 0c0.40122-0.16056 0.88059-0.14081 1.0653 0.0438 0.18468 0.18469-0.14359 0.31605-0.72949 0.29192-0.64748-0.0267-0.77917-0.15837-0.3358-0.33579zm-57.247-0.5558c0.40122-0.16055 0.88059-0.14081 1.0653 0.0438 0.18469 0.18469-0.14358 0.31605-0.72949 0.29192-0.64747-0.0267-0.77917-0.15837-0.3358-0.33579zm61.694 0c0.40122-0.16055 0.88059-0.14081 1.0653 0.0438 0.18468 0.18469-0.14359 0.31605-0.72949 0.29192-0.64748-0.0267-0.77917-0.15837-0.3358-0.33579zm-43.387-3.9032c0.6878-0.13248 1.8133-0.13248 2.5011 0 0.6878 0.13247 0.12506 0.24086-1.2505 0.24086s-1.9383-0.10839-1.2505-0.24086zm22.51-6e-3c0.84065-0.12735 2.2162-0.12735 3.0569 0 0.84064 0.12734 0.15284 0.23154-1.5284 0.23154s-2.3691-0.1042-1.5284-0.23154zm-21.12-50.007c0.53496-0.1398 1.4103-0.1398 1.9453 0 0.53496 0.1398 0.09727 0.25418-0.97265 0.25418-1.0699 0-1.5076-0.11438-0.97265-0.25418zm21.12 0c0.53496-0.1398 1.4103-0.1398 1.9453 0 0.53496 0.1398 0.0973 0.25418-0.97265 0.25418-1.0699 0-1.5076-0.11438-0.97265-0.25418zm-29.7-0.55234c0.40122-0.16055 0.88059-0.14081 1.0653 0.04385 0.18469 0.18469-0.14358 0.31605-0.72949 0.29192-0.64747-0.02668-0.77917-0.15837-0.3358-0.33579zm39.462 0c0.40121-0.16055 0.88059-0.14081 1.0653 0.04385 0.18469 0.18469-0.14358 0.31605-0.72948 0.29192-0.64748-0.02668-0.77918-0.15837-0.3358-0.33579zm11.116-1.1116c0.40122-0.16055 0.88059-0.14081 1.0653 0.04385 0.18468 0.18469-0.14359 0.31605-0.72949 0.29192-0.64748-0.02668-0.77917-0.15837-0.3358-0.33579zm4.4464-6.6696c0.40122-0.16055 0.88059-0.14081 1.0653 0.04385 0.18468 0.18469-0.14359 0.31605-0.72949 0.29192-0.64748-0.02668-0.77917-0.15837-0.3358-0.33579zm-3.8906-0.5558c0.40122-0.16055 0.88059-0.14081 1.0653 0.04385 0.18468 0.18469-0.14359 0.31605-0.72949 0.29192-0.64748-0.02668-0.77917-0.15837-0.3358-0.33579zm-58.915-0.5558c0.40122-0.16055 0.88059-0.14081 1.0653 0.04385 0.18469 0.18469-0.14358 0.31605-0.72949 0.29192-0.64747-0.02668-0.77917-0.15837-0.3358-0.33579zm53.912 0c0.40122-0.16055 0.88059-0.14081 1.0653 0.04385 0.18468 0.18469-0.14359 0.31605-0.72949 0.29192-0.64748-0.02668-0.77917-0.15837-0.3358-0.33579zm-46.989-0.56129c0.54077-0.14092 1.2911-0.13165 1.6674 0.02056 0.37629 0.15225-0.06616 0.26754-0.98323 0.25622-0.91707-0.01134-1.2249-0.13589-0.68417-0.27681zm41.129 0c0.54077-0.14092 1.2911-0.13165 1.6674 0.02056 0.3763 0.15225-0.0661 0.26754-0.98322 0.25622-0.91707-0.01134-1.225-0.13589-0.68417-0.27681zm-32.795-0.56947c0.84485-0.12776 2.0954-0.12434 2.779 0.0076 0.6836 0.13192-0.0077 0.23645-1.5361 0.23228-1.5284-0.0044-2.0878-0.11212-1.2429-0.23987zm22.224 0.01567c0.53496-0.1398 1.4103-0.1398 1.9453 0 0.53496 0.1398 0.0973 0.25418-0.97265 0.25418-1.0699 0-1.5076-0.11438-0.97265-0.25418zm-51.087-2.6493c0-0.44509 0.2125-0.67791 0.47223-0.51739 0.25973 0.16052 0.32834 0.52468 0.15246 0.80925-0.44943 0.7272-0.6247 0.64532-0.6247-0.29186zm9.1591-1.2378c0.40122-0.16055 0.88059-0.14081 1.0653 0.04385 0.18469 0.18469-0.14358 0.31605-0.72949 0.29192-0.64747-0.02668-0.77917-0.15837-0.3358-0.33579zm63.917 0c0.40122-0.16055 0.88059-0.14081 1.0653 0.04385 0.18469 0.18469-0.14358 0.31605-0.72948 0.29192-0.64748-0.02668-0.77918-0.15837-0.3358-0.33579zm-58.915-0.5558c0.40122-0.16055 0.88059-0.14081 1.0653 0.04385 0.18469 0.18469-0.14358 0.31605-0.72949 0.29192-0.64747-0.02668-0.77917-0.15837-0.3358-0.33579zm53.912 0c0.40122-0.16055 0.88059-0.14081 1.0653 0.04385 0.18468 0.18469-0.14359 0.31605-0.72949 0.29192-0.64748-0.02668-0.77917-0.15837-0.3358-0.33579zm-48.101-0.56129c0.54077-0.14092 1.2911-0.13165 1.6674 0.02056 0.37629 0.15225-0.06616 0.26754-0.98323 0.25622-0.91707-0.01134-1.2249-0.13589-0.68417-0.27681zm41.685 0c0.54077-0.14092 1.2911-0.13165 1.6674 0.02056 0.3763 0.15225-0.0661 0.26754-0.98322 0.25622-0.91707-0.01134-1.225-0.13589-0.68417-0.27681zm-51.943-9.9989c0.40122-0.16055 0.88059-0.14081 1.0653 0.04388s-0.14358 0.31605-0.72949 0.29192c-0.64747-0.02667-0.77917-0.15837-0.3358-0.3358zm62.805 0c0.40122-0.16055 0.88059-0.14081 1.0653 0.04388 0.18468 0.18469-0.14359 0.31605-0.72949 0.29192-0.64748-0.02667-0.77917-0.15837-0.3358-0.3358zm-57.803-0.5558c0.40122-0.16055 0.88059-0.14081 1.0653 0.04388 0.18469 0.18469-0.14358 0.31605-0.72949 0.29192-0.64747-0.02667-0.77917-0.15837-0.3358-0.3358zm52.801 0c0.40122-0.16055 0.88059-0.14081 1.0653 0.04388 0.18468 0.18469-0.14359 0.31605-0.72949 0.29192-0.64748-0.02667-0.77917-0.15837-0.3358-0.3358zm-79.692-13.515c0-7.1837 0.07921-10.122 0.17602-6.5306 0.09681 3.5918 0.09681 9.4694 0 13.061s-0.17602 0.65306-0.17602-6.5306zm41.037 12.385c0.84485-0.12775 2.0954-0.12434 2.779 0.0076 0.6836 0.13192-0.0077 0.23645-1.5361 0.23228-1.5284-0.0042-2.0878-0.11211-1.2429-0.23986zm22.788 0c0.84484-0.12775 2.0954-0.12434 2.779 0.0076 0.6836 0.13192-8e-3 0.23645-1.5361 0.23228-1.5284-0.0042-2.0878-0.11211-1.2429-0.23986zm43.414-5.4371c1e-3 -3.3626 0.0928-4.6665 0.20343-2.8976s0.1096 4.5201-2e-3 6.1138c-0.11195 1.5937-0.20247 0.14644-0.20121-3.2161zm-101.83-0.69475c0.09152-5.5759 0.32183-4.9261 0.59137 1.6686 0.08436 2.064-0.0342 3.7523-0.26347 3.7516-0.22927-6.41e-4 -0.37682-2.4397-0.3279-5.4202zm95.93-2.7781c0.26566-15.171 0.46572-16.614 0.57828-4.1694 0.0615 6.8016-0.0757 12.367-0.305 12.367-0.22927 4.76e-4 -0.35225-3.6886-0.27328-8.198zm-78.893 5.0385c0.40122-0.16055 0.88059-0.14081 1.0653 0.04388s-0.14358 0.31605-0.72949 0.29192c-0.64747-0.02667-0.77917-0.15837-0.3358-0.3358zm61.694 0c0.40122-0.16055 0.88059-0.14081 1.0653 0.04388 0.18468 0.18469-0.14359 0.31605-0.72949 0.29192-0.64748-0.02667-0.77917-0.15837-0.3358-0.3358zm-56.136-0.5558c0.40122-0.16055 0.88059-0.14081 1.0653 0.04388s-0.14358 0.31605-0.72949 0.29192c-0.64747-0.02667-0.77917-0.15837-0.3358-0.3358zm50.578 0c0.40121-0.16055 0.88059-0.14081 1.0653 0.04388s-0.14359 0.31605-0.72949 0.29192c-0.64747-0.02667-0.77917-0.15837-0.33579-0.3358zm-45.575-0.5558c0.40122-0.16055 0.88059-0.14081 1.0653 0.04388 0.18469 0.18469-0.14358 0.31605-0.72948 0.29192-0.64747-0.02667-0.77918-0.15837-0.3358-0.3358zm40.573 0c0.40121-0.16055 0.88059-0.14081 1.0653 0.04388 0.18469 0.18469-0.14358 0.31605-0.72948 0.29192-0.64748-0.02667-0.77918-0.15837-0.3358-0.3358zm-28.93-0.56922c0.69136-0.13294 1.6918-0.1279 2.2232 0.01122 0.53139 0.13911-0.03429 0.24788-1.257 0.24172-1.2228-0.0062-1.6575-0.11999-0.96617-0.25293zm16.112 8.34e-4c0.6878-0.13248 1.8133-0.13248 2.5011 0 0.68781 0.13248 0.12506 0.24086-1.2505 0.24086s-1.9384-0.10839-1.2506-0.24086zm-50.543-6.1012c0.40122-0.16055 0.88059-0.14081 1.0653 0.04388s-0.14358 0.31605-0.72948 0.29192c-0.64747-0.02667-0.77918-0.15837-0.3358-0.3358zm96.98-7.9573c0-1.6813 0.1042-2.3691 0.23154-1.5284 0.12735 0.84064 0.12735 2.2162 0 3.0569-0.12734 0.84064-0.23154 0.15284-0.23154-1.5284zm-42.407-5.2801c0.71795-0.76422 1.4304-1.3895 1.5833-1.3895 0.15284 0-0.30952 0.62527-1.0275 1.3895-0.71795 0.76422-1.4304 1.3895-1.5833 1.3895-0.15285 0 0.30951-0.62527 1.0275-1.3895z" fill="#646564"/>
    <path d="m100.62 152.78c0.40121-0.16055 0.88059-0.14081 1.0653 0.0439 0.18468 0.18468-0.14359 0.31605-0.72949 0.29191-0.64748-0.0267-0.77917-0.15837-0.33579-0.33579zm7.7464 0.0116c0.38211-0.15419 1.0074-0.15419 1.3895 0 0.38211 0.15418 0.0695 0.28033-0.69475 0.28033-0.76423 0-1.0769-0.12615-0.69475-0.28033zm-24.976-6.1254c0.40122-0.16055 0.88059-0.14081 1.0653 0.0439 0.18469 0.18469-0.14358 0.31605-0.72949 0.29192-0.64747-0.0267-0.77917-0.15837-0.3358-0.33579zm42.797 0c0.40121-0.16055 0.88059-0.14081 1.0653 0.0439 0.18468 0.18469-0.14359 0.31605-0.72949 0.29192-0.64748-0.0267-0.77917-0.15837-0.33579-0.33579zm-48.389-0.54422c0.38211-0.15419 1.0074-0.15419 1.3895 0 0.38211 0.15418 0.06948 0.28034-0.69475 0.28034-0.76422 0-1.0769-0.12616-0.69475-0.28034zm53.357 0c0.38211-0.15419 1.0074-0.15419 1.3895 0 0.38212 0.15418 0.0695 0.28034-0.69474 0.28034-0.76423 0-1.0769-0.12616-0.69475-0.28034zm-57.419-5.7006c0.02662-4.6567 0.19638-5.8351 0.86681-6.0172 0.59461-0.16147 0.64064-0.0891 0.16052 0.25224-0.42529 0.30238-0.74448 2.5181-0.86681 6.0172l-0.19363 5.5385zm62.676 0.14013c-0.0798-3.9091-0.32948-5.737-0.8101-5.931-0.54416-0.21957-0.54038-0.28984 0.0174-0.32421 1.1104-0.0684 1.2913 1.0354 1.0927 6.6674l-0.18469 5.2384-0.11535-5.6506zm-68.273-1.2969c0-3.2097 0.09186-4.5228 0.20413-2.9179 0.11227 1.6049 0.11227 4.231 0 5.8359-0.11227 1.6049-0.20413 0.2918-0.20413-2.9179zm73.921 0c0-3.2097 0.0919-4.5228 0.20413-2.9179 0.11227 1.6049 0.11227 4.231 0 5.8359s-0.20413 0.2918-0.20413-2.9179zm-57.557-3.7145c0.40122-0.16055 0.88059-0.14081 1.0653 0.0439 0.18469 0.18468-0.14358 0.31605-0.72948 0.29191-0.64747-0.0267-0.77918-0.15837-0.3358-0.33579zm40.573 0c0.40121-0.16055 0.88059-0.14081 1.0653 0.0439 0.18469 0.18468-0.14358 0.31605-0.72948 0.29191-0.64748-0.0267-0.77918-0.15837-0.3358-0.33579zm-45.575-0.55579c0.40122-0.16056 0.88059-0.14082 1.0653 0.0438 0.18469 0.18469-0.14358 0.31605-0.72949 0.29192-0.64747-0.0267-0.77917-0.15837-0.3358-0.3358zm50.578 0c0.40121-0.16056 0.88059-0.14082 1.0653 0.0438 0.18469 0.18469-0.14359 0.31605-0.72949 0.29192-0.64747-0.0267-0.77917-0.15837-0.33579-0.3358zm-46.131-5.0022c0.40122-0.16056 0.88059-0.14081 1.0653 0.0438 0.18469 0.18469-0.14358 0.31605-0.72949 0.29192-0.64747-0.0267-0.77917-0.15837-0.3358-0.33579zm41.65 0.0116c0.38211-0.15419 1.0074-0.15419 1.3895 0 0.38211 0.15418 0.0695 0.28034-0.69475 0.28034-0.76423 0-1.0769-0.12616-0.69475-0.28034zm-47.208-0.56738c0.40122-0.16055 0.88059-0.14081 1.0653 0.0439 0.18469 0.18469-0.14358 0.31605-0.72949 0.29192-0.64747-0.0267-0.77917-0.15837-0.3358-0.33579zm52.801 0c0.40122-0.16055 0.88059-0.14081 1.0653 0.0439 0.18468 0.18469-0.14359 0.31605-0.72949 0.29192-0.64748-0.0267-0.77917-0.15837-0.3358-0.33579zm-57.605-5.5623c-0.05139-3.1153 0.09415-5.7809 0.32342-5.9236 0.22927-0.14271 0.3485 1.5308 0.26497 3.7188-0.27294 7.1493-0.49321 7.9747-0.58838 2.2048zm62.708-0.28532c-0.151-3.2722-0.0774-5.7512 0.16351-5.509 0.24094 0.24223 0.36449 2.9195 0.27455 5.9494l-0.16351 5.509zm-68.154-0.99807c0-3.2097 0.09186-4.5228 0.20413-2.918 0.11227 1.6049 0.11227 4.231 0 5.8359-0.11227 1.6049-0.20413 0.2918-0.20413-2.9179zm73.921 0c0-3.2097 0.0919-4.5228 0.20413-2.918 0.11227 1.6049 0.11227 4.231 0 5.8359s-0.20413 0.2918-0.20413-2.9179zm-52.451-0.76565c0-0.11541 0.43769-0.5531 0.97265-0.97265 0.88153-0.69134 0.90119-0.67168 0.20985 0.20985-0.72608 0.92582-1.1825 1.2202-1.1825 0.7628zm29.942-0.7628c-0.69135-0.88153-0.67169-0.90119 0.20984-0.20985 0.53496 0.41955 0.97265 0.85724 0.97265 0.97265 0 0.45745-0.45642 0.16302-1.1825-0.7628zm-34.795-2.1915c0.54077-0.14091 1.2911-0.13165 1.6674 0.0206s-0.06616 0.26755-0.98322 0.25622c-0.91707-0.0113-1.2249-0.13589-0.68417-0.27681zm39.462 0c0.54078-0.14091 1.2911-0.13165 1.6674 0.0206 0.37629 0.15225-0.0662 0.26755-0.98323 0.25622-0.91707-0.0113-1.225-0.13589-0.68417-0.27681zm-45.273-0.55031c0.40122-0.16055 0.88059-0.14081 1.0653 0.0439 0.18469 0.18468-0.14358 0.31605-0.72948 0.29191-0.64747-0.0267-0.77918-0.15837-0.3358-0.33579zm51.689 0c0.40121-0.16055 0.88059-0.14081 1.0653 0.0439 0.18468 0.18468-0.14359 0.31605-0.72949 0.29191-0.64748-0.0267-0.77917-0.15837-0.33579-0.33579zm-38.099-4.4655c0.84485-0.12776 2.0954-0.12434 2.779 8e-3 0.6836 0.13192-0.0077 0.23644-1.5361 0.23228-1.5284-4e-3 -2.0878-0.11212-1.2429-0.23987zm22.502 7e-3c0.68781-0.13248 1.8133-0.13248 2.5011 0s0.12505 0.24087-1.2506 0.24087-1.9384-0.10839-1.2506-0.24087zm-31.09-0.54362c0.40122-0.16055 0.88059-0.14081 1.0653 0.0439 0.18469 0.18468-0.14358 0.31605-0.72949 0.29191-0.64747-0.0267-0.77917-0.15837-0.3358-0.33579zm41.685 0c0.40121-0.16055 0.88059-0.14081 1.0653 0.0439 0.18469 0.18468-0.14359 0.31605-0.72949 0.29191-0.64747-0.0267-0.77917-0.15837-0.33579-0.33579zm-47.243-0.55579c0.40122-0.16056 0.88059-0.14082 1.0653 0.0439 0.18469 0.18468-0.14358 0.31605-0.72949 0.29191-0.64747-0.0267-0.77917-0.15836-0.3358-0.33579zm52.801 0c0.40122-0.16056 0.88059-0.14082 1.0653 0.0439 0.18468 0.18468-0.14359 0.31605-0.72949 0.29191-0.64748-0.0267-0.77917-0.15836-0.3358-0.33579zm-57.454-5.689c0.02662-4.6567 0.19638-5.8351 0.86681-6.0172 0.59461-0.16147 0.64064-0.0891 0.16052 0.25223-0.42529 0.30239-0.74448 2.5181-0.86681 6.0172l-0.19363 5.5385zm62.676 0.13456c-0.0991-4.8612-0.25205-5.6919-1.088-5.9104-0.91156-0.23822-0.91047-0.25823 0.0174-0.31866 1.4065-0.0916 1.5787 0.74374 1.3706 6.6468l-0.18469 5.2384-0.11535-5.6562zm-68.37 2.8772c0.01133-0.91707 0.13589-1.225 0.27681-0.68417 0.14092 0.54077 0.13165 1.2911-0.02059 1.6674-0.15225 0.37629-0.26755-0.0662-0.25622-0.98322zm74.019-4.1685c0-3.2097 0.0919-4.5228 0.20413-2.918 0.11227 1.6049 0.11227 4.231 0 5.8359s-0.20413 0.29179-0.20413-2.9179zm-44.523-3.1778c0.84485-0.12775 2.0954-0.12434 2.779 8e-3 0.6836 0.13193-8e-3 0.23645-1.5361 0.23228-1.5284-4e-3 -2.0878-0.11211-1.2429-0.23987zm13.339 0c0.84484-0.12775 2.0954-0.12434 2.779 8e-3 0.6836 0.13193-8e-3 0.23645-1.5361 0.23228-1.5284-4e-3 -2.0878-0.11211-1.2429-0.23987zm-25.818-0.53664c0.40122-0.16055 0.88059-0.14081 1.0653 0.0439 0.18469 0.18469-0.14358 0.31605-0.72949 0.29192-0.64747-0.0267-0.77917-0.15837-0.3358-0.33579zm39.462 0c0.40121-0.16055 0.88059-0.14081 1.0653 0.0439 0.18469 0.18469-0.14358 0.31605-0.72948 0.29192-0.64748-0.0267-0.77918-0.15837-0.3358-0.33579zm-56.587-0.87853c0-0.48823-0.56275-0.99607-1.2505-1.1286l-1.2505-0.24086 1.268-0.07569c1.2216-0.07292 2.2924 1.2735 1.5797 1.9862-0.19061 0.19061-0.34656-0.0529-0.34656-0.54111zm10.977 0.33431c0.38211-0.15418 1.0074-0.15418 1.3895 0 0.38211 0.15418 0.06948 0.28034-0.69475 0.28034-0.76422 0-1.0769-0.12616-0.69475-0.28034zm51.133 0c0.38211-0.15418 1.0074-0.15418 1.3895 0 0.38211 0.15418 0.0695 0.28034-0.69475 0.28034-0.76423 0-1.0769-0.12616-0.69475-0.28034zm-39.173-4.4635c0.54078-0.14092 1.2911-0.13165 1.6674 0.02062 0.37629 0.15225-0.06616 0.26754-0.98322 0.25622-0.91707-0.01134-1.2249-0.13589-0.68417-0.27681zm-7.4791-0.55031c0.40122-0.16055 0.88059-0.14081 1.0653 0.04385 0.18469 0.18469-0.14358 0.31605-0.72949 0.29192-0.64747-0.02668-0.77917-0.15837-0.3358-0.33579zm73.399-7.8184c-0.69134-0.88153-0.67168-0.90119 0.20985-0.20985 0.92582 0.72608 1.2202 1.1825 0.7628 1.1825-0.11541 0-0.55311-0.43769-0.97265-0.97265zm-66.729-2.186c0.40121-0.16055 0.88059-0.14081 1.0653 0.04385 0.18469 0.18469-0.14358 0.31605-0.72949 0.29192-0.64748-0.02668-0.77917-0.15837-0.3358-0.33579zm-33.077-36.303c0-1.6813 0.10419-2.3691 0.23154-1.5284 0.12735 0.84064 0.12735 2.2162 0 3.0569-0.12735 0.84064-0.23154 0.15284-0.23154-1.5284z" fill="#25576d"/>
   </g>
   <path d="m92.389 152.57c-11.356-0.48587-21.427-1.6626-31.062-3.6292-15.387-3.1408-23.682-7.0055-26.2-12.207-1.1057-2.284-1.1339-3.1093-0.97873-28.673 0.1528-25.181 0.20787-26.401 1.2713-28.17 1.5234-2.5343 6.4886-5.7275 11.89-7.6466l4.506-1.601 0.0085-13.349c0.0047-7.44 0.24179-13.718 0.53553-14.182 0.43583-0.68944 2.217-0.8337 10.294-0.8337 11.1 0 11.029-0.02866 10.667 4.3044-0.50737 6.0646-5.4256 10.717-12.389 11.72l-4.1131 0.59255v5.1694c0 2.8432 0.09752 5.1694 0.21672 5.1694 0.1192 0 2.5909-0.4885 5.4926-1.0856 7.1241-1.4658 24.685-3.3608 31.144-3.3608 2.8864 0 6.0297-0.15632 6.9849-0.34738l1.7369-0.34737v-12.714c0-16.228-0.96047-14.937 11.116-14.937 8.2072 0 8.9801 0.08733 10.026 1.1328 0.90735 0.90735 1.0593 1.5434 0.76326 3.1958-1.2702 7.0909-5.8054 11.259-13.195 12.128l-3.1519 0.37044v10.824l1.7369 0.34737c0.95528 0.19106 4.1442 0.34956 7.0864 0.35224 6.4746 0.0059 22.633 1.7484 30.638 3.3041 3.2097 0.62373 5.8984 1.1348 5.9748 1.1357 0.0764 9.45e-4 0.13894-5.733 0.13894-12.742 0-10.844 0.1302-12.874 0.8734-13.617 1.2928-1.2928 18.637-1.2928 19.929 0 1.8472 1.8472 0.55851 7.3524-2.5956 11.088-1.9796 2.3445-5.7759 4.0946-9.793 4.5144l-3.412 0.35662v11.81l4.506 1.601c5.4014 1.9192 10.367 5.1124 11.89 7.6466 1.0634 1.7691 1.1185 2.9895 1.2713 28.17 0.15511 25.563 0.12695 26.389-0.97874 28.673-3.1348 6.4756-16.276 11.324-38.643 14.258-6.6679 0.87455-31.524 2.3924-33.904 2.0703-0.30569-0.0414-4.9327-0.2625-10.282-0.49139zm10.004-9.4146c0-3.7053 0.18527-4.6316 1.1116-5.558 0.61138-0.61138 1.3617-1.1116 1.6674-1.1116s1.056 0.50021 1.6674 1.1116c0.92634 0.92634 1.1116 1.8527 1.1116 5.558v4.4464h11.116l-0.0122-8.4759c-0.0106-7.3215-0.16641-8.8166-1.1444-10.977-1.5204-3.3588-3.5625-5.4334-6.9025-7.0124-7.0437-3.3299-15.304-0.21126-18.574 7.0124-0.97795 2.1604-1.1338 3.6555-1.1444 10.977l-0.01218 8.4759h11.116zm1.1116-13.339c-0.61138-0.61138-1.1116-1.3617-1.1116-1.6674 0-0.72083 2.0582-2.779 2.779-2.779 0.30569 0 1.056 0.50022 1.6674 1.1116s1.1116 1.3617 1.1116 1.6674c0 0.30569-0.50022 1.056-1.1116 1.6674s-1.3617 1.1116-1.6674 1.1116-1.056-0.50022-1.6674-1.1116zm-17.786 11.473v-5.7564l-5.6969-0.54419c-3.1333-0.2993-5.8845-0.44536-6.1138-0.32456-0.22927 0.1208-0.41685 2.6846-0.41685 5.6974v5.4778l4.3074 0.36637c2.3691 0.20151 4.5576 0.45321 4.8632 0.55934 0.30569 0.10614 1.1185 0.21272 1.8063 0.23685 1.2192 0.0428 1.2505-0.10045 1.2505-5.7126zm47.382 4.8811 3.7516-0.36579v-5.4604c0-3.0032-0.18758-5.5593-0.41685-5.6801-0.22926-0.1208-2.9805 0.0252-6.1138 0.32456l-5.6969 0.54419v11.639l2.3622-0.31786c1.2992-0.17483 4.0504-0.48247 6.1138-0.68366zm-64.612-6.8665v-5.5186l-3.1958-0.62593c-10.428-2.0423-20.003-4.9441-23.899-7.2426l-1.8063-1.0656v4.8795c0 4.6053 0.08588 4.9599 1.5284 6.3118 2.8996 2.7173 9.4101 5.2256 19.314 7.4413 8.7272 1.9524 8.0591 2.299 8.0591-4.1799zm81.296 4.1686c8.0074-1.7313 15.441-4.4276 18.38-6.6667l2.3132-1.7624 0.31944-10.217-1.8946 1.1179c-3.9774 2.3467-13.491 5.2284-23.853 7.2249l-3.1958 0.6158v5.5186c0 4.5623 0.1461 5.5186 0.84314 5.5186 0.46373 0 3.653-0.60751 7.0872-1.35zm-62.727-16.083c0.55747-1.64 1.884-4.0786 2.9478-5.419 1.915-2.4128 1.9213-2.4387 0.62996-2.591-5.2375-0.61806-16.697-1.4976-16.898-1.2969-0.13562 0.13562-0.24659 2.68-0.24659 5.6541v5.4075l5.1411 0.53377c2.8276 0.29357 5.6521 0.56969 6.2766 0.61361 0.90094 0.0634 1.3448-0.53602 2.149-2.902zm46.043 2.086 3.7516-0.3692v-5.3886c0-2.9637-0.11096-5.4996-0.24659-5.6352-0.20068-0.20069-11.66 0.67884-16.898 1.2969-1.2913 0.15238-1.285 0.17822 0.62997 2.591 1.0638 1.3404 2.3986 3.8032 2.9662 5.473l1.0319 3.0358 2.5066-0.31725c1.3786-0.17449 4.1949-0.48339 6.2583-0.68646zm-64.612-6.8459v-5.5186l-3.1958-0.62303c-10.894-2.1238-19.384-4.6441-23.364-6.9356l-2.3827-1.3719 0.15954 5.0943 0.15953 5.0943 2.3132 1.7624c2.9382 2.2386 10.02 4.8069 18.076 6.5551 9.0836 1.9713 8.2348 2.3895 8.2348-4.0569zm79.815 4.3951c10.346-2.1288 17.327-4.649 20.646-7.4533 1.7738-1.4989 1.8063-1.6107 1.8063-6.2013 0-2.5712-0.13336-4.6749-0.29637-4.6749s-1.48 0.59978-2.9266 1.3328c-3.559 1.8035-12.482 4.4919-19.486 5.8707-3.1664 0.62338-5.855 1.1334-5.9748 1.1334-0.11981 0-0.21784 2.5011-0.21784 5.558 0 3.0569 0.22258 5.558 0.49462 5.558s2.9517-0.50556 5.9548-1.1235zm-45.911-18.27c0-4.5012-0.15946-5.5597-0.87915-5.8359-0.48354-0.18556-3.7975-0.35191-7.3643-0.36968-3.5668-0.0178-9.4865-0.35713-13.155-0.75413-3.6683-0.397-6.8572-0.6178-7.0864-0.49068-0.22927 0.12712-0.41685 2.6863-0.41685 5.687v5.4559l7.0864 0.63021c3.8975 0.34662 7.9618 0.71295 9.0317 0.81407 1.0699 0.10112 4.3839 0.22388 7.3643 0.2728l5.419 0.0889zm28.207 4.2997 6.2527-0.63141v-5.4438c0-2.9941-0.18758-5.5584-0.41685-5.6985-0.22926-0.14011-3.5432 0.0832-7.3643 0.49628-3.8211 0.41305-10.074 0.82556-13.895 0.91668l-6.9475 0.16567-0.15936 5.7842-0.15935 5.7842 8.2184-0.37095c4.5202-0.20402 11.032-0.65509 14.471-1.0024zm-62.23-7.2546-0.15839-5.6744-4.1685-0.64726c-2.2927-0.356-6.6305-1.3044-9.6397-2.1075-4.6185-1.2326-7.0553-2.1247-14.121-5.169-0.52485-0.22615-0.69475 0.8584-0.69475 4.435 0 4.6229 0.041 4.7688 1.7416 6.1998 3.3708 2.8363 9.3274 5.1126 19.101 7.299 8.796 1.9678 8.1257 2.3339 7.9396-4.3357zm81.415 4.3122c9.9296-2.1665 15.799-4.3881 19.238-7.2819 1.6884-1.4207 1.734-1.582 1.734-6.134 0-2.5712-0.13502-4.6749-0.30004-4.6749s-1.353 0.53734-2.64 1.1941c-3.5369 1.8049-11.064 4.1112-18.636 5.7099-3.7329 0.78815-6.9081 1.433-7.0561 1.433-0.14797 0-0.26905 2.5011-0.26905 5.558 0 4.5976 0.1457 5.558 0.84314 5.558 0.46373 0 3.6526-0.61298 7.0864-1.3622zm-26.375-13.118c14.522-1.0405 29.554-3.6369 28.734-4.963-0.3567-0.57714-5.1307-2.0217-9.2853-2.8096-17.128-3.2482-50.932-3.617-70.722-0.77158-6.1509 0.8844-14.207 2.9057-14.207 3.5646 0 1.545 12.624 3.7084 30.291 5.1911 5.4212 0.45497 27.762 0.3207 35.189-0.21148zm-70.371-7.4897c1.3774-1.751 4.29-3.2395 8.0882-4.1334 1.6058-0.3779 3.0385-0.87941 3.1838-1.1145 0.14527-0.23504-2.2941-2.2205-5.4208-4.4122-4.3208-3.0286-5.9904-3.909-6.9581-3.669-5.6675 1.4057-11.918 5.1497-12.235 7.3292-0.22687 1.5573 3.0281 4.1976 7.3629 5.9724 4.2461 1.7385 4.6316 1.7403 5.9789 0.02746zm110.1-0.0011c4.439-1.777 7.7381-4.4134 7.5071-5.999-0.31744-2.179-6.545-5.9106-12.235-7.3313-0.96607-0.24122-2.5684 0.59277-6.6426 3.4575-2.9532 2.0765-5.3735 4.0255-5.3785 4.3312-5e-3 0.30569 1.417 0.95795 3.16 1.4495 4.147 1.1694 6.4748 2.4063 7.702 4.0925 1.2514 1.7195 1.5912 1.7195 5.8871-2.83e-4zm-79.922-7.5214c4.5853-0.36021 8.4201-0.7288 8.5217-0.8191 0.1326-0.11782-4.8615-7.9163-6.8301-10.665-0.39242-0.54802-24.773 3.0944-24.739 3.6959 0.01002 0.17605 2.0048 1.6957 4.4329 3.377s5.2273 3.6326 6.2206 4.3363c1.0473 0.74192 2.2788 1.1641 2.9315 1.0049 0.61903-0.151 4.8772-0.56927 9.4625-0.92947zm57.752-0.99638c1.5567-1.1785 4.331-3.2345 6.1651-4.569l3.3348-2.4263-5.2801-0.99016c-4.8138-0.90271-19.579-2.764-19.766-2.4918-3.0179 4.3806-6.9557 10.533-6.8191 10.655 0.10162 0.09029 3.9332 0.46201 8.5146 0.82603 4.5814 0.36402 8.4372 0.76929 8.5686 0.9006 0.72851 0.72852 2.7832-0.01206 5.2822-1.9039zm-25.311-5.2492c1.8745-2.8428 3.4082-5.3439 3.4082-5.558s-6.2527-0.38927-13.895-0.38927c-7.6422 0-13.895 0.17517-13.895 0.38927s1.5337 2.7152 3.4082 5.558l3.4082 5.1687h14.157zm-50.456-24.602c3.5691-3.3968 3.4274-3.5772-2.8078-3.5772h-5.5775v5.6916l3.3354-0.24126c2.7459-0.19862 3.6384-0.52967 5.05-1.8731zm99.264 1.388c1.7264-0.65414 3.8806-2.4871 4.6921-3.9925 0.4833-0.89655 0.0879-0.97265-5.0532-0.97265h-5.5775v5.558h2.187c1.2029 0 2.8911-0.26677 3.7516-0.59282zm-50.2-5.7315c1.7382-0.72626 4.244-3.2715 4.244-4.3108 0-0.26446-2.376-0.48084-5.2801-0.48084h-5.2801v5.558h2.241c1.2326 0 3.0664-0.34486 4.0752-0.76635z" fill="#4d4d4d" stroke-width=".5558"/>
  </g>
 </g>
</svg>
