<svg clip-rule="evenodd" fill-rule="evenodd" stroke-linecap="round" stroke-linejoin="round" inkscape:version="1.1.1 (3bf5ae0d25, 2021-09-20)" sodipodi:docname="Astrabier.svg" version="1.1" viewBox="0 0 257 447" xml:space="preserve" xmlns="http://www.w3.org/2000/svg" xmlns:inkscape="http://www.inkscape.org/namespaces/inkscape" xmlns:sodipodi="http://sodipodi.sourceforge.net/DTD/sodipodi-0.dtd" xmlns:vectornator="http://vectornator.io" xmlns:xlink="http://www.w3.org/1999/xlink"><sodipodi:namedview bordercolor="#111111" borderopacity="1" inkscape:current-layer="svg168" inkscape:cx="128.4707" inkscape:cy="223.77868" inkscape:pagecheckerboard="1" inkscape:pageopacity="0" inkscape:pageshadow="0" inkscape:window-height="991" inkscape:window-maximized="1" inkscape:window-width="1920" inkscape:window-x="-9" inkscape:window-y="-9" inkscape:zoom="1.7941834" pagecolor="#ffffff" showgrid="false"/>


<g id="Untitled" stroke-linejoin="round" vectornator:layerName="Untitled"><g stroke-linecap="round">
<path d="m156.06 0.5c-28.36 0.090407-42.458 0.14163-58.218 0.1875 1.4926 1.3538 2.0094 2.9044 2.3442 4.9688 0.105 0.65324 0.175 1.2738 0.187 1.9688 0.016 0.89227-0.041 1.969-0.125 3.2812-0.135 2.1137-0.3975 4.8751-0.75 8.1563-0.5269 4.9008-1.3165 11.386-1.5938 13.188-3.7636 24.464-9.3191 50.33-16.281 76.438-2.2508 8.44-4.8177 16.503-7.4688 23.468-0.0072 0.032-0.0798 0.425-0.0937 0.5-0.096 0.518-0.1732 0.85-0.2813 1.282-0.1949 0.778-0.4147 1.513-0.7812 2.281-1.4315 2.998-4.2669 5.231-8.0625 5.437-0.2341 0.601-0.4431 1.113-0.875 2.219-2.5817 6.616-3.8741 10.091-5.2187 14.125-1.4194 4.258-2.4807 8.514-4.0626 15.969-0.1159 0.546-0.1629 0.762-0.4374 2.062-1.1108 5.261-1.6513 7.793-2.4063 10.813-0.4354 1.742-0.4333 3.795 0.0313 7.844 0.0315 0.274 0.0671 0.506 0.125 1 0.6976 5.943 0.8319 8.685 0.25 12.468-0.4424 2.876-1.1383 5.738-2.1563 9.188-0.3828 1.297-0.6672 2.278-1.4063 4.625-1.8152 5.764-2.5135 8.322-2.9687 11.281-0.2698 1.754-0.1521 4.073 0.3437 7.625 0.1049 0.751 0.2146 1.474 0.4063 2.719 0.6199 4.027 0.8156 5.513 0.9687 7.656 0.3553 4.974 0.3823 8.907 0.2813 17.75-0.0223 1.957-0.0236 2.855-0.0313 3.938-0.0378 5.294 0.0222 9.061 0.2813 12.687 0.5416 7.582 0.577 14.331 0.3125 26.187-0.0131 0.586-0.0069 1.068-0.0312 2.126-0.3167 13.85-0.3024 19.975 0.2812 27.562 0.8513 11.066 0.7501 22.207-0.0938 35.688-0.2616 4.179-1.1978 15.392-1.8124 22.968 0.074-3.19 1.6618-5.783 5.7812-7.156l0.5-68.5 1.5-0.5c-1.8576-46.439-3.5949-93.077-0.5-139.5l1 8c3.877-1.292 1.4649 0.026 2-8l1.5 0.5c0-3.862 1.1455-6.247 1.5-10.5 11.51-1.046 1.1889-5.063 8.5-7.5v-4c1.808 0.603 5.8982-1.694 6.5-3.5 11.77 0-0.9034-23 12-23-0.8523-2.557-1.4671-5.511 1.5-6.5-2.5862-5.172-1.7346-24.088 4-26 0-9.1555 17.017-23.052 20-32 3.74-11.221 3.243-30.442 3.5-41.5l4.5-0.5-6.5-0.5c2.683-8.0479 7e-3 -6.8005 10.5-7.5-1.082-3.2464 0.025-1.4523-6-2-0.678-4.7443 0.65-8.55-4-7l0.5-8.5c14.827 0.87216 24.415 0.1132 39.5 0.5 0.177 0.79577 0.248 1.1618 0.344 1.5938-0.065-1.1565-6e-3 -2.1908 0.25-3.4062 0.202-0.96175 0.54-1.8516 0.968-2.6875zm-117.62 158.66c0.0051 0.077-0.0051 0.205 0 0.282 0.2105 3.156 0.1217 6.167 0.125 9.187 0.7711-3.532 1.5035-6.69 2.1875-9.281-0.7982 0.056-1.5585-0.062-2.3125-0.188zm8.25 241.38c-0.1799 2.218-0.4801 6.24-0.5313 6.907-0.0495 0.643 0.037 1.757 0.4063 5.781 0.1434 1.562 0.2364 2.628 0.3125 3.75 0.2327 3.433 0.2329 6.225-0.0938 8.781-0.5445 4.259-1.978 7.739-5.1562 10.281-4.2845 3.428-8.4228 3.778-14.562 2.875-0.3239-0.047-0.6247-0.11-1.125-0.187-1.3673-0.214-1.8686-0.266-2.4063-0.313-0.4204-0.037-0.6483-0.063-0.6562-0.062-0.4881 0.075-1.2815 0.425-3.6875 1.594-3.2558 1.579-5.0817 2.312-7.5937 2.843-3.5951 0.763-7.1533 0.453-10.594-1.031 0.00316 2.812-0.003221 2.875 0 5.75h210.5c-0.017-0.206 0.015-0.115 0-0.312-1.645-0.776-3.511-1.546-4.781-2.282-1.375-0.795-2.502-1.575-3.438-2.375-1.823-1.559-3.036-3.183-3.25-5.75-0.082-0.992 0.021-1.876 0.219-2.719-45.575 3.071-89.052 3.016-134.75-2.062l0.5-1.5h-3c-1.3677-4.103-16.163-19.902-16.312-29.969z" fill="#f8f5f7" stroke="#f8f5f7"/>
<path d="m218 228.5c-0.028 1.359-0.037 1.505-0.062 2.719 0.025-0.184 0.034-0.344 0.062-0.531-4e-3 -0.729 6e-3 -1.46 0-2.188zm-1 47.5c-5e-3 0.245 5e-3 0.25 0 0.5l-2.5 0.5c0.667 2 0 1.333 2 2-1.174 19.955-10.134 0.111-13 11-4.451 16.915-7 31.939-7 51-4.839 0.968-10.308 1.876-16.094 2.719 5.206-0.07 10.378-0.219 15.594-0.219-0.816 2.449-0.5 0.974-0.5 4.5-7.997 2.666-0.289 16.458-8 18l2 1c-1.189 2.378-0.36 5.121-3 6v2c-3.303-1.101-1.084-0.825-6 3 7.543 1.078 2.09 6.5-2.5 6.5-0.877 2.632-1.81 2.961-4.5 3.5v4c2.16-0.72 3.75-1.75 6-1l-0.5 4.5h-2l-0.5 1.5c11.962 3.987 25.225-3.301 38.531-2.062-0.307-2.411-0.302-4.797 0.063-7.657 0.103-0.811 0.19-1.407 0.406-2.812 0.443-2.883 0.594-4.117 0.594-5.5 0-3.828-0.183-6.999-0.75-14.219-0.029-0.367-0.034-0.351-0.063-0.719-0.758-9.68-0.946-14.623-0.531-20.437 0.165-2.308 0.381-4.09 0.938-7.844 0.091-0.619 0.142-0.847 0.187-1.156 0.551-3.763 0.75-5.966 0.75-8.282 0-2.969-0.225-5.349-1-10.812-0.02-0.14-0.042-0.141-0.063-0.281-0.816-5.756-1.093-8.649-1.093-12.344 0-2.925 0.477-5.226 1.312-7.594-0.559-2.449-0.286-4.87 1.938-7.093 0.19-0.191 0.452-0.212 0.656-0.376-0.077-0.55-0.176-0.912-0.25-1.531-0.234-1.956-0.614-6.006-0.594-5.875-0.22-1.429-0.353-2.935-0.531-4.406zm-36.594 67.719c-36.549 0.487-72.918 2.024-109.31-1.407 29.926 8.343 76.074 6.25 109.31 1.407zm-109.31-1.407c-3.0187-0.841-5.9385-1.75-8.5938-2.812v2c2.8671 0.337 5.7278 0.542 8.5938 0.812zm144.81 67.438c-0.019 0.189-0.073 0.254-0.094 0.438 0.047-0.119 0.107-0.228 0.157-0.344-0.017-0.035-0.047-0.059-0.063-0.094zm-1.218 6.062c-0.929 3.005-2.426 5.244-4.407 7.438 1.187-0.904 2.166-1.652 2.813-2.219 0.425-0.373 0.742-0.69 0.968-0.937 0.114-0.125 0.152-0.168 0.094-0.063 0.03-0.054 0.097-0.227 0.156-0.562 0.082-0.459 0.134-1.034 0.188-2 8e-3 -0.142 0.017-0.261 0.031-0.531 0.028-0.535 0.127-0.691 0.157-1.126zm-3.188 31.407v0.281h0.594c-0.209-0.096-0.39-0.185-0.594-0.281z" fill="#9d9897" stroke="#9d9897"/>
<path d="m247.59 31.438c-0.028 0.2825-0.034 0.4939-0.063 0.7813 6e-3 0.5836 0.025 0.9309 0.031 1.5 0.013-0.9778 0.022-1.393 0.032-2.2813zm9.531 378.94c0.127 1.859 0.207 3.988 0.344 5.813-2e-3 -1.928 1e-3 -3.855 0-5.782-0.118 6e-3 -0.227-0.029-0.344-0.031z" fill="#939293" stroke="#939293"/>
<path d="m52.5 209.5c1.9648 38.314 2.2827 76.65 1.5 115l-1.5 0.5-0.5 68.5-1.5 0.5c0.7267 10.901 1.4198 34.917 16 37l-0.5 1.5c7.4568 1.491 3.3042 1.113 12.5 0.5l-0.5-2.5-5.5-0.5c-1.2877-6.438-1.771-15.924-8-18 0-9.745 2.6833-7.658-2-10l2-1c-1.3333-2.667-0.3333-1.667-3-3 39.968 3.634 78.699 4.687 119 2-2.873-2.873-1.382-2.127-4-3 0.769-2.306-0.017-1.397 3-2l-0.5-4.5c-2.011 1.005-3.447 0.816-5.5 1.5l0.5-4.5c2.539 0 3.202-0.605 4-3 4.59 0 10.043-5.422 2.5-6.5 2.685-0.895 3.058-3.981 6-3 0.603-3.017-0.306-2.231 2-3 0-3.745-0.447-2.105 1-5l-2-1c8.545-2.848 0.482-15.494 8-18 0-3.527-0.316-2.051 0.5-4.5-43.778 4.378-89.824 4.739-133.5-1.5v-2.5l-2-0.5c6.0576-12.115 1-32.957 1-48l1.5-0.5c-0.6667-2-0.6667-1 0-3 2 0.667 1.3333 0 2 2 10.891 0 27.609 7.464 39.5 3.5l-2-2 2-0.5c-2.216-3.324-0.544-6.272-5-8.5l-0.5 1.5c-4.1353-1.378-2.5-13.26-2.5-15.5-5.1811-1.727-6.5975-5.057-14-4v9c-5.9194 1.973-11.81 7.345-19.5 3.5-2.5672 2.567-1.4219 0.797-2 6 0.0107-0.267-1.0822-17.306 2.5-18.5v-5c-4.0653-1.355-0.997-10.201 3-11-5.6986-11.397 1.9714-11.5 9.5-11.5 0.6532 1.96 3.4347 3.812 5.5 4.5 0 3.265-3.3681 4.896-2.5 7.5 3.762 0 3.9864-1.797 7.5-2.5 0-3.081 0.1988-3.36-3-4 4.3271-0.618 5.6294 0.147 6.5 4.5 2.8041-0.935 0.9815-1.796 4.5-2.5v-6c3.7734-0.755 4.8701-0.5 8.5-0.5 0.983-2.948 3.921-3.032 6.5-2l-1.5-9-2 1c-17.492-22.489-24.675-6.47-53.5-18z" fill="#a8978b" stroke="#a8978b"/>
<path d="m149.5 12.5c-0.47 0.7054-0.805 1.7621-1.188 2.7188 1.114-0.1078 2.23-0.1167 3.344 0 0.075-0.2208 0.068-0.4738 0.156-0.6876-0.693-0.7653-1.456-1.4607-2.312-2.0312zm1.969 22.125c-0.72 0.1945-1.407 0.3078-2.094 0.4062-2.752 8.2069 5.103 23.131 6.125 30.969 1.707 13.085 20.127 47.449 26 55 6.92 8.898-0.695 28.929 5.5 36.5 0.534 0.653 9.951 3.984 11.5 4.5 0 6.119 4.765 5.887 5.5 12.5 3.519 0.704 1.696 1.565 4.5 2.5 0 5.929-0.045 5.245 3.5 9.5l1-4 0.5 26c0.345 0.057 0.465 0.088 0.688 0.125 1.332-1.099 2.752-2.012 4.374-2.406-0.15-1.49-0.265-2.925-0.406-4.407-0.67-1.916-1.215-3.714-1.437-5.156-0.465-3.023-0.395-5.263 0.093-10.375 0.022-0.227 0.015-0.296 0.032-0.469-0.775-2.756-1.801-5.868-2.969-9.218-1.508-1.087-3.097-2.708-4.687-4.656-1.628-0.952-2.953-2.314-3.907-4.032-0.581-1.047-0.943-2.433-1.312-3.625-1.33-2.194-2.639-4.625-3.938-7.125-0.063-0.072-0.058-0.08-0.125-0.156-0.172-0.196-0.168-0.175-0.344-0.375-3.16-3.598-4.607-5.584-5.874-8.625-1.5-3.598-2.273-6.546-3.626-12.906-0.151-0.712-0.213-0.937-0.281-1.25-3.733-10.119-6.32-19.37-7-25.125-0.564-0.999-1.012-2.556-1.469-3.844-3.827-3.223-12.812-17.022-12.812-17.875-3.892-1.2974-9.482-14.165-11.531-23.469-5.033-10.49-7.555-19.003-6.531-25.656 0.192-1.2535 0.574-2.2967 1.031-3.25zm65.656 188.91c0.181 3.8 0.282 7.606 0.437 11.407 0.096-1.638 0.221-3.295 0.532-5.157 0.022-0.131 0.061-0.453 0.094-0.875 0.029-0.387 0.09-1.711 0.093-1.812 0.038-1.151 0.322-2.105 0.75-2.938-0.101-0.193-0.285-0.328-0.375-0.531-0.397-0.032-0.917-0.051-1.531-0.094z" fill="#978e8d" stroke="#978e8d"/>
<path d="m121 222.5c-2.127 3.545-0.238 5.023 1.5 8.5-2.434 1.461-4.562 2.685-5.5 5.5h-2c-0.732-2.197-1.806-4.01-3-6-1.582 10.02-0.486 6.459-2 11-1.542-6.17-10.502-0.144-15.5-3-1.1144 5.015-1.4859 3.042-0.5 6-3.0168 0.603-2.2313-0.306-3 2l-1.5-0.5c0-4.312-2.3017-4.528-6-4l3 1c-1.2357 2.471-1.2357 1.293-0.5 3.5-3.2831 0-3.3507 2-7 2-0.8681-2.604 2.5-4.235 2.5-7.5-14.784-4.928-9.8591-9.423-15.5 7.5-4.2921 0-5.847 9.384-2.5 10.5-0.7809 8.59-2.9581 12.964-2.5 23.5 0.5781-5.203-0.5672-3.433 2-6 3.0502 1.525 14.432 0 16 0 2.9085-8.726 3.0796 4.488 4-13 5.9404 1.485 2.6255 1 10 1 1.9837 5.951 3.9444 11.611 5 19 2-0.667 1.3333 0 2-2 2.619 4.365 9.105 8.315 10.5 12.5-3.801 1.267-3.579-3.884-8-3l1.5 2.5c-7.4407-3.72-30.784-4-39-4-0.6667-2 0-1.333-2-2-0.6667 2-0.6667 1 0 3-10.742 3.581-6.0415 46.755-2 49 28.446 15.803 102.51 6.699 133.5 0.5l-0.5-45.5-1 45c-43.545 2.722-86.209 0.047-129.5-2.5v-43c30.375 10.125 53.018 5.134 78.656 2.875-1.717-0.354-3.082-1.152-3.656-2.875 2.089 0.697 3.001-0.334 5-1l-1-2 4.5-4.5 2 1c6.587-19.76 2.848-30.606-19.5-31.5l0.5-1.5h9.5c0-8.882 5.289-10 13.5-10-0.72-2.16-1.75-3.75-1-6 3.577 1.192 0.178 1.74 5.5 2.5v2l1.5 0.5 0.5-1.5 2.5 0.5c3.568-5.947-3.427-3.281-5-8h-4c-0.667-2 0-1.333-2-2-1.119 3.356-4.086 2.257-5 5h-3c-0.724-2.171-0.127-1.127-2-3l-2 1c-2.574-2.574-3.305-3.523-4-7-2 0.667-1.333 0-2 2-5.297 0-7.5-2.404-7.5-7.5-2.5 0.833-1 0.667-4.5-0.5zm21.156 74.375c3.992 0.822 10.124-0.996 14.344-0.875-4.936 0.12-9.674 0.464-14.344 0.875z" fill="#a6938b" stroke="#a6938b"/>
<path d="m88 141.5c-2.3569 0.025-1.1958 4.651-1 7l9.5 0.5-0.5 4.5-8.5 0.5c9.5238 1.058 8.0455-1.864 9.5 2.5l35.5 0.5c-1.02 5.1-7.308 3.5-11.5 3.5l-0.5 2 6 0.5c-3 0.5-3 0.5-6 1v2c11.999-4 11.937 6.055 12.5 14.5l2.5 0.5 0.5 24.5c5.534 1.107 19.515-0.455 21 4 18.501 0 37.005-0.038 55.5-0.5-10.856-3.619-1.864-21.728-7-32-2 0.667-1 0.667-3 0 0-2.274-1.209-3.374-0.5-5.5-7.646-1.274-14.591-2.872-21.5-3.5l-0.5-5.5c-7.816-1.303-3.981-0.816-11.5-1.5 2.083-10.414-4.377-8.288 12-9l-0.5-10.5c-30.667 0-61.335-0.328-92 0z" fill="#582e15" stroke="#582e15"/>
<path d="m215 394.72c-51.165 12.432-102.87-2.345-153.5 3.281 2.6667 1.333 1.6667 0.333 3 3l-2 1c9.9768 4.988-4.7699 23.89 10 26l0.5 2.5 5.5 0.5c-0.6667 3.333 0.3333 2.333-3 3 10.302 2.377 21.411 4.656 32 4.5 35.074-0.516 75.931 7.495 96-9.531 0.236-0.24 0.336-0.475 0.594-0.719 0.336-0.317 1.03-0.794 1.375-1.094 5.021-5.06 8.544-11.924 9.875-21.468 0.037-2.184 0.188-4.527 0.468-7.126 8e-3 -0.243 0.018-0.482 0.032-0.718-0.337-0.62-0.628-1.265-0.75-2-0.063-0.375-0.05-0.753-0.094-1.125z" fill="#26201f" stroke="#26201f"/>
<path d="m192.5 210c-50.5 0.75-50.5 0.75-101 1.5 8.73 0 14.447 0.5 25 0.5-8.338 8.338-6.908 16.838-6.5 29.5 2.96-4.934 1.443-1.53 2-11 1.194 1.99 2.268 3.803 3 6h2c2.423-7.268 6.643-4.214 2.5-12.5 2.06-0.412 4.032-0.344 6-1 0 3.708 6.643 11.072 8.5 5.5l1.5 0.5c0 3.293 1.137 4.137 3.5 6.5l2-1c1.873 1.873 1.276 0.829 2 3 4.022-0.575 3.127 0.618 4-2 2.539 0 3.201-0.605 4-3 4.508 1.503 7.64 5.806 12.5 6.5-1.54 3.08-1.312 5.262-5 6 5.241 0.582 3.825 1.85 5.5-1.5l1 2c1.615-0.538 3.462-2.385 4-4 1.941 3.235 1.048 2.856 0 6l2-1c1.185 3.555 11.066 7.355 14.5 8.5-1.659 3.318 0.236 6.153-4 7 3.029 3.029 7.332 2.332 10 5-1.236 2.471-1.236 1.293-0.5 3.5 3.15 0 4 1e-3 5-3 8.166 0 3.258-15.617 3-20l-1 3c0.577-6.346 0.861-3.695 0-8l-1.5 0.5c-0.531-9.026 2.193-7.602-2-9 0-11.977-3.175-5.201-2-24z" fill="#988371" stroke="#988371"/>
<path d="m192 295.5c-18.605 1.55-37.347 0.206-56 1-4.36 0.186-7.28 8.888-12 7-19.884-7.953-35.856-7.964-59.5-7.5l-1 41c39.805 6.285 90.758 13.747 129 1l-0.5-42.5z" fill="#862122" stroke="#862122"/>
<path d="m153 238.5-1.5 0.5c1.005 2.011 0.816 3.447 1.5 5.5-10.278 0-13.5 1.428-13.5 12 17.231 0 12.877 20.868 9.5 31l-2-1-4.5 4.5 1 2c-1.999 0.666-2.911 1.696-5 1 2.105 6.315 46.629 2.171 56 1l-0.5 45.5-4.5 0.5c13.378 3.648 11.859-20.047 6-22l-0.5-26.5-7.5-0.5c0.667-2 0-1.333 2-2l-0.5-3.5c-3.577 1.192-0.178 1.74-5.5 2.5l1 3-1.5 0.5c-1.467-4.401-3.777-5.559-3-11 0.691 2.072 2.309 2.928 3 5l1.5-0.5c-1.236-2.471-1.236-1.293-0.5-3.5 2.595 2.595 3.267 2.663 4-1 2 0.667 1.333 0 2 2l1.5-0.5v-4c-6.038-2.013-5.722-12.537-12.5-3.5l-1-3c-6.025 0.548-4.918-1.246-6 2l-5.5-0.5c-1.635-6.54-0.444-12.892 0.5-19.5 4.215 0 6.5 0.501 8 5 4.427 0 6.573 2.232 9.5 1.5 0-2.468-0.123-3.754 1-6-3.672-1.224-12.176-4.96-14-8-2 0.667-1 0.667-3 0 0.667-1.333 1.333-2.667 2-4l-1.5-1.5c-0.538 1.615-2.385 3.462-4 4l-1-2c-1.675 3.35-0.259 2.082-5.5 1.5l3-1-0.5-2.5c-2 0.667-1.333 0-2 2-2.306-0.769-1.397 0.017-2-3-4.022-0.575-3.127 0.618-4-2z" fill="#9e8c7f" stroke="#9e8c7f"/>
<path d="m84.5 163-0.5 2.5c-6.8989 0.627-5.6277 3.661-11.5 4.5l4 1c-3 0.5-3 0.5-6 1 0 2.745-0.5963 1.702 2 3-3.8552 0.89-10 0.122-10 5l-2 0.5 0.5 4 5.5 0.5c-1.1667 5.833-1.3333 3.333-0.5 7.5 10.845 0 23.201-4.08 32.5 1.5-4.5006 2.25-2.9118 9.265-1.5 13.5 10.229-2.557 10.41 0.049 23.5 0.5l-0.5 1.5h-40.5l113 0.5c-20.571-0.571-39.021-1.404-57-5l-0.5-24.5-2.5-0.5c1.126-9.011-0.767-17.744-12-14l0.5-2.5 5.5-0.5h-42z" fill="#8c3e0c" stroke="#8c3e0c"/>
<path d="m214.03 208.75c-5.591 0.793-3.119 0.366-22.031 1.75-0.485 15.03 4.23 19.91 5 33l1.5-0.5c-1.477 4.432-1.116 1.952-0.5 7.5l1-3c0.258 4.383 5.166 20-3 20-1 3.001-1.85 3-5 3-0.736-2.207-0.736-1.029 0.5-3.5-3.294-3.294-12.69-7.5-16.5-7.5-5.937-17.811-8.785 9.507-8 15 6.025-0.548 4.918 1.247 6-2l5.5 0.5 0.5 2.5c3.343-10.028 8.32 2.106 12.5 3.5l-0.5 4.5c-2-0.667-1.333 0-2-2l-1.5 0.5v2c-2.394 0.798-1.127 0.873-3.5-1.5-0.736 2.207-0.736 1.029 0.5 3.5l-1.5 0.5c-0.953-2.86-0.194-1.071-3-5 0.434 3.904-0.622 9.46 4 11-0.769-2.306-0.603-0.983 0-4 4.022-0.575 3.127 0.618 4-2l1.5 0.5c-0.575 4.022 0.618 3.127-2 4 1.292 3.877-0.026 1.465 8 2l0.5 26.5c13.425-13.425-1.072-25.309 20.5-32.5-0.531-9.026 2.193-7.603-2-9 0.692-2.077 0.449-1.623 2.531-1.938-1.291-10.642-1.492-21.996-0.219-30.968-0.161-7.208-0.283-14.418-0.468-21.625-0.055-4e-3 -0.304-0.031-0.313-0.031 0.651 0.572 0.666 0.58-5.25-3.563-2.006-4.012-0.016-8.339 3.25-11.125z" fill="#6d5846" stroke="#6d5846"/>
<path d="m116 31.5c-0.628 8.9968-2.5 19.688-2.5 29 14.592-2.432 11.026-7.0634 33-6.5l-2 1c2.732 8.1952 9.752 16.781 10.5 29.5l2.5 0.5 0.5 8.5 4.5 0.5c0.857 9.43 0.696 4.232 6 6 0 3.433 1.88 4.376 5 5l0.5 3.5h2.5c0-4.731-21.474-34.321-27.906-56.031-14.756-0.2203-16.047-0.2293-32.094-0.4688 0.667-2 0-1.3333 2-2-0.93-25.098-0.971-4.7421-2.5-18.5zm32.594 20.969c0.646 0.0096 0.703 0.0207 1.406 0.0312l0.5-1.5c-4.881-1.6269-3.21-9.809-1.875-15.812-0.05 0.0047-0.106 0.0272-0.156 0.0313-2.281 4.2413-1.942 10.274 0.125 17.25z" fill="#645251" stroke="#645251"/>
<path d="m141.44 53.906c-8.169-0.0654-23.412 0.5169-25.438 6.5938h-2.5c-0.421 3.5756 0.81 12.797-4 14-1.111 18.338-0.501 11.012-1.5 22-5.744 0.5222-6.5 0.0436-6.5 5.5-3.2176 1.073-2.6579 3.332-6 4l0.5 7.5c1.6437-6.575 6.259-5.02 12.5-5.5l0.5-5.5c10.948 0 23.075-1.881 35.5-0.5l-2 1c1.311 3.934 15.079 2.909 17 3l0.5 2.5c10.1 0.532 9.496-1.518 11 6 0-13.086-1.37-6.848-3-15-5.121 2.56-5.622-1.8471-6-6l-4.5-0.5-0.5-8.5-2.5-0.5c-0.403-6.8471-0.283-27.5-9.5-27.5l-0.5-1.5 2-1c-0.396 0.0097-2.34-0.0719-5.062-0.0938z" fill="#4e2718" stroke="#4e2718"/>
<path d="m135.25 101.5c-9.166-0.054-18.039 1-26.25 1l-0.5 5.5c-8.195 0.63-4.369 0.074-11.5 1.5-0.5675 6.242 1.1465 4.677-2.5 6.5 5.939 1.188 11.527-0.993 17.5 0.5l0.5-1.5c20.874-0.535 13.192-2.077 23.5 0.5l0.5 10.5-6.5 0.5-0.5 5.5 2.5 0.5 0.5 3.5 12 1-18 1c3 0.5 3 0.5 6 1-16.666 0.235-33.372 0.647-50-0.5 0.6984 2.794 1.6783 1.535 2.5 4 27.838 0 55.668-0.92 83.5-1.5 0.513-0.011 14.608 3.746 15.5-2.5 0.713-4.994-9.959-1.826-15-2-1.015-7.104-5.788-16.745 3-18-3.014-9.042 0.778-9.327-12-10l-0.5-2.5c-1.921-0.091-15.688 0.935-17-3l2-1c-3.106-0.345-6.195-0.482-9.25-0.5z" fill="#8d3b08" stroke="#8d3b08"/>
<path d="m122.5 252.5h-9.5l-0.5-2.5c3.781-0.756 9.621 1.136 11-3-35.757-11.919 37.508-11.503 3 0l0.5 1.5c4.217 0 9.508-1.458 10.5 3.5l-10.5 0.5-0.5 9.5c7.965 2.655 12.717-8.865 23 3 9.761 11.263-13.626 36.5-24.5 36.5-29.651 0-33.194-59.796-2-39l-0.5-10z" fill="#483535" stroke="#483535"/>
<path d="m81.5 138.5c-0.5438 6.525 1.4039 5.365-2 6.5 0 19.596-2.2425 6.728-5.5 16.5-2.8597 0-2.8844 2.372-5.5 1.5-0.7259 6.533-1.7798 11.344-9 12v5.5l3-0.5c0-5.207 6.0746-4.643 10-5l-2-1 0.5-2.5 5.5-0.5-4-1c6.3025-1.576 4.8436-4.349 12-5l0.5-2.5h35.5c1.122-4.487 8.053-3.061 12-3.5l-0.5-2.5-35.5-0.5c-1.3975-4.193 0.0261-1.469-9-2l9-1-0.5-4.5-9.5-0.5v-5.5c-2.0151-0.504-3.7922-2.188-5-4z" fill="#71544b" stroke="#71544b"/>
<path d="m59.5 180.5c-1.6537 2.481-0.915 0.905-1.5 5l-1.5-0.5c-0.4932 7.397 0.0641 14.09 0.5 21.5 1.38-2.76 0.2691-1.854 3.5-2.5l0.5-4.5 4.5 0.5c0 19.549 47.821 9 55 9-2.199-6.597-13.301 3.097-15.5-3.5-2.808 1.404-4.842 2-8 2-1.4117-4.235-3.0006-11.25 1.5-13.5-9.4497-5.67-21.981-1.819-33-2 1.4773-4.432 1.1164-1.952 0.5-7.5-6.7084-0.61-4.9943 1.27-6.5-4z" fill="#bc5f1e" stroke="#bc5f1e"/>
<path d="m169 306.5c-1.825 5.474-3.976 14.976-8 19-1.386-4.158 2.635-17.64-3-18-14.472-0.924-29 0.333-43.5 0.5l22.5 1.5 0.5 19.5 9.5 0.5 0.5-16.5c3.656-0.731 1.899-1.101 5 2-1.081 2.163-1.589 4.196-4 5 2.295 6.886 13.886 20.343 18.5 6.5 9.196 0 8.804 2 18 2 3.687-11.06-7.64-21.56-16-22z" fill="#b09a9a" stroke="#b09a9a"/>
<path d="m123.5 279c-6.637 1.327-7.087-5.5-13.5-5.5l-0.5 2.5c5.994 1.998 31 13.263 31-2-3.542-0.506-7.359 1.078-8.5 4.5h-5c-2.046-38.874 48.028-0.01 0 18-9.956 3.733-30.619-20.133-22.5-31.5 11.038-15.453 18.257 7.316 19 14z" fill="#6c090a" stroke="#6c090a"/>
<path d="m186 138.5c-1.14 0.38-1.807 1.851-3 2-4.799 0.6-9.667 0.333-14.5 0.5l12 1-0.5 10.5-11.5 0.5c1.334 2.667 0.126 5.131 0.5 8.5 7.816 1.303 3.981 0.816 11.5 1.5l0.5 5.5c6.927 0.63 13.089 3 21 3-0.72 2.159 0.546 3.73 1 6l2-1c0.811 2.433 0.893 3.348 3.5 4-0.482-3.857-1.207-5.741-5-6.5 0-6.492-5-5.365-5-12-4.61-1.537-6.83-4.261-12-5 1.276-6.378 0.084-12.076-0.5-18.5z" fill="#64514c" stroke="#64514c"/>
<path d="m148 9.5-1 3h-29.5c2.205 3.3081 0.954 0.9009 1.5 8l5.5 0.5c-1.371 4.1128-6.383 1.7945-10 3 0 4.5271 0.422 2.7351-0.5 5.5l6.5 0.5c-2.25 0.75-2.25 0.75-4.5 1.5 1.103 5.5168-0.612 4.4625 2.5 5.5-0.52 14.027 3.772 12.076-2 14l0.5 1.5 33.5-0.5c-0.667-2 0-1.3333-2-2 0.092-1.2843 1.795-9.4523 1.188-15.031-2.343 0.3836-4.566 0.4078-6.532-0.4688-3.53-1.5742-5.327-4.969-5.125-8.5625 0.287-5.1043 4.486-10.049 9.844-10.719 0.219-0.0274 0.438 0.0181 0.656 0 0.096-2.1534 0.419-2.8696-0.531-5.7188z" fill="#2f1f1c" stroke="#2f1f1c"/>
<path d="m128.22 114.09c-1.978 0.13-5.282 0.638-15.719 0.906l-0.5 1.5c-6.896-1.724-13.842-0.719-20.5 1.5l5 1-0.5 1.5h-7.5c0 3.444 2.0049 9.165-2 10.5 0 4.527-0.4216 2.735 0.5 5.5-4.5114 1.128-2.6961 0.565-5.5 1.5 16.924 1.638 33.998 1.239 51 1-3-0.5-3-0.5-6-1l18-1-12-1-0.5-3.5-2.5-0.5 0.5-5.5 6.5-0.5-0.5-10.5c-5.154-1.288-5.804-1.536-7.781-1.406z" fill="#bf570f" stroke="#bf570f"/>
<path d="m99.312 306.47c-1.4514 0.15-2.898 0.465-4.3125 1.031-16.323 6.529 7.35 14.35 9.5 16.5-11.245 0.535-7.3659 2.067-12.5-0.5l-1 2c-12.232-20.386-12.458-25.626-21.5 1.5l4.5 0.5 0.5-2.5 6.5-0.5c8.6722 26.017 54.748-11 20-11l-0.5-1.5c9.244-0.544 5.961-1.769 10.5 0.5l1.5-4.5c-4.363-0.873-8.833-1.982-13.188-1.531z" fill="#c4a8a8" stroke="#c4a8a8"/>
<path d="m54 184.5c-6.0598 34.339 7.225 27 37.5 27-12.916-2.691-25.505 2.931-26.5-12l-4.5 0.5-0.5 4.5c-2.7453 0-1.7019-0.596-3 2-1.1609-7.352-2.0774-14.619-3-22z" fill="#da9362" stroke="#da9362"/>
<path d="m109 74.5c-2.869 4.7813-5.5 9.8331-5.5 15.5-9.4568 3.1523-9.2903 17.097-15 19v11.5l8-0.5c-0.9773-2.932 0.0238-1.442-5-2 3.5333-1.178 2.2667-2.089 5-3-1.3433-4.03-0.5-0.973-0.5-9.5h2c1.2745-3.824 4.06-4.3 5-9l5.5-0.5c1.85-11.099 1.065-3.9734 0.5-21.5z" fill="#77544a" stroke="#77544a"/>
<path d="m159.5 70.5c1.58 3.9503 4.803 15.101 9 16.5 0 6.7843 10.304 11.911 12.5 18.5-0.573-4.014-4.578-10.066-8.188-15.531-1.025-1.0312-1.891-2.0037-2.624-3.1563-3.281-5.1546-6.018-9.8136-8.563-14.406-0.727-0.7632-1.452-1.4576-2.125-1.9062z" fill="#dcdcdf" stroke="#dcdcdf"/>
<path d="m63.5 294v42.5l1.5-41 13.5-0.5c-14.027-0.52-9.2279 0.924-15-1z" fill="#952025" stroke="#952025"/>
<path d="m120.5 329.5v-16.5l-6.5-0.5c-2.086-10.428 13.867-4 22-4 0.875 4.375-0.843 4-5 4l-0.5 16.5-10 0.5z" fill="#c5b3b4" stroke="#c5b3b4"/>
<path d="m171.5 104.5c0 13.027-1.318 8.547 0.5 14-8.788 1.255-4.015 10.896-3 18h13.5c-1.094-13.675-0.409-8.362-1.5-16-6.211 0-3.745-6.635-4-12-1.75-0.25-1.75-0.25-3.5-0.5v-3l-2-0.5z" fill="#b26332" stroke="#b26332"/>
<path d="m188.72 129.59c0.773 3.653 1.658 7.299 2.625 10.937-0.401-1.603-0.791-3.131-1.282-5.437-0.211-0.995-0.273-1.282-0.374-1.75-0.358-1.654-0.657-2.551-0.969-3.75zm3.593 14.406c0.251 0.831 0.413 1.674 0.688 2.5 0.08-0.027 0.092-0.041 0.156-0.062-0.297-0.788-0.586-1.61-0.844-2.438z" fill="#dfdfe0" stroke="#dfdfe0"/>
<path d="m94 345.5c-1.0828 3.248-0.7419 6.097 1 9-1.75 0.25-1.75 0.25-3.5 0.5 1.7453 3.491 1 1.255 1 7-3.0169 0.603-1.6937 0.769-4 0 0.1539 4.587 4.5229 14.019 5.5-6.5 1.75 0.25 1.75 0.25 3.5 0.5-0.5476 11.499-0.5 6.996-0.5 13.5 3.333-3.333 2.3333-1.333 3-6 3.877 1.292 1.465-0.026 2 8l1-17c1.75-0.25 1.75-0.25 3.5-0.5-1.144-3.432-0.312-5.262-4-6v-2.5h-8.5zm-5.5 16.5 1-2c-0.8076-0.269-1.0433 0.708-1 2z" fill="#a2907f" stroke="#a2907f"/>
<path d="m151.5 4.5c-14.151 0.8086-22.939 0.0739-37 0.5v8c10.44-3.4801 21.996-0.8253 33-1l0.5-2.5c0.554 2.7708 2.222 3.6423 4.469 3.7188 0.726-1.0586 1.713-1.9331 2.937-2.5-0.028-0.1744-0.071-0.3445-0.125-0.6563-0.043-0.25106-0.025-0.3634-0.062-0.59375-1.617-0.20211-1.859-0.2363-3.719-0.46875v-4.5z" fill="#998344" stroke="#998344"/>
<path d="m193.5 294.5-3 0.5c1.224 0.612 2.178 1.404 3 2.281v-2.781zm0 2.781v30.094c2.312-11.396 5.865-23.835 0-30.094zm0 30.094c-0.798 3.934-1.46 7.753-1.5 11.125l-2.5 0.5h4v-11.625z" fill="#7e6e64" stroke="#7e6e64"/>
<path d="m97 211.5c-0.9498 2.849 3.106 6.712 4.5 9.5 7.559 15.117 9.561-3.561 15-9l-19.5-0.5z" fill="#b7ab9d" stroke="#b7ab9d"/>
<path d="m107 365.5-0.5 5h-4v-15c4.201 0 26.625 11.018 15 16-4.352 1.865-5.898-6-10.5-6z" fill="#4d463f" stroke="#4d463f"/>
<path d="m151 355.5h4c0.741 2.224-6.5 10.615-6.5 15.5-1.75 0.25-1.75 0.25-3.5 0.5-0.354-4.603-7.078-11.766-6-15 3.706 0 5.738 1.214 7 5 2.769-0.923 4.106-3.319 5-6z" fill="#372f2b" stroke="#372f2b"/>
<path d="m125.5 359.5h-5.5l-0.5-3h16.5l0.5 2.5-6.5 0.5-0.5 12h-2.5l-1.5-12z" fill="#2a2622" stroke="#2a2622"/>
<path d="m85 354.5-1.5 0.5c0 19.362 12.137 21.222 13 0.5l-3 0.5c0 17.518-7.2163 12.621-8.5-1.5z" fill="#251f1a" stroke="#251f1a"/>
<path d="m160 355.5v15c1.75-0.25 1.75-0.25 3.5-0.5l0.5-5.5c15.627 0 10.924-9-4-9z" fill="#342f2c" stroke="#342f2c"/>
<path d="m196.44 152.75c0.908 1.956 2.836 4.1 5.093 6.281-0.466-0.599-0.759-1.045-1.625-2.031-0.172-0.196-0.167-0.175-0.344-0.375-1.351-1.538-2.28-2.718-3.124-3.875z" fill="#cecdd0" stroke="#cecdd0"/>
<path d="m108.5 355c4.647 0.357 13.487 1.769 9 8.5 3.332-0.833 3.638-2.877 8-3.5l-5.5-0.5c-0.632-4.423-7.759-8.241-11.5-4.5z" fill="#92897d" stroke="#92897d"/>
<path d="m121.5 261.5c-2.927-2.342-6.699-3.457-10.5-4-0.707-3.534-0.231-1.694-1.5-5.5 2.07-0.69 1.061-0.208 3-1.5l0.5 2h9.5l-1 9z" fill="#939390" stroke="#939390"/>
<path d="m82 354.5-1.5 0.5c0 9.745-1.3416 6.317 1 11-1.8727 1.873-0.8292 1.276-3 2 2.7071 2.707 2 1.057 2 5 2.2071 0.736 2.7929-0.736 5 0 0-6.414-2.8619-10.842-3.5-18.5z" fill="#8b7f74" stroke="#8b7f74"/>
<path d="m132.5 212c-15.844 0.689-7.658 0.579-17.5 5.5-3.143-9.428 17.297-5.508 17.5-5.5z" fill="#b2a598" stroke="#b2a598"/>
<path d="m213 182.5-1 4c-0.763-2.291-0.078-1.184-2.5-3l0.5 25h2.5l0.5-26z" fill="#734931" stroke="#734931"/>
<path d="m117.5 371.5c-5.605 0-4.946-6-10.5-6l-0.5 5c5.936-2.375 5.05 3 10.5 3l0.5-2z" fill="#c5b8a9" stroke="#c5b8a9"/>
<path d="m105.78 234.62c-1.095 0.148-2.174 1.053-2.781 2.875-3.4316-1.144-4.0754 0.462-7-1-0.75 1-0.75 1-1.5 2 4.7901 1.064 10.92-1.72 15 1 0-3.263-1.894-5.122-3.719-4.875z" fill="#b0a99f" stroke="#b0a99f"/>
<path d="m104 287.5c5.373 5.373 2.764 4.255 6.5 5.5l-0.5 1.5c-2.722-1.98-7.227-3.319-6-7z" fill="#565953" stroke="#565953"/>
<path d="m112 254.5h9l0.5 3.5-1.5 0.5c-1.105-3.315-5.257-1.257-8-4z" fill="#8c847f" stroke="#8c847f"/>
<path d="m155.25 9.9062c-0.031 0.12545-0.09 0.76455-0.094 0.96875 0.089-0.0455 0.159-0.114 0.25-0.1562-0.028-0.1744-0.071-0.3445-0.125-0.6563-0.011-0.06683-0.02-0.09095-0.031-0.15625z" fill="#fafaf7" stroke="#fafaf7"/>
<path d="m171 314.5c-1.596 2.661-1.081 4.243-2 7l4.5-0.5c-0.748-2.244-1.758-4.275-2.5-6.5z" fill="#723232" stroke="#723232"/>
<path d="m69.812 341.47c-1.1679-0.114-2.4315 0.206-7.3125 0.531 7.5042 2.501 2.9188 1.5 14 1.5-4.4474-1.368-5.5196-1.917-6.6875-2.031z" fill="#c7c5bd" stroke="#c7c5bd"/>
<path d="m123 237.5h4c0.736 2.207 0.264 1.029 1.5 3.5-2.443 2.443-0.793 1.5-5.5 1.5v-5z" fill="#a8a6a5" stroke="#a8a6a5"/>
<path d="m126.5 247c3.289-1.096 1.127-0.127 5.5-4.5-1.708 3.985-1.099 2.296-2 5-1.75-0.25-1.75-0.25-3.5-0.5z" fill="#acaca9" stroke="#acaca9"/>
<path d="m130 371.5 0.5-4.5c5.143 2.571 1.011 5.573-3 5l2.5-0.5z" fill="#b8ad9e" stroke="#b8ad9e"/>
<path d="m78 313.5c-1.0081 2.352-2.8196 4.541-2 7 1.75-0.25 1.75-0.25 3.5-0.5-1.2061-4.824-0.7305-2.652-1.5-6.5z" fill="#8e3e3e" stroke="#8e3e3e"/>
<path d="m139.5 256.5h-9.5l-0.5-1.5 10-0.5v2z" fill="#7b756f" stroke="#7b756f"/>
<path d="m164 358.5v3l6.5-0.5-0.5-2.5h-6z" fill="#6a6663" stroke="#6a6663"/>
<path d="m154 253.5c0.425 2.978 1.179 4.94-2 6-0.607-5.466-1.794-3.724 2-6z" fill="#b2a093" stroke="#b2a093"/>
<path d="m107 359.5h7l0.5 1.5-7.5 0.5v-2z" fill="#7f726a" stroke="#7f726a"/>
<path d="m151.5 4.5 0.5 5h2.5l-0.5-5h-2.5z" fill="#d9d0b5" stroke="#d9d0b5"/>
<path d="m122 261.5 1-9 0.5 9.5-1.5-0.5z" fill="#060505" stroke="#060505"/>
<path d="m97 355.5-0.5 11h0.5v-11z" fill="#cab9a3" stroke="#cab9a3"/></g><g fill="#2d3a43" stroke="#5a4834" stroke-linecap="butt" stroke-width=".79">
<path d="m213.04 222.14c0-1.88 0.114-3.181 0.546-4.909 0.221-0.886 0.273-2.727 0.273-2.727s-0.273 1.814-0.273 2.727c0 0.364 0.257 1.348 0 1.091-0.631-0.63-0.273-2.728-0.273-3.545 0-0.364 0.364-1.091 0-1.091-0.837 0-0.216 4.636-0.818 4.636-0.193 0 0.273-3.05 0.273-3.273v-1.09c0 1.436 4e-3 2.707-0.273 4.09-0.036 0.179 0 0.546 0 0.546s-0.071-0.734 0-1.091c0.239-1.193 0.257-2.392 0.545-3.545 0.027-0.107-0.021-1.637 0-1.637 0.204 0 0.273 0.342 0.273 0.546 0 0.97-1.089 3.821-0.545 4.636 0.112 0.169 0.376 0.385 0.545 0.273 0.526-0.351 0.338-5.182 0.818-5.182 0.091 0-0.272 3.734-0.272 4.091v0.545-0.545c0-0.189 0.598-3.519 0.545-3.546-0.576-0.287-1.091 2.607-1.091 3 0 0.455-0.321 1.685 0 1.364 0.459-0.459 1.035-5.018 0.273-4.636-0.979 0.489-0.273 3.272-0.273 3.272s1.096-2.454 0.273-2.454c-0.359 0-0.56 3-0.546 3 0.756 0 0.782-3.973 0.546-4.091-0.868-0.434-0.736 2.864-0.818 3.273-0.091 0.454-0.737 1.363-0.273 1.363 0.5 0 0.479-2.735 0.545-3 0.029-0.112 0.51-2.454 0.273-2.454-0.5 0-0.273 3.227-0.273 3.545 0 0.818-0.818 2.455 0 2.455 2.294 0 0.819-8.749 0.819-3v1.636c0 0.446-0.36 1.922-0.273 2.182 0.465 1.395 1.636-4.592 1.636-4.909 0-0.182 0.182-0.546 0-0.546-0.494 0-0.272 3.444-0.272 3.819 0 0.545-0.386 2.022 0 1.636 0.849-0.85 0.545-3.783 0.545-4.909v-1.909-0.546 4.637c0 0.727-0.727 2.181 0 2.181 0.643 0 0.193-1.271 0.273-1.909 0.181-1.453 0.199-2.978 0.545-4.363 0.044-0.177 0-0.546 0-0.546v1.909 4.091 1.637c0.987 0 0.546-5.481 0.546-6.273v0.545 1.364 3.818 1.637c0-1.86 0.014-3.647 0.272-5.455 0.09-0.63 0-1.273 0-1.909v-0.546c0 1.499 0.031 3.666-0.272 5.182-0.074 0.368-0.273 1.091-0.273 1.091s0.199-0.723 0.273-1.091c0.299-1.498 0-3.377 0-4.909v-1.363c0-0.182 0.081-0.709 0-0.546-0.818 1.635-0.273 4.474-0.273 6.273 0 0.273-0.273 0.818 0 0.818 0.254 0 0.894-5.379 0.545-5.727-0.346-0.346-0.465 0.88-0.545 1.363-0.059 0.353-0.213 4.909-0.273 4.909-0.463 0-0.273-0.9-0.273-1.363 0-0.826 0.545-4.637 0-5.182-1.088-1.088-1.832 4.992-1.909 5.455-0.074 0.448 0.111 0.922 0 1.363-0.049 0.197-0.272 0.749-0.272 0.546 0-0.395 0.95-7.157-0.273-6.546-0.614 0.307-0.367 3.923-0.546 4.637-0.16 0.641-0.272 0.94-0.272 1.636v0.545c0-0.03 0.734-6.691-0.273-5.181-0.453 0.679-0.115 2.21-0.273 3-0.104 0.521-1.036 2.781-0.545 3.272 0.861 0.862 1.327-5.885 0.273-5.182-0.871 0.581-0.16 6.417 0.272 6.273 1.379-0.459 0.231-6.154 0-6-0.56 0.374-0.644 5.571 0 6 1.402 0.934 1.637-4.799 1.637-5.454 0-0.182 0.181-0.546 0-0.546-0.427 0-0.473 4.594 0 4.909 1.45 0.967 1.76-5.603 1.636-5.727-1.126-1.126-1.711 6.934-0.545 6.545 1.059-0.353 0.818-3.513 0.818-4.363v-0.546 1.364c0 0.398-0.329 5.017 0 5.182 1.069 0.534 0.818-4.769 0.818-5.455" opacity=".98228"/>
<path d="m213.73 221.86c0.659 0.404 1.28 0.988 2.046 1.091 0.631 0.084 0-1.273 0-1.91 0-1.55-0.273-3.049-0.273-4.636v-1.091 1.091 4.364 0.545-1.091-5.182c0-0.545 0.545-1.636 0-1.636-0.49 0-0.273 3.609-0.273 4.091v0.545s0.199-0.723 0.273-1.09c0.278-1.389 0.273-2.933 0.273-4.364 0-0.546-0.386-2.022 0-1.636 0.651 0.651 0.272 3.254 0.272 4.09v1.364c0-2.033-0.215-4.593 0.273-6.545 0.049-0.198 0.07-0.546 0.273-0.546 0.636 0 0 1.273 0 1.909v4.091 1.091s0.199-0.723 0.273-1.091c0.233-1.165 0-2.621 0-3.818 0-0.545 0.545-1.636 0-1.636-0.204 0-0.224 0.348-0.273 0.545-0.385 1.541-0.273 3.3-0.273 4.909v0.546-1.091c0-0.562 0.27-5.454-0.545-5.182-0.626 0.208-0.72 3.771-0.818 4.364-0.091 0.545 0.118 2.027-0.273 1.636-0.304-0.304 0.273-3.424 0.273-4.091v-1.364c0 1.464-0.529 2.918-0.819 4.364-0.035 0.178 0 0.545 0 0.545s0.273-2.178 0.273-3.272c0-0.364 0.257-1.348 0-1.091-0.615 0.615-0.093 1.737-0.273 2.454-0.091 0.364-0.272 1.466-0.272 1.091 0-4.376 0.122-0.122-0.273 0.273-0.411 0.411-1.037 4.364-1.364 4.364-0.644 0 0.233-1.792-0.818-1.091-0.771 0.514-0.545 2.727-0.545 2.727v-2.727-0.546c0 2.913-0.175 2.773 2.863 4.637z" opacity=".98228"/>
<path d="m217.14 225.41c-0.091-0.182-0.181-0.364-0.272-0.545" opacity=".98228"/>
<path d="m216.86 226.5v-0.545l-0.273-0.819v-0.545 0.545" opacity=".98228"/>
<path d="m216.32 231.14v-4.363c0-0.455-0.454-1.364 0-1.364 0.484 0 0.273 3.725 0.273 4.091v2.455c0 0.181 0.182 0.545 0 0.545-0.497 0-0.273-4.957-0.273-5.455v1.091 2.728-3.273-0.546 3.273 0.546-0.546c0-0.414 0.125-3.818 0.546-3.818 1.091 0 0 3.273 0 3.273s-0.643-2.085 0-2.728c0.718-0.718 0.545 3 0.545 3v-0.545-3.545c0-0.182-0.182-0.546 0-0.546 0.478 0 0.196 1.636 0.273 1.636 0.526 0 0.167-2.181 0.273-2.181 0.203 0 0.069 0.545 0.272 0.545 0.055 0 0.273-2.949 0.273-3.273 0-1.129 0.841-3.226 0.273-4.363-0.6-1.201-1.696-3.759-0.546-4.909" opacity=".98228"/>
<path d="m217.68 212.46c1.039 3.108-0.273-1.6-0.273-2.319v0.546 1.363 0.819c0 1.052-0.256 2.519 0 3.545 0.035 0.14 0.529 1.909 0.273 1.909-0.471 0-0.273-2.111-0.273-2.454 0-1.462-0.273-2.849-0.273-4.364v-1.091s-0.088 0.738 0 1.091c0.219 0.876 0.273 1.503 0.273 2.455 0 0.181 0.129 0.674 0 0.545-0.26-0.261-0.858-5.427 0.273-2.045z" opacity=".98228"/>
<path d="m212.77 215.18c1.692-2.37-0.243 1.773-0.273 1.773-0.719 0-0.056-2.505 0-2.728 0.044-0.176 0.182-0.545 0-0.545-1.36 0-0.653 4.091-1.636 4.091-0.354 0-0.273-0.976-0.273-1.091 0-2.27 0.284-4.408 0.818-6.546 0.044-0.176-0.182-0.545 0-0.545 0.719 0 0.056 2.505 0 2.727-0.364 1.456-0.545 3.708-0.545 5.182v0.545s-0.036-0.367 0-0.545c0.432-2.163 0.29-4.435 0.818-6.545 0.049-0.198 0.069-0.546 0.273-0.546 0.545 0 0 1.091 0 1.636 0 1.386-0.665 5.214 0.818 3.137z" opacity=".98228"/>
<path d="m212.77 215.59c-2.361 2.36-0.538-7.647 0.272-8.727 0.122-0.163 0.364-0.364 0.546-0.273 0.741 0.37-1.193 5.592-1.364 6.273-0.044 0.176 0 0.545 0 0.545v-1.364c0-1.107 0.282-2.489 0.546-3.545 0.049-0.197 0.272-0.545 0.272-0.545s-0.832 1.967-1.09 3c-0.091 0.363-0.273 1.465-0.273 1.09 0-1.499-0.013-3.117 0.818-4.363" opacity=".98228"/>
<path d="m213.73 210c-0.225 0.32-0.595 0.836-0.954 0.682-0.236-0.101 0.396-3.273 0.818-3.273 0.182 0 0 0.364 0 0.546v2.454 1.091c0-0.756 1.145-2.931 0.136-1.5z" opacity=".98228"/>
<path d="m214.14 208.23-0.272 0.546v3 0.818" opacity=".98228"/>
<path d="m191.64 207.96c-0.062 0.081-1.146 0.626-0.681 1.09 0.239 0.24 2.466-3.428 0.681-1.09z" opacity=".98228"/>
<path d="m191.5 226.5h-0.545-1.364l-0.546-0.273-0.545-0.272-0.545-0.273-0.546-0.273" opacity=".98228"/>
<path d="m190.41 221.32v-0.545l-0.545-0.546-0.546-0.545v-0.546l-0.273-0.545-0.272-0.546-0.273-0.545" opacity=".98228"/>
<path d="m187.14 215.59c-2.384-2.385-3.738-5.595-5.454-8.455-0.949-1.58-2.685-2.873-3.273-4.636" opacity=".98228"/>
<path d="m161.77 157.77c-2.048-4.096-4.494-1.159-6.273 1.636-0.585 0.919-2.455 5.168-2.455 4.364" opacity=".98228"/>
</g></g>
</svg>
