<?xml version="1.0" encoding="UTF-8" standalone="no"?>
<!-- Created with Inkscape (http://www.inkscape.org/) -->

<svg
   width="200mm"
   height="200mm"
   viewBox="0 0 60.000001 59.999997"
   version="1.1"
   id="svg5"
   inkscape:version="1.1.1 (3bf5ae0d25, 2021-09-20)"
   sodipodi:docname="Ganter.svg"
   xmlns:inkscape="http://www.inkscape.org/namespaces/inkscape"
   xmlns:sodipodi="http://sodipodi.sourceforge.net/DTD/sodipodi-0.dtd"
   xmlns="http://www.w3.org/2000/svg"
   xmlns:svg="http://www.w3.org/2000/svg">
  <sodipodi:namedview
     id="namedview7"
     pagecolor="#ffffff"
     bordercolor="#111111"
     borderopacity="1"
     inkscape:pageshadow="0"
     inkscape:pageopacity="0"
     inkscape:pagecheckerboard="1"
     inkscape:document-units="mm"
     showgrid="false"
     inkscape:zoom="0.35723205"
     inkscape:cx="396.10108"
     inkscape:cy="559.86019"
     inkscape:window-width="1560"
     inkscape:window-height="1020"
     inkscape:window-x="-2"
     inkscape:window-y="233"
     inkscape:window-maximized="1"
     inkscape:current-layer="layer1"
     scale-x="0.3" />
  <defs
     id="defs2" />
  <g
     inkscape:label="Ebene 1"
     inkscape:groupmode="layer"
     id="layer1">
    <g
       id="g854"
       transform="matrix(1.2674012,0,0,1.2005363,-78.485853,-153.09085)">
      <path
         style="fill:#a3a3a2;stroke-width:0.264583"
         d="m 79.327881,177.3562 c -0.07495,-0.12126 0.03185,-0.22048 0.23733,-0.22048 0.205479,0 0.312277,0.0992 0.23733,0.22048 -0.07495,0.12127 -0.181746,0.22049 -0.23733,0.22049 -0.05558,0 -0.162382,-0.0992 -0.23733,-0.22049 z m -7.667484,-0.98036 c -0.09074,-0.23646 -0.157431,-0.56902 -0.148207,-0.73902 0.0092,-0.17 0.130845,-0.0239 0.270268,0.32464 0.139423,0.34855 0.206116,0.6811 0.148206,0.73901 -0.05791,0.0579 -0.179529,-0.0882 -0.270267,-0.32463 z m 1.707994,-0.27641 c 0.01269,-0.30822 0.07539,-0.37092 0.159852,-0.15985 0.07643,0.191 0.06703,0.4192 -0.02089,0.50712 -0.08792,0.0879 -0.150453,-0.0683 -0.138964,-0.34727 z m 2.294216,0.23654 c -0.254662,-0.0666 -0.463021,-0.23552 -0.463021,-0.37549 0,-0.15336 0.210276,-0.14195 0.529167,0.0287 0.291041,0.15576 0.529166,0.33854 0.529166,0.40618 0,0.0676 -0.02976,0.10918 -0.06615,0.0923 -0.03638,-0.0169 -0.274505,-0.0851 -0.529166,-0.15169 z m 25.348273,-0.27233 c -0.0848,-0.22097 -0.025,-0.29507 0.15049,-0.18659 0.16012,0.099 0.39161,0.0174 0.51442,-0.18136 0.16257,-0.26305 0.21207,-0.21231 0.18202,0.18659 -0.0465,0.61702 -0.63167,0.74233 -0.84693,0.18136 z m 2.9175,0.0185 c -0.21886,-0.57034 -0.0993,-0.65319 0.30659,-0.2125 0.18046,0.19591 0.2227,0.42134 0.0939,0.50096 -0.12882,0.0796 -0.30903,-0.0502 -0.40046,-0.28846 z m 0.92543,0.0173 c 0.0127,-0.30823 0.0754,-0.37092 0.15985,-0.15986 0.0764,0.191 0.067,0.4192 -0.0209,0.50712 -0.0879,0.0879 -0.15045,-0.0683 -0.13896,-0.34726 z m 2.00758,0.24253 c -0.31466,-0.31466 -0.18765,-0.50397 0.33812,-0.50397 0.38923,0 0.44577,0.0828 0.23219,0.34018 -0.32727,0.39433 -0.33698,0.39712 -0.57031,0.16379 z m -12.490392,-0.37038 c -0.09592,-0.1552 -0.102947,-0.35364 -0.01561,-0.44097 0.08733,-0.0873 0.158787,-0.0129 0.158787,0.16551 0,0.17836 0.119062,0.25071 0.264583,0.16077 0.145521,-0.0899 0.264583,-0.0374 0.264583,0.11668 0,0.36328 -0.447402,0.36196 -0.672338,-0.002 z m 8.031062,0.10145 c 0.19099,-0.0764 0.4192,-0.067 0.50712,0.0209 0.0879,0.0879 -0.0684,0.15045 -0.34727,0.13897 -0.30822,-0.0127 -0.37092,-0.0754 -0.15985,-0.15986 z m -23.233724,-0.34841 c -0.238467,-0.15411 -0.271101,-0.2581 -0.08176,-0.26054 0.173313,-0.002 0.388699,0.11502 0.478636,0.26054 0.203016,0.32848 0.111422,0.32848 -0.396876,0 z m 17.876385,-0.0776 c 0.09936,-0.26094 0.247303,-0.40778 0.328766,-0.32632 0.08146,0.0815 1.69e-4,0.29496 -0.180652,0.47443 -0.261308,0.25936 -0.291698,0.22897 -0.148114,-0.14811 z m -28.045832,-0.52917 c 0.09936,-0.26093 0.247303,-0.40778 0.328765,-0.32632 0.08146,0.0815 1.68e-4,0.29496 -0.180653,0.47444 -0.261307,0.25936 -0.291698,0.22897 -0.148112,-0.14812 z m 18.016438,-0.0682 c 0.160592,-0.4185 0.619676,-0.52749 0.619676,-0.14712 0,0.12995 -0.17253,0.30248 -0.3834,0.3834 -0.256254,0.0983 -0.334611,0.02 -0.236276,-0.23628 z M 63.646114,174.8102 c 0,-0.21188 0.09922,-0.32391 0.220486,-0.24896 0.121267,0.0749 0.220486,0.2483 0.220486,0.38523 0,0.13693 -0.09922,0.24897 -0.220486,0.24897 -0.121268,0 -0.220486,-0.17336 -0.220486,-0.38524 z m 9.850691,-0.0664 c -0.143585,-0.37708 -0.113194,-0.40747 0.148113,-0.14811 0.180821,0.17947 0.262115,0.39297 0.180653,0.47443 -0.08146,0.0815 -0.229407,-0.0654 -0.328766,-0.32632 z m 6.695172,-0.16805 c 0.162077,-0.19529 0.206421,-0.4525 0.09854,-0.57158 -0.107878,-0.11909 -0.04153,-0.1273 0.147434,-0.0183 0.26471,0.15276 0.272457,0.28396 0.03375,0.57159 -0.170406,0.20533 -0.369359,0.37333 -0.44212,0.37333 -0.07276,0 3.18e-4,-0.15979 0.162393,-0.35508 z m 0.726072,0.0421 c 0.07641,-0.12364 0.24977,-0.1563 0.385236,-0.0726 0.346176,0.21395 0.307196,0.29738 -0.138935,0.29738 -0.21188,0 -0.322716,-0.10116 -0.246301,-0.2248 z m 8.83362,0.0484 c 0,-0.14552 0.112035,-0.26458 0.248968,-0.26458 0.136932,0 0.322553,0.11906 0.412491,0.26458 0.08994,0.14552 -0.02209,0.26459 -0.248968,0.26459 -0.22687,0 -0.412491,-0.11907 -0.412491,-0.26459 z m 8.069792,0 c 0.08994,-0.14552 0.216027,-0.26458 0.280199,-0.26458 0.06417,0 0.116676,0.11906 0.116676,0.26458 0,0.14552 -0.12609,0.26459 -0.280199,0.26459 -0.154109,0 -0.206613,-0.11907 -0.116676,-0.26459 z m 7.011459,0 c -0.23847,-0.15411 -0.2711,-0.2581 -0.0818,-0.26053 0.17331,-0.002 0.3887,0.11501 0.47863,0.26053 0.20302,0.32849 0.11143,0.32849 -0.39687,0 z m 3.43958,-0.0441 c 0,-0.12127 0.11204,-0.22049 0.24897,-0.22049 0.13693,0 0.31029,0.0992 0.38524,0.22049 0.0749,0.12126 -0.0371,0.22048 -0.24897,0.22048 -0.21188,0 -0.38524,-0.0992 -0.38524,-0.22048 z M 65.035075,174.4372 c -0.113975,-0.18441 -0.135774,-0.40675 -0.04844,-0.49409 0.236792,-0.23679 0.494974,0.11147 0.36708,0.49516 -0.08962,0.26886 -0.151942,0.26865 -0.318638,-10e-4 z m 4.990888,-0.58773 c -0.09777,-0.1582 -0.07078,-0.39463 0.05998,-0.52539 0.140611,-0.14061 0.23775,-0.0231 0.23775,0.28764 0,0.6012 -0.04895,0.64028 -0.29773,0.23775 z m 27.398623,-0.26984 c 0,-0.16109 -0.184777,-0.22198 -0.410617,-0.13532 -0.235458,0.0904 -0.341662,0.046 -0.248968,-0.10398 0.251166,-0.4064 0.924168,-0.30785 0.924168,0.13532 0,0.21828 -0.05953,0.39687 -0.132291,0.39687 -0.07276,0 -0.132292,-0.1318 -0.132292,-0.29289 z m -26.026418,-0.29297 c 0.07067,-0.11434 0.300048,-0.20789 0.509741,-0.20789 0.209693,0 0.38126,0.0936 0.38126,0.20789 0,0.11434 -0.229383,0.20789 -0.509741,0.20789 -0.280358,0 -0.451925,-0.0935 -0.38126,-0.20789 z m 30.727652,0.0121 c 0.15375,-0.15375 0.43572,-0.22749 0.6266,-0.16386 0.19816,0.0661 0.0782,0.18598 -0.27954,0.27954 -0.4401,0.11509 -0.5434,0.0807 -0.34706,-0.11568 z m -35.720545,-2.5238 c 0.329119,-0.0633 0.805369,-0.0609 1.058333,0.005 0.252965,0.0662 -0.01631,0.11801 -0.598397,0.11507 -0.582083,-0.003 -0.789054,-0.0571 -0.459936,-0.12041 z m 42.810275,-0.52907 c -0.14358,-0.37708 -0.11319,-0.40747 0.14812,-0.14811 0.18082,0.17948 0.26211,0.39297 0.18065,0.47443 -0.0815,0.0815 -0.22941,-0.0654 -0.32877,-0.32632 z m -39.043047,-3.10577 v -2.76362 l -1.256771,-0.0991 -1.256771,-0.0991 1.389062,-0.0477 1.389063,-0.0477 v 2.91042 c 0,1.60073 -0.05953,2.91041 -0.132292,2.91041 -0.07276,0 -0.132291,-1.24363 -0.132291,-2.76363 z m 15.9821,-1.33741 c 2.65e-4,-2.32833 0.04081,-3.24541 0.08995,-2.03796 0.04914,1.20746 0.04886,3.11246 -5.29e-4,4.23334 -0.04947,1.12087 -0.08967,0.13295 -0.08934,-2.19538 z m -14.457661,3.64933 c 0.329118,-0.0633 0.805368,-0.0609 1.058333,0.005 0.252965,0.0662 -0.01631,0.118 -0.598397,0.11506 -0.582084,-0.003 -0.789055,-0.0571 -0.459936,-0.1204 z m 5.159928,-0.003 c 0.402183,-0.0608 0.997495,-0.0592 1.322917,0.004 0.32542,0.0628 -0.0036,0.11256 -0.731243,0.11058 -0.727604,-0.002 -0.993857,-0.0534 -0.591674,-0.11419 z m 2.311466,-0.009 c 0,-0.10914 0.583943,-0.19843 1.297651,-0.19843 0.713708,0 1.242463,0.0893 1.17501,0.19843 -0.06745,0.10914 -0.651395,0.19844 -1.297651,0.19844 -0.646256,0 -1.17501,-0.0893 -1.17501,-0.19844 z m 10.31875,0.0494 c 0.944031,-0.20837 2.645833,-0.24468 2.645833,-0.0564 0,0.11299 -0.684609,0.19162 -1.521354,0.17474 -0.836745,-0.0169 -1.34276,-0.0701 -1.124479,-0.1183 z m 6.292723,-0.0464 c 0.768863,-0.0536 1.959488,-0.053 2.645833,0.001 0.686345,0.0543 0.05728,0.0982 -1.397931,0.0975 -1.455208,-8e-4 -2.016765,-0.0451 -1.247902,-0.0987 z m 5.420121,0.012 c 0.25744,-0.0671 0.61462,-0.0627 0.79375,0.01 0.17913,0.0725 -0.0315,0.12736 -0.46805,0.12197 -0.43656,-0.005 -0.58313,-0.0647 -0.3257,-0.13177 z m 2.11487,2.7e-4 c 0.25645,-0.0669 0.38688,-0.25008 0.28985,-0.40707 -0.10576,-0.17112 -0.0523,-0.20876 0.13337,-0.094 0.41382,0.25576 0.11877,0.69184 -0.44207,0.65336 -0.39999,-0.0274 -0.39799,-0.0436 0.0189,-0.15231 z M 85.220002,168.9108 c -0.329107,-0.41965 -0.319749,-0.42901 0.0999,-0.0999 0.254662,0.19972 0.463021,0.40808 0.463021,0.46302 0,0.21776 -0.217273,0.0776 -0.562917,-0.36312 z m -4.15994,-2.51355 c -0.0218,-1.2733 0.04965,-2.31532 0.158795,-2.31558 0.10914,-2.7e-4 0.165123,0.74387 0.124406,1.65364 -0.125843,2.81176 -0.241749,3.08268 -0.283201,0.66194 z m 10.383501,-1.38906 c 5.3e-4,-2.03729 0.04194,-2.83575 0.0923,-1.77436 0.05035,1.06139 0.05001,2.72827 -7.94e-4,3.70417 -0.05072,0.9759 -0.09191,0.10748 -0.0915,-1.92981 z m 8.031726,2.9041 c -0.07021,-0.36727 -0.04926,-0.71622 0.04656,-0.77544 0.09582,-0.0592 0.200805,0.24128 0.233304,0.66777 0.07245,0.95088 -0.105585,1.01937 -0.279866,0.10767 z m 3.791021,0.24885 c 0.0127,-0.30822 0.0754,-0.37092 0.15985,-0.15985 0.0764,0.191 0.067,0.4192 -0.0209,0.50712 -0.0879,0.0879 -0.15045,-0.0683 -0.13896,-0.34727 z m -23.459992,-4.34357 c 0,-2.54662 0.03968,-3.58841 0.08818,-2.31511 0.0485,1.27331 0.0485,3.3569 0,4.63021 -0.0485,1.27331 -0.08818,0.23151 -0.08818,-2.3151 z m -11.410224,3.0427 c 0.002,-0.7276 0.05337,-0.99385 0.114185,-0.59167 0.06082,0.40218 0.05919,0.9975 -0.0036,1.32292 -0.0628,0.32542 -0.11256,-0.004 -0.110574,-0.73125 z m 5.215992,-0.33772 c 0,-0.11298 0.47625,-0.16001 1.058333,-0.1045 0.582084,0.0555 1.058334,0.14796 1.058334,0.20543 0,0.0575 -0.47625,0.1045 -1.058334,0.1045 -0.582083,0 -1.058333,-0.0924 -1.058333,-0.20543 z m 11.06197,-1.05134 c -0.04497,-0.10914 -0.01429,-1.15094 0.06816,-2.3151 l 0.149918,-2.11667 0.04852,2.31511 c 0.0438,2.08974 -0.03147,2.68732 -0.266594,2.11666 z m -20.799973,-0.99219 c 0.0054,-0.43656 0.06469,-0.58312 0.131774,-0.32569 0.06708,0.25743 0.06267,0.61462 -0.0098,0.79375 -0.07248,0.17913 -0.127363,-0.0315 -0.121971,-0.46806 z m 33.352065,-0.57926 c 0.254662,-0.0665 0.671381,-0.0665 0.926042,0 0.254662,0.0666 0.0463,0.12101 -0.463021,0.12101 -0.509323,0 -0.717682,-0.0545 -0.463021,-0.12101 z m 6.813022,-0.0905 c 0,-0.14095 0.17859,-0.25628 0.39687,-0.25628 0.21829,0 0.39688,0.0468 0.39688,0.10399 0,0.0572 -0.17859,0.17251 -0.39688,0.25628 -0.21828,0.0838 -0.39687,0.037 -0.39687,-0.10399 z m 1.32292,-0.35617 c 0,-0.0549 0.20836,-0.2633 0.46302,-0.46302 0.41964,-0.32911 0.429,-0.31975 0.0999,0.0999 -0.34564,0.44073 -0.56291,0.58089 -0.56291,0.36313 z m -18.256254,-1.23864 c 0,-0.15411 0.119062,-0.20661 0.264583,-0.11668 0.145521,0.0899 0.264584,0.21603 0.264584,0.2802 0,0.0642 -0.119063,0.11668 -0.264584,0.11668 -0.145521,0 -0.264583,-0.12609 -0.264583,-0.2802 z m 19.091774,-0.24897 c 0,-0.3638 0.0601,-0.51263 0.13345,-0.33073 0.0734,0.18191 0.0734,0.47956 0,0.66146 -0.0734,0.1819 -0.13345,0.0331 -0.13345,-0.33073 z m 1.86189,-0.13229 c 0.005,-0.43656 0.0647,-0.58312 0.13177,-0.32569 0.0671,0.25743 0.0627,0.61462 -0.01,0.79375 -0.0725,0.17913 -0.12737,-0.0315 -0.12197,-0.46806 z m -14.297306,-0.66146 c 0,-0.3638 0.06006,-0.51263 0.133454,-0.33073 0.0734,0.18191 0.0734,0.47956 0,0.66146 -0.0734,0.1819 -0.133454,0.0331 -0.133454,-0.33073 z m 10.739996,-0.96897 c 0.1819,-0.0734 0.47956,-0.0734 0.66146,0 0.1819,0.0734 0.0331,0.13345 -0.33073,0.13345 -0.3638,0 -0.51263,-0.0601 -0.33073,-0.13345 z m -2.77812,-1.8696 c 0.5457,-0.0571 1.43867,-0.0571 1.98437,0 0.5457,0.0571 0.0992,0.10378 -0.99219,0.10378 -1.0914,0 -1.53789,-0.0467 -0.99218,-0.10378 z m -34.792713,-0.24707 c 0.181901,-0.0734 0.479557,-0.0734 0.661458,0 0.181901,0.0734 0.03307,0.13345 -0.330729,0.13345 -0.363802,0 -0.51263,-0.06 -0.330729,-0.13345 z m 16.965729,-2.66904 c -0.329108,-0.41965 -0.319749,-0.42901 0.0999,-0.0999 0.254661,0.19972 0.463021,0.40808 0.463021,0.46302 0,0.21776 -0.217274,0.0776 -0.562917,-0.36312 z m 4.0025,-0.43063 c 0,-0.0549 0.208359,-0.2633 0.463021,-0.46302 0.419645,-0.32911 0.429003,-0.31975 0.0999,0.0999 -0.345644,0.44073 -0.562917,0.58088 -0.562917,0.36312 z m -2.765248,-5.02826 c -0.07984,-0.38097 -0.204594,-0.98087 -0.277225,-1.33311 -0.07263,-0.35224 -0.04286,-0.85825 0.06615,-1.12448 0.130326,-0.31828 0.249502,0.10491 0.347996,1.23575 0.159692,1.8334 0.101005,2.3571 -0.136917,1.22184 z m -2.230715,-3.81003 c -0.03451,-0.96308 0.533503,-2.53064 1.02766,-2.83605 0.175464,-0.10844 0.11928,0.10768 -0.124854,0.48028 -0.244134,0.3726 -0.540136,1.25046 -0.657783,1.95081 -0.176393,1.05005 -0.219361,1.12107 -0.245023,0.40496 z m 2.220105,-0.0576 c 0.313362,-1.06824 0.691526,-1.57217 0.496375,-0.66146 -0.09355,0.43657 -0.287161,0.91282 -0.430247,1.05834 -0.170921,0.17382 -0.193604,0.0377 -0.06613,-0.39688 z m -2.346872,-4.43177 c 0.223586,-0.5457 0.564787,-1.15662 0.758227,-1.35759 0.193439,-0.20097 0.05933,0.24552 -0.298014,0.99219 -0.754897,1.57736 -1.054117,1.81494 -0.460213,0.3654 z m 4.212264,-0.71919 c 0.673921,-0.50972 1.058572,-0.51559 0.551389,-0.008 -0.218281,0.21828 -0.547198,0.39687 -0.730927,0.39687 -0.187492,0 -0.10872,-0.17043 0.179538,-0.38846 z m -0.809326,-0.40529 c 0.08994,-0.14552 0.282583,-0.26458 0.428104,-0.26458 0.145521,0 0.191,0.11906 0.101063,0.26458 -0.08994,0.14552 -0.282583,0.26459 -0.428104,0.26459 -0.145521,0 -0.191,-0.11907 -0.101063,-0.26459 z m 2.310342,-0.52916 c 0,-0.50933 0.05445,-0.71769 0.121002,-0.46302 0.06655,0.25466 0.06655,0.67138 0,0.92604 -0.06655,0.25466 -0.121002,0.0463 -0.121002,-0.46302 z m -0.834244,-0.15434 c 0.0127,-0.30823 0.07539,-0.37092 0.15985,-0.15986 0.07643,0.191 0.06703,0.4192 -0.02088,0.50712 -0.08792,0.0879 -0.150453,-0.0684 -0.138965,-0.34726 z m -0.84839,-2.67458 c -0.199718,-0.24621 -0.224464,-0.36453 -0.05499,-0.26293 0.169471,0.1016 0.365696,0.0352 0.436054,-0.14765 0.07036,-0.18281 0.114721,-0.0645 0.09859,0.26293 -0.03512,0.71266 -0.02408,0.70927 -0.479648,0.14765 z m -2.854618,-0.44093 c 0.275873,-0.23733 2.092698,-0.38068 1.952641,-0.15406 -0.08461,0.1369 -0.583372,0.24891 -1.108358,0.24891 -0.524989,0 -0.904915,-0.0427 -0.844283,-0.0949 z m 2.810928,-0.96051 c 0.07568,-0.28941 0.248909,-0.4574 0.384953,-0.37332 0.145957,0.0902 0.120348,0.3059 -0.06248,0.52619 -0.417362,0.50289 -0.48551,0.47058 -0.322473,-0.15287 z m 1.347441,-0.32048 c 0.246943,-0.24694 0.388056,-0.24694 0.635,0 0.246943,0.24695 0.176389,0.3175 -0.3175,0.3175 -0.49389,0 -0.564444,-0.0705 -0.3175,-0.3175 z m -2.030815,-1.3626 c -0.188113,-0.22666 0.08941,-0.31463 1.051512,-0.33329 1.505141,-0.0292 1.523466,0.008 0.18428,0.37359 -0.711039,0.19413 -1.050412,0.18306 -1.235792,-0.0403 z m -2.546477,-1.23031 c 0.72826,-0.31295 0.98716,-0.31295 0.79375,0 -0.08994,0.14552 -0.424386,0.25621 -0.74322,0.24598 -0.558895,-0.0179 -0.56071,-0.0267 -0.05053,-0.24598 z m -4.101042,-0.64585 c 0,-0.20969 0.107959,-0.44798 0.239909,-0.52953 0.13195,-0.0816 0.177595,0.09 0.101433,0.38126 -0.161558,0.6178 -0.341342,0.69589 -0.341342,0.14827 z m 5.600348,-0.0273 c -0.02426,-0.21188 -0.06394,-0.56556 -0.0882,-0.78595 -0.02982,-0.27097 -0.222559,-0.35254 -0.595312,-0.25194 -0.491773,0.13271 -0.501058,0.11731 -0.0861,-0.14278 0.255815,-0.16035 0.569018,-0.22732 0.696013,-0.14884 0.302006,0.18665 0.541483,1.45283 0.302693,1.60041 -0.101753,0.0629 -0.204848,-0.059 -0.2291,-0.2709 z m -4.012848,-0.22055 c 0,-0.0549 0.201449,-0.2633 0.447664,-0.46302 0.246216,-0.19972 0.364536,-0.22447 0.262935,-0.055 -0.101601,0.16947 -0.03516,0.36843 0.147649,0.44213 0.182807,0.0737 0.06449,0.1434 -0.262935,0.15489 -0.327422,0.0115 -0.595313,-0.0241 -0.595313,-0.079 z m 16.689639,-0.58361 c 0.0127,-0.30822 0.07539,-0.37092 0.159851,-0.15985 0.07643,0.19099 0.06703,0.4192 -0.02088,0.50712 -0.08792,0.0879 -0.150452,-0.0684 -0.138964,-0.34727 z m -11.771225,-0.072 c -0.07695,-0.1245 0.154154,-0.17015 0.513551,-0.10145 0.359399,0.0687 0.653452,0.17057 0.653452,0.22636 0,0.20472 -1.031515,0.0943 -1.167003,-0.12491 z m -4.70344,-0.48355 c 0.190996,-0.0764 0.4192,-0.067 0.507118,0.0209 0.08792,0.0879 -0.06835,0.15045 -0.347265,0.13897 -0.308225,-0.0127 -0.37092,-0.0754 -0.159853,-0.15986 z m -7.602419,-0.50276 c 0.01269,-0.30823 0.07539,-0.37092 0.159853,-0.15986 0.07643,0.191 0.06703,0.4192 -0.02089,0.50712 -0.08792,0.0879 -0.150453,-0.0683 -0.138965,-0.34726 z m 3.369086,-2.14307 c 0.190996,-0.0764 0.419199,-0.067 0.507118,0.0209 0.08792,0.0879 -0.06835,0.15045 -0.347266,0.13896 -0.308224,-0.0127 -0.370919,-0.0754 -0.159852,-0.15985 z m 17.4625,0 c 0.190995,-0.0764 0.419198,-0.067 0.507119,0.0209 0.08792,0.0879 -0.06835,0.15045 -0.347266,0.13896 -0.308226,-0.0127 -0.370919,-0.0754 -0.159853,-0.15985 z m -15.097787,-0.25907 c 0.181902,-0.0734 0.479558,-0.0734 0.661459,0 0.181901,0.0734 0.03307,0.13345 -0.330729,0.13345 -0.363802,0 -0.512631,-0.06 -0.33073,-0.13345 z m 12.170834,0 c 0.181901,-0.0734 0.479557,-0.0734 0.661458,0 0.181901,0.0734 0.03307,0.13345 -0.330729,0.13345 -0.363802,0 -0.51263,-0.06 -0.330729,-0.13345 z m -6.870298,-0.28473 c 0.768863,-0.0536 1.959488,-0.053 2.645833,0.001 0.686345,0.0543 0.05728,0.0982 -1.397931,0.0975 -1.455208,-6.9e-4 -2.016765,-0.0451 -1.247902,-0.0987 z"
         id="path868" />
      <path
         style="fill:#fdcd01;stroke-width:0.264583"
         d="m 84.332643,154.94576 c -4.30021,-4.42459 -8.860562,-15.34699 -10.027307,-24.01619 -0.255297,-1.89693 0.217478,-2.06495 7.24425,-2.57454 5.435404,-0.39419 14.009709,0.14546 15.279687,0.96167 0.737339,0.47388 0.741553,0.90863 0.04386,4.52416 -1.163682,6.03035 -4.295864,13.82944 -7.390709,18.40276 -1.354632,2.00178 -3.161334,3.90182 -3.710138,3.90182 -0.15053,0 -0.79837,-0.53985 -1.439643,-1.19968 z m 2.773193,-3.43053 c 0.268928,-0.32404 0.253349,-0.39687 -0.08489,-0.39687 -1.332804,0 -1.693068,-3.39915 -0.602914,-5.68855 0.346467,-0.7276 0.817767,-1.56104 1.047332,-1.85208 0.394883,-0.50062 0.417849,-0.45617 0.42581,0.82422 0.0094,1.51128 0.736158,2.74766 1.615117,2.74766 0.601774,0 0.620091,-0.17143 0.113089,-1.05834 -0.401416,-0.7022 -0.508029,-2.55308 -0.227777,-3.95434 l 0.169097,-0.84549 0.74203,0.81242 c 0.408117,0.44683 0.918175,0.81241 1.133467,0.81241 0.258413,0 0.128608,-0.26282 -0.381961,-0.77339 -0.690187,-0.69019 -0.773398,-0.95172 -0.773398,-2.43076 v -1.65735 l 0.742082,0.71096 c 0.421796,0.40411 1.043131,0.71096 1.439593,0.71096 0.993137,0 1.107728,-0.39063 0.125402,-0.42748 -1.124789,-0.0422 -1.77791,-0.91991 -1.77791,-2.38927 0,-1.07537 0.04164,-1.14833 0.511773,-0.89673 0.76051,0.40702 2.226675,0.33161 2.811094,-0.14458 0.506161,-0.41242 0.505937,-0.41552 -0.01558,-0.21464 -1.040024,0.40062 -2.29381,0.15998 -3.077257,-0.59061 -1.086549,-1.04098 -1.003083,-1.41369 0.242152,-1.08131 0.808392,0.21577 1.192609,0.17652 1.993836,-0.20369 1.231829,-0.58454 1.138817,-0.7423 -0.216937,-0.36796 -1.273183,0.35154 -2.684989,-0.0156 -3.533595,-0.91889 l -0.591362,-0.62947 1.080309,-0.1449 c 1.018651,-0.13663 2.561252,-0.89631 2.316676,-1.14088 -0.06176,-0.0618 -0.509831,0.086 -0.995709,0.3284 -0.780809,0.38952 -1.039315,0.3993 -2.225762,0.0842 -1.605574,-0.42639 -8.018558,-0.51942 -8.297437,-0.12036 -0.103765,0.14849 -0.516085,0.41382 -0.916268,0.58964 -0.878743,0.38608 -0.968526,1.29996 -0.218094,2.21994 0.471448,0.57796 0.523527,0.5886 0.697145,0.14237 0.363129,-0.9333 5.353083,-0.0697 5.762912,0.99742 0.07129,0.18562 -0.963361,0.27858 -3.100557,0.27858 -2.808665,0 -3.344355,0.0731 -4.307624,0.58824 -1.124756,0.60144 -1.430638,1.00538 -1.21174,1.60019 0.08634,0.2346 0.312155,0.14797 0.746493,-0.28637 0.342492,-0.34249 1.086738,-0.76174 1.65388,-0.93166 1.74491,-0.52278 6.441642,-0.30845 5.555177,0.25352 -0.193638,0.12275 -0.887852,0.23688 -1.542696,0.25361 -0.654844,0.0167 -1.488281,0.12094 -1.852083,0.23157 -0.533466,0.16221 -0.342354,0.24042 0.987652,0.40416 0.907013,0.11166 1.851205,0.3508 2.098207,0.53141 0.412382,0.30154 0.398973,0.3552 -0.164047,0.65652 -0.346056,0.18521 -1.012579,0.26333 -1.530128,0.17934 -0.688181,-0.11168 -1.110093,-0.006 -1.690889,0.42336 -0.663182,0.49031 -0.886405,0.52971 -1.560266,0.27535 -1.009433,-0.38101 -1.034127,0.0196 -0.02692,0.43676 0.617004,0.25557 0.945614,0.23678 1.752103,-0.10019 0.545974,-0.22812 1.238533,-0.41477 1.539031,-0.41477 0.519917,0 0.513498,0.0352 -0.132689,0.72761 -0.373475,0.40018 -0.818559,1.16456 -0.989078,1.69862 -0.37556,1.17626 -0.89561,1.6516 -1.604208,1.4663 -0.710016,-0.18568 -0.902201,0.19623 -0.367717,0.73072 0.732003,0.732 1.695812,0.39326 2.615002,-0.91908 0.617093,-0.88103 1.035114,-1.21115 1.607595,-1.26957 l 0.773655,-0.0789 -0.874334,0.54686 c -1.598972,1.00009 -2.604677,4.05251 -1.867953,5.66945 0.554662,1.21735 0.899023,0.98559 0.899023,-0.60505 0,-1.13524 0.146259,-1.69951 0.60892,-2.34926 0.334907,-0.47033 0.773329,-0.85515 0.974277,-0.85515 0.305232,0 0.300361,0.15556 -0.0296,0.94527 -0.951764,2.27789 -0.937024,5.16413 0.03394,6.64601 0.457882,0.69882 1.481137,0.80963 1.975519,0.21393 z"
         id="path866" />
      <path
         style="fill:#ad9617;stroke-width:0.264583"
         d="m 85.220002,151.44909 c -0.329107,-0.41965 -0.319749,-0.42901 0.0999,-0.0999 0.254662,0.19972 0.463021,0.40808 0.463021,0.46302 0,0.21776 -0.217273,0.0776 -0.562917,-0.36312 z m 0.349915,-2.84428 c 0.0054,-0.43656 0.06469,-0.58312 0.131773,-0.32569 0.06708,0.25743 0.06267,0.61462 -0.0098,0.79375 -0.07249,0.17913 -0.127376,-0.0315 -0.121983,-0.46806 z m -1.353609,-0.55121 c 0.0127,-0.30822 0.07539,-0.37092 0.159851,-0.15985 0.07643,0.19099 0.06703,0.4192 -0.02088,0.50712 -0.08792,0.0879 -0.150452,-0.0684 -0.138964,-0.34727 z m -1.852084,-1.32292 c 0.0127,-0.30822 0.07539,-0.37092 0.159853,-0.15985 0.07643,0.191 0.06703,0.4192 -0.02089,0.50712 -0.08792,0.0879 -0.150453,-0.0683 -0.138965,-0.34727 z m 0,-1.32291 c 0.0127,-0.30823 0.07539,-0.37092 0.159853,-0.15986 0.07643,0.191 0.06703,0.4192 -0.02089,0.50712 -0.08792,0.0879 -0.150453,-0.0684 -0.138965,-0.34726 z m 1.43432,-3.02066 c 0.26339,-0.29105 0.538422,-0.52917 0.611183,-0.52917 0.07276,0 -0.08321,0.23812 -0.346599,0.52917 -0.26339,0.29104 -0.538422,0.52916 -0.611183,0.52916 -0.07276,0 0.08321,-0.23812 0.346599,-0.52916 z m 5.809954,-1.07594 c -0.09592,-0.1552 -0.117655,-0.33893 -0.0483,-0.40829 0.06935,-0.0694 0.196602,0.0576 0.282774,0.28219 0.178906,0.46622 0.02643,0.54823 -0.234474,0.1261 z m 0.474477,-1.70219 c 0.0029,-0.58208 0.05712,-0.78905 0.120407,-0.45993 0.06329,0.32911 0.06088,0.80536 -0.0053,1.05833 -0.06622,0.25296 -0.117999,-0.0163 -0.115062,-0.5984 z m -9.376748,-0.0485 c 0.190996,-0.0764 0.419199,-0.067 0.507118,0.0209 0.08792,0.0879 -0.06835,0.15045 -0.347266,0.13897 -0.308224,-0.0127 -0.370919,-0.0754 -0.159852,-0.15986 z m 1.840428,-0.65758 c 0.153749,-0.15375 0.435721,-0.22748 0.626602,-0.16386 0.19816,0.0661 0.07822,0.18599 -0.279545,0.27955 -0.440094,0.11509 -0.543396,0.0806 -0.347057,-0.11569 z m -0.732486,-0.0553 c 0,-0.0549 0.20836,-0.2633 0.463021,-0.46302 0.419645,-0.32911 0.429004,-0.31975 0.09989,0.0999 -0.345644,0.44073 -0.562916,0.58089 -0.562916,0.36313 z m 1.256771,-1.92742 c 0.181901,-0.0734 0.479557,-0.0734 0.661459,0 0.181901,0.0734 0.03307,0.13345 -0.33073,0.13345 -0.363802,0 -0.51263,-0.0601 -0.330729,-0.13345 z m 7.535863,-0.61852 c 0,-0.50932 0.05445,-0.71768 0.121002,-0.46302 0.06655,0.25466 0.06655,0.67138 0,0.92604 -0.06655,0.25466 -0.121002,0.0463 -0.121002,-0.46302 z m 3.3782,-0.79375 c 0,-0.14552 0.126089,-0.26458 0.280199,-0.26458 0.154109,0 0.206613,0.11906 0.116676,0.26458 -0.08994,0.14552 -0.216027,0.26458 -0.280199,0.26458 -0.06417,0 -0.116676,-0.11906 -0.116676,-0.26458 z M 82.55831,135.3272 c 0.190995,-0.0764 0.419198,-0.067 0.507119,0.0209 0.08792,0.0879 -0.06835,0.15045 -0.347266,0.13896 -0.308225,-0.0127 -0.37092,-0.0754 -0.159853,-0.15985 z m 8.217942,-0.54686 c -0.329107,-0.41965 -0.319749,-0.42901 0.0999,-0.0999 0.44073,0.34564 0.580888,0.56292 0.363125,0.56292 -0.05494,0 -0.2633,-0.20836 -0.463021,-0.46302 z m -6.101275,0.0177 c 0.190994,-0.0764 0.419198,-0.067 0.507119,0.0209 0.08792,0.0879 -0.06835,0.15046 -0.347266,0.13897 -0.308226,-0.0127 -0.370919,-0.0754 -0.159853,-0.15986 z m 6.999957,-1.06094 c 0.257431,-0.0671 0.614619,-0.0627 0.79375,0.01 0.17913,0.0725 -0.03149,0.12736 -0.468056,0.12197 -0.436563,-0.005 -0.583126,-0.0647 -0.325694,-0.13177 z m 1.251735,-0.34582 c -0.238466,-0.15411 -0.2711,-0.25809 -0.08176,-0.26053 0.173312,-0.002 0.388699,0.11501 0.478636,0.26053 0.203015,0.32849 0.111422,0.32849 -0.396876,0 z m -3.638021,-2.03446 c 0.254662,-0.0666 0.671381,-0.0666 0.926042,0 0.254662,0.0666 0.0463,0.121 -0.463021,0.121 -0.509323,0 -0.717682,-0.0545 -0.463021,-0.121 z m -15.126507,-0.50113 c 0.01269,-0.30822 0.07539,-0.37092 0.159852,-0.15985 0.07643,0.191 0.06703,0.4192 -0.02089,0.50712 -0.08792,0.0879 -0.150453,-0.0683 -0.138964,-0.34727 z m 9.834841,-0.55721 c 0.254661,-0.0666 0.67138,-0.0666 0.926041,0 0.254662,0.0665 0.0463,0.121 -0.46302,0.121 -0.509323,0 -0.717683,-0.0545 -0.463021,-0.121 z m -5.423958,-1.84493 c 0.181901,-0.0734 0.479557,-0.0734 0.661458,0 0.181901,0.0734 0.03307,0.13346 -0.330729,0.13346 -0.363802,0 -0.512631,-0.0601 -0.330729,-0.13346 z m 14.039453,-0.006 c 0.190994,-0.0764 0.419198,-0.067 0.507119,0.0209 0.08792,0.0879 -0.06835,0.15046 -0.347266,0.13897 -0.308226,-0.0127 -0.370919,-0.0754 -0.159853,-0.15986 z m -10.202995,-0.26622 c 0.254661,-0.0666 0.67138,-0.0666 0.926041,0 0.254662,0.0665 0.0463,0.121 -0.46302,0.121 -0.509323,0 -0.717683,-0.0545 -0.463021,-0.121 z m 5.820833,0 c 0.254662,-0.0666 0.67138,-0.0666 0.926042,0 0.254661,0.0665 0.0463,0.121 -0.463021,0.121 -0.509323,0 -0.717682,-0.0545 -0.463021,-0.121 z"
         id="path864" />
      <path
         style="fill:#5e5e5d;stroke-width:0.264583"
         d="m 78.326421,175.93152 c 0.141097,-0.1411 0.477546,-0.20969 0.747665,-0.15244 0.363754,0.0771 0.297221,0.14364 -0.256541,0.25654 -0.482817,0.0984 -0.65679,0.0616 -0.491124,-0.1041 z m -10.535168,-0.51559 c 0,-0.16978 0.07834,-0.23034 0.174093,-0.13459 0.09575,0.0958 0.363642,0.0263 0.595313,-0.15434 0.372688,-0.29059 0.379381,-0.27509 0.05809,0.13459 -0.416126,0.5306 -0.827499,0.60732 -0.827499,0.15434 z m -1.852084,-0.28664 c 0,-0.2304 -0.148828,-0.47331 -0.330729,-0.53979 -0.181901,-0.0665 -0.01351,-0.10616 0.374207,-0.0882 0.581276,0.0269 0.652426,0.10229 0.405598,0.42955 -0.164636,0.21828 -0.333029,0.44648 -0.374207,0.50712 -0.04118,0.0606 -0.07487,-0.0783 -0.07487,-0.30869 z m 26.458334,0.006 c 0,-0.22696 0.195434,-0.48766 0.434297,-0.57932 0.378101,-0.14509 0.38779,-0.10595 0.07487,0.30243 -0.197686,0.25799 -0.39312,0.51868 -0.434297,0.57932 -0.04118,0.0606 -0.07487,-0.0755 -0.07487,-0.30244 z m -15.819286,-0.36368 c -0.187638,-0.20361 -0.224431,-0.37019 -0.08176,-0.37019 0.274754,0 0.672499,0.50329 0.515562,0.65238 -0.05095,0.0484 -0.246163,-0.0786 -0.433802,-0.28219 z m 6.911646,0.0383 c 0,-0.21188 0.101161,-0.32271 0.224803,-0.2463 0.12364,0.0764 0.156303,0.24977 0.07258,0.38524 -0.213947,0.34617 -0.297381,0.3072 -0.297381,-0.13894 z m 5.73264,-0.0116 c -0.181158,-0.21828 -0.246764,-0.39687 -0.145791,-0.39687 0.100973,0 0.362183,0.17859 0.580464,0.39687 0.218281,0.21829 0.283885,0.39688 0.145788,0.39688 -0.138097,0 -0.399304,-0.17859 -0.580461,-0.39688 z m 19.212217,0.0839 c 0.0764,-0.12364 0.24977,-0.1563 0.38523,-0.0726 0.34618,0.21394 0.3072,0.29738 -0.13893,0.29738 -0.21188,0 -0.32272,-0.10116 -0.2463,-0.22481 z m -40.378884,-0.21617 c 0,-0.14552 0.126089,-0.26458 0.280198,-0.26458 0.154109,0 0.206614,0.11906 0.116677,0.26458 -0.08994,0.14552 -0.216026,0.26459 -0.280198,0.26459 -0.06417,0 -0.116677,-0.11907 -0.116677,-0.26459 z m 3.792361,-0.12065 c 0,-0.21188 0.101161,-0.32271 0.224802,-0.2463 0.123641,0.0764 0.156302,0.24977 0.07258,0.38524 -0.213949,0.34617 -0.297382,0.30719 -0.297382,-0.13894 z m 22.004514,0.12065 c -0.08994,-0.14552 -0.03743,-0.26458 0.116676,-0.26458 0.154109,0 0.280199,0.11906 0.280199,0.26458 0,0.14552 -0.0525,0.26459 -0.116676,0.26459 -0.06417,0 -0.190262,-0.11907 -0.280199,-0.26459 z m 11.509379,0 c -0.23847,-0.15411 -0.2711,-0.2581 -0.0818,-0.26053 0.17332,-0.002 0.3887,0.11501 0.47864,0.26053 0.20302,0.32849 0.11142,0.32849 -0.39687,0 z m -10.216794,-9.78958 c 0,-1.81901 0.04227,-2.56315 0.09394,-1.65365 0.05167,0.90951 0.05167,2.39779 0,3.3073 -0.05166,0.9095 -0.09394,0.16536 -0.09394,-1.65365 z m 1.567526,1.71979 c 0.0016,-0.87312 0.05088,-1.19841 0.109765,-0.72286 0.05889,0.47555 0.05767,1.18992 -0.0027,1.5875 -0.06037,0.39757 -0.108551,0.008 -0.107067,-0.86464 z m -22.632977,0.99888 c 0.475549,-0.0589 1.189924,-0.0577 1.5875,0.003 0.397576,0.0604 0.0085,0.10855 -0.864634,0.10707 -0.873125,-0.002 -1.198415,-0.0509 -0.722866,-0.10976 z m 27.419305,-3.64471 c 2.7e-4,-2.18281 0.0414,-3.04057 0.0911,-1.90614 0.0497,1.13444 0.0494,2.92038 -7.9e-4,3.96875 -0.0501,1.04838 -0.0908,0.1202 -0.0904,-2.06261 z m -2.785398,1.53671 c -0.213206,-0.26284 -0.232984,-0.36959 -0.0479,-0.25855 0.21922,0.13151 0.346157,-0.15519 0.416795,-0.9414 0.09778,-1.08826 0.103301,-1.0786 0.147799,0.25855 0.02543,0.76399 0.0013,1.38906 -0.05367,1.38906 -0.05494,0 -0.2633,-0.20145 -0.463021,-0.44766 z m -2.007243,-2.59505 c 0.0021,-0.7276 0.05337,-0.99385 0.114187,-0.59167 0.06082,0.40218 0.05919,0.9975 -0.0036,1.32292 -0.0628,0.32542 -0.112559,-0.004 -0.110574,-0.73125 z m -2.965201,-0.81579 c 0.0127,-0.30823 0.07539,-0.37092 0.159851,-0.15986 0.07643,0.191 0.06703,0.4192 -0.02088,0.50712 -0.08792,0.0879 -0.150452,-0.0683 -0.138964,-0.34726 z m -8.355264,-1.69775 -1.058333,-0.18949 1.124479,-0.0375 c 0.618464,-0.0206 1.124479,0.0815 1.124479,0.22703 0,0.14552 -0.02976,0.24769 -0.06614,0.22704 -0.03638,-0.0206 -0.542396,-0.12282 -1.12448,-0.22704 z m 2.217338,-0.0752 c 0.114687,-0.11413 1.567704,-0.17308 3.228925,-0.131 l 3.020404,0.0765 -3.228925,0.131 c -1.775907,0.0721 -3.13509,0.0376 -3.020404,-0.0765 z m 8.176427,-0.12015 c 0.768863,-0.0536 1.959488,-0.0531 2.645833,0.001 0.686345,0.0543 0.05728,0.0982 -1.397931,0.0975 -1.455208,-7.9e-4 -2.016765,-0.0451 -1.247902,-0.0987 z m -8.673973,-4.40244 c 0,-0.0549 0.208359,-0.2633 0.463021,-0.46302 0.419645,-0.32911 0.429003,-0.31975 0.0999,0.0999 -0.345644,0.44073 -0.562917,0.58088 -0.562917,0.36312 z m -5.027083,-12.86469 c 0,-0.14552 0.126089,-0.26458 0.280198,-0.26458 0.154109,0 0.206614,0.11906 0.116677,0.26458 -0.08994,0.14552 -0.216026,0.26459 -0.280199,0.26459 -0.06417,0 -0.116676,-0.11907 -0.116676,-0.26459 z m 3.042708,-2.91041 c 0.08994,-0.14552 0.216027,-0.26459 0.280199,-0.26459 0.06417,0 0.116676,0.11907 0.116676,0.26459 0,0.14552 -0.12609,0.26458 -0.280199,0.26458 -0.154109,0 -0.206613,-0.11906 -0.116676,-0.26458 z m 2.248958,-0.80937 c 0,-0.15411 0.119063,-0.20661 0.264584,-0.11668 0.14552,0.0899 0.264583,0.21603 0.264583,0.2802 0,0.0642 -0.119063,0.11668 -0.264583,0.11668 -0.145521,0 -0.264584,-0.12609 -0.264584,-0.2802 z m 1.455209,-3.68855 c -0.08994,-0.14552 0.02913,-0.26458 0.264583,-0.26458 0.235458,0 0.354521,0.11906 0.264583,0.26458 -0.08994,0.14552 -0.208999,0.26458 -0.264583,0.26458 -0.05558,0 -0.174646,-0.11906 -0.264583,-0.26458 z m -1.5875,-1.5875 c -0.43138,-0.18537 -0.446487,-0.23083 -0.08176,-0.24599 0.246073,-0.0102 0.520991,0.10047 0.610928,0.24599 0.188029,0.30424 0.178835,0.30424 -0.529166,0 z m -6.002735,-1.23907 c 0.190996,-0.0764 0.4192,-0.067 0.507118,0.0209 0.08792,0.0879 -0.06835,0.15046 -0.347265,0.13897 -0.308225,-0.0127 -0.37092,-0.0754 -0.159853,-0.15985 z m 1.306381,-0.25908 c 0.181901,-0.0734 0.479557,-0.0734 0.661458,0 0.181901,0.0734 0.03307,0.13346 -0.330729,0.13346 -0.363802,0 -0.512631,-0.0601 -0.330729,-0.13346 z m 5.357812,-0.23726 c 0,-0.22687 0.121005,-0.3377 0.268899,-0.2463 0.147894,0.0914 0.2004,0.27703 0.116676,0.41249 -0.226809,0.36699 -0.385575,0.29856 -0.385575,-0.16619 z M 80.226669,131.435 c 0,-0.0572 0.184778,-0.17489 0.410617,-0.26156 0.23546,-0.0904 0.341663,-0.046 0.248969,0.10399 -0.155379,0.25141 -0.659586,0.37186 -0.659586,0.15757 z m 4.136083,-0.36849 c -0.07066,-0.11434 0.09216,-0.20789 0.361834,-0.20789 0.269674,0 0.432498,0.0935 0.361834,0.20789 -0.07066,0.11434 -0.23349,0.20789 -0.361834,0.20789 -0.128344,0 -0.291171,-0.0935 -0.361834,-0.20789 z m 13.368192,-0.58586 c 0,-0.36381 0.06006,-0.51263 0.133454,-0.33073 0.0734,0.1819 0.0734,0.47955 0,0.66146 -0.0734,0.1819 -0.133454,0.0331 -0.133454,-0.33073 z m -17.305837,-2.55648 c 0.181901,-0.0734 0.479557,-0.0734 0.661458,0 0.181901,0.0734 0.03307,0.13345 -0.330729,0.13345 -0.363802,0 -0.51263,-0.06 -0.330729,-0.13345 z m 10.335286,-0.006 c 0.190995,-0.0764 0.419198,-0.067 0.507119,0.0209 0.08792,0.0879 -0.06835,0.15045 -0.347265,0.13896 -0.308227,-0.0127 -0.37092,-0.0754 -0.159854,-0.15985 z"
         id="path862" />
      <path
         style="fill:#955815;stroke-width:0.264583"
         d="m 86.841253,155.51638 c 0,-0.0549 0.208359,-0.2633 0.46302,-0.46302 0.419646,-0.32911 0.429004,-0.31975 0.0999,0.0999 -0.345644,0.44073 -0.562917,0.58089 -0.562917,0.36313 z m -8.688536,-19.44935 c 0.18028,-0.28867 0.423015,-0.46601 0.539409,-0.39407 0.116395,0.0719 0.211627,-0.002 0.211627,-0.16502 0,-0.1627 0.119062,-0.22223 0.264583,-0.13229 0.145521,0.0899 0.264583,0.2954 0.264583,0.45659 0,0.16118 -0.07979,0.21327 -0.177317,0.11574 -0.09752,-0.0975 -0.45932,0.007 -0.803992,0.2333 -0.60056,0.3935 -0.613016,0.38874 -0.298893,-0.11425 z m 1.718879,-0.47319 c -0.472642,-0.47264 0.06691,-0.5727 2.855711,-0.5296 2.204432,0.0341 3.123417,0.1475 3.373438,0.41637 0.284289,0.30573 0.278074,0.33208 -0.03599,0.1526 -0.543345,-0.3105 -5.370075,-0.40389 -5.723303,-0.11074 -0.162669,0.13501 -0.374102,0.16712 -0.469854,0.0714 z"
         id="path860" />
      <path
         style="fill:#5f520c;stroke-width:0.264583"
         d="m 89.222503,147.04562 c 0,-0.0572 0.184777,-0.17489 0.410617,-0.26155 0.235458,-0.0904 0.341662,-0.046 0.248968,0.10398 -0.155379,0.25141 -0.659585,0.37186 -0.659585,0.15757 z m -0.2032,-3.07101 c 0,-0.50933 0.05445,-0.71769 0.121002,-0.46302 0.06655,0.25466 0.06655,0.67138 0,0.92604 -0.06655,0.25466 -0.121002,0.0463 -0.121002,-0.46302 z m -4.940599,-4.90321 c -0.282475,-0.21365 -0.38635,-0.38846 -0.230833,-0.38846 0.155514,0 0.430974,0.17859 0.612132,0.39687 0.412009,0.49645 0.2824,0.49359 -0.381299,-0.008 z m 7.988069,0.23006 c 0.181902,-0.0734 0.479558,-0.0734 0.661459,0 0.181901,0.0734 0.03307,0.13345 -0.330729,0.13345 -0.363802,0 -0.512631,-0.06 -0.33073,-0.13345 z m -0.842885,-0.54096 c -0.143584,-0.37709 -0.113194,-0.40748 0.148113,-0.14812 0.180822,0.17948 0.262115,0.39297 0.180653,0.47444 -0.08146,0.0815 -0.229407,-0.0654 -0.328766,-0.32632 z m -7.607245,-2.37497 c 0.190995,-0.0764 0.419198,-0.067 0.507119,0.0209 0.08792,0.0879 -0.06835,0.15045 -0.347265,0.13897 -0.308227,-0.0127 -0.37092,-0.0754 -0.159854,-0.15986 z m -4.183724,-0.8932 c 0,-0.15411 0.119063,-0.20662 0.264584,-0.11668 0.14552,0.0899 0.264583,0.21602 0.264583,0.2802 0,0.0642 -0.119063,0.11667 -0.264583,0.11667 -0.145521,0 -0.264584,-0.12609 -0.264584,-0.28019 z m 6.635721,-0.18283 c 0.429498,-0.68967 0.684419,-0.76358 0.684419,-0.19844 0,0.21829 -0.0585,0.33838 -0.129998,0.26688 -0.0715,-0.0715 -0.308906,0.0178 -0.527576,0.19844 -0.350867,0.28985 -0.354021,0.25849 -0.02684,-0.26688 z m -4.833247,0.0177 c 0.190996,-0.0764 0.4192,-0.067 0.507118,0.0209 0.08792,0.0879 -0.06835,0.15045 -0.347265,0.13896 -0.308225,-0.0127 -0.37092,-0.0754 -0.159853,-0.15985 z m 2.645834,0 c 0.190994,-0.0764 0.419198,-0.067 0.507119,0.0209 0.08792,0.0879 -0.06835,0.15045 -0.347266,0.13896 -0.308226,-0.0127 -0.370919,-0.0754 -0.159853,-0.15985 z m -4.692003,-3.1486 c 0.0127,-0.30822 0.07539,-0.37092 0.159853,-0.15985 0.07643,0.19099 0.06703,0.4192 -0.02089,0.50712 -0.08792,0.0879 -0.150453,-0.0684 -0.138965,-0.34727 z m 3.369086,-1.87848 c 0.190995,-0.0764 0.419198,-0.067 0.507119,0.0209 0.08792,0.0879 -0.06835,0.15046 -0.347266,0.13897 -0.308225,-0.0127 -0.37092,-0.0754 -0.159853,-0.15985 z m -1.5875,-2.11667 c 0.190996,-0.0764 0.419199,-0.067 0.507118,0.0209 0.08792,0.0879 -0.06835,0.15045 -0.347266,0.13896 -0.308224,-0.0127 -0.370919,-0.0754 -0.159852,-0.15985 z m 9.24388,0.006 c 0.181901,-0.0734 0.479557,-0.0734 0.661458,0 0.181902,0.0734 0.03307,0.13345 -0.330729,0.13345 -0.363802,0 -0.51263,-0.06 -0.330729,-0.13345 z"
         id="path858" />
      <path
         style="fill:#100f0b;stroke-width:0.264583"
         d="m 78.176148,177.40146 c -0.378474,-0.15272 -0.449606,-0.61852 -0.09445,-0.61852 0.129952,0 0.304809,0.17859 0.388571,0.39688 0.08376,0.21828 0.126267,0.38747 0.09445,0.37598 -0.03181,-0.0115 -0.20667,-0.0809 -0.388571,-0.15434 z m 1.167916,-0.46844 c -0.08752,-0.22807 -0.341451,-0.41466 -0.564299,-0.41466 -0.222849,0 -0.405179,-0.10256 -0.405179,-0.2279 0,-0.29557 1.282039,-0.0523 1.488981,0.28254 0.08704,0.14083 0.04155,0.37274 -0.101069,0.51536 -0.169364,0.16936 -0.31451,0.11548 -0.418434,-0.15534 z m -16.399675,-1.52606 c 0.2106,-0.61128 0.326883,-1.32565 0.258407,-1.5875 -0.08831,-0.33769 0.02485,-0.4761 0.389202,-0.4761 0.40549,0 0.462481,0.0975 0.27054,0.46302 -0.133742,0.25466 -0.32699,0.96903 -0.429441,1.5875 -0.107378,0.64821 -0.331411,1.12448 -0.528945,1.12448 -0.27412,0 -0.266071,-0.22234 0.04024,-1.1114 z m 2.594872,0.31765 c 0.105091,-0.50933 0.288338,-1.0299 0.407215,-1.15683 0.118878,-0.12693 0.116746,0.20992 -0.0047,0.74856 -0.283819,1.25842 -0.655734,1.63568 -0.402477,0.40827 z m 1.987408,0.0156 c 0,-0.42797 0.11727,-0.85061 0.2606,-0.93919 0.160836,-0.0994 0.200719,0.13834 0.104181,0.62103 -0.123629,0.61814 -0.05347,0.80858 0.334713,0.9085 0.404255,0.10405 0.385827,0.13184 -0.104181,0.1571 -0.489372,0.0252 -0.595313,-0.10778 -0.595313,-0.74744 z m 2.255811,-0.0818 c 0.27633,-1.31142 0.610268,-1.44656 0.563744,-0.22813 -0.0269,0.70457 -0.164768,1.08556 -0.393181,1.08653 -0.257744,0.001 -0.303328,-0.22832 -0.170563,-0.8584 z m 1.552712,-0.6479 c 0.179594,-1.52807 0.304111,-1.8761 0.574492,-1.60572 0.08232,0.0823 0.01484,0.65043 -0.149957,1.26246 -0.164802,0.61202 -0.235895,1.27888 -0.157985,1.48191 0.07791,0.20303 0.0099,0.36915 -0.151055,0.36915 -0.200377,0 -0.236808,-0.47562 -0.115495,-1.5078 z m 0.947689,1.1185 c 0.183228,-0.22078 0.27611,-0.69975 0.206405,-1.06439 -0.06971,-0.36464 -0.03121,-0.66298 0.08554,-0.66298 0.709806,0 0.548481,1.67844 -0.188507,1.96125 -0.364619,0.13991 -0.38167,0.10136 -0.10344,-0.23388 z m 1.329205,-0.22159 c 0,-0.33599 0.174807,-0.84201 0.38846,-1.12448 0.462274,-0.61118 0.506499,-0.41737 0.130453,0.57171 -0.207147,0.54484 -0.190856,0.77616 0.06615,0.93922 0.251833,0.15977 0.219927,0.21739 -0.122038,0.22039 -0.308449,0.003 -0.463021,-0.19989 -0.463021,-0.60684 z m 1.24883,0.27028 c -0.07189,-0.18733 0.02446,-0.69335 0.214108,-1.12448 l 0.34481,-0.78387 -0.04398,1.12311 c -0.04351,1.11124 -0.261996,1.44441 -0.51494,0.78524 z m 1.536147,-0.51929 c 0.215881,-1.02454 0.596043,-1.53375 0.500838,-0.67085 -0.0367,0.33259 -0.07664,0.81306 -0.08877,1.06773 -0.01213,0.25466 -0.150572,0.46302 -0.307655,0.46302 -0.183,0 -0.220513,-0.30893 -0.104417,-0.8599 z m 4.270579,0.68351 c -0.274882,-0.27488 -0.209264,-0.73585 0.180656,-1.2691 0.323519,-0.44243 0.345882,-0.41222 0.238148,0.32182 -0.09193,0.62637 -0.0079,0.8387 0.370559,0.93619 0.429389,0.11062 0.42181,0.12986 -0.06176,0.15678 -0.303169,0.0169 -0.630591,-0.0487 -0.727604,-0.14569 z m 2.288829,-0.94809 c 0.179911,-0.69216 0.330689,-0.93842 0.392173,-0.64053 0.131136,0.63535 -0.158829,1.76501 -0.453049,1.76501 -0.127275,0 -0.09988,-0.50602 0.06088,-1.12448 z m 3.499741,-0.24331 c 0.198449,-0.75227 0.299707,-1.46665 0.225021,-1.5875 -0.07469,-0.12084 0.03909,-0.21971 0.25283,-0.21971 0.335428,0 0.342562,0.19816 0.05212,1.44761 -0.185082,0.79619 -0.273561,1.51056 -0.196623,1.5875 0.07694,0.0769 -0.04777,0.13989 -0.277135,0.13989 -0.372396,0 -0.37841,-0.14638 -0.05621,-1.36779 z m 1.272363,0.70302 c 0.337064,-0.72682 0.700178,-0.86715 0.700178,-0.27058 0,0.21316 -0.225783,0.5084 -0.50174,0.65608 -0.459507,0.24593 -0.476211,0.21348 -0.198438,-0.3855 z m 1.392299,-0.0628 c 0.275878,-1.16004 0.615666,-1.64056 0.514503,-0.7276 -0.04838,0.43656 -0.101531,0.94258 -0.118123,1.12448 -0.01659,0.1819 -0.151498,0.33073 -0.299792,0.33073 -0.159694,0 -0.199075,-0.29666 -0.09659,-0.72761 z m 2.130102,0.55122 c -0.511808,-0.51181 0.208835,-1.95179 0.966988,-1.93223 0.171506,0.004 0.103471,0.1294 -0.151191,0.27773 -0.53237,0.31007 -0.62403,1.45724 -0.132291,1.65566 0.215725,0.0871 0.185057,0.14071 -0.08819,0.15434 -0.230409,0.0115 -0.4983,-0.0585 -0.595312,-0.1555 z m 1.146527,-0.30221 c 0,-0.26323 0.179287,-0.70971 0.398417,-0.99219 0.369811,-0.47671 0.378574,-0.45817 0.122039,0.25821 -0.209597,0.58531 -0.19399,0.82407 0.0646,0.98814 0.251833,0.15977 0.219927,0.21739 -0.12204,0.22039 -0.271817,0.002 -0.46302,-0.19359 -0.46302,-0.47455 z m 1.464156,0.22849 c -0.08502,-0.13756 0.01188,-0.64357 0.2153,-1.12448 l 0.369874,-0.87437 -0.03248,1.12298 c -0.03134,1.08368 -0.229843,1.39826 -0.552696,0.87587 z m 1.285857,-0.60152 c 0.256698,-1.28349 0.584721,-1.40269 0.570158,-0.2072 -0.0087,0.71392 -0.130998,1.05742 -0.376682,1.05799 -0.268681,5.3e-4 -0.319267,-0.22183 -0.193476,-0.85079 z m 1.221877,0.78548 c 0.0019,-0.0364 0.167651,-0.68405 0.368721,-1.43926 0.20107,-0.75522 0.298876,-1.43983 0.217347,-1.52136 -0.08153,-0.0815 0.0036,-0.14823 0.189127,-0.14823 0.215813,0 0.285874,0.21448 0.194453,0.59531 -0.0786,0.32742 -0.223819,1.0418 -0.322712,1.5875 -0.09889,0.5457 -0.285613,0.99219 -0.414938,0.99219 -0.129326,0 -0.233725,-0.0298 -0.231998,-0.0661 z m 1.154224,-0.322 c -0.278622,-0.72607 0.05174,-0.99814 0.368321,-0.30332 0.197715,0.43394 0.215532,0.69147 0.04784,0.69147 -0.146968,0 -0.33424,-0.17467 -0.416161,-0.38815 z m 1.756664,-0.0749 c 0.0058,-0.73842 0.303493,-1.65365 0.537945,-1.65365 0.118391,0 0.106024,0.38087 -0.02748,0.84637 -0.174765,0.60937 -0.151072,0.90459 0.08462,1.05428 0.230794,0.14658 0.190774,0.20911 -0.135671,0.21197 -0.267478,0.002 -0.461494,-0.1915 -0.459409,-0.45897 z m 1.245219,0.12241 c -0.0719,-0.18733 0.0193,-0.69335 0.2027,-1.12448 l 0.3334,-0.78387 -0.0326,1.12298 c -0.0322,1.10903 -0.24934,1.44777 -0.50353,0.78537 z m 1.52439,-0.91616 c 0.10312,-0.69123 0.30024,-1.43537 0.43805,-1.65365 0.16482,-0.26104 0.18584,0.0106 0.0614,0.79375 -0.10403,0.65484 -0.19408,1.39898 -0.20012,1.65365 -0.006,0.25466 -0.11804,0.46302 -0.2489,0.46302 -0.13377,0 -0.15586,-0.55019 -0.0505,-1.25677 z m 1.34258,1.01606 c -0.0818,-0.13239 -0.0988,-0.40028 -0.0377,-0.59531 0.0611,-0.19504 0.1828,-0.68203 0.27049,-1.08221 0.0877,-0.40018 0.26938,-0.72761 0.40378,-0.72761 0.13439,0 0.17536,0.26789 0.091,0.59532 -0.0843,0.32742 -0.16678,0.92273 -0.18325,1.32291 -0.03,0.72849 -0.26506,0.93878 -0.54434,0.4869 z m 1.70503,-0.37018 c 0,-0.33599 0.17476,-0.84201 0.38835,-1.12448 0.35475,-0.46916 0.36649,-0.43465 0.13567,0.39892 -0.18526,0.66904 -0.16533,0.96799 0.0747,1.12043 0.23079,0.14658 0.19078,0.20911 -0.13567,0.21197 -0.30845,0.003 -0.46302,-0.19989 -0.46302,-0.60684 z m 1.24883,0.27028 c -0.0719,-0.18733 0.0245,-0.69335 0.21411,-1.12448 l 0.34481,-0.78387 -0.044,1.12311 c -0.0435,1.11124 -0.26199,1.44441 -0.51494,0.78524 z m 1.45973,-0.72723 c 0.14908,-0.58731 0.32931,-1.00958 0.40051,-0.93838 0.20424,0.20425 -0.19733,2.00622 -0.44709,2.00622 -0.12345,0 -0.10249,-0.48053 0.0466,-1.06784 z m -29.275092,0.0485 c -0.07669,-0.12408 0.0241,-0.44924 0.223961,-0.72257 0.335502,-0.45883 0.352791,-0.44151 0.225263,0.2256 -0.146987,0.76892 -0.226671,0.85707 -0.449224,0.49697 z m 1.034243,-0.43585 c 0,-0.33601 0.0893,-0.55574 0.198438,-0.48829 0.10914,0.0675 0.198437,0.28718 0.198437,0.48829 0,0.2011 -0.0893,0.42083 -0.198437,0.48828 -0.109141,0.0675 -0.198438,-0.15227 -0.198438,-0.48828 z m -10.866816,-0.15172 c 0,-0.28036 0.09355,-0.50974 0.207888,-0.50974 0.114337,0 0.207886,0.17157 0.207886,0.38126 0,0.20969 -0.09355,0.43908 -0.207886,0.50974 -0.114338,0.0707 -0.207888,-0.1009 -0.207888,-0.38126 z m 13.043684,0.002 c 0.09325,-0.3566 0.233003,-0.4566 0.401968,-0.28763 0.273871,0.27387 0.05843,0.83429 -0.320722,0.83429 -0.123309,0 -0.15987,-0.246 -0.08125,-0.54666 z m -15.00916,-0.13033 c 0,-0.22687 0.121005,-0.3377 0.2689,-0.2463 0.147894,0.0914 0.200399,0.27702 0.116676,0.41249 -0.226811,0.36699 -0.385576,0.29856 -0.385576,-0.16619 z m 10.847917,0 c 0,-0.22687 0.119063,-0.33891 0.264583,-0.24897 0.145521,0.0899 0.264584,0.27556 0.264584,0.41249 0,0.13693 -0.119063,0.24897 -0.264584,0.24897 -0.14552,0 -0.264583,-0.18562 -0.264583,-0.41249 z m 6.518902,0.0156 c -0.08376,-0.21828 -0.03697,-0.39688 0.103984,-0.39688 0.140954,0 0.256281,0.1786 0.256281,0.39688 0,0.21828 -0.0468,0.39687 -0.103984,0.39687 -0.05719,0 -0.172516,-0.17859 -0.256281,-0.39687 z m 6.35,0 c -0.08376,-0.21828 -0.03697,-0.39688 0.103984,-0.39688 0.140954,0 0.256281,0.1786 0.256281,0.39688 0,0.21828 -0.04679,0.39687 -0.103984,0.39687 -0.05719,0 -0.172517,-0.17859 -0.256281,-0.39687 z m 18.520832,0 c -0.0838,-0.21828 -0.037,-0.39688 0.10399,-0.39688 0.14095,0 0.25628,0.1786 0.25628,0.39688 0,0.21828 -0.0468,0.39687 -0.10399,0.39687 -0.0572,0 -0.17251,-0.17859 -0.25628,-0.39687 z m -20.981748,-0.51195 c 0.164433,-0.34843 0.390215,-0.57711 0.50174,-0.50818 0.350904,0.21687 0.221581,0.59457 -0.298966,0.87316 -0.457486,0.24484 -0.475369,0.21265 -0.202774,-0.36498 z m 10.229514,0.36405 c 0,-0.15411 0.119063,-0.20662 0.264583,-0.11668 0.145521,0.0899 0.264584,0.21603 0.264584,0.2802 0,0.0642 -0.119063,0.11668 -0.264584,0.11668 -0.14552,0 -0.264583,-0.12609 -0.264583,-0.2802 z m -28.045833,-1.04272 c 0,-0.14552 0.119062,-0.26458 0.264583,-0.26458 0.145521,0 0.264583,0.11906 0.264583,0.26458 0,0.14552 -0.119062,0.26458 -0.264583,0.26458 -0.145521,0 -0.264583,-0.11906 -0.264583,-0.26458 z m -5.341276,-0.18074 c 0.190996,-0.0764 0.419199,-0.067 0.507118,0.0209 0.08792,0.0879 -0.06835,0.15045 -0.347266,0.13896 -0.308224,-0.0127 -0.370919,-0.0754 -0.159852,-0.15985 z m 0.160321,-2.96971 c -1.436386,-0.62362 -2.756545,-3.35511 -2.756545,-5.70345 0,-2.57981 1.229305,-5.27824 2.787121,-6.11799 0.760257,-0.40982 1.37833,-0.41818 4.158191,-0.0563 0.368074,0.0479 0.463021,0.31993 0.463021,1.3265 0,0.69642 -0.09831,1.26622 -0.218463,1.26622 -0.120154,0 -0.498096,-0.29765 -0.83987,-0.66146 -2.006418,-2.13573 -5.110534,0.97453 -4.672888,4.68214 0.268634,2.27578 1.509619,3.91682 2.961979,3.91682 1.34015,0 1.798007,-0.73348 1.658841,-2.65743 -0.07291,-1.00805 -0.2597,-1.70823 -0.495503,-1.85746 -0.257079,-0.16268 0.02463,-0.2408 0.8783,-0.24356 l 1.256771,-0.004 v 2.76882 c 0,2.58652 -0.03854,2.78944 -0.585285,3.08205 -0.743722,0.39803 -3.86974,0.57427 -4.59567,0.2591 z m 42.564912,0.0291 c -0.26286,-0.16707 -3.25271,-6.19434 -3.25271,-6.55717 0,-0.0611 0.18401,-0.11104 0.4089,-0.11104 0.64293,0 1.70777,-1.22982 1.70777,-1.97235 0,-1.01783 -0.87266,-1.73182 -2.11667,-1.73182 h -1.05833 v 4.31271 c 0,3.00155 0.0965,4.40923 0.3175,4.63021 0.24694,0.24694 -0.0323,0.3166 -1.25677,0.31345 -1.09608,-0.003 -1.45372,-0.0803 -1.1774,-0.25494 0.32953,-0.2083 0.39688,-1.08478 0.39688,-5.16497 0,-4.08019 -0.0674,-4.95667 -0.39688,-5.16498 -0.66939,-0.42315 4.11781,-0.31435 5.1503,0.11705 1.08897,0.455 1.72887,1.59371 1.72887,3.07655 0,0.88013 -0.15839,1.24557 -0.79939,1.84436 l -0.7994,0.74674 1.46085,2.96427 c 0.80347,1.63035 1.46086,3.00896 1.46086,3.06358 0,0.18432 -1.45251,0.0929 -1.77438,-0.11165 z m -36.068603,-1.627 c 0.151602,-0.28327 0.944298,-2.3371 1.761547,-4.56406 0.817249,-2.22697 1.563043,-4.13481 1.657321,-4.23966 0.09428,-0.10484 0.814369,1.62156 1.600204,3.83646 0.785835,2.2149 1.590124,4.35451 1.78731,4.75469 l 0.358519,0.72761 h -1.065127 c -0.873601,0 -1.065128,-0.0913 -1.065128,-0.50753 0,-1.13619 -0.269455,-1.34456 -1.73879,-1.34456 -1.164571,0 -1.470115,0.0981 -1.711859,0.54984 -0.161846,0.30242 -0.229303,0.71914 -0.149904,0.92605 0.107868,0.28109 -0.08999,0.3762 -0.782685,0.3762 -0.836581,0 -0.900149,-0.0503 -0.651408,-0.51504 z m 4.122978,-2.82918 c -0.09641,-0.38411 -0.333711,-1.06872 -0.527345,-1.52136 l -0.352061,-0.82297 -0.395686,0.92605 c -0.885741,2.07294 -0.878603,2.11666 0.34553,2.11666 1.061962,0 1.098042,-0.0271 0.929562,-0.69838 z m 4.04766,2.99434 c 0.178543,-0.21513 0.31839,-2.0713 0.363126,-4.81974 l 0.07276,-4.46987 2.38125,2.99815 c 2.667838,3.35899 2.636956,3.36265 2.470975,-0.29231 -0.09309,-2.04976 -0.08965,-2.06219 0.569772,-2.06236 l 0.663419,-1.7e-4 -0.07371,3.77048 c -0.118242,6.04811 0.173549,5.76599 -2.57212,2.48688 l -2.38125,-2.84388 -0.07643,2.42112 c -0.04914,1.5568 0.03326,2.55329 0.230834,2.79135 0.255085,0.30736 0.116542,0.37023 -0.815865,0.37023 -0.90128,0 -1.065772,-0.0691 -0.832758,-0.34988 z m 10.040287,-3.61848 0.0794,-3.96914 h -0.926153 c -0.598252,0 -1.025975,0.16393 -1.208101,0.46302 -0.229113,0.37625 -0.268761,0.28949 -0.211584,-0.46302 l 0.07036,-0.92605 3.108854,-0.0745 3.108854,-0.0745 v 0.85506 c 0,0.66505 -0.07056,0.78451 -0.3175,0.53757 -0.174625,-0.17463 -0.710406,-0.3175 -1.190625,-0.3175 h -0.873125 v 3.65125 c 0,2.48708 0.101233,3.75248 0.3175,3.96875 0.246944,0.24694 0.05586,0.31758 -0.859896,0.31789 l -1.177395,2.7e-4 0.0794,-3.96915 z m 5.363025,3.11021 c 0.13536,-0.47199 0.246112,-2.10988 0.246112,-3.63977 0,-1.52989 -0.110752,-3.16778 -0.246112,-3.63977 l -0.246116,-0.85815 h 2.362782 2.36278 l -0.008,0.99219 c -0.0065,0.80241 -0.05963,0.90362 -0.27773,0.52917 -0.192913,-0.33121 -0.60488,-0.46302 -1.447163,-0.46302 h -1.17748 v 1.32291 c 0,1.32025 0.0019,1.32292 0.873125,1.32292 0.480219,0 1.016,-0.14288 1.190625,-0.3175 0.246944,-0.24694 0.3175,-0.11423 0.3175,0.59722 v 0.91472 l -1.204656,-0.0958 -1.204658,-0.0958 0.08018,1.54911 0.08018,1.54911 1.010652,0.0832 c 0.555858,0.0458 1.180936,-0.0581 1.389063,-0.23083 0.314418,-0.26095 0.37841,-0.17435 0.37841,0.51209 v 0.82615 h -2.36278 -2.362782 z M 83.992092,155.18795 c -0.644022,-0.67214 -1.704972,-2.04758 -2.357665,-3.05655 -1.256177,-1.94184 -4.128652,-7.57093 -4.432377,-8.68596 -0.0991,-0.3638 0.642885,1.01525 1.648849,3.06455 2.747055,5.59619 5.690516,9.63545 7.021471,9.63545 1.828202,0 6.6206,-7.81773 9.163965,-14.94896 0.570902,-1.60073 1.044152,-2.78392 1.051669,-2.62932 0.03374,0.69402 -1.723845,5.29737 -3.145129,8.23751 -1.839987,3.8063 -3.532304,6.49827 -5.218258,8.30069 -1.583166,1.69253 -2.17733,1.70568 -3.732525,0.0826 z m 1.595398,-3.68052 c -1.222981,-0.85661 -1.438722,-3.53675 -0.505198,-6.27605 0.670785,-1.96834 0.466736,-2.27364 -0.72386,-1.08304 -0.829218,0.82921 -1.049467,1.55367 -0.911662,2.99869 0.109001,1.14297 -0.125277,1.37069 -0.564959,0.54914 -0.813192,-1.51947 0.160668,-4.67039 1.774796,-5.74234 0.684117,-0.45433 0.77162,-0.60302 0.431657,-0.73348 -0.234524,-0.09 -0.76948,0.008 -1.188792,0.2167 -0.898295,0.44813 -0.93777,0.3149 -0.24389,-0.8231 0.357936,-0.58704 0.404561,-0.80416 0.15186,-0.70719 -0.200559,0.077 -0.5525,0.6094 -0.78209,1.1832 -0.503755,1.25901 -0.51324,1.38351 -0.0867,1.13805 0.192151,-0.11058 0.238344,-0.0894 0.110243,0.0505 -0.121269,0.13247 -0.349472,0.24086 -0.507118,0.24086 -0.157648,0 -0.341766,0.1654 -0.409152,0.36756 -0.07437,0.2231 -0.005,0.29495 0.176389,0.18282 0.599073,-0.37025 0.280331,0.11105 -0.344808,0.52066 -0.500737,0.32809 -0.765192,0.35676 -1.190625,0.12908 -0.635791,-0.34027 -0.747271,-0.93675 -0.130867,-0.70021 0.722977,0.27743 1.34812,-0.30242 1.965208,-1.82283 0.663168,-1.63394 1.11101,-2.00208 2.185628,-1.79665 0.407943,0.078 0.724789,0.0202 0.724789,-0.13211 0,-0.14886 -0.224687,-0.2119 -0.499306,-0.14008 -0.274619,0.0718 -0.579302,0.001 -0.677074,-0.15707 -0.223144,-0.36105 -1.646563,-0.37863 -1.866328,-0.0231 -0.08994,0.14552 -0.290136,0.26459 -0.444887,0.26459 -0.181509,0 -0.168166,-0.1364 0.0376,-0.38433 0.192247,-0.23164 0.913606,-0.41559 1.815764,-0.46302 1.179041,-0.062 1.515557,-0.17726 1.585158,-0.54298 0.05505,-0.28926 -0.143449,-0.55721 -0.526595,-0.71083 -0.547399,-0.21947 -0.505957,-0.24839 0.377233,-0.26332 0.656267,-0.0111 1.171344,0.16238 1.521354,0.51239 0.65537,0.65537 0.77947,0.66401 0.617058,0.043 -0.108381,-0.41446 0.0027,-0.46983 0.752375,-0.37512 l 0.879525,0.11111 -0.859896,-0.54704 c -1.104215,-0.70246 -1.092131,-1.00484 0.0349,-0.87326 0.492136,0.0574 0.97541,-0.026 1.073949,-0.18542 0.114387,-0.18508 -0.102851,-0.28988 -0.600898,-0.28988 -0.42903,0 -1.050917,-0.21934 -1.381974,-0.48741 l -0.601919,-0.4874 0.837192,-0.16744 c 1.117227,-0.22345 1.075399,-0.63139 -0.05125,-0.49986 -0.553656,0.0646 -1.29227,-0.10229 -1.960097,-0.44299 -0.589407,-0.3007 -1.53317,-0.62052 -2.097251,-0.71072 -0.871556,-0.13937 -1.066793,-0.2956 -1.29983,-1.04014 l -0.274227,-0.87613 2.267739,-0.10367 c 1.247254,-0.057 2.684454,0.004 3.193777,0.13567 0.509323,0.13164 1.580886,0.32803 2.38125,0.43644 l 1.455209,0.1971 -1.271773,0.0389 c -1.234982,0.0378 -1.26056,0.0549 -0.884148,0.59231 0.624184,0.89115 1.543167,1.40953 2.817363,1.58922 l 1.190641,0.16791 -1.009581,0.0353 c -0.555271,0.0195 -1.23988,-0.0879 -1.521354,-0.23854 -0.791123,-0.42339 -0.656905,0.3677 0.230981,1.36142 0.476163,0.53292 1.117171,0.90335 1.785937,1.03208 0.950357,0.18293 0.971167,0.2035 0.233858,0.23122 -0.44513,0.0167 -1.040443,-0.14438 -1.322917,-0.35803 -0.282474,-0.21366 -0.602888,-0.39225 -0.712028,-0.39688 -0.359884,-0.0153 -0.206497,2.118 0.214363,2.98129 0.409731,0.84046 0.409162,0.84224 -0.07627,0.23952 -0.268992,-0.33397 -0.573816,-0.52249 -0.677384,-0.41892 -0.381966,0.38196 -0.175538,2.6597 0.333708,3.68219 0.519637,1.04335 0.519637,1.04528 0,0.42351 -0.28711,-0.34355 -0.522017,-0.79003 -0.522017,-0.99219 0,-0.20216 -0.113668,-0.36756 -0.252595,-0.36756 -0.625666,0 -0.904121,4.76995 -0.312965,5.3611 0.477826,0.47783 0.351549,0.7683 -0.294119,0.67657 -0.767242,-0.10901 -1.354931,-1.78181 -1.145138,-3.25955 l 0.150249,-1.05833 -0.659855,0.79375 c -2.108758,2.53666 -2.593597,6.91229 -0.868225,7.83568 0.436488,0.2336 0.471445,0.33676 0.177247,0.52308 -0.492091,0.31165 -0.555831,0.30308 -1.223362,-0.16448 z m -0.0757,-1.33234 c -0.374611,-0.9853 -0.316344,-3.01222 0.129137,-4.49244 0.212945,-0.70756 0.333571,-1.34008 0.268055,-1.40559 -0.20466,-0.20466 -0.860626,1.62277 -1.058479,2.9488 -0.192413,1.28955 0.255979,3.62791 0.695672,3.62791 0.123007,0 0.107534,-0.3054 -0.03439,-0.67868 z m -1.610464,-6.34217 c 0.297458,-0.50416 0.428205,-0.91665 0.29055,-0.91665 -0.487307,0 -1.319602,2.08718 -1.288251,3.23061 l 0.03112,1.13502 0.212873,-1.26617 c 0.117081,-0.69639 0.456251,-1.67866 0.753708,-2.18281 z m 3.680762,-2.82165 c 0.370483,-0.37048 0.426196,-1.70076 0.08019,-1.9146 -0.130525,-0.0807 -0.219822,0.23301 -0.198438,0.69707 0.03014,0.65406 -0.109831,0.92058 -0.62258,1.18549 -0.593453,0.30661 -0.605695,0.34214 -0.119063,0.34564 0.298318,0.002 0.685271,-0.13897 0.859896,-0.3136 z m 1.215046,-0.62242 c 0.0898,-0.29867 0.01389,-0.74734 -0.168701,-0.99704 -0.284443,-0.389 -0.33197,-0.28474 -0.33197,0.72825 0,1.18361 0.194268,1.2879 0.500671,0.26879 z m -1.73904,-0.61175 c 0.0465,-0.31075 -0.0428,-0.56499 -0.198438,-0.56499 -0.155641,0 -0.282985,0.24186 -0.282985,0.53747 0,0.29561 -0.178593,0.606 -0.396875,0.68976 -0.218281,0.0838 -0.396875,0.27314 -0.396875,0.42085 0,0.49794 1.189808,-0.51264 1.275173,-1.08309 z m -1.127305,0.10488 c 0.282474,-0.21365 0.387519,-0.39225 0.233431,-0.39688 -0.154088,-0.005 -0.511275,0.1664 -0.79375,0.38005 -0.282474,0.21365 -0.387519,0.39225 -0.233431,0.39688 0.154088,0.005 0.511276,-0.1664 0.79375,-0.38005 z m 3.277587,-1.02871 c -0.254754,-0.2348 -0.289962,-0.19401 -0.157104,0.18204 0.09418,0.26656 0.185044,0.62375 0.201924,0.79375 0.01688,0.17 0.08758,0.0881 0.157105,-0.18204 0.06953,-0.27012 -0.02133,-0.6273 -0.201925,-0.79375 z m -2.631705,-6.53594 c 0,-0.15411 -0.108317,-0.21326 -0.240707,-0.13144 -0.355769,0.21988 -1.082209,-0.12261 -1.082209,-0.51022 0,-0.23841 0.365172,-0.30732 1.256771,-0.23713 l 1.25677,0.0989 -1.5875,-0.40585 c -1.096499,-0.28033 -1.751166,-0.32652 -2.116666,-0.14934 -0.505505,0.24504 -0.501851,0.25731 0.08176,0.27442 0.355447,0.0104 0.539271,0.13385 0.439574,0.29516 -0.353243,0.57156 0.126394,1.04566 1.057862,1.04566 0.51389,0 0.934344,-0.12609 0.934344,-0.28019 z m 1.852084,-0.11668 c 0,-0.21828 -0.119063,-0.39688 -0.264584,-0.39688 -0.145521,0 -0.264583,0.1786 -0.264583,0.39688 0,0.21828 0.119062,0.39687 0.264583,0.39687 0.145521,0 0.264584,-0.17859 0.264584,-0.39687 z m -12.41531,7.95832 c -0.447621,-1.39738 -0.806124,-2.6881 -0.796673,-2.86826 0.0095,-0.18016 0.419953,0.91889 0.912227,2.44233 0.492274,1.52344 0.850777,2.81416 0.796673,2.86826 -0.0541,0.0541 -0.464605,-1.04494 -0.912227,-2.44233 z m 4.548991,-0.86563 c 0.257431,-0.0671 0.614618,-0.0627 0.79375,0.01 0.179131,0.0725 -0.03149,0.12736 -0.468056,0.12197 -0.436563,-0.005 -0.583125,-0.0647 -0.325694,-0.13177 z m 15.555176,-1.338 c 0.05418,-0.67438 1.272331,-5.39773 1.287878,-4.99369 0.02275,0.59141 -1.034864,5.19212 -1.193572,5.19212 -0.06064,0 -0.103074,-0.0893 -0.09431,-0.19843 z m -18.536774,-1.17146 c 0,-0.22957 0.169034,-0.55768 0.375631,-0.72914 0.298495,-0.24773 0.363144,-0.22667 0.314821,0.10257 -0.03344,0.22788 -0.202478,0.55599 -0.37563,0.72914 -0.243374,0.24337 -0.314822,0.2201 -0.314822,-0.10257 z m -2.624945,-0.37195 c 0.01269,-0.30822 0.07539,-0.37092 0.159852,-0.15985 0.07643,0.191 0.06703,0.4192 -0.02089,0.50712 -0.08792,0.0879 -0.150453,-0.0683 -0.138964,-0.34727 z m 7.458626,0.23557 c 0.257431,-0.0671 0.614619,-0.0627 0.79375,0.01 0.179131,0.0725 -0.03149,0.12736 -0.468056,0.12197 -0.436563,-0.005 -0.583125,-0.0647 -0.325694,-0.13178 z m 1.97934,-0.25646 c 0.181901,-0.0734 0.479557,-0.0734 0.661458,0 0.181901,0.0734 0.03307,0.13346 -0.330729,0.13346 -0.363802,0 -0.51263,-0.0601 -0.330729,-0.13346 z m 1.794841,-0.72726 c 0.54675,-0.83445 0.575468,-0.8394 0.520371,-0.0897 -0.02447,0.333 -0.247642,0.63483 -0.506478,0.685 -0.437277,0.0848 -0.438039,0.052 -0.01389,-0.59531 z m -11.782862,-1.61105 c -0.180944,-0.95897 -0.275433,-1.79714 -0.209974,-1.86259 0.06546,-0.0655 0.264127,0.66853 0.441484,1.63108 0.177358,0.96256 0.271847,1.80072 0.209975,1.8626 -0.06187,0.0619 -0.260541,-0.67212 -0.441485,-1.63109 z m 5.954998,1.19366 c -0.09269,-0.14998 0.01351,-0.19434 0.248968,-0.10399 0.458369,0.1759 0.542234,0.36554 0.161649,0.36554 -0.136933,0 -0.32171,-0.1177 -0.410617,-0.26155 z m 1.787703,-0.45748 c 0.402183,-0.0608 0.997495,-0.0592 1.322916,0.004 0.325422,0.0628 -0.0037,0.11257 -0.731242,0.11058 -0.727604,-0.002 -0.993858,-0.0534 -0.591674,-0.11419 z m 3.741536,-0.67003 -0.504029,-0.59532 0.595313,0.50403 c 0.559445,0.47366 0.715761,0.6866 0.504028,0.6866 -0.05021,0 -0.318098,-0.26789 -0.595312,-0.59531 z m -6.226319,-0.92604 c -0.329108,-0.41965 -0.319749,-0.42901 0.0999,-0.0999 0.440729,0.34564 0.580887,0.56292 0.363126,0.56292 -0.05494,0 -0.263302,-0.20836 -0.463021,-0.46302 z m 2.679582,-0.0661 c -0.218281,-0.14106 -0.277813,-0.25648 -0.132292,-0.25648 0.145521,0 0.443177,0.11542 0.661459,0.25648 0.218281,0.14106 0.277812,0.25648 0.132291,0.25648 -0.145521,0 -0.443177,-0.11542 -0.661458,-0.25648 z m 15.147973,-1.71979 c 0.0029,-0.58209 0.05712,-0.78906 0.120406,-0.45994 0.06329,0.32912 0.06088,0.80537 -0.0053,1.05834 -0.06622,0.25296 -0.117999,-0.0163 -0.115062,-0.5984 z m -23.568415,-0.6866 c -0.05138,-1.3514 0.588977,-2.23712 1.455443,-2.01312 0.407691,0.1054 0.395225,0.12956 -0.08021,0.15548 -0.793722,0.0433 -1.104669,0.52261 -1.224752,1.88797 l -0.104259,1.18544 z m 5.704053,0.78606 c 0.179476,-0.18082 0.39297,-0.26212 0.474432,-0.18065 0.08146,0.0815 -0.06538,0.2294 -0.32632,0.32876 -0.377083,0.14359 -0.407474,0.1132 -0.148112,-0.14811 z m 17.818528,-1.58842 c -0.0323,-0.66585 -0.599411,-0.99516 -2.159648,-1.25407 -0.918591,-0.15244 -1.148139,-0.24839 -0.639366,-0.26727 1.128673,-0.0419 2.781877,0.46325 2.950001,0.90138 0.07844,0.20442 0.08126,0.52443 0.0063,0.71113 -0.09103,0.22659 -0.143307,0.19628 -0.15725,-0.0912 z m -20.393806,-1.55773 c 1.20322,-0.22372 3.885661,-0.34281 3.682118,-0.16347 -0.06063,0.0534 -1.181805,0.16187 -2.491493,0.241 -1.678294,0.10139 -2.029772,0.0785 -1.190625,-0.0775 z m 14.61823,-0.18553 c 0.400182,-0.0606 1.055026,-0.0606 1.455208,0 0.400182,0.0606 0.07276,0.11022 -0.727604,0.11022 -0.800365,0 -1.127787,-0.0496 -0.727604,-0.11022 z m -8.215466,-0.27188 c 1.265946,-0.0484 3.409071,-0.0486 4.7625,-5e-4 1.353428,0.0481 0.317653,0.0877 -2.301722,0.088 -2.619375,2.6e-4 -3.726726,-0.0391 -2.460778,-0.0875 z"
         id="path856" />
    </g>
  </g>
</svg>
