<svg width="202mm" height="54mm" inkscape:version="1.1.1 (3bf5ae0d25, 2021-09-20)" sodipodi:docname="LogoLeckerladen.svg" version="1.1" viewBox="0 0 202 54" xmlns="http://www.w3.org/2000/svg" xmlns:inkscape="http://www.inkscape.org/namespaces/inkscape" xmlns:sodipodi="http://sodipodi.sourceforge.net/DTD/sodipodi-0.dtd">
 <sodipodi:namedview bordercolor="#111111" borderopacity="1" inkscape:current-layer="layer1" inkscape:cx="396.52813" inkscape:cy="353.55463" inkscape:document-units="mm" inkscape:pagecheckerboard="1" inkscape:pageopacity="0" inkscape:pageshadow="0" inkscape:window-height="991" inkscape:window-maximized="1" inkscape:window-width="1920" inkscape:window-x="-9" inkscape:window-y="-9" inkscape:zoom="0.76791526" pagecolor="#ffffff" showgrid="false"/>
 <g inkscape:groupmode="layer" inkscape:label="Ebene 1">
  <g transform="matrix(1.8463 0 0 1.8463 -36.701 -65.064)" stroke-width=".26458">
   <path d="m35.066 63.579c-0.64601-0.18027-1.2759-0.6208-1.7198-1.2027-0.61653-0.80832-0.70041-1.1609-0.70041-2.9439 0-1.8245 0.07568-2.1248 0.76248-3.0252 1.924-2.5225 6.0198-2.3088 7.373 0.38467 0.53668 1.0682 0.60748 2.6553 0.13933 3.1234-0.25575 0.25575-0.25575 0.43356 0 0.84308 0.46212 0.73997 0.40053 1.701-0.13892 2.1675-1.1158 0.96489-3.5868 1.2473-5.7157 0.65319zm9.1653-0.08515c-1.5727-0.55697-2.3247-1.8343-2.3135-3.9292 0.01603-2.9967 1.4141-4.65 4.0959-4.844 2.3912-0.17296 4.2305 1.0655 4.2229 2.8434-0.0047 1.0908-0.1737 1.4092-0.97074 1.8287-0.90607 0.47692-1.3793 0.36658-2.178-0.50783-0.68749-0.7527-0.77337-0.78031-1.1757-0.37798-0.52706 0.52706-0.54734 0.93391-0.07853 1.5751 0.2713 0.37103 0.53767 0.44188 1.1245 0.29912 1.9773-0.48105 2.1686-0.4752 2.7272 0.08339 0.30544 0.30544 0.55535 0.83982 0.55535 1.1875 0 1.8831-3.1589 2.8513-6.0093 1.8418zm8.6551 0.20666c-0.80036-0.09495-1.604-0.2677-1.7859-0.3839-0.57494-0.36727-0.38601-1.7416 0.33073-2.4058 0.62925-0.58317 0.66146-0.75646 0.66146-3.5592 0-1.6367-0.1092-2.9462-0.24568-2.9462-0.52319 0-1.0772-0.87052-1.0772-1.6926 0-1.0875 0.80144-1.8609 2.3559-2.2737 1.0313-0.27386 1.2442-0.25068 1.8521 0.20169 0.61278 0.45604 0.70105 0.73631 0.81908 2.6009 0.10709 1.6917 0.20789 2.0684 0.52917 1.9778 0.21828-0.06156 1.2924-0.16223 2.3869-0.2237 2.4028-0.13496 3.2576 0.33393 3.2576 1.7871 0 1.0152-0.62496 1.5913-1.7263 1.5913-0.40875 0-0.74318 0.12325-0.74318 0.27389 0 0.58701 0.91224 1.6206 1.733 1.9635 0.9376 0.39176 1.315 1.1472 1.0669 2.1357-0.22158 0.88284-1.0655 1.0244-5.4457 0.91376-0.3638-0.0092-1.0782 0.03479-1.5875 0.09774s-1.5809 0.03677-2.3812-0.05818zm12.607-0.12152c-1.5264-0.42594-2.3735-1.6902-2.5038-3.7371-0.19487-3.0604 1.386-4.9403 4.3057-5.1199 1.3413-0.08253 1.7479 0.0021 2.5248 0.5254 0.50932 0.34307 1.1342 1.0381 1.3887 1.5445 0.53668 1.0682 0.60748 2.6553 0.13933 3.1234-0.25575 0.25575-0.25575 0.43356 0 0.84308 0.46212 0.73997 0.40053 1.701-0.13892 2.1675-1.1158 0.96489-3.5868 1.2473-5.7157 0.65319zm24.795 0.02971c-0.77822-0.25056-1.4179-1.109-1.4179-1.9029 0-0.19113 0.28768-0.77142 0.63928-1.2895 0.62812-0.92558 0.63042-0.95004 0.13229-1.4008-0.70428-0.63736-0.65982-1.9935 0.08833-2.6943 0.82245-0.77043 1.8649-1.1222 3.3245-1.1217 2.6761 9e-4 4.0165 1.4764 4.0173 4.4221 2.65e-4 1.3733 0.08763 1.691 0.52958 1.9275 1.0262 0.54921 0.43829 1.9302-0.97246 2.2843-0.39259 0.09853-1.0217 0.0011-1.5165-0.23488-0.7325-0.3493-0.98544-0.35461-1.8903-0.03967-1.1965 0.41645-1.7657 0.42614-2.9341 0.04994zm3.0801-2.4565c0.35753-0.4308 0.27201-0.48465-0.37524-0.23628-0.23018 0.08833-0.41852 0.26692-0.41852 0.39688 0 0.36598 0.42872 0.27924 0.79375-0.1606zm0.22439-2.9143c0.05125-0.05125 0.01471-0.22017-0.08122-0.37537-0.2998-0.48508-1.1327-0.30934-1.2845 0.27102-0.12745 0.48737-0.06034 0.53204 0.56391 0.37537 0.38972-0.09781 0.75051-0.21978 0.80176-0.27102zm6.4909 5.1872c-2.0916-1.2754-1.8275-5.8259 0.43142-7.4344 0.50419-0.35901 1.3903-0.66234 2.1475-0.73509 1.4684-0.14109 1.7009-0.625 0.56151-1.1685-0.56239-0.26825-0.74566-0.56203-0.80713-1.2939-0.10147-1.2081 0.26445-1.5023 2.1432-1.7232 2.3128-0.27182 2.3019-0.29534 2.3019 4.9909 0 4.4616 6e-3 4.5067 0.66146 5.1143 0.79429 0.73612 0.86829 1.8319 0.14968 2.2165-0.6575 0.35189-2.2864 0.3526-2.9428 0.0013-0.37419-0.20026-0.7172-0.16515-1.2924 0.13229-1.0578 0.54701-2.3565 0.50816-3.3544-0.10034zm2.7858-2.9697c0.77695-0.83395 1.1597-2.0682 0.69643-2.246-0.932-0.35764-2.1598 1.0615-1.8806 2.1737 0.19709 0.78527 0.50261 0.80393 1.1842 0.07232zm8.3718 3.0964c-3.4966-1.0812-3.0577-7.0634 0.59268-8.0772 1.3222-0.36723 1.7167-0.34746 2.9552 0.1481 1.3461 0.53859 2.1271 1.7595 2.1271 3.3251 0 0.64494-0.11808 1.2907-0.2624 1.435-0.17348 0.17348-0.15296 0.55234 0.0606 1.118 0.22879 0.60614 0.24228 0.98346 0.0463 1.2942-0.63713 1.0101-3.4522 1.3961-5.5194 0.75685zm3.2937-2.5319c0-0.14552-0.41672-0.26458-0.92604-0.26458-0.50933 0-0.92605 0.11906-0.92605 0.26458 0 0.14552 0.41672 0.26458 0.92605 0.26458 0.50932 0 0.92604-0.11906 0.92604-0.26458zm-0.79375-2.6458c0-0.14552-0.29766-0.26458-0.66146-0.26458s-0.66146 0.11906-0.66146 0.26458 0.29766 0.26458 0.66146 0.26458 0.66146-0.11906 0.66146-0.26458zm-90.355 5.1101c-0.7658-0.1847-1.1906-0.85038-1.1906-1.8657 0-0.70924 0.15929-0.97842 0.79208-1.3385l0.79208-0.45072 0.0017-2.9766c0.0014-2.4472-0.06771-2.9766-0.38841-2.9766-0.54448 0-1.273-1.515-1.0863-2.259 0.30181-1.2025 0.78801-1.4102 3.2631-1.3936 3.3127 0.02215 4.026 0.36457 4.026 1.9328 0 1.0032-0.22713 1.3566-1.0806 1.6811-0.65832 0.25029-0.68651 0.35448-0.84284 3.115-0.08896 1.5708-0.10099 2.9168-0.02673 2.9911 0.20991 0.20991 0.62684-0.58104 0.63134-1.1977 0.0097-1.3258 2.3411-1.973 3.2981-0.91555 0.38583 0.42634 0.44954 0.90023 0.37174 2.765-0.05164 1.2378-0.2237 2.3802-0.38234 2.5388-0.29532 0.2952-7.1832 0.59001-8.1782 0.35004zm49.974-0.06599c-0.77138-0.32896-1.0269-1.4944-0.50297-2.294 0.22828-0.34839 0.53137-0.63344 0.67353-0.63344 0.55265 0 0.25838-1.6592-0.40297-2.2721-0.89274-0.82736-0.88464-2.0118 0.01863-2.7223 0.85589-0.67324 2.9277-1.0138 3.6027-0.59229 0.34479 0.21532 0.64308 0.22625 0.99755 0.03655 0.9606-0.5141 2.124-0.31528 2.9421 0.50277 1.9983 1.9983-0.0118 5.8895-2.276 4.4059-0.61995-0.40621-0.67598-0.4048-0.83942 0.02111-0.09632 0.25101-0.05153 0.49758 0.09954 0.54793 1.0419 0.34731 1.7031 1.8961 1.1604 2.7183-0.30622 0.46396-4.5353 0.68154-5.4731 0.28158zm10.18 0.07043c-0.88984-0.23635-0.77375-2.2017 0.15102-2.5566 0.34776-0.13345 0.41714-0.68866 0.41714-3.3383 0-3.1724-0.0013-3.1786-0.66376-3.3449-0.6776-0.17007-1.0498-0.96134-0.88102-1.8731 0.17712-0.9569 2.9618-1.9195 3.7937-1.3114 0.48782 0.35659 0.5357 0.74517 0.61278 4.9727 0.07659 4.2007 0.12937 4.6348 0.62839 5.1673 0.62166 0.66349 0.72078 1.8808 0.18097 2.2227-0.36649 0.23214-3.4294 0.2765-4.2393 0.06139zm34.823-0.19352c-0.60007-0.43878-0.33983-1.6416 0.40639-1.8785 0.43108-0.13682 0.52856-0.40062 0.52856-1.4304 0-1.09-0.0904-1.3038-0.66146-1.564-0.51671-0.23543-0.66146-0.49818-0.66146-1.2007 0-1.0496 0.28278-1.3349 1.7092-1.7244 0.85174-0.23258 1.1651-0.20923 1.6749 0.12483 0.56759 0.3719 0.71065 0.37133 1.5058-6e-3 1.5938-0.75632 3.007-0.401 3.8402 0.96555 0.39996 0.65599 0.52854 1.3345 0.52929 2.793 7.9e-4 1.4677 0.0955 1.9628 0.39786 2.0788 0.58264 0.22358 0.52921 1.8744-0.0661 2.044-0.25466 0.07252-2.3247 0.13334-4.6001 0.13516-2.9614 0.0024-4.2695-0.09353-4.6031-0.33744zm5.5463-2.1618c0.55248-0.55248 0.55894-2.4563 9e-3 -2.6673-1.0447-0.40088-2.2108 2.0625-1.2938 2.733 0.61392 0.44891 0.77856 0.44049 1.2848-0.06571zm-32.525-7.2571c-0.1971-0.21828-0.39686-0.87312-0.44391-1.4552l-0.08554-1.0583 2.889-0.06141c1.7047-0.03624 3.0249 0.05134 3.2204 0.21363 0.48156 0.39966 1.4312-0.27024 1.4312-1.0096 0-0.48581 0.14646-0.59781 0.78176-0.59781 0.67879 0 0.79898 0.11326 0.91245 0.8599 0.36185 2.3808 0.36837 3.1462 0.0279 3.2769-0.19184 0.07361-2.1547 0.15522-4.3619 0.18135-3.2748 0.03877-4.079-0.02551-4.3714-0.34937zm-53.705-1.5755c-0.40006-0.77362-0.41502-0.77801-1.4316-0.41935-1.2369 0.43642-1.6173 0.17752-1.6173-1.1007 0-0.82295-0.0537-0.87312-0.93434-0.87312-1.169 0-1.4458-0.58203-0.80658-1.6958 0.43924-0.76534 0.44006-0.82854 0.01404-1.0799-0.24888-0.14685-0.69095-0.45243-0.98238-0.67905-0.49504-0.38497-0.50081-0.4411-0.08786-0.85406 0.2431-0.2431 0.63674-0.55099 0.87476-0.68418 0.39952-0.22358 0.39852-0.29442-0.01306-0.92257-0.6621-1.0105-0.54815-1.477 0.46407-1.8999 0.77858-0.32531 0.92176-0.52381 0.99219-1.3756 0.08553-1.0344 0.27684-1.1334 1.4601-0.7562 0.49754 0.15862 0.61677 0.05994 0.80492-0.66616 0.32835-1.2672 0.95062-1.5485 1.7546-0.7932l0.65378 0.6142 0.34779-0.55691c0.41913-0.67114 0.97232-0.7154 1.4128-0.11304 0.29942 0.40948 0.38299 0.39791 1.0786-0.14928 0.71069-0.55903 0.7736-0.56643 1.0937-0.12872 0.18678 0.25544 0.3396 0.62542 0.3396 0.82219 0 0.25081 0.29659 0.33456 0.99219 0.28016 0.91236-0.07135 0.99903-0.01796 1.0772 0.66374 0.05827 0.50794 0.29741 0.82208 0.75956 0.99779 0.57652 0.21919 0.65138 0.37211 0.51529 1.0526-0.13386 0.66932-0.05468 0.84374 0.49721 1.0952 0.73751 0.33603 0.85665 1.0415 0.25956 1.5371-0.21828 0.18116-0.39688 0.44236-0.39688 0.58046s0.17859 0.42968 0.39688 0.64796c0.56677 0.56677 0.49198 1.0296-0.24431 1.5121-0.58224 0.3815-0.61298 0.49485-0.33438 1.233 0.35719 0.94631 0.02222 1.3073-1.2192 1.3141-0.70104 0.0038-0.73057 0.05217-0.56639 0.9273 0.22096 1.1778-0.37981 1.4839-1.5527 0.79103-0.56113-0.33147-0.84718-0.38617-0.91742-0.17546-0.05613 0.1684-0.32334 0.57567-0.59378 0.90504-0.41741 0.50835-0.5642 0.54862-0.97132 0.26644-0.93106-0.64532-1.1764-0.66084-1.5698-0.09924-0.54585 0.77931-1.0721 0.70532-1.5494-0.21785zm-1.0579-5.0498c0.0936-0.15144 0.41629-0.19723 0.7171-0.10176 0.45827 0.14545 0.51254 0.09358 0.33479-0.31997-0.11667-0.27145-0.40002-1.1782-0.62966-2.0149-0.22964-0.83674-0.56891-1.5214-0.75393-1.5214-0.18502 0-0.3364 0.11906-0.3364 0.26458 0 0.14552 0.11906 0.26458 0.26458 0.26458 0.54545 0 0.23874 0.98517-0.39688 1.2748-0.3638 0.16576-0.65784 0.51229-0.65341 0.77007 0.0076 0.44487 0.02175 0.44516 0.27773 0.0057 0.37143-0.6377 1.3017-0.6059 1.3017 0.04451 0 1.276-0.76875 1.7966-1.3017 0.88154-0.2284-0.39214-0.27092-0.39889-0.27773-0.0441-0.0044 0.23041 0.07133 0.4983 0.16834 0.59531 0.27208 0.27208 1.0953 0.2087 1.2855-0.09896zm2.8897-1.246c-0.20876-0.40018-0.38029-0.88346-0.38118-1.0739-8.96e-4 -0.19049-0.12069-0.27276-0.26621-0.18282-0.65277 0.40344-0.09614 1.9844 0.69868 1.9844 0.24887 0 0.23646-0.17599-0.05129-0.7276zm3.3496-0.3638c-0.27552-0.96381-0.14254-1.4247 0.43473-1.5067 0.32742-0.0465 0.59531-0.20072 0.59531-0.34272 0-0.15383-0.40099-0.18567-0.99219-0.07879-1.2076 0.21832-1.3085 0.29559-0.9084 0.69567 0.1722 0.1722 0.31309 0.65639 0.31309 1.076 0 0.49859 0.11458 0.72087 0.33073 0.64162 0.1819-0.0667 0.28393-0.28498 0.22673-0.48507zm-2.2056-0.81029c-0.0576-0.17281-0.2462-0.36135-0.4191-0.41898-0.19334-0.06445-0.25248 0.05651-0.15359 0.31419 0.18455 0.48094 0.73144 0.581 0.5727 0.10479zm43.913 4.4339c-1.8574-0.66278-2.5772-1.7382-2.5772-3.8505 0-2.8659 1.3173-4.2352 4.0759-4.237 1.4694-9.26e-4 1.62 0.05969 2.5332 1.0196 0.91708 0.96405 0.98445 0.99085 1.2158 0.48378 0.67951-1.4893 3.2422-2.1613 5.2776-1.384 1.5206 0.58072 2.0505 1.544 2.0853 3.7908 0.0302 1.9497 0.37131 2.329 1.5114 1.6805 0.61308-0.34873 0.76033-0.6145 0.76168-1.3747 0.0013-0.74544-0.16752-1.0675-0.80777-1.5409-0.93676-0.69258-0.99256-1.7704-0.1166-2.2525 0.771-0.42438 0.91748-0.70913 0.92199-1.7923 0.0027-0.65535 0.22714-1.237 0.68902-1.7859 0.63006-0.74878 0.8173-0.81405 2.3351-0.81405 1.3734 0 1.7415 0.09983 2.195 0.59531 1.197 1.3078 0.96001 2.9983-0.46012 3.2823l-0.80996 0.16199 0.54102 0.50403c0.98445 0.91716 0.64701 1.892-0.78232 2.2601-0.81892 0.21086-0.93495 0.34849-1.0065 1.1937-0.0697 0.82368 0.0215 1.0042 0.66146 1.3096 0.8564 0.4086 1.0952 1.4026 0.52448 2.1831-0.46092 0.63035-3.1078 0.89032-4.474 0.43942-0.73502-0.24258-1.0605-0.2234-1.6817 0.09911-0.81958 0.4255-1.5482 0.32547-2.2754-0.31237-0.39548-0.34689-0.51625-0.3433-1.0511 0.0313-0.86565 0.60632-2.8913 0.55484-3.5846-0.0911-0.30363-0.28288-0.60758-0.66983-0.67545-0.8599-0.08342-0.23364-0.31031-0.11286-0.70049 0.37292-0.53076 0.6608-1.9747 1.2773-2.9343 1.2528-0.21828-0.0056-0.84449-0.16986-1.3916-0.36508zm5.7091-3.6515c0.46609-0.48858 0.46093-0.52441-0.16577-1.1511l-0.64683-0.64683-0.43564 0.66487c-0.57467 0.87706-1.5941 0.87867-2.1676 0.0034-0.74912-1.1433-2.0262-0.64301-2.0262 0.79375 0 0.99947 0.56551 1.5278 1.4402 1.3454 0.40846-0.08515 1.0768-0.22449 1.4853-0.30964 0.51919-0.10824 0.85537-0.01901 1.1172 0.29651 0.35228 0.42447 0.39076 0.42325 0.64641-0.0204 0.14951-0.25945 0.48831-0.69866 0.7529-0.97601zm3.3477 1.1296c0.21407-0.13538 0.3204-0.31495 0.23631-0.39905-0.20842-0.20843-1.0224 0.12358-1.0224 0.41702 0 0.30157 0.29135 0.29491 0.78609-0.01797zm-0.23953-2.6655c0.71478-0.38254 0.63809-0.78444-0.14969-0.78444-0.48507 0-0.66146 0.14111-0.66146 0.52917 0 0.60456 0.09981 0.63597 0.81114 0.25527zm9.4166-3.5605c-0.39212-0.84542-0.70271-0.84634-0.70271-0.0021 0 0.47418 0.14277 0.66146 0.50427 0.66146 0.4429 0 0.46705-0.08026 0.19844-0.65939zm4.2557 8.7618c-2.0129-0.74653-2.6819-1.8695-2.5305-4.2476 0.1159-1.8202 0.65134-2.7629 1.9841-3.4934 0.7742-0.42434 0.81057-0.5028 0.46303-0.99899-0.20745-0.29617-0.37717-0.73953-0.37717-0.98526 0-0.5619 1.3266-1.6914 2.8-2.384 1.0686-0.5023 1.1636-0.50668 1.8097-0.08331 0.79431 0.52045 0.89249 1.4372 0.21891 2.0439-0.25466 0.22939-0.99422 0.71816-1.6435 1.0862-0.99503 0.56399-1.0989 0.69422-0.66145 0.82907 1.1511 0.35483 1.8593 0.84952 2.4313 1.6982 0.69966 1.0382 0.80225 2.699 0.19772 3.2008-0.36091 0.29952-0.35866 0.38453 0.0213 0.80433 1.4778 1.6329-2.0404 3.5214-4.7134 2.5301zm2.5822-2.5462c0.40271-0.17305 0.24464-0.23087-0.66146-0.24194-0.86151-0.01052-1.0809 0.05635-0.79375 0.24194 0.47101 0.30439 0.74684 0.30439 1.4552 0zm-0.66146-2.6302c0-0.13693-0.10832-0.31591-0.24071-0.39773-0.3419-0.21131-1.1085 0.12552-0.93278 0.40984 0.19471 0.31506 1.1735 0.30496 1.1735-0.01211z" fill="#d6c7ac"/>
   <path d="m35.192 63.581c-2.9614-1.1182-3.5162-5.7933-0.92907-7.8284 2.376-1.869 5.913-0.83188 6.6838 1.9598 0.22131 0.80151 0.19688 1.1927-0.1156 1.8512-0.3521 0.742-0.35191 0.92034 0.0017 1.602 0.47979 0.9248 0.14722 1.6149-1.0699 2.22-1.0244 0.50933-3.4634 0.61357-4.5709 0.19537zm4.4159-1.136c0.70231-0.45964 0.63157-1.0654-0.11105-0.95094-2.4231 0.37338-2.7683 0.36837-3.4059-0.04943-0.69017-0.45222-0.88679-1.3156-0.37205-1.6338 0.16203-0.10014 1.2038-0.25599 2.3151-0.34634l2.0205-0.16427-0.03967-0.86593c-0.05732-1.2512-0.73191-2.1093-1.9436-2.4723-2.0516-0.61468-4.0063 0.53046-4.3892 2.5713-0.21784 1.1612 0.05095 2.5653 0.62625 3.2715 1.0256 1.2589 3.8356 1.5984 5.2996 0.64016zm-4.0767-3.6445c-0.26567-0.69233 0.0075-1.322 0.75481-1.7401 0.6525-0.365 0.79915-0.3649 1.4533 0.0011 0.53835 0.30115 0.7276 0.61084 0.7276 1.1906 0 0.75898-0.04375 0.78612-1.392 0.86368-1.0445 0.06009-1.4299-0.01862-1.5437-0.31527zm9.4026 4.8945c-1.352-0.44103-1.8911-0.88653-2.3825-1.9687-1.0427-2.2966-0.29374-5.2952 1.5934-6.3793 1.8955-1.0889 4.6714-0.49367 5.6828 1.2185 1.1978 2.0277-1.0441 3.8911-2.6269 2.1833-0.88274-0.95249-1.5686-0.75951-1.6711 0.47023-0.10589 1.2702 0.45726 1.6097 1.9912 1.2003 2.4239-0.64698 3.6083 1.512 1.5642 2.8513-0.76134 0.49884-3.1686 0.74495-4.1512 0.42441zm2.7243-0.83591c0.92783-0.25768 1.696-1.0502 1.3516-1.3945-0.08481-0.08481-0.8934-0.08518-1.7968-8.2e-4 -1.5619 0.14585-1.6709 0.11746-2.2177-0.57772-1.1953-1.5196-0.34624-3.8347 1.4064-3.8347 0.65326 0 1.019 0.18432 1.3979 0.70439 0.3412 0.4684 0.65886 0.64847 0.94811 0.53747 1.1895-0.45647-0.15957-2.2529-1.8636-2.4814-2.4718-0.33153-3.9575 1.2943-3.7267 4.078 0.13222 1.5944 0.85602 2.5812 2.1742 2.9643 1.0977 0.31904 1.1951 0.31924 2.3266 5e-3zm5.5012 0.88384c-0.79595-0.0598-1.5996-0.23524-1.7859-0.38986-0.55116-0.45742-0.39074-1.6705 0.32271-2.4403 0.62198-0.67113 0.66146-0.88694 0.66146-3.6162 0-2.8332-0.01566-2.9096-0.65637-3.2015-0.82773-0.37714-1.0662-1.106-0.67268-2.056 0.33784-0.81561 1.0981-1.2522 2.598-1.4921 1.5235-0.24361 2.0125 0.46566 2.1317 3.0917 0.08798 1.9373 0.29598 2.4794 0.70033 1.8251 0.08994-0.14552 1.1501-0.26458 2.3559-0.26458 1.7879 0 2.2731 0.08926 2.6302 0.48385 0.83094 0.91818 0.2825 2.4266-0.88229 2.4266-0.69509 0-1.3257 0.27678-1.3257 0.58189 0 0.49352 1.1033 1.6678 1.9399 2.0647 0.63791 0.30264 0.85739 0.59499 0.91861 1.2236 0.13981 1.4356-0.44541 1.7306-3.3604 1.6937-1.3975-0.0177-2.8981 0.01516-3.3346 0.07298-0.43656 0.05783-1.445 0.05622-2.2409-0.0036zm2.6378-1.2584c0-0.21316-0.23812-0.51501-0.52917-0.67077-0.64349-0.34438-0.6792-0.98317-0.09128-1.6328 0.63954-0.70669 1.4749-0.59329 2.3488 0.31883 0.66042 0.68932 0.72346 0.87565 0.44638 1.3193-0.58609 0.93848-0.39571 1.0817 1.3283 0.99947 1.3233-0.06314 1.6685-0.17052 1.739-0.54102 0.05545-0.2911-0.14395-0.55046-0.53856-0.70049-0.62483-0.23756-2.5869-2.4148-2.5869-2.8706 0-0.45331 1.1912-1.3336 2.0505-1.5154 0.48123-0.10179 0.8599-0.34739 0.8599-0.55773 0-0.29169-0.44906-0.37585-2.0054-0.37585h-2.0054l0.17261 0.7859c0.15132 0.68897 0.06417 0.85201-0.70658 1.3219-0.48356 0.29478-0.99826 0.49703-1.1438 0.44945-0.1499-0.04902-0.32192-1.6254-0.39688-3.637l-0.13229-3.5505-0.98737 0.02975c-1.0553 0.0318-1.7908 0.46751-1.7908 1.061 0 0.20046 0.22355 0.36448 0.49677 0.36448 0.99438 0 1.1363 0.59562 1.0453 4.386-0.08192 3.4128-0.12103 3.6429-0.68222 4.015-0.32742 0.21711-0.59531 0.61835-0.59531 0.89164 0 0.43881 0.21648 0.4969 1.8521 0.4969 1.4501 0 1.8521-0.08411 1.8521-0.38757zm9.9898 1.1281c-2.3987-0.63722-3.5058-4.0063-2.1672-6.595 0.86288-1.6686 3.0323-2.5768 4.9435-2.0696 1.4296 0.37943 2.1854 1.0843 2.7513 2.5663 0.42556 1.1143 0.42455 1.2234-0.01897 2.047-0.44645 0.82901-0.44672 0.90317-0.0056 1.5763 0.44419 0.67792 0.44197 0.73436-0.05512 1.4002-0.9172 1.2285-3.1851 1.6759-5.448 1.0748zm4.248-1.1676c0.70231-0.45964 0.63157-1.0654-0.11105-0.95094-2.4231 0.37338-2.7683 0.36837-3.4059-0.04943-0.69017-0.45222-0.88679-1.3156-0.37205-1.6338 0.16202-0.10014 1.2038-0.25599 2.3151-0.34634l2.0205-0.16427-0.03967-0.86593c-0.08955-1.9548-1.9634-3.1012-4.0481-2.4766-2.1976 0.65842-3.1029 3.8647-1.6391 5.8052 0.97671 1.2948 3.7889 1.6581 5.2803 0.68206zm-4.0767-3.6445c-0.26567-0.69233 0.0075-1.322 0.75481-1.7401 0.6525-0.365 0.79915-0.3649 1.4533 0.0011 0.53835 0.30115 0.7276 0.61084 0.7276 1.1906 0 0.75898-0.04375 0.78612-1.392 0.86368-1.0445 0.06009-1.4299-0.01862-1.5437-0.31527zm24.632 4.8479c-1.5901-0.4741-1.9278-2.0265-0.74624-3.4307 0.63533-0.75505 0.66325-0.86868 0.26783-1.09-1.2941-0.7242-1.0832-2.3808 0.41569-3.2663 1.1117-0.65668 3.8208-0.6831 4.792-0.04674 1.2216 0.8004 1.6205 1.709 1.6205 3.6909 0 1.4546 0.09218 1.8678 0.46302 2.0753 0.64904 0.36322 0.57929 1.4443-0.12502 1.9376-0.74606 0.52256-1.5158 0.5237-2.2587 0.0033-0.52587-0.36833-0.71867-0.36833-1.959 0-1.5363 0.45623-1.3893 0.4487-2.47 0.12649zm3.0477-2.5025c0.18408-0.2218 0.27357-0.46438 0.19888-0.53907-0.18683-0.18683-1.5271 0.44528-1.5271 0.72023 0 0.37763 0.97481 0.24468 1.3282-0.18116zm-0.02447-2.9117c0.32689-0.32 0.32007-0.39186-0.05069-0.53413-0.70805-0.27171-1.3119-0.02443-1.5562 0.63723-0.21476 0.58168-0.18048 0.61228 0.49931 0.44561 0.40144-0.09843 0.89987-0.34535 1.1076-0.5487zm6.6067 5.0917c-1.5707-1.0563-1.8828-4.2629-0.6054-6.2211 0.6205-0.95118 1.9675-1.6389 3.2121-1.64 1.0145-8.99e-4 1.1245-0.06395 1.1245-0.64462 0-0.41137-0.19106-0.70427-0.52945-0.81167-1.1052-0.35077-1.3085-1.9642-0.31253-2.4799 0.24481-0.12677 0.99992-0.31092 1.678-0.40923 1.9422-0.28158 2.0744 0.06574 2.0744 5.4523 0 4.1589 0.0324 4.447 0.52917 4.7129 0.66504 0.35592 0.74581 1.9769 0.11065 2.2206-0.783 0.30047-2.3165 0.16194-2.7721-0.25043-0.41247-0.37328-0.53587-0.36123-1.3438 0.1313-1.1549 0.70409-2.0544 0.68696-3.1655-0.06027zm3.1266-3.339c0.83152-1.2339 0.79651-1.8773-0.10216-1.8773-0.98124 0-1.6745 0.71071-1.6745 1.7167 0 1.514 0.8149 1.5877 1.7766 0.16057zm8.1452 3.6236c-2.332-0.8174-3.1959-3.5288-1.9182-6.0205 1.4227-2.7745 5.6208-2.8957 6.9003-0.19918 0.58546 1.2338 0.55983 2.3822-0.0658 2.9483-0.50047 0.45292-0.50047 0.46658 0 0.96705 0.2792 0.2792 0.50764 0.67773 0.50764 0.88562 0 1.3222-3.2638 2.1759-5.424 1.4187zm3.3073-2.4581c0.63165-0.36108 0.59289-0.37855-0.8599-0.3875-0.83674-0.0052-1.5214 0.09977-1.5214 0.23316 0 0.59531 1.4459 0.68902 2.3812 0.15434zm-1.0144-2.6362c0.0151-0.14024-0.15723-0.37146-0.38293-0.51382-0.46612-0.29402-1.3494 0.2592-1.0883 0.68165 0.19508 0.31566 1.4344 0.17428 1.4712-0.16783zm-39.996 4.9793c-1.1767-0.45946-1.4047-1.9716-0.39688-2.632 0.47779-0.31306 0.66146-0.66884 0.66146-1.2813 0-0.57467-0.21315-1.0332-0.66146-1.423-0.78369-0.68141-0.88062-1.8948-0.19844-2.4841 0.70988-0.61331 2.7021-1.0288 3.3276-0.69404 0.36826 0.19708 0.8118 0.19148 1.5148-0.01914 1.6657-0.49905 3.0478 0.39177 3.3328 2.1481 0.19279 1.188-0.47984 2.5218-1.3865 2.7494-0.57928 0.14539-0.98427 0.03282-2.2571-0.62739-0.09061-0.047-0.22473 0.14393-0.29805 0.42429-0.08874 0.33934 0.12112 0.733 0.62777 1.1776 0.77294 0.67824 0.96747 1.5669 0.50361 2.3006-0.18 0.2847-0.82282 0.41133-2.3111 0.45526-1.1339 0.03347-2.2403-0.0089-2.4586-0.09411zm3.9197-1.2178c0.05562-0.2936-0.14762-0.55167-0.55706-0.70734-0.82968-0.31544-0.99346-0.77873-0.71374-2.019 0.30841-1.3674 1.1016-2.3677 1.8776-2.3677 0.55143 0 0.62426 0.11069 0.56575 0.8599-0.05288 0.67715 0.03427 0.8599 0.4101 0.8599 1.1493 0 1.5248-1.7041 0.58309-2.6458-0.69459-0.6946-1.1179-0.66752-2.0684 0.13229-0.99531 0.8375-1.3193 0.8322-1.646-0.0269-0.17979-0.47289-0.39248-0.63817-0.67949-0.52804-0.22978 0.08817-0.70437 0.23225-1.0547 0.32016-0.78093 0.196-0.85303 1.0566-0.10833 1.2929 0.63452 0.20139 0.85806 0.96138 0.74562 2.535-0.0653 0.91396-0.2136 1.2265-0.67886 1.4306-1.0361 0.45456-0.74682 1.1492 0.52917 1.2707 2.0049 0.19088 2.7012 0.08959 2.7952-0.40659zm6.1345 1.1954c-0.92192-0.35094-1.0906-1.7463-0.26458-2.1884 0.48739-0.26085 0.52917-0.55399 0.52917-3.7135 0-3.2679-0.02536-3.4303-0.53572-3.4303-0.76659 0-1.1884-1.2072-0.68849-1.9703 0.35402-0.5403 1.953-1.2047 2.8992-1.2047 0.80132 0 1.0309 1.0946 1.1724 5.5902 0.12246 3.8905 0.20198 4.5078 0.63073 4.8958 0.55863 0.50556 0.64273 1.4269 0.1731 1.8966-0.32078 0.32078-3.1629 0.41125-3.9158 0.12465zm34.727 0.0088c-0.54508-0.20532-0.39196-1.5628 0.22229-1.9706 0.4083-0.2711 0.57393-0.69952 0.63296-1.6372 0.071-1.1278 0.01-1.2966-0.54563-1.5078-0.83368-0.31696-1.1103-1.4431-0.51585-2.1 0.66257-0.73214 2.4256-0.97101 3.043-0.4123 0.44809 0.40551 0.55529 0.40767 1.2932 0.02605 2.5874-1.338 4.789 0.5533 4.4729 3.8427-0.0981 1.0211-0.0225 1.3782 0.36618 1.73 0.56197 0.50857 0.6448 1.4926 0.15908 1.8899-0.32676 0.26727-8.459 0.39141-9.1281 0.13935zm5.3064-2.0471c0.37608-0.28516 0.46055-0.65906 0.39688-1.7567-0.0946-1.6307-0.45907-1.8757-1.3963-0.93846-0.81272 0.81272-0.9276 2.3682-0.20595 2.7885 0.59067 0.34404 0.63288 0.34077 1.2054-0.09331zm-101.35 1.441c-0.18052-0.28907-0.32823-0.89046-0.32823-1.3364 0-0.67659 0.15333-0.8749 0.92604-1.1978l0.92604-0.38692v-3.0457c0-3.0093-8e-3 -3.0487-0.66471-3.2984-0.96321-0.36621-1.3371-1.3337-0.8826-2.2839 0.3567-0.74569 0.40183-0.75881 2.8731-0.83516 3.0698-0.09484 3.6482 0.03565 3.9757 0.89707 0.40148 1.056 0.04217 1.9298-0.96688 2.3514l-0.89499 0.37395v3.0783c0 2.3105 0.08079 3.0513 0.32393 2.9703 0.17816-0.05939 0.4011-0.48529 0.49542-0.94646 0.25269-1.2355 0.70362-1.6355 1.8439-1.6355 1.488 0 1.8372 0.63756 1.6482 3.0095-0.23654 2.9685 0.03108 2.8113-4.7862 2.8113-3.8644 0-4.1837-0.0374-4.4886-0.52558zm8.2217-2.1773c0.16451-1.9623-0.0075-2.4045-0.87706-2.2555-0.25669 0.04399-0.4272 0.43987-0.48274 1.1208-0.1095 1.3427-0.43505 1.7209-1.4811 1.7209-1.3768 0-1.4757-0.28519-1.4757-4.2539 0-3.8478 0.0724-4.0806 1.3229-4.2536 0.45457-0.06288 0.66146-0.25701 0.66146-0.62066 0-0.48781-0.20163-0.53509-2.5797-0.60489-2.3637-0.06938-2.5797-0.03461-2.5797 0.41527 0 0.29992 0.33464 0.63829 0.8599 0.86948l0.8599 0.37848 0.07377 3.3362c0.08312 3.7588-0.1396 4.7336-1.0815 4.7336-0.79053 0-0.95263 0.16712-0.78476 0.80907 0.12481 0.47728 0.39302 0.51385 3.7693 0.51385h3.6349zm60.632-6.881c-0.07054-0.18586-0.15734-0.8122-0.19289-1.3919l-0.06464-1.054 1.3229 0.06155c0.7276 0.03385 1.442 0.0651 1.5875 0.06944 0.14552 0.0043 0.72648-0.0596 1.291-0.14209 0.74458-0.10879 1.1592-0.02987 1.5098 0.28741 0.44494 0.40266 0.51723 0.40346 0.91068 0.01001 0.23506-0.23506 0.54316-0.42738 0.68466-0.42738 0.1415 0 0.2223-0.19257 0.17954-0.42793-0.09788-0.53872 0.73317-1.1209 1.0803-0.75675 0.1356 0.14225 0.28771 1.0921 0.33801 2.1107l0.0915 1.8521-4.305 0.07334c-3.3036 0.05628-4.3349-0.0053-4.4333-0.26458zm3.0498-0.98377c0-0.13693-0.11906-0.32255-0.26458-0.41249-0.14552-0.08994-0.26458 0.0221-0.26458 0.24897s0.11906 0.41249 0.26458 0.41249 0.26458-0.11204 0.26458-0.24897zm-56.586-0.70644c-0.26408-0.5796-0.43068-0.66245-1.0347-0.5146-1.6395 0.40135-1.7696 0.34832-1.9105-0.77894-0.12627-1.0102-0.17871-1.0621-1.152-1.1421-1.1065-0.09089-1.0606 0.07967-0.54095-2.0122 0.13054-0.52548 0.01154-0.71711-0.66146-1.0651-1.0267-0.53092-1.0324-0.81683-0.02689-1.3368 0.94459-0.48847 0.94614-0.49805 0.23993-1.4898-0.62306-0.87501-0.39125-1.4564 0.63918-1.6031 0.45442-0.0647 0.60404-0.30556 0.70839-1.1404l0.13229-1.0583 1.1001 0.08127c1.0412 0.07692 1.1099 0.03702 1.2817-0.74548 0.22335-1.0169 0.78018-1.2691 1.4546-0.65871 0.51125 0.46267 1.3229 0.3866 1.3229-0.12399 0-0.44366 0.8396-0.31133 1.2063 0.19013 0.31701 0.43353 0.38228 0.42196 1.0249-0.1817 0.71854-0.67502 1.0772-0.56666 1.2583 0.38014 0.083 0.43406 0.27782 0.51522 1.084 0.45157 0.89905-0.07098 0.98283-0.01968 0.98283 0.60186 0 0.48965 0.1937 0.7531 0.69341 0.94309 0.59635 0.22673 0.67112 0.37507 0.53419 1.0597-0.13386 0.66932-0.05468 0.84374 0.49721 1.0952 0.73751 0.33603 0.85665 1.0415 0.25956 1.5371-0.21828 0.18116-0.39688 0.48065-0.39688 0.66555 0 0.18489 0.17859 0.4047 0.39688 0.48846 0.5894 0.22617 0.48046 1.1072-0.19211 1.5538-0.50014 0.33208-0.5461 0.48661-0.30471 1.0245 0.415 0.92466 0.17253 1.2948-0.84815 1.2948-0.87827 0-0.90399 0.03012-0.90399 1.0583 0 0.84467-0.09662 1.0583-0.4786 1.0583-0.26323 0-0.70971-0.17481-0.99219-0.38846-0.72068-0.54509-0.84344-0.50862-1.3073 0.38846-0.44804 0.86641-1.1915 1.0334-1.7271 0.38806-0.2993-0.36064-0.40029-0.34594-0.90934 0.13229-0.75597 0.7102-1.051 0.67866-1.4298-0.15285zm-1.2254-4.6008c0.08994-0.14552 0.45415-0.26458 0.80936-0.26458 0.75991 0 0.75712 0.01039 0.25632-0.95491-0.21424-0.41295-0.4673-1.2695-0.56236-1.9034-0.18055-1.204-0.71497-1.6801-1.2487-1.1125-0.24129 0.25659-0.23722 0.36055 0.01779 0.45406 0.53521 0.19624 0.38064 0.77736-0.33073 1.2435-1.1239 0.73642-0.80384 2.8025 0.43418 2.8025 0.25335 0 0.53422-0.11906 0.62416-0.26458zm-1.0944-0.92456c-0.24131-0.62885 0.5809-1.4145 1.0204-0.97505 0.23502 0.23502 0.2488 0.45012 0.04913 0.76666-0.39576 0.62741-0.87305 0.7204-1.0695 0.20839zm5.0415 0.23479c0.7232-0.27752 0.50931-0.9306-0.24294-0.7418-0.40756 0.10229-0.66146 0.05345-0.66146-0.12725 0-0.1613 0.24186-0.29327 0.53747-0.29327 0.66608 0 0.95547-0.66696 0.51807-1.194-0.43141-0.51981-1.2935-0.49962-1.8946 0.04438-1.2249 1.1085 0.1452 2.9252 1.7435 2.3119zm-1.0367-1.6915c-0.08994-0.14552-0.03743-0.26458 0.11668-0.26458 0.15411 0 0.2802 0.11906 0.2802 0.26458 0 0.14552-0.0525 0.26458-0.11668 0.26458-0.06417 0-0.19026-0.11906-0.2802-0.26458zm3.8365 0.80936c0-0.13693-0.11906-0.32255-0.26458-0.41249-0.14552-0.08994-0.26458-0.39462-0.26458-0.67707 0-0.3753 0.18329-0.51355 0.68086-0.51355 0.5082 0 0.65679-0.11742 0.58595-0.46302-0.07488-0.36534-0.31619-0.44537-1.1439-0.37935-1.2294 0.09806-1.6942 0.43524-1.2342 0.89529 0.17462 0.17462 0.3175 0.65088 0.3175 1.0583 0 0.61383 0.11339 0.74083 0.66146 0.74083 0.3638 0 0.66146-0.11204 0.66146-0.24897zm40.856 3.0625c-1.7096-0.77507-2.5346-2.8034-1.9793-4.8659 0.5733-2.1291 2.2809-3.2543 4.3496-2.8662 1.3037 0.24458 2.5469 1.3395 2.5469 2.2433 0 1.4301-1.343 1.828-2.3318 0.69086-0.31632-0.3638-0.73606-0.66146-0.93275-0.66146-0.59512 0-1.2334 0.91821-1.2334 1.7744 0 1.196 0.52844 1.4947 2.2609 1.2783 2.205-0.2755 2.9624 0.67153 1.5775 1.9725-0.81463 0.7653-3.0294 0.99118-4.2578 0.43424zm6.6105-0.01639c-1.4276-0.62148-1.5977-2.1798-0.36369-3.3326 0.76808-0.7175 0.77811-0.75474 0.24845-0.92285-0.30356-0.09635-0.68442-0.46595-0.84634-0.82133-0.24288-0.53306-0.20086-0.77216 0.24007-1.3661 0.73656-0.99217 1.5856-1.3729 3.0717-1.3775 2.7485-0.0085 3.8941 1.2243 3.8941 4.1901 0 1.8986 0.45423 2.3817 1.5722 1.6719 0.9014-0.57232 1.0648-0.83414 1.0696-1.7136 0.0027-0.49546-0.26762-0.99065-0.81244-1.4883-0.95362-0.871-0.97251-1.8561-0.04341-2.2637 0.35028-0.15367 0.59531-0.494 0.59531-0.82682 0-1.2073 0.35668-2.2392 0.99445-2.877 0.88166-0.88166 3.0945-0.95324 3.9796-0.12873 0.72931 0.67946 0.99342 1.7095 0.63824 2.489-0.50565 1.1098-2.0987 0.97242-2.2701-0.19575-0.12681-0.86397-0.56355-0.58588-0.64609 0.4114-0.0747 0.90276-0.0228 0.99219 0.57642 0.99219 0.83472 0 1.4901 0.64611 1.4901 1.4691 0 0.48044-0.17928 0.6768-0.72761 0.79695-1.3573 0.29742-1.3891 0.33324-1.3891 1.5687 0 1.0424 0.0895 1.2395 0.66146 1.457 0.84097 0.31974 0.93798 1.6855 0.14968 2.1074-0.78035 0.41763-3.7739 0.34008-4.423-0.11459-0.49941-0.3498-0.60156-0.33662-1.0259 0.13229-0.59432 0.65672-1.4752 0.66524-2.2696 0.02194-0.60354-0.48872-0.6349-0.48872-1.5467 0-1.0895 0.58396-1.6941 0.60993-2.8172 0.12102zm2.8221-2.0128c0.49509-0.26496 0.72384-1.049 0.30606-1.049-0.42037 0-1.3852 0.83873-1.2383 1.0764 0.19302 0.31232 0.30352 0.30907 0.93225-0.02741zm-0.30795-2.6671c1.0255-0.35749 1.0184-1.121-0.01146-1.2408-0.56853-0.0661-0.74544 0.06576-0.97616 0.7276-0.31274 0.89712-0.23285 0.93862 0.98763 0.51316zm13.251 4.5751c-2.7797-1.4551-2.6205-6.0197 0.25512-7.3165 2.3743-1.0707 4.9985 0.42672 5.0916 2.9054 0.0509 1.3532-0.50987 1.7187-2.6371 1.7187-1.2345 0-1.6619 0.08931-1.5827 0.33073 0.14706 0.44785 1.3814 0.56414 2.3615 0.22248 1.1106-0.38716 1.8666 0.03708 1.757 0.98594-0.16868 1.4601-3.3311 2.1554-5.2455 1.1533zm2.5855-4.8752c-0.16517-0.503-1.4269-0.56593-1.6132-0.08046-0.12444 0.3243 0.0408 0.41119 0.782 0.41119 0.63336 0 0.90438-0.10784 0.83119-0.33073zm-1.8537-3.3946c-1.1637-0.67777-0.0765-2.2633 2.4324-3.5477 0.91022-0.46595 0.91167-0.46572 1.5214 0.24308 0.94416 1.0977 0.83712 1.3028-1.3741 2.6336-1.7181 1.034-1.8828 1.0769-2.5797 0.671z" fill="#cbaca4"/>
   <path d="m35.666 63.677c-1.9298-0.58481-2.8875-1.9929-2.8875-4.245 0-2.7132 1.3853-4.2679 3.9514-4.4346 2.6275-0.17066 4.4517 1.4981 4.1244 3.7731-0.16724 1.1627-0.17955 1.6581-0.07561 3.0427 0.06424 0.85575-0.02009 0.97123-1.111 1.5214-1.1981 0.60415-2.7109 0.73362-4.0017 0.34244zm3.7402-0.94455c0.48938-0.25307 0.78061-0.61147 0.78061-0.96066 0-0.50379-0.09477-0.53736-0.99219-0.35143-1.7554 0.36369-2.7 0.2583-3.3203-0.37042-0.57293-0.58071-0.57403-0.5963-0.06868-0.97179 0.28654-0.21291 1.1053-0.38321 1.8521-0.38523 2.0689-0.0056 2.5291-0.20085 2.5291-1.0731 0-1.8062-1.1921-2.892-3.175-2.892-2.2445 0-3.4396 1.287-3.4396 3.7042 0 2.5196 1.181 3.6726 3.7835 3.6938 0.69845 0.0057 1.6212-0.1713 2.0505-0.39331zm-3.5779-3.924c-0.48383-0.35379-0.48622-0.40217-0.05245-1.0642 0.78849-1.2034 2.5589-0.82286 2.5589 0.55001 0 0.46723-0.14857 0.60854-0.63982 0.60854-0.3519 0-0.8018 0.06216-0.99978 0.13813s-0.58806-0.02866-0.86684-0.23251zm2.2419 1.9465c0-0.14552-0.23812-0.26458-0.52917-0.26458-0.29104 0-0.52917 0.11906-0.52917 0.26458s0.23812 0.26458 0.52917 0.26458c0.29104 0 0.52917-0.11906 0.52917-0.26458zm6.7745 2.9002c-3.4385-1.029-3.6196-7.1914-0.24904-8.4729 0.9833-0.37385 2.9289-0.2983 3.7904 0.14718 1.6056 0.83028 2.1619 2.8785 1.0024 3.6907-0.82436 0.5774-1.1184 0.52359-2.1663-0.39647l-0.92065-0.80834-0.54376 0.54376c-0.6561 0.6561-0.67918 1.0264-0.11421 1.833 0.43904 0.62682 0.57859 0.63497 2.5563 0.14934 0.88946-0.21841 1.7767 0.45634 1.7767 1.3512 0 1.6563-2.7021 2.6896-5.1318 1.9625zm3.5738-0.93115c0.57926-0.29955 0.77446-0.57062 0.71447-0.99219-0.0869-0.61062-0.47975-0.66441-2.2229-0.30439-1.2208 0.25213-2.342-0.78322-2.3039-2.1274 0.05419-1.9118 2.0172-2.7829 3.0564-1.3563 0.58622 0.80476 1.1342 0.89051 1.4796 0.23151 0.62118-1.1854-0.75932-2.4474-2.6773-2.4474-1.8073 0-2.6988 0.54278-3.2464 1.9766-0.78058 2.0439-0.13108 4.2631 1.4918 5.0971 0.88373 0.45417 2.7557 0.41503 3.7082-0.07752zm4.8744 1.013c-0.86809-0.05583-1.7313-0.22843-1.9182-0.38358-0.56109-0.46566-0.39664-1.6592 0.32158-2.3339 0.63224-0.59396 0.66146-0.75774 0.66146-3.7078 0-3.0354-0.01093-3.0914-0.66146-3.3878-0.51488-0.2346-0.66146-0.49876-0.66146-1.1921 0-1.1102 0.5777-1.6558 2.1206-2.0026 0.94062-0.21146 1.3102-0.18594 1.782 0.12307 0.53833 0.35254 0.59531 0.60033 0.59531 2.5886 0 1.2093 0.06795 2.2667 0.151 2.3498 0.08305 0.08305 0.47-0.01544 0.8599-0.21886 0.72154-0.37644 3.6144-0.51069 4.4117-0.20473 0.24133 0.09261 0.55189 0.46587 0.69013 0.82946 0.35888 0.94393-0.29486 1.854-1.4091 1.9616-0.58921 0.05688-0.89228 0.23843-0.95562 0.57247-0.09982 0.52649 1.1629 2.0244 1.7065 2.0244 0.52778 0 1.16 0.78108 1.16 1.4331 0 1.2012-0.77921 1.527-3.4845 1.4571-1.3577-0.03513-2.7663-6e-3 -3.1301 0.06479-0.3638 0.07076-1.3717 0.08298-2.2398 0.02716zm2.4568-1.3296c0.05081-0.35779-0.08154-0.66029-0.33073-0.75591-0.63603-0.24407-0.4945-1.0971 0.26453-1.5945 0.66323-0.43456 0.70028-0.42521 1.5056 0.38013 0.77222 0.77222 0.80178 0.87026 0.45674 1.515-0.31796 0.59412-0.31579 0.72468 0.01574 0.94541 0.35403 0.23571 3.0321 0.08218 3.4935-0.20028 0.41782-0.25575 0.17142-0.90735-0.4295-1.1358-0.72184-0.27444-2.5471-2.3952-2.5471-2.9595 0-0.4606 1.3326-1.2866 2.0757-1.2866 0.647 0 0.8943-0.33055 0.67495-0.90216-0.1254-0.3268-0.55393-0.41985-1.9191-0.4167-2.0592 0.0047-2.3361 0.14065-2.3079 1.1327 0.01532 0.53791-0.18004 0.86289-0.71574 1.1906-1.0812 0.66149-1.2388 0.20639-1.2435-3.5924-0.0046-3.6415-0.05167-3.7275-1.7406-3.176-0.82613 0.26973-1.0585 0.48636-1.1233 1.0472-0.06555 0.56707 0.03928 0.72431 0.52917 0.79375 0.60141 0.08525 0.61206 0.1451 0.68426 3.8461l0.07334 3.7595-0.66866 0.43812c-0.75986 0.49788-0.88944 1.3543-0.2243 1.4823 0.2444 0.04705 1.1076 0.08555 1.9182 0.08555 1.3279 0 1.4823-0.05908 1.5586-0.5965zm10.234 1.2449c-1.0639-0.34549-1.5457-0.74665-2.2145-1.8438-1.2516-2.0531-0.37315-5.4831 1.6501-6.4432 2.0051-0.95149 4.585-0.27798 5.5048 1.4371 0.53814 1.0034 0.63981 2.6319 0.19225 3.0795-0.2119 0.2119-0.19626 0.55379 0.05739 1.2553 0.41141 1.1377 0.17648 1.6754-0.98121 2.2456-0.95705 0.47136-3.1542 0.61206-4.2089 0.26953zm3.8496-0.91982c0.46453-0.24022 0.78061-0.61519 0.78061-0.92604 0-0.60052-0.42882-0.65295-1.8523-0.22646-1.1631 0.34847-2.4445-0.10833-2.6023-0.92768-0.13584-0.70537 0.40198-0.94704 2.1178-0.95168 1.9826-0.0054 2.3367-0.16877 2.3367-1.0782 0-1.8088-1.191-2.8946-3.175-2.8946-2.2445 0-3.4396 1.287-3.4396 3.7042 0 1.6852 0.51349 2.7064 1.6399 3.2616 1.1055 0.54484 3.1785 0.56408 4.1941 0.03893zm-3.6137-3.9502c-0.44984-0.32893-0.45014-0.37645-0.0065-1.0536 0.36549-0.55781 0.63818-0.69166 1.2782-0.62739 0.8565 0.08601 1.6468 0.93911 1.326 1.4314-0.30464 0.46754-2.068 0.63692-2.5978 0.24954zm2.2776 1.9726c0-0.14552-0.24515-0.26458-0.54478-0.26458s-0.4712 0.11906-0.38126 0.26458c0.08994 0.14552 0.33509 0.26458 0.54478 0.26458s0.38126-0.11906 0.38126-0.26458zm22.238 2.8993c-1.7724-0.40451-2.1625-2.1133-0.79481-3.481 0.44309-0.44309 0.77052-0.82089 0.7276-0.83954-1.7597-0.76508-1.8309-2.3157-0.15331-3.3386 0.6049-0.3688 1.3354-0.53015 2.4035-0.53084 2.8407-0.0018 3.8895 1.0996 3.8895 4.0847 0 1.4441 0.08761 1.7854 0.52917 2.0612 0.70193 0.43836 0.67238 1.3958-0.05887 1.908-0.78661 0.55097-1.6019 0.51932-2.3562-0.09145-0.53435-0.43269-0.71484-0.45647-1.2861-0.16942-1.0075 0.50626-1.8917 0.6273-2.9005 0.39705zm3.1035-2.8558c0.13938-0.41815-0.52276-0.38944-1.1219 0.04865-0.71424 0.52227-0.27444 1.1184 0.46359 0.62834 0.30558-0.2029 0.60181-0.50754 0.65829-0.67699zm-0.61531-2.2026c0.76764-0.34976 0.88055-0.87995 0.23976-1.1258-0.50657-0.19439-1.4179 0.04391-1.4179 0.37076 0 0.12381-0.07227 0.41345-0.1606 0.64363-0.194 0.50554 0.37068 0.55256 1.3388 0.11146zm7.2257 4.92c-2.1666-1.1756-2.0062-5.973 0.24909-7.4507 0.38975-0.25537 1.311-0.525 2.0471-0.59918 1.1098-0.11182 1.3385-0.22395 1.3385-0.65622 0-0.2894-0.28933-0.6656-0.65031-0.84557-1.4338-0.71483-1.1611-2.3401 0.43795-2.6103 0.55336-0.0935 1.191-0.21969 1.4169-0.28043 0.22591-0.06074 0.64263 0.05921 0.92604 0.26655 0.47333 0.34628 0.51822 0.74643 0.55134 4.9145 0.0338 4.2535 0.071 4.5701 0.59531 5.0585 0.61793 0.57569 0.73295 1.5438 0.24176 2.035-0.4538 0.4538-2.336 0.39253-2.8731-0.09353-0.41247-0.37328-0.53587-0.36123-1.3438 0.1313-1.043 0.63585-1.9321 0.67525-2.9368 0.13013zm2.08-2.4341c0.46207-0.30199 1.4203-1.9937 1.4214-2.5095 7e-4 -0.32566-0.20868-0.46302-0.70578-0.46302-1.0352 0-1.6745 0.70596-1.6745 1.849 0 1.2448 0.27688 1.5692 0.9589 1.1235zm8.8307 2.4759c-2.3281-0.83503-3.1196-4.4805-1.4132-6.5085 1.9242-2.2867 5.2336-2.094 6.4286 0.37443 1.1482 2.3718 0.45629 3.3315-2.402 3.3315-1.6451 0-1.8426 0.05042-1.5551 0.39688 0.39791 0.47945 1.3723 0.50894 2.565 0.07764 0.78917-0.28537 0.94294-0.25912 1.4495 0.24745 0.52674 0.52674 0.53764 0.61099 0.15469 1.1954-0.7381 1.1265-3.3308 1.5655-5.2276 0.88519zm2.5135-5.1838c0-0.6103-1.5543-0.53168-1.673 0.08462-0.0771 0.40038 0.056 0.46724 0.79012 0.39688 0.57076-0.05471 0.88286-0.22492 0.88286-0.4815zm-40.249 5.0314c-0.60024-0.24243-1.0341-1.4086-0.71972-1.9347 0.10468-0.17521 0.40598-0.47414 0.66955-0.66429 0.74218-0.53545 0.63836-2.0988-0.18224-2.7442-0.79493-0.62529-0.85913-1.6071-0.15136-2.3149 0.63914-0.63914 2.6655-0.97274 3.4284-0.56443 0.39276 0.2102 0.7119 0.2178 1.0712 0.0255 0.90016-0.48175 2.1124-0.3196 2.8075 0.37554 0.5154 0.51539 0.64943 0.92099 0.64943 1.9652 0 1.1063-0.11098 1.403-0.69714 1.8641-0.8332 0.65539-1.3655 0.68903-2.1549 0.13617-1.2566-0.88016-1.5261 0.34669-0.32299 1.4705 0.9287 0.86754 0.9937 1.3875 0.26458 2.1167-0.4289 0.4289-0.86758 0.52599-2.3151 0.5124-0.98227-0.0092-2.0385-0.11879-2.3473-0.24349zm4.3453-1.1135c0.05423-0.28429-0.22192-0.60664-0.75652-0.8831-0.78437-0.40561-0.83204-0.5091-0.69729-1.5138 0.17422-1.2989 0.94624-2.4151 1.753-2.5345 0.50392-0.07458 0.5776 0.018 0.50262 0.63148-0.11999 0.98173 0.64306 1.4842 1.2826 0.84463 0.52368-0.52368 0.56983-2.1271 0.07827-2.7194-0.47287-0.56978-1.9388-0.4879-2.5071 0.14004-0.62033 0.68546-1.0915 0.67208-1.2768-0.03626-0.13162-0.50331-0.2703-0.54585-1.2624-0.38721-1.3924 0.22265-1.5619 0.32844-1.5619 0.9748 0 0.31132 0.26552 0.62105 0.66146 0.77159 0.60312 0.2293 0.66146 0.39014 0.66146 1.8235 0 1.4047-0.07637 1.6276-0.71754 2.0947-0.62545 0.45561-0.67108 0.57868-0.35555 0.95887 0.52555 0.63325 4.0699 0.49357 4.1956-0.16535zm5.8733 1.1809c-0.9833-0.37431-1.0465-1.443-0.13229-2.2379 0.61589-0.53551 0.66146-0.7427 0.66146-3.0079 0-3.1075-0.16913-3.9186-0.88235-4.2318-0.86685-0.38058-0.80762-1.9874 0.0886-2.4036 1.0386-0.48228 2.2125-0.64844 2.6407-0.37376 0.44488 0.28537 0.74387 3.0616 0.7778 7.2222 0.01802 2.2099 0.0969 2.6555 0.55021 3.1089 1.1729 1.1729 0.3523 2.1258-1.8048 2.0958-0.82635-0.01148-1.681-0.08887-1.8993-0.17196zm34.727 0.02712c-0.57774-0.24971-0.37478-1.3807 0.33073-1.843 0.55679-0.36482 0.66146-0.63882 0.66146-1.7316 0-1.1279-0.0867-1.3377-0.66146-1.5995-0.51129-0.23296-0.66146-0.49985-0.66146-1.1756 0-0.96854 0.36425-1.2679 1.8916-1.5544 0.78457-0.14718 1.0234-0.08281 1.3331 0.35929 0.37479 0.53509 0.38233 0.53526 1.156 0.02528 1.0237-0.67482 2.5056-0.6632 3.3825 0.02654 0.85964 0.67619 1.3345 2.3536 1.1031 3.8966-0.14995 0.99999-0.0955 1.2263 0.37393 1.5552 0.72167 0.50547 0.71256 1.5718-0.0167 1.9621-0.3555 0.19026-1.1678 0.24298-2.1828 0.14167-0.88914-0.08874-1.7357-0.15243-1.8812-0.14154-1.9888 0.14879-4.5694 0.19096-4.8286 0.07891zm5.2429-1.9602c0.41067-0.21979 0.51177-0.56116 0.51177-1.7281 0-1.7293-0.46878-2.0997-1.4687-1.1604-0.80205 0.75349-0.91137 2.4535-0.18497 2.8766 0.58091 0.33835 0.53279 0.33785 1.1419 0.01188zm-101.2 1.3556c-0.68409-0.75591-0.44679-1.8798 0.50799-2.406l0.79375-0.43747 0.1489-6.1536-0.80205-0.41476c-0.68708-0.3553-0.80205-0.56416-0.80205-1.457 0-1.3941 0.39732-1.5635 3.4939-1.4898 2.8636 0.06811 3.3853 0.31454 3.3853 1.5991 0 0.94648-0.40151 1.4757-1.1196 1.4757-0.62665 0-0.65898 0.13326-0.8518 3.5107-0.142 2.4873-0.10775 2.8703 0.26959 3.0151 0.52032 0.19966 0.8984-0.32206 0.90396-1.2474 0.0053-0.88246 0.4611-1.3097 1.3973-1.3097 1.5474 0 1.7818 0.34153 1.7818 2.5963 0 3.2266 3e-3 3.2246-4.7365 3.2246-3.5164 0-3.9591-0.05123-4.3705-0.50577zm7.9957-0.3409c0.18895-0.18895 0.3175-1.0995 0.3175-2.249v-1.9315h-0.78176c-0.69766 0-0.7995 0.10673-0.94666 0.99219-0.2618 1.5753-0.32214 1.6536-1.2736 1.6536-1.4105 0-1.4948-0.27794-1.2861-4.2375l0.18709-3.5492 0.8599-0.24598c0.64223-0.18371 0.8599-0.39656 0.8599-0.84085 0-0.7883-0.42494-0.91607-3.0465-0.91607-1.9738 0-2.2273 0.05619-2.3767 0.5268-0.2117 0.667 0.02731 1.0607 0.64392 1.0607 0.95588 0 1.0932 0.59449 1.0166 4.3997l-0.07381 3.6656-0.79052 0.13659c-0.93892 0.16224-1.2187 0.98633-0.5106 1.5041 0.63604 0.46509 6.7409 0.49113 7.2013 0.03072zm60.944-8.767c-0.14003-0.1695-0.33791-0.754-0.43973-1.2989l-0.18513-0.99068 1.4182 0.06464c1.3319 0.06071 1.4233 0.10895 1.5019 0.79225 0.04605 0.40018 0.20434 0.7276 0.35175 0.7276 0.16016 0 0.19787-0.31944 0.09369-0.79375-0.1574-0.71661-0.11012-0.79375 0.4865-0.79375 0.36346 0 0.84184-0.06945 1.0631-0.15435 0.22769-0.08737 0.59893 0.07539 0.85555 0.3751 0.45292 0.52897 0.45401 0.52895 1.2069-0.0277 0.41447-0.30643 0.75359-0.76586 0.75359-1.0209 0-0.64376 0.50912-0.89476 0.93346-0.46018 0.37633 0.38541 0.61457 3.2678 0.29638 3.586-0.33999 0.33999-8.055 0.33502-8.3362-0.0054zm-53.713-1.9246c-0.25198-0.55303-0.43148-0.65278-0.90236-0.50145-0.3233 0.1039-0.88547 0.2062-1.2493 0.22734-0.58688 0.0341-0.66146-0.06598-0.66146-0.88761 0-0.86575-0.06029-0.93158-0.92604-1.0111-1.2567-0.11537-1.4414-0.37363-0.94856-1.3267 0.56288-1.0885 0.54314-1.1793-0.37436-1.7212-0.96696-0.5712-0.99945-0.88575-0.13229-1.2809 0.7443-0.33912 0.83054-0.89668 0.25617-1.6561-0.56409-0.7458-0.49306-0.92492 0.53758-1.3555 0.81346-0.33988 0.92604-0.50191 0.92604-1.3327v-0.94575l1.0602 0.17912c1.0236 0.17294 1.0658 0.1511 1.2225-0.63227 0.24678-1.2339 0.68849-1.4566 1.548-0.78047l0.73057 0.57467 0.99492-1.2789 0.95016 1.2196 0.69113-0.54364c0.8875-0.69811 0.89991-0.69531 1.2398 0.27973 0.22291 0.63943 0.39124 0.78064 0.75349 0.63207 0.94287-0.3867 1.2591-0.27469 1.3453 0.47652 0.05677 0.49487 0.29704 0.82194 0.72267 0.98376 0.53919 0.205 0.61286 0.36626 0.47719 1.0446-0.08824 0.4412-0.04925 0.80217 0.08665 0.80217 0.1359 0 0.4782 0.169 0.76068 0.37555 0.50314 0.36791 0.50054 0.38945-0.12784 1.0583l-0.64143 0.68278 1.2829 1.3698-0.79352 0.63437c-0.69642 0.55674-0.75308 0.69913-0.46302 1.1636 0.50075 0.80182 0.40298 1.0652-0.3971 1.0696-1.0647 0.0059-1.4817 0.36304-1.333 1.1413 0.20515 1.0732-0.15311 1.4065-0.95026 0.88422-0.8851-0.57994-1.4143-0.5592-1.6118 0.06317-0.28971 0.91279-0.8803 1.2125-1.4224 0.72187-0.59424-0.53778-0.93958-0.54703-1.3633-0.03652-0.48659 0.58631-0.93348 0.48448-1.2879-0.29348zm-0.49476-4.2724c0.93399-0.16023 1.1443-0.50994 0.64551-1.0732-0.2174-0.24549-0.53302-1.1206-0.70137-1.9448-0.31089-1.5219-0.68854-1.946-1.3604-1.5279-0.29404 0.18297-0.30767 0.33731-0.06447 0.72994 0.26093 0.42125 0.18964 0.60212-0.46302 1.1748-0.47941 0.42068-0.77143 0.93634-0.77143 1.3622 0 0.87951 0.94098 1.8526 1.5418 1.5944 0.24341-0.10459 0.77144-0.24659 1.1734-0.31555zm-1.616-1.2687c0.05028-0.25936 0.25161-0.52491 0.44741-0.59011 0.22771-0.07582 0.32306 0.0514 0.26458 0.35303-0.05028 0.25936-0.25161 0.52491-0.44741 0.59011-0.22771 0.07582-0.32306-0.0514-0.26458-0.35302zm5.1677 0.4676c0.20457-0.13008 0.26042-0.59699 0.16052-1.3418-0.19394-1.4459-1.0059-1.9448-2.0509-1.2601-0.7385 0.48389-0.94096 1.9059-0.3548 2.4921 0.35208 0.35208 1.7562 0.42082 2.2452 0.1099zm2.4622-0.57918c0.31431-0.19872 0.32778-0.3164 0.06615-0.57803-0.48405-0.48405-0.40595-1.2285 0.12437-1.1855 0.50939 0.04133 0.79195-0.80863 0.39934-1.2012-0.2984-0.2984-2.3215 0.17116-2.5868 0.60039-0.09316 0.15074 0.03532 0.50025 0.2855 0.77671 0.25474 0.28148 0.38218 0.6921 0.28964 0.93325-0.31885 0.83091 0.52687 1.2202 1.4218 0.6544zm40.049 2.0271c-0.79879-0.73204-0.97744-1.0972-1.0851-2.2181-0.26806-2.7897 1.0624-4.5785 3.4055-4.5785 2.3724 0 3.9124 1.4369 3.0123 2.8106-0.52812 0.80602-1.0516 0.79642-1.7723-0.0325-1.158-1.3319-2.855-0.32485-2.4627 1.4614 0.24892 1.1333 1.1203 1.5004 2.5469 1.073 0.92504-0.27715 1.1559-0.26665 1.4903 0.06778 0.55164 0.55165 0.23123 1.6016-0.60503 1.9827-0.37414 0.17047-1.3312 0.30994-2.1269 0.30994-1.2688 0-1.5642-0.10773-2.4029-0.87631zm7.1083 0.46443c-0.4317-0.30237-0.58804-0.67837-0.58804-1.4142 0-1.2196 0.48696-1.7121 2.4177-2.4448 2.1658-0.82198 2.6149-1.3642 1.4849-1.7928-0.72905-0.27649-1.1963-0.04677-1.6136 0.79339-0.59763 1.2032-2.289 0.87021-2.289-0.45067 0-2.0009 4.1662-2.8947 6.028-1.2933 0.63266 0.54419 0.71576 0.82233 0.80253 2.6861 0.08065 1.7324 0.18995 2.1522 0.65555 2.5176 0.4854 0.38091 0.51772 0.52855 0.2462 1.1245-0.24138 0.52977-0.50494 0.686-1.1573 0.686-0.4646 0-1.0651-0.1994-1.3344-0.44312-0.45795-0.41444-0.54979-0.41444-1.4189 0-1.1635 0.55482-2.4681 0.56743-3.2337 0.03124zm3.426-1.8781c0.45003-0.40727 0.66856-1.1496 0.33842-1.1496-0.46826 0-1.7067 0.86888-1.7067 1.1974 0 0.52213 0.76812 0.49529 1.3682-0.0478zm12.663 1.9515c-2.3522-1.1902-2.4904-5.4157-0.2223-6.7985 1.0583-0.64523 2.8342-0.69982 3.9525-0.1215 1.2387 0.64055 2.0103 2.9917 1.236 3.766-0.18414 0.18414-1.0666 0.3175-2.101 0.3175-1.9095 0-2.5036 0.35323-1.6568 0.98506 0.34153 0.25481 0.80128 0.31805 1.4295 0.19664 1.6381-0.3166 2.174-0.26833 2.48 0.2234 0.24696 0.39686 0.17074 0.58979-0.44425 1.1245-0.61665 0.53612-1.0199 0.64477-2.3812 0.64153-0.90139-0.0021-1.933-0.15271-2.2924-0.33458zm2.7702-4.6598c0-0.20242-0.20836-0.49947-0.46302-0.6601-0.55587-0.35063-1.3404 0.04384-1.478 0.7431-0.0735 0.37397 0.0863 0.43758 0.92605 0.36852 0.65042-0.05349 1.0149-0.21565 1.0149-0.45151zm-10.804 4.5573c-0.43191-0.43191-0.14978-1.4346 0.48507-1.7238 0.5735-0.26131 0.66146-0.4724 0.66146-1.5875 0-1.1031-0.09095-1.3276-0.63904-1.5773-1.0171-0.46343-1.0777-1.305-0.14959-2.0787 0.58028-0.48378 0.79276-0.8891 0.79101-1.5089-0.0067-2.3829 2.1228-3.6823 4.2403-2.5873 1.1674 0.60371 1.4443 2.5208 0.45371 3.1418-0.59725 0.3744-1.3559-0.06762-1.4736-0.85854-0.0985-0.66195-0.71166-0.75909-0.94547-0.14978-0.47751 1.2444-0.0421 1.9627 1.1896 1.9627 0.58897 0 1.2605 1.2035 0.87832 1.574-0.1343 0.13018-0.6609 0.34229-1.1702 0.47136-0.87303 0.22123-0.93061 0.30452-1.0058 1.4549-0.0726 1.1097-0.0129 1.2523 0.65823 1.574 0.82719 0.39646 1.0811 1.1076 0.60163 1.6853-0.22827 0.27505-0.89829 0.38416-2.359 0.38416-1.1221 0-2.1195-0.07937-2.2166-0.17639zm8.6078-8.3432c-0.17462-0.17462-0.3175-0.45001-0.3175-0.61196 0-0.38777 1.1731-1.467 2.6054-2.3969l1.1502-0.74671 0.50346 0.64746c0.79394 1.021 0.53239 1.5668-1.2163 2.5378-1.717 0.95342-2.2339 1.0616-2.7252 0.57032z" fill="#a59d95"/>
   <path d="m35.163 63.338c-1.5863-0.85169-2.2512-2.0291-2.2252-3.9404 0.03613-2.6597 1.5531-4.2597 4.0385-4.2597 1.558 0 2.8075 0.61384 3.3381 1.6399 0.47389 0.9164 0.52907 2.6855 0.09724 3.1174-0.2291 0.2291-0.20126 0.51648 0.11283 1.165 0.69947 1.4442-0.41515 2.5482-2.8089 2.7819-1.1049 0.10789-1.592 0.0117-2.5527-0.50409zm4.1098-0.32186c1.1033-0.461 1.4092-1.0852 0.82032-1.6741-0.36469-0.36469-0.5651-0.38176-1.3117-0.11178-1.222 0.44187-1.8761 0.3993-2.5763-0.16764-0.85589-0.69306-0.44297-1.0969 1.1529-1.1276 2.7647-0.05309 3.395-0.56885 2.8635-2.3429-0.58006-1.9361-2.9687-2.7254-5.0395-1.6652-2.4739 1.2665-2.5072 5.6482-0.0527 6.9453 1.1513 0.60843 2.8874 0.6687 4.1435 0.14384zm-3.4897-4.5132c-0.18556-0.48355 0.2675-1.0818 0.9555-1.2617 0.58539-0.15308 1.5959 0.47201 1.5959 0.98719 0 0.72728-2.2834 0.97296-2.5514 0.27452zm1.7577-0.5258c0-0.22049-0.23518-0.39688-0.52917-0.39688-0.29398 0-0.52917 0.17639-0.52917 0.39688s0.23518 0.39688 0.52917 0.39688c0.29398 0 0.52917-0.17639 0.52917-0.39688zm0.46302 3.1405c0.96526-0.25868 0.73049-0.89157-0.33073-0.89157-0.87152 0-1.2207 0.41085-0.74965 0.88194 0.21331 0.21331 0.31689 0.21423 1.0804 0.0096zm6.813 2.4537c-2.2883-1.0593-3.1627-3.8743-1.9994-6.4366 0.64006-1.4098 1.7849-2.0399 3.6736-2.0218 1.551 0.01481 2.536 0.55476 3.2206 1.7654 0.35356 0.62529 0.35265 0.78131-0.0083 1.4295-0.55147 0.9902-1.5458 1.0788-2.3616 0.21047-1.079-1.1485-2.128-0.74013-2.128 0.82853 0 1.3198 0.8726 1.7914 2.5062 1.3545 1.181-0.31586 1.2783-0.30148 1.7294 0.25552 0.27258 0.33662 0.41782 0.8201 0.33803 1.1252-0.36183 1.3836-3.2981 2.2635-4.9704 1.4893zm3.4226-0.54304c1.7651-0.73751 1.3908-2.6654-0.39651-2.0424-1.3318 0.46426-2.013 0.36019-2.61-0.39871-0.72744-0.92479-0.69261-1.8285 0.10106-2.6222 0.86267-0.86267 1.3421-0.81914 2.2793 0.20698 0.63924 0.69987 0.86623 0.80381 1.2419 0.56863 0.75254-0.47116 0.72142-1.7403-0.0607-2.4751-0.51188-0.48089-1.0545-0.66378-2.2194-0.74804-1.432-0.10358-1.6106-0.05118-2.5062 0.73515-1.5302 1.3435-1.8924 3.8202-0.80546 5.5073 0.95692 1.4853 3.1308 2.0393 4.9761 1.2683zm5.1844 0.70917c-0.79595-0.05695-1.5996-0.23006-1.7859-0.38469-0.54044-0.44852-0.39393-1.5296 0.32271-2.3813 0.61665-0.73285 0.66146-0.98064 0.66146-3.6582v-2.8721l-0.79375-0.5652c-0.43656-0.31086-0.79375-0.80063-0.79375-1.0884 0-0.81633 1.1222-1.7416 2.3674-1.952 1.7113-0.28913 1.9914 0.13316 2.0279 3.0573 0.01635 1.3088 0.10838 2.4583 0.20452 2.5545 0.09614 0.09614 0.35741-0.0859 0.5806-0.40454 0.30104-0.42979 0.65805-0.57236 1.383-0.55227l0.97719 0.02708-0.8941 0.21108c-1.0294 0.24303-1.4527 0.7533-1.0386 1.2522 0.35887 0.43241-0.42953 1.393-1.1433 1.393-0.43636 0-0.48726-0.3219-0.5543-3.5057l-0.07383-3.5057-1.2345 0.01523c-1.4076 0.01736-2.0728 0.44033-2.0728 1.318 0 0.42493 0.21521 0.67875 0.71745 0.84616l0.71745 0.23915-0.07725 3.5532c-0.07493 3.4461-0.09756 3.5696-0.75139 4.0978-0.48746 0.39376-0.62648 0.6947-0.50204 1.0868 0.14296 0.45042 0.47002 0.57004 1.9319 0.70655 1.8573 0.17343 2.4618-0.04335 2.4618-0.88278 0-0.25547-0.26789-0.64345-0.59531-0.86217-0.58743-0.39241-0.58864-0.40509-0.09128-0.95831 0.66225-0.73663 0.97679-0.70762 1.8097 0.16696 0.60904 0.6395 0.64927 0.78678 0.33226 1.2163-0.67001 0.90788-0.21964 1.2311 1.7155 1.2311 1.2627 0 1.8878-0.11612 2.118-0.39351 0.43753-0.52719 0.1904-1.0731-0.68-1.5022-0.3942-0.19431-1.1228-0.84857-1.619-1.4539l-0.9023-1.1006 0.59361-0.55303c0.32649-0.30417 0.93208-0.55303 1.3458-0.55303 1.6185 0 1.2038-1.6177-0.48209-1.8807l-1.0313-0.16089 1.2244-0.03755c1.3589-0.04167 1.9123 0.36733 1.7725 1.3099-0.09455 0.63745-0.4892 0.91974-1.6191 1.1582-0.40641 0.08576-0.80448 0.32675-0.8846 0.53553-0.21824 0.56872 0.91964 1.9952 1.9274 2.4162 0.70399 0.29415 0.88498 0.51969 0.8783 1.0945-0.01577 1.3573-0.50074 1.6501-2.7327 1.6501-1.1712 0-2.0214-0.11128-2.0214-0.26458 0-0.33316-0.71893-0.34995-0.83785-0.01955-0.12457 0.34608-1.1727 0.47663-2.8583 0.35602zm3.4316-2.5571c0-0.20271-0.17859-0.4371-0.39688-0.52086-0.26995-0.10359-0.39688 0.01428-0.39688 0.36857 0 0.2866 0.1785 0.52086 0.39688 0.52086 0.21828 0 0.39688-0.16586 0.39688-0.36857zm-0.92604-4.1294c0.08994-0.14552 0.03743-0.26458-0.11668-0.26458-0.15411 0-0.2802 0.11906-0.2802 0.26458 0 0.14552 0.0525 0.26458 0.11668 0.26458 0.06417 0 0.19026-0.11906 0.2802-0.26458zm9.7299 6.342c-1.486-0.7577-2.2577-2.0401-2.283-3.7939-0.02453-1.6967 0.74045-3.2808 1.916-3.9677 1.6384-0.95732 4.6093-0.44013 5.3426 0.93004 0.65961 1.2325 0.76852 2.1379 0.36058 2.9975-0.35192 0.74162-0.35284 0.92694-0.0079 1.5918 0.25808 0.49746 0.30936 0.90394 0.15129 1.1993-0.76487 1.4292-3.6465 1.9776-5.4797 1.0429zm4.1607-0.45543c0.68802-0.34371 0.92604-0.63262 0.92604-1.1241 0-0.71267-0.3658-0.76862-2.5228-0.38592-0.70487 0.12506-1.0901 0.04063-1.5635-0.34268-0.90346-0.73158-0.47925-1.1194 1.2576-1.1499 2.3163-0.04057 2.8148-0.25021 2.9103-1.2239 0.24702-2.5189-2.7376-4.098-5.2247-2.7641-1.7053 0.91458-2.3889 3.499-1.4493 5.4792 0.81622 1.7201 3.7058 2.4908 5.6663 1.5114zm-3.6098-4.4347c-0.18736-0.48824 0.2693-1.0823 0.97358-1.2664 0.69607-0.18203 1.7178 0.65591 1.498 1.2286-0.2249 0.58607-2.2493 0.61707-2.4716 0.03784zm1.7577-0.5452c0-0.24639-0.18002-0.38136-0.4411-0.33073-0.66378 0.12873-0.75492 0.747-0.11012 0.747 0.325 0 0.55122-0.17084 0.55122-0.41628zm0.46302 3.1599c0.96526-0.25868 0.73049-0.89157-0.33073-0.89157-0.87152 0-1.2207 0.41085-0.74965 0.88194 0.21331 0.21331 0.31689 0.21423 1.0804 0.0096zm22.473 2.5214c-1.1497-0.31086-1.5044-0.74435-1.5044-1.8387 0-0.83507 0.16328-1.1413 0.95784-1.7962 0.52681-0.43424 1.3346-0.86021 1.7951-0.9466 0.46047-0.08638 1.1067-0.3458 1.436-0.57648 0.47497-0.33268 0.53478-0.49657 0.28922-0.79246-0.56742-0.6837-1.4759-0.44003-2.0618 0.553-0.60844 1.0312-1.3045 1.1868-1.9784 0.44219-1.5168-1.6761 1.1484-3.6332 4.26-3.1283 0.5716 0.09276 1.2923 0.48441 1.7695 0.96156 0.73984 0.73984 0.81285 0.97671 0.90129 2.9243 0.0794 1.7485 0.18387 2.1661 0.59712 2.3873 0.65413 0.35008 0.63461 0.90948-0.05584 1.5999-0.64951 0.64951-1.9963 0.53216-2.5587-0.22296-0.29532-0.3965-0.41032-0.40725-0.92411-0.08638-0.85497 0.53394-2.0707 0.75016-2.9227 0.5198zm2.7289-2.3547c0.60408-0.60408 0.68613-1.0583 0.19116-1.0583-0.53021 0-1.5141 0.78344-1.5141 1.2056 0 0.54874 0.70543 0.47019 1.3229-0.14729zm6.8451 2.2467c-0.81916-0.4451-1.5534-2.1084-1.5534-3.5189 0-1.2287 0.9503-3.152 1.8985-3.8425 0.38934-0.2835 1.3121-0.57351 2.0505-0.64446 1.1906-0.1144 1.3426-0.19847 1.3426-0.74237 0-0.40845-0.24308-0.7295-0.72761-0.961-0.78933-0.37714-1.0895-1.3348-0.60231-1.9218 0.42823-0.51599 2.8331-0.80469 3.3221-0.39882 0.31497 0.26141 0.38905 1.1965 0.38905 4.9114 0 4.2641 0.0361 4.6078 0.51125 4.8621 0.66915 0.35812 0.91348 1.1771 0.55243 1.8517-0.38988 0.7285-2.1151 0.74859-2.7634 0.03217-0.45081-0.49814-0.47527-0.49582-1.4008 0.13229-1.0621 0.72074-1.9975 0.79516-3.0189 0.24016zm2.4747-2.7097c0.85418-0.97421 1.3167-2.1968 0.98318-2.5987-0.77392-0.93252-2.6301 0.24879-2.6301 1.6739 0 1.2874 0.89049 1.7875 1.6469 0.92484zm8.7942 2.8274c-0.44202-0.12855-1.1509-0.59612-1.5752-1.0391-0.64977-0.67821-0.78839-1.0696-0.87815-2.4792-0.12553-1.9716 0.33897-3.1058 1.5814-3.8613 2.7127-1.6497 5.7768-0.16434 5.7768 2.8003 0 1.3102-0.11159 1.3703-2.7572 1.4853-1.7126 0.07445-2.2411 0.55239-1.0935 0.98872 0.49811 0.18938 0.99548 0.15724 1.7871-0.11548 1.3254-0.45663 2.0637-0.16878 2.0637 0.80461 0 1.2408-2.7636 2.0388-4.9047 1.4161zm2.2589-5.1332c0-0.56165-0.84237-0.94496-1.3959-0.63519-0.80735 0.45181-0.54505 1.0228 0.46985 1.0228 0.63687 0 0.92604-0.12102 0.92604-0.38757zm-39.379 4.8977c-0.63084-0.10235-1.2541-0.35534-1.385-0.5622-0.43234-0.68309-0.25777-1.4982 0.41531-1.9393 0.48455-0.31749 0.66146-0.66711 0.66146-1.3072 0-0.58998-0.21486-1.0757-0.66146-1.4952-0.71249-0.66935-0.88539-1.877-0.33073-2.3101 0.63985-0.49961 2.6114-0.83907 3.2318-0.55644 0.37464 0.1707 0.9164 0.18047 1.4897 0.02688 1.3362-0.358 2.1556-0.05568 2.6973 0.99521 0.53181 1.0317 0.43215 2.1945-0.25297 2.9516-0.52779 0.5832-1.4953 0.62291-2.0347 0.08351-0.56173-0.56174-1.1418-0.49194-1.3118 0.15781-0.1953 0.74682 4e-3 1.1846 0.76701 1.6845 0.76461 0.50099 0.83672 1.4688 0.15539 2.0854-0.50347 0.45564-1.4591 0.50716-3.4412 0.18555zm3.3931-0.67034c0.43906-0.52904 0.16271-1.1463-0.65188-1.456-0.80991-0.30793-0.8966-1.3578-0.22791-2.7601 0.65472-1.373 1.7317-1.6203 1.4873-0.34156-0.06931 0.36256 0.05409 0.76061 0.29874 0.96365 0.34648 0.28755 0.52869 0.27264 1.0796-0.08834 0.52342-0.34296 0.66278-0.65553 0.66278-1.4865 0-1.9906-1.6147-2.7214-3.1529-1.4271l-0.81224 0.68345-0.25985-0.68345c-0.28844-0.75867-0.49431-0.80273-1.9114-0.40916-1.5395 0.42757-1.6125 1.6848-0.12658 2.1801 0.15828 0.05276 0.24896 0.70764 0.21198 1.5309-0.05244 1.1673-0.1882 1.5385-0.71961 1.9679-0.61694 0.49843-0.63056 0.56374-0.2345 1.1245 0.36592 0.51808 0.65461 0.59531 2.2252 0.59531 1.2745 0 1.9006-0.1156 2.1313-0.39351zm5.8898 0.64984c-0.79336-0.31889-0.83147-1.6988-0.05834-2.1126 0.50266-0.26901 0.53224-0.50189 0.46302-3.6442l-0.07395-3.3568-0.7276-0.34828c-1.5405-0.7374-0.65264-2.3114 1.4678-2.602 1.16-0.159 1.2462-0.12772 1.502 0.54504 0.14924 0.39254 0.27135 2.61 0.27135 4.9276 0 3.9273 0.03598 4.2363 0.52917 4.5443 0.59011 0.36853 0.71013 1.5039 0.21167 2.0023-0.36726 0.36726-2.7099 0.39645-3.5851 0.04467zm34.629-0.06294c-0.46653-0.46653-0.35687-0.94054 0.36222-1.5658 0.54577-0.47454 0.66146-0.81389 0.66146-1.9402 0-1.1993-0.0803-1.4016-0.66146-1.6664-0.84825-0.38649-0.88687-1.4477-0.0734-2.0175 0.74406-0.52116 2.0176-0.53026 2.5831-0.01847 0.38639 0.34968 0.54934 0.33497 1.4658-0.13229 1.4635-0.74612 2.1557-0.66511 3.1947 0.37388 0.8645 0.8645 0.89958 0.97764 0.89958 2.9011 0 1.7307 0.0716 2.0398 0.52917 2.2847 0.78577 0.42053 0.69593 1.5372-0.14951 1.8586-0.97227 0.36966-2.5124 0.3154-3.3427-0.11775-0.589-0.30728-0.76469-0.31152-1.0031-0.02423-0.36572 0.44066-4.0367 0.49348-4.4659 0.06426zm5.4913-1.8809c0.47704-0.50778 0.57529-0.87795 0.50914-1.9182-0.0682-1.072-0.17466-1.3023-0.63248-1.3677-0.81584-0.1166-1.6938 0.74264-1.8674 1.8276-0.12394 0.77443-0.0379 1.0624 0.45481 1.5214 0.75938 0.70747 0.81415 0.70522 1.5359-0.06306zm-101.25 1.5402c-0.38057-0.26656-0.58804-0.6859-0.58804-1.1885 0-0.63804 0.1771-0.86006 0.99219-1.2438l0.99219-0.46719v-6.3458l-0.8599-0.37848c-0.74776-0.32912-0.8599-0.50657-0.8599-1.3608 0-1.2387 0.17181-1.3035 3.4551-1.3035 2.4867 0 2.6394 0.03254 3.043 0.6485 0.58172 0.88782 0.26583 1.6973-0.84318 2.1607l-0.90863 0.37965 0.07423 3.2342c0.0685 2.9844 0.11338 3.2342 0.58104 3.2342 0.38175 0 0.5776-0.29377 0.79375-1.1906 0.27845-1.1554 0.31974-1.193 1.3944-1.2712 0.85612-0.06225 1.1609 0.02782 1.3427 0.39688 0.36989 0.7506 0.0045 4.5513-0.46611 4.8488-0.21813 0.13789-2.0072 0.25253-3.9757 0.25476-2.8161 0.0032-3.7045-0.08376-4.1672-0.40783zm8.0504-0.52337c0.5564-0.76093 0.38381-3.8046-0.23789-4.1952-0.71337-0.44811-1.3673 0.11965-1.5214 1.321-0.12889 1.0048-0.15954 1.0313-1.1906 1.0313h-1.0583l0.05212-3.5446c0.02867-1.9495 0.14773-3.6361 0.26458-3.7479 0.11685-0.11181 0.51012-0.24314 0.87392-0.29184 0.6817-0.09126 1.0789-1.0999 0.61558-1.5632-0.31252-0.31252-4.905-0.55392-5.3331-0.28033-0.19965 0.12757-0.31413 0.5559-0.26458 0.98992 0.06379 0.55883 0.24795 0.78785 0.68322 0.84966 0.32774 0.04654 0.71679 0.31052 0.86455 0.58662 0.3613 0.67509 0.02266 7.1226-0.37629 7.1645-0.15972 0.01679-0.45562 0.04655-0.65754 0.06615-0.61105 0.05929-0.99769 0.89054-0.66268 1.4247 0.32663 0.52079 2.6453 0.82286 5.755 0.74972 1.4652-0.03446 1.8877-0.14242 2.1934-0.56049zm67.158-8.5522c-0.06748-0.06748-1.5445-0.0961-3.2822-0.0636l-3.1595 0.0591-0.27632-1.0007c-0.29978-1.0857-0.06426-1.5878 0.62141-1.3247 0.23472 0.09007 0.41466 0.46891 0.41466 0.87298 0 0.39262 0.0893 0.62373 0.19844 0.51356 0.10914-0.11016 0.19844-0.45521 0.19844-0.76677 0-0.32865 0.19439-0.60446 0.46302-0.65695 0.31626-0.0618 0.46302 0.07654 0.46302 0.43645 0 0.72594 0.27009 1.364 0.57742 1.364 0.14092 0 0.21748-0.38695 0.17013-0.8599-0.0839-0.83809-0.05761-0.86196 1.0372-0.94119 0.99245-0.07183 1.16-5.82e-4 1.4391 0.61193l0.31586 0.69323 0.35528-0.67808c0.19541-0.37294 0.53007-0.67808 0.74371-0.67808 0.23793 0 0.38842-0.25628 0.38842-0.66146 0-0.48507 0.14111-0.66146 0.52917-0.66146 0.43813 0 0.52917 0.17639 0.52917 1.0253 0 0.56389 0.07153 1.3829 0.15895 1.82 0.15063 0.75313 0.10862 0.80064-0.80184 0.90693-0.52843 0.06169-1.016 0.05695-1.0835-0.01053zm-1.9778-1.0959c0-0.14552-0.11906-0.26458-0.26458-0.26458s-0.26458 0.11906-0.26458 0.26458 0.11906 0.26458 0.26458 0.26458 0.26458-0.11906 0.26458-0.26458zm-58.115-0.94828c-0.45075-0.68793-0.61726-0.70601-2.1439-0.23284-0.54906 0.17018-0.59531 0.10208-0.59531-0.87637 0-1.0984-0.40871-1.5132-1.194-1.2119-0.22014 0.08447-0.57513 0.0084-0.78889-0.16896-0.34169-0.28358-0.34128-0.39016 0.0034-0.88222 0.59566-0.85043 0.4744-1.4217-0.41305-1.9459l-0.80506-0.47556 1.6986-1.3864-0.59015-0.82879c-0.68606-0.96349-0.59639-1.2346 0.47958-1.4498 0.68134-0.13627 0.7934-0.2863 0.8654-1.1587 0.08052-0.97559 0.11021-1.0021 1.1217-1.0021 0.94957 0 1.0584-0.074 1.2643-0.8599 0.24179-0.92261 0.73709-1.1034 1.2686-0.46302 0.43894 0.52889 1.0508 0.50177 1.4922-0.06615 0.34276-0.44097 0.37704-0.44097 0.7198 0 0.46672 0.60046 0.66793 0.58392 1.4131-0.11613l0.61648-0.57915 0.32502 0.86107c0.29724 0.78748 0.39864 0.84726 1.1865 0.69946 0.79119-0.14843 0.86149-0.10598 0.86149 0.52014 0 0.37496 0.17859 0.73754 0.39688 0.80574 0.21828 0.06819 0.57414 0.17927 0.79079 0.24684 0.30352 0.09466 0.33656 0.2737 0.14399 0.7802-0.21244 0.55875-0.14254 0.73644 0.46598 1.1846 0.61574 0.45352 0.6694 0.59422 0.38349 1.0057-0.63196 0.90959-0.67977 1.2163-0.23974 1.5381 0.59742 0.43685 0.55262 0.88092-0.14593 1.4466-0.51618 0.41798-0.54782 0.55771-0.26619 1.1758 0.34869 0.7653 0.26392 0.85018-1.0001 1.0014-0.55607 0.06651-0.67454 0.2372-0.74358 1.0713-0.09141 1.1044-0.25503 1.1735-1.39 0.58657-0.77571-0.40114-0.79042-0.39538-1.3312 0.52123l-0.54685 0.92684-1.6044-1.1747-0.39922 0.59531c-0.51367 0.76597-0.75038 0.74987-1.2996-0.08839zm-1.284-4.0788c0.08994-0.14552 0.44712-0.26458 0.79375-0.26458 0.34662 0 0.709-0.12746 0.80529-0.28325 0.10445-0.16901 0.56428-0.21761 1.1401-0.12049 0.66272 0.11178 1.1308 0.03738 1.4942-0.2375 0.29104-0.22014 0.97939-0.40405 1.5297-0.40868 1.0607-0.0089 1.5743-0.58221 1.019-1.1374-0.45133-0.45133-0.36199-0.72305 0.23776-0.72305 0.69244 0 0.97014-0.72245 0.46996-1.2226-0.30764-0.30764-0.62403-0.33478-1.5299-0.13125-0.62812 0.14113-1.2289 0.39717-1.3351 0.56897-0.11596 0.18762-0.42521 0.23869-0.77435 0.12788-1.3406-0.42549-2.6482 0.76594-2.2427 2.0435 0.10999 0.34656 0.06925 0.47036-0.11692 0.3553-0.15716-0.09713-0.4121-0.67758-0.56655-1.2899-0.57772-2.2905-1.0921-2.8206-1.8502-1.9071-0.26284 0.3167-0.26258 0.47736 0.0013 0.79531 0.27403 0.33018 0.21159 0.49211-0.36448 0.94524-0.80023 0.62946-0.91453 1.6649-0.28327 2.5662 0.42654 0.60897 1.2867 0.7859 1.5725 0.32346zm-0.79375-1.3229c-0.10561-0.17088-0.07296-0.42975 0.07257-0.57527 0.17639-0.17639 0.32859-0.16102 0.4566 0.04611 0.10561 0.17088 0.07296 0.42975-0.07257 0.57527-0.17639 0.17639-0.32859 0.16102-0.4566-0.04611zm5.424-1.1906c0-0.3638 0.10914-0.66146 0.24254-0.66146 0.30991 0 0.50946 0.56305 0.35164 0.99219-0.2106 0.57269-0.59418 0.35919-0.59418-0.33073zm42.648 3.3161c-2.3326-1.4637-2.0292-5.849 0.47646-6.8869 1.1381-0.47143 3.064-0.19988 3.8554 0.54362 0.79663 0.7484 0.86263 1.9661 0.12787 2.3593-0.42451 0.22719-0.66306 0.13409-1.332-0.51986-0.96786-0.94612-1.051-0.95669-1.9516-0.24824-0.80656 0.63444-0.91654 1.6665-0.27517 2.5822 0.37875 0.54074 0.60234 0.5942 2.1828 0.52189 1.606-0.07347 1.7677-0.03273 1.8386 0.46321 0.21021 1.4693-3.1716 2.2834-4.9224 1.1848zm6.8893 0.19488c-0.72069-0.34733-1.0204-1.3442-0.68819-2.2889 0.18358-0.52202 0.7185-0.89334 2.217-1.539 2.1206-0.91367 2.4651-1.2862 1.7039-1.8428-0.80099-0.5857-1.4429-0.42752-1.7415 0.42914-0.28848 0.82752-0.93213 1.1887-1.6366 0.91841-1.0969-0.42091-0.58253-2.2544 0.77747-2.7715 0.90885-0.34554 3.1075-0.31831 3.9125 0.04847 0.92365 0.42084 1.4804 1.759 1.4804 3.5581 0 1.2051 0.12175 1.6601 0.57268 2.1401 0.55536 0.59115 0.55812 0.62568 0.09128 1.1415-0.60373 0.66711-1.481 0.67985-2.2797 0.0331-0.60354-0.48872-0.6349-0.48872-1.5467 0-1.0336 0.55397-1.9568 0.60987-2.8625 0.17334zm3.313-1.8646c0.40329-0.31206 0.43987-1.2494 0.04875-1.2494-0.39555 0-1.4017 0.55277-1.6211 0.89063-0.10082 0.15524-0.06235 0.42799 0.08549 0.60612 0.27078 0.32627 0.87561 0.22567 1.4869-0.24731zm12.524 1.7267c-1.7663-0.90428-2.3414-3.1677-1.3337-5.2493 1.3624-2.8142 5.484-2.5347 6.373 0.43232 0.21429 0.71525 0.21069 1.1178-0.0138 1.5372-0.26935 0.50329-0.52966 0.56818-2.2792 0.56818-1.4442 0-1.9751 0.09245-1.9751 0.34396 0 0.94212 1.2877 1.2404 2.9114 0.67439 0.74864-0.26098 0.9221-0.23836 1.2119 0.15801 1.113 1.522-2.6283 2.6955-4.8946 1.5352zm2.888-4.3784c0-0.9668-1.6376-1.345-2.098-0.48458-0.35208 0.65786-0.12883 0.82854 1.0838 0.82854 0.6558 0 1.0142-0.12156 1.0142-0.34396zm-10.795 4.2598c-0.49091-0.49091-0.37962-0.95252 0.34396-1.4266 0.56585-0.37076 0.66146-0.63321 0.66146-1.8157 0-1.2177-0.07877-1.4182-0.66146-1.6837-0.8921-0.40647-0.91372-1.5528-0.03559-1.8867 0.51809-0.19698 0.64848-0.47327 0.75717-1.6045 0.17878-1.8606 1.0692-2.7746 2.7027-2.7746 1.9963 0 3.3088 1.9604 2.1131 3.1561-0.76501 0.76501-1.7009 0.30955-1.7009-0.82777 0-0.3347-0.10448-0.60854-0.23219-0.60854-0.48287 0-0.85916 0.79139-0.77805 1.6364 0.0678 0.70626 0.21308 0.89501 0.74566 0.96868 0.91309 0.1263 1.363 0.55446 1.2695 1.2083-0.0583 0.4079-0.32106 0.58691-1.005 0.68461-0.91862 0.13123-0.92666 0.14398-1.0035 1.5914-0.0749 1.4105-0.0507 1.4692 0.7276 1.763 0.88699 0.3348 1.0274 0.88352 0.38932 1.5216-0.51141 0.51141-3.8053 0.5868-4.2938 0.09827zm8.5649-8.3004c-0.22867-0.22868-0.41577-0.52234-0.41577-0.65259 0-0.26514 3.3952-2.9004 3.7368-2.9004 0.12008 0 0.40746 0.36574 0.63862 0.81276 0.51555 0.99696 0.34337 1.2519-1.5944 2.3606-1.5986 0.91465-1.7982 0.94669-2.3653 0.37966z" fill="#90897c"/>
   <path d="m35.953 63.68c-0.41693-0.12401 0.12103-0.19498 1.4552-0.19199 1.4074 0.0031 1.8507 0.06744 1.3229 0.19181-1.035 0.24391-1.9585 0.24398-2.7781 1.8e-4zm9.3927-0.0151c-0.57186-0.14551-0.23902-0.20198 1.1906-0.20198s1.7625 0.05646 1.1906 0.20198c-0.43656 0.11108-0.97234 0.20198-1.1906 0.20198s-0.75406-0.09089-1.1906-0.20198zm21.034 0.01511c-0.41693-0.12401 0.12103-0.19498 1.4552-0.19199 1.4074 0.0031 1.8507 0.06743 1.3229 0.19181-1.035 0.24392-1.9585 0.24398-2.7781 1.8e-4zm34.396-0.07808c-1.4061-0.72541-2.0468-3.6385-1.2247-5.5679 0.61465-1.4425 1.5716-2.1157 3.1994-2.2507 1.0756-0.0892 1.4873-0.23883 1.5955-0.57998 0.21644-0.68194-0.12168-1.3377-0.82821-1.6064-0.76958-0.29259-0.8563-1.4316-0.13826-1.8159 0.61627-0.32982 2.6066-0.45675 2.8791-0.18361 0.1131 0.11334 0.21862 2.2864 0.23448 4.8289 0.0275 4.4077 0.0552 4.6413 0.59531 5.0196 0.62116 0.43507 0.74784 1.4025 0.24898 1.9014-0.17462 0.17462-0.71296 0.3175-1.1963 0.3175-0.68063 0-0.94676-0.14916-1.1802-0.66146-0.3783-0.83026-0.62242-0.83021-1.3536 2.91e-4 -0.70562 0.80145-1.9344 1.061-2.8316 0.59819zm1.8458-2.3149c0.69245-0.3706 1.5938-1.9238 1.5938-2.7466 0-0.61947-0.10228-0.69638-0.92605-0.69638-1.2499 0-1.9844 0.76384-1.9844 2.0638 0 0.55298 0.14287 1.1483 0.3175 1.3229 0.38341 0.38341 0.38745 0.38364 0.99916 0.05626zm9.3713 2.3665c-3.32-1.0036-3.642-6.234-0.46559-7.5612 1.2722-0.53154 2.5409-0.44775 3.5536 0.23471 1.5934 1.0738 2.0507 3.637 0.71287 3.9955-0.32901 0.08816-1.3424 0.16192-2.2518 0.16391-1.2742 0.0028-1.6536 0.09254-1.6536 0.39118 0 0.86701 1.5581 1.1716 3.1145 0.6088 0.7966-0.28805 0.94483-0.26943 1.2574 0.15801 0.19487 0.26651 0.29297 0.64444 0.21798 0.83985-0.37939 0.98868-2.9048 1.6471-4.4852 1.1693zm2.1822-4.8867c0.21149-0.55115-0.37586-1.1873-1.0962-1.1873s-1.3077 0.63612-1.0962 1.1873c0.0973 0.25364 0.49888 0.40024 1.0962 0.40024s0.99891-0.14661 1.0962-0.40024zm-61.355 4.7044c0.61846-0.0557 1.6305-0.0557 2.249 0 0.61846 0.05571 0.11245 0.10128-1.1245 0.10128s-1.7429-0.04558-1.1245-0.10128zm5.424 0.0011c0.5457-0.05708 1.4387-0.05708 1.9844 0 0.5457 0.05708 0.09922 0.10379-0.99219 0.10379-1.0914 0-1.5379-0.0467-0.99219-0.10379zm17.862 0.0056c0.32912-0.06329 0.80537-0.06088 1.0583 0.0053 0.25296 0.06622-0.01632 0.118-0.5984 0.11507-0.58208-0.0029-0.78905-0.05712-0.45994-0.12041zm8.662-0.0083c-1.5675-0.2292-1.9142-1.1622-0.79375-2.1364 0.62213-0.54093 0.66146-0.73059 0.66146-3.1896 0-3.402-0.1679-4.2169-0.89008-4.3199-0.41874-0.05972-0.5861-0.29656-0.64609-0.9143-0.07668-0.7897-0.0089-0.85763 1.2834-1.2869 2.0181-0.6703 2.0479-0.60573 2.2618 4.8987 0.15649 4.0269 0.24418 4.6919 0.67297 5.1035 0.56447 0.54192 0.60306 0.81107 0.21914 1.5284-0.27628 0.51623-0.90831 0.58846-2.7688 0.31643zm5.1786-0.50179c-0.3016-0.38343-0.54837-0.91257-0.54837-1.1759 0-0.8375 1.2017-1.9151 2.8013-2.5119 1.8448-0.68838 2.3441-1.2808 1.5662-1.8582-0.71397-0.52997-1.5113-0.36969-1.8829 0.37848-0.47833 0.96316-0.80662 1.1823-1.5076 1.0064-1.2424-0.31181-1.0449-1.9631 0.3191-2.6684 0.99561-0.51485 3.5192-0.53381 4.4863-0.0337 1.0078 0.52116 1.3613 1.4546 1.3613 3.5949 0 1.5595 0.07829 1.8722 0.52917 2.1135 0.592 0.31683 0.6935 1.0527 0.21167 1.5346-0.522 0.522-2.0141 0.38984-2.3897-0.21167-0.18176-0.29104-0.43188-0.52917-0.55582-0.52917s-0.52808 0.23812-0.89808 0.52917c-1.0287 0.80918-2.7906 0.72444-3.4926-0.16797zm4.184-1.9987c0.51468-0.82414-3e-3 -1.1416-1.0114-0.62012-0.95327 0.49296-1.316 1.1515-0.80731 1.4659 0.44938 0.27773 1.3903-0.15985 1.8187-0.84577zm24.648 2.337c-0.46967-0.46968-0.30646-1.1479 0.38533-1.6012 0.57288-0.37537 0.66145-0.62832 0.66145-1.8891 0-1.3092-0.0665-1.481-0.66145-1.7071-0.50175-0.19076-0.66146-0.44226-0.66146-1.0416 0-0.70456 0.12068-0.8226 1.1147-1.0903 1.0115-0.27237 1.1563-0.24882 1.5638 0.25438 0.55331 0.6833 0.64426 0.68486 1.4826 0.02538 0.77171-0.60702 2.3499-0.69143 3.046-0.16291 0.83131 0.6312 1.3066 2.2078 1.1188 3.711-0.14038 1.1236-0.0875 1.4443 0.28978 1.7574 0.25382 0.21065 0.53249 0.35324 0.61926 0.31686 0.0868-0.03638 0.15778 0.26128 0.15778 0.66146v0.7276h-1.9555c-1.6039 0-2.0083-0.08625-2.249-0.4796-0.23664-0.3868-0.18453-0.56909 0.26932-0.94208 0.62511-0.51373 0.95348-2.4051 0.5915-3.407-0.285-0.78876-1.1408-0.76514-1.96 0.05412-0.85463 0.85464-0.9248 2.7555-0.12026 3.2579 0.58948 0.36814 0.70463 1.2446 0.20415 1.554-0.50236 0.31048-3.5864 0.311-3.8968 5.29e-4zm-96.433-1.0296c-0.1147-0.39986-0.11523-0.93564-0.0012-1.1906 0.1821-0.4071 0.22007-0.39105 0.31152 0.1317 0.05728 0.32742 0.05781 0.8632 0.0012 1.1906-0.09684 0.55989-0.11538 0.55205-0.31152-0.1317zm33.98 0.19785c0-0.21828 0.11906-0.39688 0.26458-0.39688 0.14552 0 0.26458 0.17859 0.26458 0.39688 0 0.21828-0.11906 0.39688-0.26458 0.39688-0.14552 0-0.26458-0.17859-0.26458-0.39688zm21.431-4.35c0-0.13693 0.11906-0.32255 0.26458-0.41249 0.14552-0.08994 0.26458 0.0221 0.26458 0.24897 0 0.22687-0.11906 0.41249-0.26458 0.41249s-0.26458-0.11204-0.26458-0.24897zm-1.0583-2.1323c0-0.14552 0.11906-0.26458 0.26458-0.26458 0.14552 0 0.26458 0.11906 0.26458 0.26458s-0.11906 0.26458-0.26458 0.26458c-0.14552 0-0.26458-0.11906-0.26458-0.26458zm15.112-2.3721c-0.11692-0.07782-0.28786-0.52844-0.37987-1.0014-0.12783-0.65709-0.07524-0.8599 0.22298-0.8599 0.23737 0 0.39026 0.25301 0.39026 0.64584 0 0.35521 0.10557 0.71109 0.2346 0.79084 0.37349 0.23083 0.85056-0.52972 0.65384-1.0424-0.12711-0.33124-0.07089-0.43047 0.19387-0.34222 0.22124 0.07375 0.37289 0.48254 0.37289 1.0052 0 0.77986-0.08464 0.88458-0.738 0.91318-0.4059 0.01777-0.83366-0.03136-0.95058-0.10918zm3.0398-0.03747c-0.06403-0.20273-0.18993-0.70306-0.27978-1.1119-0.16111-0.73301-0.14774-0.74213 0.97009-0.66146 1.0856 0.07834 1.1334 0.1181 1.1334 0.94169 0 0.47294-0.11906 0.8544-0.26458 0.84769-0.14552-0.0067-0.2249-0.31501-0.1764-0.6851 0.06989-0.53331-0.01244-0.65325-0.39688-0.57818-0.28982 0.05659-0.48506 0.32272-0.48506 0.6612 0 0.69334-0.34094 1.0923-0.50084 0.58602zm3.0805 0.11756c-0.7314-0.29496-0.08471-2.2059 0.7465-2.2059 0.13513 0 0.24568-0.24805 0.24568-0.55122 0-0.32277 0.13707-0.506 0.33073-0.44212 0.19933 0.06575 0.36225 0.7052 0.41008 1.6095 0.06235 1.1789-0.0039 1.5005-0.30909 1.5005-0.21364 0-0.547 0.0501-0.74081 0.11133-0.1938 0.06123-0.5012 0.05131-0.6831-0.02205zm0.94182-1.0815c-0.1074-0.5577-0.57697-0.52254-0.69664 0.05217-0.04991 0.23971 0.09593 0.41085 0.35013 0.41085 0.27251 0 0.40228-0.17341 0.34651-0.46302zm-76.347-0.46302c0.0029-0.58208 0.05712-0.78906 0.12041-0.45994 0.06329 0.32912 0.06088 0.80537-0.0053 1.0583-0.06622 0.25296-0.118-0.01631-0.11507-0.5984zm15.418-0.29096c-0.45523-0.69477-0.62796-0.71281-2.1899-0.22871-0.54906 0.17018-0.59531 0.10208-0.59531-0.87637 0-1.1225-0.27742-1.3821-1.4768-1.3821-0.73858 0-0.75122-0.05124-0.31214-1.2655 0.31164-0.86183 0.28897-0.93722-0.46302-1.5401l-0.7907-0.63395 1.5489-1.242-0.59274-0.83242c-0.68866-0.96713-0.59974-1.238 0.47699-1.4534 0.68134-0.13627 0.7934-0.2863 0.8654-1.1587 0.08062-0.9768 0.10913-1.0021 1.1286-1.0021 0.95242 0 1.0681-0.07681 1.295-0.8599 0.29027-1.0016 0.57984-1.0667 1.384-0.3113l0.58396 0.5486 0.57612-0.61474c0.54018-0.5764 0.59741-0.58586 0.91747-0.15172 0.41841 0.56753 0.77668 0.58713 1.2091 0.06615 0.49667-0.59845 0.98057-0.47816 1.1738 0.2918 0.15545 0.61936 0.263 0.67176 1.0686 0.52063 0.83117-0.15593 0.90187-0.11496 0.98032 0.56809 0.06213 0.54101 0.24994 0.75955 0.7085 0.82444 0.53322 0.07546 0.60195 0.19832 0.47265 0.84484-0.12243 0.61214-0.01427 0.85747 0.56667 1.2853 0.61763 0.45489 0.67152 0.59567 0.38556 1.0072-0.63143 0.90883-0.65592 1.1617-0.165 1.7042 0.48252 0.53317 0.48012 0.55482-0.11448 1.0363-0.50229 0.40673-0.57746 0.65073-0.43478 1.4113 0.16697 0.89003 0.1441 0.92224-0.71333 1.0044-0.81465 0.07803-0.89243 0.16457-0.96795 1.077-0.09056 1.0942-0.40056 1.2203-1.3556 0.55135-0.59868-0.41933-0.65216-0.41271-1.0963 0.13583-0.25683 0.31717-0.52057 0.7239-0.5861 0.90386-0.09428 0.25892-0.22286 0.25782-0.61618-0.0052-0.9969-0.66671-1.2406-0.68223-1.7051-0.10858-0.58454 0.72188-0.62036 0.71836-1.1661-0.11454zm-0.33778-4.253c0.40018-0.08046 0.7276-0.2623 0.7276-0.4041 0-0.15128 0.41-0.18866 0.99219-0.09046 0.6908 0.11652 1.1529 0.04577 1.5214-0.23291 0.29104-0.22014 0.97939-0.40405 1.5297-0.40868 1.0607-0.0089 1.5743-0.58221 1.019-1.1374-0.45133-0.45133-0.36199-0.72305 0.23776-0.72305 0.69694 0 0.96894-0.72365 0.4624-1.2302-0.4617-0.4617-2.1201-0.25761-2.7114 0.33367-0.22971 0.22971-0.64952 0.30525-1.1453 0.20609-1.1144-0.22288-1.8519 0.26705-2.0583 1.3674-0.21893 1.167-0.36621 1.028-0.75905-0.71624-0.36393-1.6159-0.96707-2.1641-1.6403-1.4909-0.3688 0.3688-0.38658 0.51596-0.10356 0.85697 0.28843 0.34754 0.23334 0.49695-0.35346 0.95852-1.3121 1.0321-0.61864 3.403 0.88496 3.0255 0.36787-0.09237 0.99627-0.23377 1.3965-0.31423zm-1.749-1.0636c-0.29797-0.29797-0.18148-0.61017 0.22768-0.61017 0.21828 0 0.39688 0.11204 0.39688 0.24897 0 0.33363-0.41317 0.57258-0.62455 0.3612zm5.3871-1.256c0-0.37239 0.11906-0.67707 0.26458-0.67707 0.14552 0 0.26458 0.2311 0.26458 0.51355 0 0.28245-0.11906 0.58714-0.26458 0.67707-0.15006 0.09274-0.26458-0.12954-0.26458-0.51355zm42.949 3.4494c-1.7446-0.7893-2.3933-3.1536-1.4503-5.2854 0.59507-1.3452 1.6669-2.0161 3.221-2.0161 2.1349 0 3.9098 2.3544 2.3887 3.1686-0.42451 0.22719-0.66306 0.13409-1.332-0.51986-0.9554-0.93393-1.3973-0.9897-2.1196-0.26744-0.637 0.637-0.68401 1.7778-0.1072 2.6014 0.37875 0.54074 0.60234 0.5942 2.1828 0.52189 1.606-0.07347 1.7677-0.03273 1.8386 0.46321 0.19049 1.3315-2.7509 2.1803-4.6219 1.3338zm6.4319-0.17697c-1.5181-1.1941-0.51957-2.9095 2.2239-3.8208 1.4431-0.4793 1.8349-0.95426 1.3095-1.5873-0.58321-0.70273-1.4865-0.47133-2.0788 0.53254-0.59518 1.0088-1.0916 1.1547-1.736 0.51027-0.57289-0.57289-0.52204-1.0187 0.21379-1.8741 0.55348-0.64346 0.85296-0.74453 2.4782-0.83636 1.7489-0.09882 1.8966-0.06161 2.7373 0.68961 0.84009 0.75062 0.89441 0.90685 0.9928 2.8551 0.08212 1.6262 0.21083 2.1484 0.61 2.4749 0.46883 0.38352 0.47513 0.4575 0.08589 1.0092-0.52827 0.74873-1.5391 0.76914-2.2626 0.04569-0.3023-0.3023-0.68925-0.47622-0.8599-0.3865-0.17065 0.08972-0.60793 0.3353-0.97173 0.54572-0.93206 0.53912-1.9293 0.48168-2.7424-0.15797zm3.4484-1.721c0.95733-0.95733 0.46298-1.4471-0.8356-0.82785-0.93071 0.44382-1.2177 1.0844-0.59796 1.3345 0.5909 0.23843 0.74178 0.1851 1.4336-0.50668zm12.552 1.8153c-1.1606-0.57171-1.9996-2.3542-1.8018-3.8282 0.36555-2.7254 3.1797-4.2249 5.3944-2.8746 0.93053 0.56738 1.2552 1.0575 1.5208 2.2955 0.27699 1.2913-0.31221 1.6864-2.515 1.6864-1.3278 0-1.8332 0.09483-1.8332 0.34396 0 0.90241 1.3527 1.2563 2.7586 0.7218 0.91543-0.34805 1.4747-0.08414 1.4747 0.69584 0 1.2722-3.1399 1.8748-4.9985 0.95927zm2.8341-4.6391c-0.11597-0.81653-1.6389-1.002-2.042-0.24868-0.36162 0.67571-0.1435 0.84399 1.094 0.84399 0.91955 0 1.0234-0.0652 0.94809-0.59531zm-10.747 4.5111c-0.49091-0.49091-0.37962-0.95252 0.34396-1.4266 0.56585-0.37076 0.66146-0.63321 0.66146-1.8157 0-1.2177-0.07877-1.4182-0.66146-1.6837-0.8921-0.40647-0.91372-1.5528-0.03559-1.8867 0.51809-0.19698 0.64848-0.47327 0.75717-1.6045 0.18071-1.8807 1.0657-2.7746 2.7469-2.7746 0.995 0 1.3199 0.13065 1.8461 0.74236 0.7634 0.88751 0.819 1.7904 0.14764 2.398-0.44615 0.40377-1.3308 0.36545-1.3814-0.05983-0.15364-1.2912-0.36564-1.5445-0.91278-1.0904-0.2719 0.22566-0.38902 0.67537-0.33713 1.2945 0.0657 0.78437 0.1941 0.96454 0.74099 1.0402 0.91309 0.1263 1.363 0.55446 1.2695 1.2083-0.0583 0.4079-0.32106 0.58691-1.005 0.68461-0.92341 0.13192-0.92627 0.13659-1.0051 1.6454-0.0747 1.4294-0.0418 1.5224 0.59531 1.6823 0.37093 0.0931 0.68852 0.30519 0.70576 0.47131 0.0619 0.59629-0.0896 1.0992-0.38852 1.2902-0.50408 0.32202-3.7419 0.23092-4.0878-0.11501zm8.732-8.2013c-0.60827-0.60827-0.31-1.2135 1.1362-2.3054 1.9914-1.5036 2.139-1.5345 2.6453-0.55536 0.51118 0.9885 0.35522 1.2577-1.278 2.2056-1.4939 0.86712-2.1261 1.0325-2.5035 0.65508z" fill="#a55d60"/>
   <path d="m36.085 63.685c-0.53042-0.12178-0.13542-0.18379 1.1906-0.18693 1.2461-0.0029 1.7383 0.06669 1.3229 0.18716-0.8152 0.23645-1.4829 0.23638-2.5135-2.38e-4zm9.3927-0.02204c-0.67118-0.12253-0.39241-0.17546 1.0129-0.19232 1.0664-0.01281 1.8999 0.0089 1.8521 0.04823-0.24452 0.20118-2.0538 0.29217-2.865 0.14408zm21.034 0.02204c-0.53042-0.12178-0.13542-0.18379 1.1906-0.18693 1.2461-0.0029 1.7383 0.06669 1.3229 0.18716-0.8152 0.23645-1.4829 0.23638-2.5135-2.38e-4zm34.664 0.04378c-1.1752-0.28262-1.9884-1.8039-1.9878-3.7188 7.94e-4 -2.4382 1.4154-4.038 3.7808-4.2759 1.3225-0.13301 1.3781-0.17048 1.3781-0.92879 0-0.60109-0.17412-0.87364-0.72761-1.1389-0.99641-0.47757-1.0047-1.5505-0.0149-1.9268 0.39196-0.14902 1.1361-0.23537 1.6536-0.19189l0.94099 0.07906 0.0722 4.6942c0.0718 4.6681 0.0759 4.6966 0.72761 5.1237 1.2215 0.80035 0.70467 2.2206-0.80806 2.2206-0.61285 0-0.92053-0.17212-1.1824-0.66146-0.43885-0.81999-0.6639-0.8266-1.4017-0.04115-0.62644 0.6669-1.5861 0.96933-2.431 0.76614zm1.9014-2.7755c0.76169-0.83627 1.1375-1.6391 1.1375-2.43 0-0.61104-0.10162-0.67885-1.0173-0.67885-1.6556 0-2.6579 1.7107-1.7839 3.0446 0.5348 0.8162 0.96368 0.83276 1.6637 0.06422zm9.2653 2.7917c-1.0937-0.17308-2.7265-1.8666-2.9429-3.0524-0.40184-2.2023 0.95136-4.4873 2.8706-4.8473 2.102-0.39434 3.8678 0.72931 4.2368 2.696 0.26792 1.4281-0.22863 1.7851-2.6532 1.9076-1.6621 0.08393-1.9798 0.17181-1.9111 0.52861 0.13541 0.70314 1.3844 0.98511 2.748 0.6204 1.3841-0.37019 1.6949-0.26064 1.6949 0.59742 0 1.0803-2.0482 1.8654-4.0431 1.5497zm1.832-4.9779c0.20908-0.54485-0.37298-1.1873-1.0757-1.1873-0.70017 0-1.2112 0.46884-1.2112 1.1112 0 0.37985 0.2159 0.47625 1.0666 0.47625 0.70804 0 1.1183-0.13456 1.2202-0.40024zm-61.355 4.7044c0.61846-0.0557 1.6305-0.0557 2.249 0 0.61846 0.05571 0.11245 0.10128-1.1245 0.10128s-1.7429-0.04558-1.1245-0.10128zm5.424 0.0011c0.5457-0.05708 1.4387-0.05708 1.9844 0 0.5457 0.05708 0.09922 0.10379-0.99219 0.10379-1.0914 0-1.5379-0.0467-0.99219-0.10379zm17.992 0.01035c0.25466-0.06655 0.67138-0.06655 0.92604 0 0.25466 0.06655 0.0463 0.121-0.46302 0.121-0.50932 0-0.71768-0.05445-0.46302-0.121zm8.6651-0.0071c-0.82014-0.09278-1.5875-0.64644-1.5875-1.1454 0-0.09646 0.29766-0.49656 0.66146-0.8891 0.62778-0.67738 0.66125-0.87133 0.65741-3.8089-0.0021-1.7024-0.09153-3.228-0.19844-3.3903-0.10691-0.16229-0.46228-0.37867-0.7897-0.48085-0.39195-0.12232-0.59531-0.39458-0.59531-0.79701 0-0.73892 0.33851-1.0321 1.6977-1.4704 1.621-0.52273 1.7419-0.18097 1.7419 4.9256 0 4.2549 0.0065 4.3025 0.69793 5.1242 0.62557 0.74345 0.66208 0.89642 0.35217 1.4755-0.35372 0.66094-0.54253 0.69362-2.6376 0.45662zm5.0463-0.5077c-0.3016-0.38348-0.54837-0.91262-0.54837-1.1759 0-0.80907 1.1141-1.7994 2.7749-2.4666 1.8865-0.75785 2.3653-1.3301 1.5926-1.9036-0.75678-0.56174-1.4832-0.35906-1.9878 0.55465-0.79267 1.4352-2.4105 0.81599-2.0124-0.77023 0.25564-1.0186 1.6818-1.5663 3.6984-1.4205 1.3594 0.09833 1.6701 0.2264 2.3236 0.95785 0.68601 0.76777 0.75442 1.0226 0.75442 2.8095 0 1.7181 0.07237 2.0159 0.5756 2.3684 0.49939 0.34979 0.53518 0.4919 0.27026 1.0733-0.39805 0.87362-1.9918 0.96597-2.4334 0.141-0.35351-0.66054-0.74305-0.66054-1.5875 0-1.0176 0.79598-2.7282 0.71197-3.4204-0.16797zm3.8293-1.5398c1.0926-1.0926 0.68497-1.7728-0.64894-1.0831-0.93042 0.48114-1.1824 0.82696-0.98234 1.3483 0.22073 0.5752 0.90154 0.46451 1.6313-0.26523zm25.124 1.9041c-0.6227-0.34848-0.47418-1.2311 0.26373-1.5673 0.59609-0.2716 0.66145-0.4547 0.66145-1.853 0-1.4116-0.0597-1.5743-0.66145-1.8031-0.45221-0.17193-0.66146-0.45256-0.66146-0.8871 0-0.76798 0.38455-1.1027 1.5123-1.3162 0.67622-0.12804 0.93064-0.0471 1.2399 0.39443 0.39226 0.56002 0.47848 0.55104 1.7458-0.18198 1.0593-0.61273 2.0667-0.48109 2.9308 0.383 0.79993 0.79992 0.88352 1.1911 0.78178 3.6584-0.0349 0.8475 0.0554 1.402 0.23176 1.4221 0.67991 0.0778 0.78344 0.10857 0.96021 0.28533 0.10237 0.10236 0.10873 0.49446 0.0141 0.87133-0.16734 0.66674-0.22274 0.68312-2.0546 0.60764-1.4794-0.06096-1.9452-0.18029-2.1749-0.55718-0.23516-0.38584-0.1834-0.56911 0.26477-0.93748 0.67608-0.55571 1.0657-2.6702 0.63895-3.4676-0.3882-0.72536-1.2116-0.68003-2.0018 0.11019-0.86105 0.86101-0.93433 2.8836-0.12025 3.3193 0.59124 0.31642 0.70603 1.1821 0.19844 1.4966-0.45255 0.28032-3.2787 0.29731-3.7695 0.02265zm-96.545-0.87945c-0.22504-0.58645-0.19997-1.378 0.04851-1.5316 0.11501-0.07108 0.22776 0.33861 0.25056 0.91043 0.04438 1.1128-0.04175 1.2917-0.29907 0.62115zm55.402-4.344c0-0.14552 0.12609-0.26458 0.2802-0.26458 0.15411 0 0.20661 0.11906 0.11668 0.26458-0.08994 0.14552-0.21603 0.26458-0.2802 0.26458-0.06417 0-0.11668-0.11906-0.11668-0.26458zm14.054-4.6092c-0.1227-0.1571-0.30422-0.62472-0.4034-1.0391-0.13302-0.55586-0.09054-0.72361 0.16195-0.63953 0.18825 0.06268 0.38359 0.34222 0.4341 0.62121 0.05051 0.27898 0.20429 0.62531 0.34175 0.76961 0.33903 0.35592 0.78901-0.38543 0.60089-0.98998-0.07924-0.25466-0.03088-0.46302 0.10747-0.46302 0.23955 0 0.56653 0.84917 0.57424 1.4913 0.0048 0.40124-1.5335 0.6125-1.817 0.24953zm6.0601 0.01158c-0.4684-0.4684-0.29586-1.1946 0.39069-1.6445 0.3638-0.23837 0.66146-0.66776 0.66146-0.95419 0-0.28658 0.14235-0.47334 0.31653-0.41528 0.17761 0.0592 0.36021 0.7512 0.41605 1.5767 0.09906 1.4643 0.09576 1.4717-0.70722 1.5896-0.44371 0.06512-0.92859-0.0034-1.0775-0.15236zm1.0521-0.98073c0-0.6448-0.61827-0.55366-0.747 0.11012-0.05064 0.26108 0.08434 0.4411 0.33073 0.4411 0.24544 0 0.41627-0.22622 0.41627-0.55122zm-4.2333 0.15434c0-0.88194 0.0441-0.92604 0.92604-0.92604 0.56252 0 0.92746 0.12983 0.92965 0.33073 0.0021 0.1819 0.07541 0.59862 0.16315 0.92604 0.11277 0.4208 0.0449 0.59531-0.23151 0.59531-0.27843 0-0.35318-0.19806-0.25957-0.68777 0.1082-0.56601 0.04316-0.66994-0.36742-0.58706-0.31747 0.06409-0.49126 0.3142-0.47789 0.68777 0.01156 0.32288-0.13727 0.58706-0.33073 0.58706-0.2256 0-0.35174-0.3321-0.35174-0.92604zm-72.165-0.52916c0.0029-0.58208 0.05712-0.78906 0.12041-0.45994 0.06329 0.32912 0.06088 0.80537-0.0053 1.0583-0.06622 0.25296-0.118-0.01631-0.11507-0.5984zm15.581-0.55374c-0.32294-0.70877-0.9741-0.78185-2.2198-0.24912-0.38912 0.16641-0.46302 0.05414-0.46302-0.70341 0-1.0953-0.39503-1.5364-1.3758-1.5364-0.85878 0-0.87138-0.03841-0.34592-1.0545 0.42233-0.8167 0.27147-1.1398-0.87099-1.8654-0.27898-0.17718-0.33854-0.33384-0.15675-0.41225 0.16126-0.06956 0.51845-0.29236 0.79375-0.4951 0.49082-0.36147 0.49073-0.387-5e-3 -1.315-0.27804-0.52048-0.45664-0.98104-0.39688-1.0235 0.05976-0.04243 0.43608-0.21776 0.83627-0.38962 0.55086-0.23658 0.7276-0.49596 0.7276-1.0678 0-0.9717 0.17684-1.1284 0.9443-0.83658 0.6518 0.24782 1.4325-0.23206 1.441-0.88574 0.0022-0.17151 0.11502-0.4873 0.25065-0.70177 0.20749-0.3281 0.35727-0.28614 0.94447 0.26458l0.69787 0.65452 0.47868-0.59003c0.41511-0.51167 0.52184-0.53802 0.80367-0.19844 0.42381 0.51066 1.1644 0.4992 1.5993-0.02475 0.30672-0.36958 0.38727-0.33667 0.71719 0.29299 0.30866 0.58909 0.49943 0.68378 1.1255 0.55857 0.6679-0.13358 0.76323-0.06898 0.83656 0.56691 0.05968 0.51756 0.25336 0.74184 0.69458 0.80438 0.52701 0.07469 0.58839 0.1934 0.44278 0.85634-0.1431 0.65151-0.06441 0.8173 0.51266 1.0802 0.7838 0.35712 0.84009 0.55858 0.28483 1.0194-0.52358 0.43454-0.50211 1.0327 0.05933 1.6531 0.43451 0.48012 0.42677 0.52631-0.16258 0.97086-0.50612 0.38177-0.58608 0.61566-0.43915 1.2846 0.17032 0.77545 0.13414 0.82224-0.69732 0.90206-0.8074 0.07751-0.88355 0.16418-0.96005 1.0928-0.0457 0.55472-0.16476 0.96762-0.26458 0.91755-1.7862-0.89594-1.7039-0.88051-2.008-0.37668-0.82547 1.3677-0.86258 1.3913-1.4116 0.89442-0.64815-0.58657-0.83555-0.5775-1.5291 0.07402l-0.56791 0.53352zm-1.1141-3.5798c0.51965-0.16338 1.1317-0.3891 1.3601-0.5016 0.22841-0.1125 0.71914-0.14645 1.0905-0.07546 0.37138 0.07099 1.0418-0.06047 1.4898-0.29215 0.44801-0.23168 1.1479-0.42305 1.5553-0.42528 1.1112-0.0061 1.5024-0.35445 1.3007-1.1582-0.12703-0.50612-0.07085-0.68986 0.21094-0.68986 0.53621 0 0.77353-0.92644 0.4109-1.604-0.26751-0.49985-0.44626-0.54446-1.536-0.38336-0.6783 0.10028-1.4119 0.33688-1.6301 0.52578-0.2311 0.19999-0.74951 0.28911-1.2411 0.21334-0.66095-0.10187-0.99321 0.01891-1.5307 0.55638-0.71184 0.71183-0.74321 0.69067-1.0505-0.70852-0.19772-0.90032-0.75256-1.1513-1.6456-0.74442-0.53913 0.24565-0.63939 0.43437-0.50826 0.95679 0.11465 0.45682 0.0044 0.80972-0.36986 1.184-0.64275 0.64275-0.70157 2.0272-0.12132 2.8556 0.4652 0.66416 0.86232 0.71633 2.2152 0.29098zm47.272 0.4221c-1.0411-0.54294-1.4241-1.1125-1.6273-2.4203-0.32935-2.1194 0.7901-3.9347 2.6083-4.2298 1.8-0.2921 3.3596 0.5744 3.3596 1.8665 0 0.95361-0.65312 1.0137-1.5633 0.14393-0.9905-0.94658-1.4411-0.97174-2.2852-0.12765-0.83861 0.83861-0.88086 2.2941-0.08956 3.0854 0.49034 0.49034 0.75046 0.53831 2.0945 0.38625 1.5592-0.1764 1.9725-0.0026 1.6976 0.71396-0.36823 0.95961-2.8183 1.2993-4.1946 0.58162zm6.5161-0.0077c-0.7326-0.51313-0.77811-1.7153-0.08856-2.3394 0.27471-0.24861 1.1379-0.69432 1.9182-0.99048 0.78031-0.29615 1.5676-0.66155 1.7495-0.81201 0.53883-0.44568 0.37813-1.2568-0.31122-1.5709-0.95458-0.43493-1.8339-0.1037-2.1835 0.82249-0.32726 0.86702-0.88681 1.0352-1.3973 0.42009-0.88176-1.0625 0.7112-2.2617 3.0043-2.2617 1.1534 0 1.6062 0.1313 2.1928 0.63586 0.67625 0.58168 0.74754 0.8189 0.83678 2.784 0.0809 1.7815 0.18361 2.1941 0.6018 2.418 0.40371 0.21606 0.44897 0.37316 0.22699 0.78792-0.36592 0.68373-1.2666 0.6576-2.0293-0.05886l-0.6141-0.57696-1.0265 0.57691c-1.2122 0.68132-2.0725 0.73062-2.8799 0.16504zm3.4011-1.4199c0.87156-0.87156 0.96744-1.2854 0.35248-1.5214-0.52472-0.20135-2.1879 0.5675-2.395 1.1072-0.18366 0.47861 0.34425 1.1876 0.88425 1.1876 0.21166 0 0.73286-0.34803 1.1582-0.7734zm12.705 1.4971c-1.5568-0.80008-2.2605-2.9992-1.5239-4.7623 1.1444-2.7391 5.2543-2.6857 5.9985 0.07794 0.42051 1.5617 0.0961 1.844-2.1189 1.844-2.1666 0-2.7506 0.42437-1.8389 1.3361 0.58656 0.58657 0.60804 0.58785 3.2941 0.19622 0.78596-0.11459 0.68403 0.8872-0.13229 1.3002-0.84438 0.42718-2.8543 0.43145-3.6787 0.0078zm2.8849-4.2427c0-0.80222-0.47372-1.2435-1.3348-1.2435-0.8221 0-1.7074 0.86241-1.4837 1.4454 0.1118 0.29134 0.53373 0.40673 1.4873 0.40673 1.2127 0 1.3312-0.05417 1.3312-0.60854zm-10.936 4.1363c-0.3736-0.3736-0.14851-0.90564 0.48507-1.1465 0.612-0.23268 0.66146-0.38018 0.66146-1.9728 0-1.6154-0.0407-1.7315-0.66146-1.8873-0.85934-0.21568-0.8807-1.0967-0.03439-1.4185 0.5331-0.20268 0.64559-0.46177 0.75068-1.729 0.16264-1.9613 0.80944-2.6497 2.4894-2.6497 0.9489 0 1.3147 0.13342 1.7124 0.62462 0.6063 0.74874 0.65445 1.7008 0.10892 2.1535-0.31519 0.26159-0.47796 0.26208-0.79084 0.0024-0.21668-0.17983-0.33535-0.42179-0.26372-0.53769 0.23647-0.38261-0.18426-1.0522-0.66114-1.0522-0.74628 0-1.1012 0.66555-1.0124 1.8987 0.0781 1.0857 0.12955 1.1508 1.0084 1.2763 0.70903 0.10129 0.94585 0.2718 1.0106 0.7276 0.0682 0.48049-0.0424 0.59531-0.57368 0.59531-1.3216 0-1.4952 0.21763-1.4952 1.8736 0 1.4592 0.0479 1.5772 0.7982 1.9652 0.67836 0.35079 0.7564 0.49084 0.51985 0.93284-0.23481 0.43875-0.5596 0.52008-2.077 0.52008-0.98927 0-1.8781-0.07937-1.9751-0.17639zm8.7342-8.1992c-0.42014-0.42014-0.10991-1.0612 0.81236-1.6786 0.54342-0.3638 1.2492-0.93839 1.5685-1.2769l0.58047-0.6154 0.42487 0.82161c0.51544 0.99674 0.45149 1.1152-1.0578 1.9587-1.4473 0.80893-2.0914 1.0276-2.3284 0.79057z" fill="#8c2b2f"/>
   <path d="m36.085 63.665c-0.71298-0.18142-0.72644-0.20248-0.13229-0.20691 0.3638-0.0027 0.95912 0.0904 1.3229 0.20691 0.51832 0.16599 0.54694 0.21077 0.13229 0.20691-0.29104-0.0027-0.88636-0.09582-1.3229-0.20691zm30.427 0.01905c-0.52513-0.12102-0.12426-0.18114 1.1846-0.17763 1.1919 0.0032 1.7178 0.07787 1.3229 0.18786-0.81641 0.22741-1.4882 0.22467-2.5075-0.01024zm34.659 0.06049c-0.29198-0.0547-0.82776-0.5332-1.1906-1.0633-0.92334-1.349-0.94634-4.0361-0.04538-5.3006 0.77668-1.0901 1.3961-1.4172 3.071-1.6216 1.2764-0.15581 1.3417-0.20218 1.3417-0.95395 0-0.60508-0.17407-0.87362-0.74307-1.1463-0.58229-0.27908-0.72541-0.50859-0.66146-1.0607 0.0711-0.61374 0.24353-0.73396 1.3378-0.93271 2.1119-0.38358 2.0511-0.52287 2.0511 4.6933v4.6164l0.72155 0.52561c0.63845 0.46508 0.69106 0.61235 0.45683 1.2788-0.22051 0.62746-0.42124 0.75775-1.2022 0.78031-0.78376 0.02265-1.0144-0.10705-1.407-0.79106l-0.46954-0.81813-0.7318 0.81902c-0.74481 0.83359-1.575 1.1536-2.529 0.97492zm1.9273-2.7951c0.30946-0.32941 0.74555-1.0367 0.96909-1.5717 0.36979-0.88503 0.3675-1.0117-0.0254-1.4046-0.52161-0.52161-1.5682-0.3341-2.3341 0.4182-0.63969 0.62827-0.72621 2.5261-0.1323 2.9017 0.59881 0.37866 0.91018 0.30839 1.5227-0.34366zm9.2798 2.7987c-1.1213-0.18089-2.6061-1.6523-2.871-2.845-0.73276-3.2998 1.639-5.7521 4.7524-4.9137 1.3892 0.37406 2.1701 1.5249 2.0665 3.0454l-0.0721 1.0583-2.0295 0.13229c-2.2143 0.14434-2.5959 0.32124-2.1675 1.0049 0.33521 0.53498 2.2087 0.74497 2.9771 0.33371 0.65778-0.35204 1.3522-0.09748 1.3522 0.49568 0 1.1181-2.0888 1.998-4.0082 1.6884zm1.8915-5.0572c0-0.63606-0.50912-1.1112-1.1906-1.1112s-1.1906 0.47518-1.1906 1.1112c0 0.38806 0.22049 0.47625 1.1906 0.47625s1.1906-0.08819 1.1906-0.47625zm-76.002 4.7989c0.1819-0.0734 0.47956-0.0734 0.66146 0s0.03307 0.13345-0.33073 0.13345c-0.3638 0-0.51263-0.06006-0.33073-0.13345zm6.7519-0.0081c0.25743-0.06708 0.61462-0.06267 0.79375 0.0098 0.17913 0.07248-0.03149 0.12736-0.46806 0.12197-0.43656-0.0054-0.58312-0.06469-0.32569-0.13177zm2.3813 0c0.25743-0.06708 0.61462-0.06267 0.79375 0.0098 0.17913 0.07248-0.03149 0.12736-0.46806 0.12197-0.43656-0.0054-0.58312-0.06469-0.32569-0.13177zm5.4189-0.01038c0.61846-0.0557 1.6305-0.0557 2.249 0 0.61846 0.05571 0.11245 0.10128-1.1245 0.10128s-1.7429-0.04558-1.1245-0.10128zm5.424 0.0011c0.5457-0.05708 1.4387-0.05708 1.9844 0 0.5457 0.05708 0.09922 0.10379-0.99219 0.10379-1.0914 0-1.5379-0.0467-0.99219-0.10379zm17.992 0.01035c0.25466-0.06655 0.67138-0.06655 0.92604 0 0.25466 0.06655 0.0463 0.121-0.46302 0.121-0.50932 0-0.71768-0.05445-0.46302-0.121zm9.062 0.0091c-0.29104-0.06154-0.78283-0.16549-1.0929-0.231-0.86081-0.18187-0.97135-1.1173-0.21024-1.7791 0.61338-0.53332 0.64147-0.69862 0.6376-3.7513-0.0021-1.7564-0.09153-3.3244-0.19844-3.4846-0.10691-0.16012-0.46228-0.4322-0.7897-0.60462-0.65026-0.34244-0.7881-1.1433-0.26458-1.5373 0.1819-0.13688 0.77923-0.37906 1.3274-0.53818 1.6818-0.48822 1.7814-0.2122 1.7814 4.9334 0 4.102 0.04007 4.4743 0.52917 4.9169 0.53839 0.48723 0.65733 1.0779 0.36857 1.8304-0.15545 0.40511-0.91214 0.49396-2.0884 0.24523zm4.7594-0.3593c-0.61408-0.67855-0.61909-1.9549-0.01032-2.6276 0.25941-0.28665 1.2979-0.83689 2.3077-1.2228 1.5215-0.5814 1.8222-0.79402 1.7553-1.2412-0.17713-1.1831-2.2049-1.3172-2.3775-0.15717-0.11758 0.79028-0.8764 1.2323-1.4736 0.85844-0.74552-0.4668-0.71087-1.4909 0.07543-2.2296 0.60937-0.57253 0.93545-0.6528 2.6518-0.6528 1.786 0 2.0212 0.06412 2.6907 0.73352 0.66558 0.66549 0.74224 0.9407 0.82653 2.9672 0.07966 1.915 0.1646 2.2565 0.59531 2.3932 0.58451 0.18552 0.62868 0.59672 0.13408 1.2483-0.48452 0.63828-1.8007 0.59899-2.2161-0.06615-0.41227-0.66015-0.80495-0.66015-1.6489 0-0.90474 0.7077-2.6685 0.70588-3.3104-0.0034zm3.7193-1.7044c0.73938-0.73938 0.82014-1.1538 0.26626-1.3663-0.5256-0.20175-1.9981 0.70832-1.9981 1.2349 0 0.97973 0.82117 1.042 1.7318 0.13137zm26.581 1.9928c-1.9508-0.17354-2.3906-0.71528-1.2092-1.4894 0.608-0.39844 0.67764-0.61474 0.67764-2.1047 0-1.5616-0.0405-1.6708-0.67814-1.8309-0.55008-0.13806-0.6625-0.30586-0.59531-0.88858 0.0663-0.57514 0.29386-0.78802 1.1412-1.0677 1.0095-0.33317 1.0811-0.31923 1.5517 0.30217l0.49336 0.65144 0.93263-0.6329c1.2719-0.86314 2.3011-0.81879 3.2604 0.1405 0.72714 0.72714 0.7734 0.90123 0.7734 2.9104 0 1.2262 0.11276 2.1511 0.26458 2.1701 0.14553 0.01819 0.37373 0.04796 0.50712 0.06615 0.46246 0.06306 0.61398 0.40844 0.45576 1.0388-0.1469 0.58531-0.29908 0.63762-1.9996 0.68727-1.5812 0.04617-1.8792-0.01839-2.1145-0.45805-0.21904-0.40927-0.14284-0.65322 0.38035-1.2178 1.0763-1.1614 0.79785-3.8537-0.39864-3.8537-0.79331 0-1.8172 1.0981-2.0001 2.1451-0.13856 0.79306-0.0511 1.0792 0.51707 1.6923 0.37611 0.40582 0.68382 0.78783 0.68382 0.8489 0 0.28806-0.56935 1.1294-0.73691 1.0889-0.10402-0.02511-0.96196-0.11441-1.9066-0.19844zm-98.002-0.96828c-0.22308-0.58133-0.20072-1.3775 0.0429-1.5281 0.11192-0.06917 0.21572 0.34052 0.23067 0.91043 0.0296 1.129-0.0277 1.2584-0.27357 0.61768zm69.297-9.1726c-0.24635-0.73128-0.25629-1.2264-0.02619-1.3056 0.13346-0.04592 0.26238 0.18434 0.2865 0.51169 0.0565 0.76688 0.26906 0.96569 0.81041 0.75795 0.31387-0.12044 0.38993-0.35241 0.27095-0.82644-0.09521-0.37936-0.05098-0.65899 0.10423-0.65899 0.14829 0 0.27125 0.14883 0.27324 0.33073 0.0021 0.1819 0.07541 0.59862 0.16315 0.92604 0.1441 0.53772 0.06617 0.59531-0.80567 0.59531-0.53635 0-1.0147-0.14695-1.0766-0.33073zm3.1171-0.59531c-0.025-0.88196 0.01659-0.92604 0.8736-0.92604 0.65366 0 0.89985 0.11744 0.89985 0.42927 0 0.3608-0.06652 0.37406-0.41704 0.08316-0.34562-0.28684-0.4582-0.28106-0.6574 0.03375-0.1322 0.20892-0.24219 0.58822-0.24442 0.84288-0.0078 0.88559-0.42851 0.45703-0.45459-0.46302zm1.5089 0.51355c0-0.22687 0.11906-0.3389 0.26458-0.24897 0.14552 0.08994 0.26458 0.27556 0.26458 0.41249 0 0.13693-0.11906 0.24897-0.26458 0.24897-0.14552 0-0.26458-0.18562-0.26458-0.41249zm1.4537 0.14554c-0.26994-0.43677 0.1098-1.244 0.79703-1.6943 0.39171-0.25666 0.58325-0.57583 0.49054-0.81742-0.08365-0.21799-0.02029-0.39635 0.1408-0.39635 0.16142 0 0.29451 0.44536 0.2965 0.99219 0.0021 0.5457 0.07541 1.2601 0.16315 1.5875 0.14356 0.5357 0.06528 0.59531-0.78175 0.59531-0.51771 0-1.0155-0.12013-1.1063-0.26695zm1.2581-1.0958c-0.474-0.474-1.2478 0.23374-0.81961 0.74966 0.26752 0.32234 0.36864 0.31768 0.71953-0.03321 0.31068-0.31068 0.3346-0.48193 0.10009-0.71644zm-76.464-0.092478c0.0029-0.58208 0.05712-0.78906 0.12041-0.45994 0.06329 0.32912 0.06088 0.80537-0.0053 1.0583-0.06622 0.25296-0.118-0.01631-0.11507-0.5984z" fill="#222"/>
  </g>
 </g>
</svg>
