<?xml version="1.0" encoding="UTF-8" standalone="no"?>
<!-- Created with Inkscape (http://www.inkscape.org/) -->

<svg
   width="500"
   height="500"
   viewBox="0 0 31.498646 31.498646"
   version="1.1"
   id="svg5"
   inkscape:version="1.1.1 (3bf5ae0d25, 2021-09-20)"
   sodipodi:docname="phoneIllustra.svg"
   xmlns:inkscape="http://www.inkscape.org/namespaces/inkscape"
   xmlns:sodipodi="http://sodipodi.sourceforge.net/DTD/sodipodi-0.dtd"
   xmlns="http://www.w3.org/2000/svg"
   xmlns:svg="http://www.w3.org/2000/svg">
  <sodipodi:namedview
     id="namedview7"
     pagecolor="#ffffff"
     bordercolor="#111111"
     borderopacity="1"
     inkscape:pageshadow="0"
     inkscape:pageopacity="0"
     inkscape:pagecheckerboard="1"
     inkscape:document-units="mm"
     showgrid="false"
     viewbox-width="50"
     viewbox-height="50"
     units="px"
     scale-x="0.2381"
     inkscape:zoom="0.35723204"
     inkscape:cx="-606.04866"
     inkscape:cy="561.25984"
     inkscape:window-width="1920"
     inkscape:window-height="991"
     inkscape:window-x="-9"
     inkscape:window-y="-9"
     inkscape:window-maximized="1"
     inkscape:current-layer="layer1" />
  <defs
     id="defs2" />
  <g
     inkscape:label="Ebene 1"
     inkscape:groupmode="layer"
     id="layer1">
    <g
       id="g39"
       transform="matrix(1.4335237,0,0,1.4258691,-10.69935,-4.9376429)">
      <path
         style="fill:#a3a3a3;stroke-width:0.115785"
         d="m 9.9722489,22.075903 c 0.00115,-0.284394 0.022388,-0.385516 0.047194,-0.224715 0.02481,0.1608 0.02386,0.393487 -0.0021,0.517081 -0.025957,0.123594 -0.046252,-0.008 -0.045101,-0.292366 z M 26.96204,21.160239 c 0.005,-0.150593 0.02955,-0.181224 0.06266,-0.0781 0.02996,0.09332 0.02627,0.204812 -0.0082,0.247768 -0.03446,0.04296 -0.05897,-0.0334 -0.05447,-0.169667 z m -0.649867,-7.639846 c 0.07486,-0.03734 0.164308,-0.03275 0.19877,0.0102 0.03446,0.04296 -0.02679,0.07351 -0.136114,0.0679 -0.120812,-0.0062 -0.145385,-0.03683 -0.06266,-0.0781 z m -1.964195,-1.042809 c -0.128996,-0.205031 -0.125328,-0.209603 0.03915,-0.04881 0.09982,0.09758 0.181486,0.19938 0.181486,0.226223 0,0.106395 -0.08516,0.03792 -0.220641,-0.177415 z M 14.135248,9.9244953 c 2.07e-4,-0.9953813 0.01644,-1.3854945 0.03618,-0.866919 0.01974,0.5185756 0.0196,1.3329787 -3.11e-4,1.8097847 -0.01988,0.476805 -0.03603,0.05252 -0.03586,-0.9428657 z m 8.710995,0.064635 c 0,-0.959832 0.01633,-1.3524905 0.03628,-0.8725745 0.01995,0.479916 0.01995,1.2652332 0,1.7451492 -0.01995,0.479916 -0.03628,0.08726 -0.03628,-0.8725747 z m 6.627626,0.9048927 c 0,-0.391043 0.01944,-0.551015 0.0432,-0.355494 0.02376,0.195522 0.02376,0.515466 0,0.710987 -0.02376,0.195521 -0.0432,0.03555 -0.0432,-0.355493 z M 16.764755,6.6717597 c 0.0713,-0.035861 0.187966,-0.035861 0.259264,0 0.0713,0.035861 0.01296,0.065202 -0.129632,0.065202 -0.142596,0 -0.20093,-0.029341 -0.129632,-0.065202 z m 3.214881,0 c 0.0713,-0.035861 0.187966,-0.035861 0.259264,0 0.0713,0.035861 0.01296,0.065202 -0.129632,0.065202 -0.142596,0 -0.20093,-0.029341 -0.129632,-0.065202 z m 1.458363,-2.97591 c 0.07486,-0.037342 0.164308,-0.03275 0.19877,0.010206 0.03446,0.042956 -0.02679,0.073508 -0.136114,0.067895 -0.120812,-0.0062 -0.145385,-0.036834 -0.06266,-0.078101 z M 16.86967,3.5634579 c 0.129,-0.030921 0.315671,-0.029747 0.414823,0.00261 0.09915,0.032355 -0.0064,0.057654 -0.234547,0.056219 -0.228153,-0.00143 -0.309277,-0.027907 -0.180276,-0.058829 z m 2.800057,0 c 0.129001,-0.030921 0.315671,-0.029747 0.414824,0.00261 0.09915,0.032355 -0.0064,0.057654 -0.234548,0.056219 -0.228153,-0.00143 -0.309277,-0.027907 -0.180276,-0.058829 z"
         id="path53" />
      <path
         style="fill:#fde800;stroke-width:0.115785"
         d="m 10.570385,23.336289 c 0.0028,-2.059266 0.139531,-3.108872 0.530993,-4.075691 0.179105,-0.442345 1.065791,-2.27145 1.970415,-4.064678 l 1.644771,-3.260416 V 10.445236 8.954968 h 0.725941 0.725941 v 1.357338 1.357338 h 2.333381 2.333382 V 10.312306 8.954968 h 0.72594 0.725941 v 1.418254 1.418254 l 1.710609,3.426215 c 0.940835,1.884419 1.86211,3.786484 2.047278,4.226811 l 0.33667,0.800595 0.0384,2.305059 0.0384,2.305059 h -7.94506 -7.945061 z m 6.220296,-5.20313 V 17.486808 H 16.06474 15.338799 v 0.646351 0.646352 h 0.725941 0.725941 z m 2.468696,0.03232 -0.03161,-0.614034 h -0.725941 -0.72594 l -0.03161,0.614034 -0.03161,0.614034 h 0.789157 0.789158 z m 2.405478,-0.03232 v -0.646351 h -0.725941 -0.72594 v 0.646351 0.646352 h 0.72594 0.725941 z M 16.790681,16.064834 V 15.418483 H 16.06474 15.338799 v 0.646351 0.646352 h 0.725941 0.725941 z m 2.468696,-0.03232 0.03161,-0.614034 h -0.783476 -0.783475 v 0.560171 c 0,0.308095 0.03302,0.601336 0.07338,0.651646 0.04036,0.05031 0.378703,0.07455 0.751867,0.05386 l 0.678483,-0.03761 z m 2.405478,0.03232 v -0.646351 h -0.725941 -0.72594 v 0.646351 0.646352 h 0.72594 0.725941 z M 16.790681,13.867239 V 13.220888 H 16.06474 15.338799 v 0.646351 0.646352 h 0.725941 0.725941 z m 2.48894,0 v -0.646351 h -0.777794 -0.777793 v 0.646351 0.646352 h 0.777793 0.777794 z m 2.385234,0 v -0.646351 h -0.725941 -0.72594 v 0.646351 0.646352 h 0.72594 0.725941 z M 8.844564,12.656001 C 8.3835066,12.393518 8.1830968,11.971194 8.1830968,11.262094 v -0.608565 l 0.3363593,0.120248 c 0.8462932,0.302544 2.4667939,0.0828 3.4748299,-0.471197 l 0.544456,-0.299222 -3.84e-4,0.60692 c -5.6e-4,0.870648 -0.290373,1.390682 -1.001058,1.796248 -0.721043,0.411479 -2.1720386,0.54591 -2.6927321,0.249475 z m 17.487054,-0.07482 c -1.273459,-0.29598 -1.866705,-0.914604 -1.866705,-1.946557 v -0.627378 l 0.596308,0.301623 c 0.911807,0.461204 1.778814,0.627806 2.890083,0.555352 l 0.992328,-0.0647 -0.06911,0.596652 c -0.107402,0.927217 -0.378124,1.184851 -1.307513,1.244301 -0.422792,0.02705 -0.978717,3.88e-4 -1.235389,-0.05929 z M 8.4566091,10.026488 C 8.2926533,9.9739295 8.2737579,9.8841733 8.331648,9.4329075 8.4305265,8.6621255 9.0197123,6.5086128 9.1896793,6.2967476 9.5361419,5.8648785 12.669357,4.8795305 14.768417,4.5423201 c 1.334739,-0.2144234 5.998275,-0.2165617 7.311262,-0.00335 1.495971,0.2429236 3.419619,0.7537527 4.595793,1.2204237 l 1.056175,0.4190587 0.290724,0.7464155 c 0.34431,0.8839904 0.777176,2.8749728 0.657511,3.0242412 C 28.633736,10.00667 28.2102,10.073918 27.738691,10.098549 26.845503,10.145206 26.157182,9.9851698 25.072513,9.4786552 24.502646,9.2125406 24.485679,9.190363 24.417341,8.6223157 24.290512,7.5680725 23.482991,6.7582013 22.119506,6.3177915 20.650684,5.8433575 17.294083,5.7421008 15.578737,6.12048 14.600981,6.3361582 13.751974,6.7314705 13.325566,7.1695942 12.91775,7.5886174 12.545094,8.4141789 12.541019,8.9076372 12.538532,9.2090038 11.943076,9.5732707 10.872231,9.9285094 10.342824,10.104133 8.8834706,10.163325 8.4566091,10.026488 Z"
         id="path51" />
      <path
         style="fill:#a29500;stroke-width:0.115785"
         d="m 14.54277,24.887569 c 2.214462,-0.01947 5.807869,-0.01947 7.985349,1.9e-5 2.177482,0.01948 0.36565,0.03542 -4.026292,0.03541 -4.391942,-10e-6 -6.173517,-0.01595 -3.959057,-0.03543 z m -3.958064,-3.651923 c 0,-0.177746 0.02354,-0.250461 0.05231,-0.161587 0.02877,0.08887 0.02877,0.234302 0,0.323175 -0.02877,0.08887 -0.05231,0.01616 -0.05231,-0.161588 z m 15.755099,-0.592488 c 0.005,-0.150593 0.02955,-0.181224 0.06266,-0.0781 0.02996,0.09332 0.02627,0.204812 -0.0082,0.247768 -0.03446,0.04296 -0.05897,-0.03339 -0.05447,-0.169667 z m -8.572389,-2.509999 0.0085,-0.581716 h 0.72594 0.725941 l 0.0085,0.581716 0.0085,0.581717 -0.04008,-0.549399 -0.04008,-0.549399 H 18.501834 17.83911 l -0.04008,0.549399 -0.04008,0.549399 0.0085,-0.581717 z m -2.091573,-0.61125 c 0.213894,-0.02789 0.563901,-0.02789 0.777794,0 0.213893,0.02789 0.03889,0.05071 -0.388897,0.05071 -0.427786,0 -0.60279,-0.02282 -0.388897,-0.05071 z m 4.874175,0 c 0.213893,-0.02789 0.5639,-0.02789 0.777793,0 0.213894,0.02789 0.03889,0.05071 -0.388897,0.05071 -0.427786,0 -0.60279,-0.02282 -0.388896,-0.05071 z m -4.874175,-0.904893 c 0.213894,-0.02789 0.563901,-0.02789 0.777794,0 0.213893,0.02789 0.03889,0.05071 -0.388897,0.05071 -0.427786,0 -0.60279,-0.02282 -0.388897,-0.05071 z m 2.091709,-0.08019 c -0.03154,-0.102442 -0.03874,-0.410518 -0.01601,-0.684615 0.03926,-0.473395 0.0422,-0.467601 0.05876,0.115676 l 0.01743,0.614034 h 0.668406 0.668406 l 0.0422,-0.614034 0.0422,-0.614034 -0.01059,0.646351 -0.01059,0.646352 -0.701438,0.03826 c -0.535942,0.02924 -0.714967,-0.0057 -0.758778,-0.147994 z m 2.782466,0.08019 c 0.213893,-0.02789 0.5639,-0.02789 0.777793,0 0.213894,0.02789 0.03889,0.05071 -0.388897,0.05071 -0.427786,0 -0.60279,-0.02282 -0.388896,-0.05071 z M 17.75511,13.867239 c 0,-0.391042 0.01944,-0.551014 0.0432,-0.355493 0.02376,0.195521 0.02376,0.515465 0,0.710987 -0.02376,0.195521 -0.0432,0.03555 -0.0432,-0.355494 z m 1.451882,0 c 0,-0.391042 0.01944,-0.551014 0.0432,-0.355493 0.02376,0.195521 0.02376,0.515465 0,0.710987 -0.02376,0.195521 -0.0432,0.03555 -0.0432,-0.355494 z m 7.312593,-1.251738 c 0.07486,-0.03734 0.164308,-0.03275 0.19877,0.0102 0.03446,0.04296 -0.02679,0.07351 -0.136114,0.0679 -0.120812,-0.0062 -0.145386,-0.03683 -0.06266,-0.0781 z m -9.178597,-1.042455 c 0.673417,-0.02255 1.746772,-0.02248 2.385234,1.29e-4 0.638462,0.02264 0.08748,0.04109 -1.224395,0.041 -1.311878,-9e-5 -1.834256,-0.01862 -1.160839,-0.04117 z M 8.1055439,11.087928 c 0.00115,-0.284395 0.022388,-0.385516 0.047194,-0.224716 0.024806,0.160801 0.023864,0.393487 -0.00209,0.517081 -0.025957,0.123594 -0.046253,-0.008 -0.045101,-0.292365 z M 24.38736,10.441576 c 0.0012,-0.284394 0.02239,-0.385516 0.04719,-0.224715 0.02481,0.1608 0.02386,0.393487 -0.0021,0.517081 -0.02596,0.123594 -0.04625,-0.008 -0.0451,-0.292366 z m 2.235931,0.364141 c 0.07486,-0.03734 0.164308,-0.03275 0.198769,0.0102 0.03446,0.04296 -0.02679,0.07351 -0.136114,0.0679 -0.120812,-0.0062 -0.145385,-0.03683 -0.06266,-0.0781 z M 12.562802,10.376941 c 0,-0.248845 0.02134,-0.350645 0.04743,-0.226223 0.02609,0.124423 0.02609,0.328024 0,0.452446 -0.02609,0.124423 -0.04743,0.02262 -0.04743,-0.226223 z M 9.2475076,10.154909 c 0.1576393,-0.02971 0.3909774,-0.02892 0.5185292,0.0018 0.1275516,0.03068 -0.00143,0.05499 -0.286617,0.05402 -0.2851911,-0.001 -0.3895516,-0.02608 -0.2319122,-0.05579 z m 18.0952424,0.0015 c 0.128336,-0.03081 0.33834,-0.03081 0.466676,0 0.128336,0.03081 0.02333,0.05602 -0.233338,0.05602 -0.256672,0 -0.361674,-0.02521 -0.233338,-0.05602 z M 12.558959,8.8903329 c 0.0021,-0.213296 0.02536,-0.284904 0.05165,-0.1591279 0.02629,0.1257761 0.02456,0.300291 -0.0038,0.3878109 -0.02841,0.08752 -0.04992,-0.015387 -0.04781,-0.228683 z m 11.818622,-0.064635 c 0,-0.1777466 0.02354,-0.2504612 0.05231,-0.1615879 0.02877,0.088873 0.02877,0.2343025 0,0.3231758 -0.02877,0.088873 -0.05231,0.016159 -0.05231,-0.1615879 z M 16.045295,6.0227151 c 0.07486,-0.037343 0.164309,-0.03275 0.19877,0.010206 0.03446,0.042955 -0.02679,0.073508 -0.136114,0.067895 -0.120812,-0.0062 -0.145385,-0.036834 -0.06266,-0.078101 z m 4.666763,0 c 0.07486,-0.037343 0.164308,-0.03275 0.19877,0.010206 0.03446,0.042955 -0.02679,0.073508 -0.136114,0.067895 -0.120812,-0.0062 -0.145385,-0.036834 -0.06266,-0.078101 z M 17.283284,5.8961379 c 0.0713,-0.035861 0.187967,-0.035861 0.259264,0 0.0713,0.035861 0.01296,0.065202 -0.129632,0.065202 -0.142595,0 -0.20093,-0.029341 -0.129632,-0.065202 z m 2.024237,-0.00397 c 0.100903,-0.032776 0.240906,-0.03062 0.311118,0.00479 0.07021,0.03541 -0.01234,0.062227 -0.183459,0.059592 -0.171115,-0.00263 -0.228562,-0.031606 -0.127659,-0.064382 z M 15.008237,4.4714715 c 0.07486,-0.037342 0.164308,-0.03275 0.19877,0.010206 0.03446,0.042956 -0.02679,0.073508 -0.136114,0.067895 -0.120812,-0.0062 -0.145385,-0.036834 -0.06266,-0.078101 z m 6.740879,0 c 0.07486,-0.037342 0.164309,-0.03275 0.19877,0.010206 0.03446,0.042956 -0.02679,0.073508 -0.136114,0.067895 -0.120812,-0.0062 -0.145385,-0.036834 -0.06266,-0.078101 z M 16.194373,4.3413982 c 0.09982,-0.032515 0.263153,-0.032515 0.36297,0 0.09982,0.032515 0.01815,0.059118 -0.181485,0.059118 -0.199634,0 -0.281302,-0.026603 -0.181485,-0.059118 z m 4.044527,0 c 0.09982,-0.032515 0.263154,-0.032515 0.362971,0 0.09982,0.032515 0.01815,0.059118 -0.181486,0.059118 -0.199633,0 -0.281302,-0.026603 -0.181485,-0.059118 z M 14.489708,3.82512 c 0.07486,-0.037342 0.164308,-0.03275 0.19877,0.010206 0.03446,0.042956 -0.02679,0.073508 -0.136114,0.067895 -0.120812,-0.0062 -0.145385,-0.036834 -0.06266,-0.078101 z"
         id="path49" />
      <path
         style="fill:#5d5d5d;stroke-width:0.115785"
         d="m 9.98606,24.079593 c 0,-0.888733 0.016569,-1.252306 0.03682,-0.807939 0.02025,0.444366 0.02025,1.171512 0,1.615878 -0.02025,0.444367 -0.03682,0.08079 -0.03682,-0.807939 z m 17.010227,-0.581716 c -1.03e-4,-1.208678 0.01547,-1.720536 0.03464,-1.137463 0.01917,0.583073 0.01927,1.571991 2.07e-4,2.197595 -0.01905,0.625604 -0.03474,0.148545 -0.03486,-1.060132 z M 9.0970045,13.520393 c 0.074863,-0.03734 0.1643089,-0.03275 0.1987696,0.0102 0.034461,0.04296 -0.026791,0.07351 -0.1361139,0.0679 -0.1208114,-0.0062 -0.1453853,-0.03683 -0.062656,-0.0781 z m 1.0305765,0.0027 c 0.0713,-0.03586 0.187967,-0.03586 0.259265,0 0.0713,0.03586 0.01296,0.0652 -0.129632,0.0652 -0.142596,0 -0.200931,-0.02934 -0.129633,-0.0652 z m 16.489228,0 c 0.0713,-0.03586 0.187967,-0.03586 0.259264,0 0.0713,0.03586 0.01296,0.0652 -0.129632,0.0652 -0.142595,0 -0.20093,-0.02934 -0.129632,-0.0652 z m 1.147246,-0.0027 c 0.07486,-0.03734 0.164308,-0.03275 0.19877,0.0102 0.03446,0.04296 -0.02679,0.07351 -0.136114,0.0679 -0.120812,-0.0062 -0.145386,-0.03683 -0.06266,-0.0781 z m -7.52921,-3.9513911 -0.02187,-1.3896557 1.322249,0.027951 1.322249,0.027951 -1.266803,0.040627 -1.266804,0.040627 -0.03358,1.3210778 -0.03357,1.321078 z M 7.5690491,9.7844529 c 0.00498,-0.1505935 0.02955,-0.1812241 0.062656,-0.078101 0.029958,0.093316 0.026273,0.204812 -0.00819,0.2477685 -0.034461,0.042955 -0.058971,-0.033396 -0.054468,-0.1696672 z M 14.85051,8.2126333 c 0.387379,-0.02494 0.994059,-0.024754 1.348176,3.878e-4 0.354116,0.025166 0.03717,0.045572 -0.704328,0.045345 -0.741497,-2.586e-4 -1.031229,-0.020816 -0.643848,-0.045757 z m 1.609609,-1.5435667 c 0.07486,-0.037343 0.164308,-0.03275 0.19877,0.010206 0.03446,0.042956 -0.02679,0.073508 -0.136114,0.067895 -0.120812,-0.0062 -0.145386,-0.036834 -0.06266,-0.078101 z m 3.940821,0 c 0.07486,-0.037343 0.164309,-0.03275 0.19877,0.010206 0.03446,0.042956 -0.02679,0.073508 -0.136114,0.067895 -0.120812,-0.0062 -0.145385,-0.036834 -0.06266,-0.078101 z M 22.16394,3.82512 C 22.2388,3.787778 22.328248,3.79237 22.36271,3.835326 22.39717,3.878282 22.33592,3.908834 22.226596,3.903221 22.105783,3.897021 22.08121,3.866387 22.163936,3.82512 Z M 15.630472,3.6958497 c 0.07486,-0.037342 0.164308,-0.03275 0.19877,0.010206 0.03446,0.042956 -0.02679,0.073508 -0.136114,0.067895 -0.120812,-0.0062 -0.145385,-0.036834 -0.06266,-0.078101 z m 5.496409,0 c 0.07486,-0.037342 0.164309,-0.03275 0.19877,0.010206 0.03446,0.042956 -0.02679,0.073508 -0.136114,0.067895 -0.120812,-0.0062 -0.145385,-0.036834 -0.06266,-0.078101 z M 17.905519,3.5595823 c 0.29945,-0.026113 0.78946,-0.026113 1.088911,0 0.299451,0.026113 0.05445,0.047478 -0.544456,0.047478 -0.598901,0 -0.843906,-0.021365 -0.544455,-0.047478 z"
         id="path47" />
      <path
         style="fill:#847900;stroke-width:0.115785"
         d="m 9.6102612,12.87092 c 0.129001,-0.03092 0.3156715,-0.02975 0.4148238,0.0026 0.09915,0.03236 -0.0064,0.05765 -0.2345477,0.05622 C 9.5623844,12.92834 9.4812602,12.90183 9.6102612,12.87091 Z M 20.76987,10.247671 c 0,-0.746536 0.01714,-1.051937 0.03809,-0.6786691 0.02095,0.373268 0.02095,0.9840701 0,1.3573381 -0.02095,0.373268 -0.03809,0.06787 -0.03809,-0.678669 z M 18.011966,5.8869318 c 0.24392,-0.027308 0.617261,-0.026924 0.829646,8.531e-4 0.212386,0.027777 0.01281,0.05012 -0.44349,0.049651 -0.456306,-4.654e-4 -0.630077,-0.023196 -0.386156,-0.050504 z"
         id="path45" />
      <path
         style="fill:#605800;stroke-width:0.115785"
         d="m 26.475947,23.303971 c 0,-0.959832 0.01633,-1.35249 0.03628,-0.872574 0.01995,0.479916 0.01995,1.265233 0,1.745149 -0.01995,0.479916 -0.03628,0.08726 -0.03628,-0.872575 z m -6.233312,-5.106177 c 8.29e-4,-0.355493 0.02092,-0.485579 0.04476,-0.28908 0.02384,0.196498 0.0232,0.487356 -0.0014,0.646351 -0.02461,0.158995 -0.04412,-0.0018 -0.04334,-0.357271 z m 0,-2.197595 c 8.29e-4,-0.355493 0.02092,-0.485579 0.04476,-0.28908 0.02384,0.196498 0.0232,0.487356 -0.0014,0.646351 -0.02461,0.158995 -0.04412,-0.0018 -0.04334,-0.357271 z m -0.01097,-2.100642 -0.01869,-0.678669 0.700014,0.02491 0.700014,0.02491 -0.642675,0.04572 -0.642675,0.04572 -0.03865,0.608043 -0.03865,0.608043 z M 15.725384,13.25686 c 0.184101,-0.02856 0.510775,-0.02903 0.72594,-10e-4 0.215165,0.02798 0.06454,0.05135 -0.334731,0.05192 -0.399267,5.18e-4 -0.575312,-0.02232 -0.391209,-0.05088 z m 2.49311,-3.88e-4 c 0.186395,-0.02877 0.466401,-0.02818 0.622235,0.0013 0.155833,0.0295 0.0033,0.05304 -0.338902,0.05231 -0.342229,-7.75e-4 -0.469729,-0.02486 -0.283333,-0.05363 z M 8.3772803,12.348313 c -0.1289967,-0.20503 -0.1253286,-0.209602 0.039155,-0.04881 0.099817,0.09758 0.1814852,0.19938 0.1814852,0.226223 0,0.106395 -0.085162,0.03792 -0.2206399,-0.177416 z m 7.8126887,-2.062661 -0.02152,-1.3193573 -0.751867,-0.044613 -0.751868,-0.044614 0.755122,-0.025685 c 0.54642,-0.018586 0.769696,0.021654 0.807853,0.1455998 0.029,0.094207 0.03722,0.719552 0.01827,1.3896555 l -0.03446,1.21837 z m 4.982284,-1.4248535 c 0.213893,-0.027889 0.5639,-0.027889 0.777793,0 0.213894,0.02789 0.03889,0.050708 -0.388897,0.050708 -0.427786,0 -0.60279,-0.022818 -0.388896,-0.050708 z M 18.114788,4.2075511 c 0.186396,-0.028771 0.466401,-0.028177 0.622235,0.00132 0.155833,0.029496 0.0033,0.053036 -0.338901,0.05231 -0.34223,-7.239e-4 -0.46973,-0.024859 -0.283334,-0.053629 z"
         id="path43" />
      <path
         style="fill:#010101;stroke-width:0.115785"
         d="m 10.051603,23.465559 c 0.003,-3.556122 0.07739,-3.808704 2.579219,-8.752505 l 1.567213,-3.09693 V 9.9623702 8.3086165 h 1.296323 1.296323 v 1.292703 1.2927035 h 1.762999 1.762999 V 9.6013195 8.3086165 h 1.24447 1.24447 V 9.95896 11.609302 l 1.724686,3.423517 c 0.948577,1.882933 1.870263,3.801632 2.04819,4.263773 l 0.323505,0.840257 0.0333,2.746994 0.0333,2.746994 h -8.459403 -8.459403 l 0.0018,-2.165278 z m 16.486639,0.06464 c -0.001,-1.863363 -0.149161,-3.460305 -0.371235,-4.001571 -0.09612,-0.234265 -1.008418,-2.093014 -2.027336,-4.130553 L 22.28709,11.693453 V 10.253912 8.8143711 l -0.751867,0.037981 -0.751867,0.037981 -0.02955,1.3250199 -0.02956,1.325021 h -2.22242 -2.222419 l -0.02955,-1.325021 -0.02955,-1.3250199 -0.751867,-0.037981 -0.751868,-0.037981 v 1.5035219 1.503521 l -1.638351,3.252826 c -2.606654,5.175316 -2.509882,4.869421 -2.509882,7.933715 v 1.97653 h 7.985349 7.98535 l -8.3e-4,-1.454291 z m -11.199443,-5.3324 v -0.581716 h 0.725941 0.725941 v 0.581716 0.581717 H 16.06474 15.338799 Z m 2.48894,0 v -0.581716 h 0.674088 0.674088 v 0.581716 0.581717 h -0.674088 -0.674088 z m 2.48894,0 v -0.581716 h 0.674088 0.674088 v 0.581716 0.581717 h -0.674088 -0.674088 z m -4.97788,-2.197595 v -0.581716 h 0.725941 0.725941 v 0.581716 0.581717 H 16.06474 15.338799 Z m 2.48894,0 v -0.581716 h 0.674088 0.674088 v 0.581716 0.581717 h -0.674088 -0.674088 z m 2.48894,0 v -0.581716 h 0.674088 0.674088 v 0.581716 0.581717 h -0.674088 -0.674088 z m -4.978113,-2.100642 -2.07e-4,-0.614034 0.726175,0.04293 0.726174,0.04292 v 0.571108 0.571109 h -0.725941 -0.725941 l -2.07e-4,-0.614034 z m 2.489173,0 v -0.614034 h 0.674088 0.674088 v 0.614034 0.614034 h -0.674088 -0.674088 z m 2.48894,0.04335 v -0.570687 l 0.674306,-0.04335 0.674306,-0.04335 -2.08e-4,0.614034 -2.07e-4,0.614034 H 20.990788 20.3167 V 13.942905 Z M 8.8766093,13.478666 C 8.6021017,13.4185 8.2683614,13.28013 8.1349642,13.171178 7.2569048,12.454028 7.4047455,9.5040811 8.4639543,6.6066537 L 8.8262242,5.6156774 10.086175,5.0980379 C 12.778387,3.9919657 15.286,3.6018985 19.124062,3.6921654 c 3.569941,0.083961 5.559838,0.4608274 8.105807,1.5351583 l 0.950105,0.4009187 0.461689,1.2432343 c 0.631914,1.7016113 0.749277,2.3114349 0.749277,3.8932753 0,1.626751 -0.131833,2.11295 -0.663007,2.445171 -0.809502,0.506302 -2.551989,0.42544 -3.589375,-0.166565 C 24.186441,12.500012 23.850127,11.632365 23.845213,9.7066877 23.842486,8.6393093 23.731602,8.1122873 23.449704,7.8269192 23.0666,7.4390992 22.135646,7.0068594 21.2854,6.8220394 20.235659,6.593854 17.059232,6.5587012 15.929046,6.7627617 c -1.501142,0.271039 -2.585486,1.1095482 -2.705968,2.0924898 -0.02851,0.2325909 -0.07294,0.9004439 -0.09873,1.4841175 -0.07529,1.703998 -0.569589,2.52452 -1.771712,2.940996 -0.695713,0.241031 -1.8568149,0.334022 -2.4760307,0.198301 z m 2.4234627,-0.842045 c 0.900351,-0.395969 1.342376,-1.136777 1.342376,-2.249745 V 9.8849592 L 11.934993,10.255474 C 10.786929,10.856746 9.3990024,11.0203 8.3170621,10.68181 8.1019041,10.614497 8.079391,10.652032 8.079391,11.078066 c 0,0.949495 0.3057141,1.47414 1.031002,1.769334 0.3571753,0.145371 1.666432,0.01934 2.189679,-0.210779 z m 17.327314,-0.280626 c 0.162092,-0.202261 0.240726,-0.490423 0.275191,-1.008463 l 0.04825,-0.725286 -0.298473,0.10357 c -0.164161,0.05696 -0.718482,0.100045 -1.231826,0.09573 -0.925294,-0.0078 -2.071734,-0.332004 -2.774131,-0.784574 l -0.28519,-0.1837512 v 0.5245532 c 0,1.581846 0.993199,2.345594 2.978899,2.290707 0.935131,-0.02585 1.08714,-0.06275 1.28728,-0.312486 z M 10.523358,10.107193 c 0.338445,-0.07726 0.953695,-0.3153782 1.367222,-0.5291447 0.670211,-0.3464548 0.751868,-0.4265002 0.751868,-0.737023 0,-0.1915954 0.105002,-0.6045119 0.233338,-0.9175916 0.296403,-0.7230864 1.092285,-1.2914172 2.288064,-1.6338853 0.70222,-0.2011141 1.270463,-0.2431621 3.286124,-0.2431621 2.771534,0 3.626266,0.1563269 4.767336,0.8719269 0.741262,0.4648689 1.139072,1.1146551 1.142191,1.8656703 0.0016,0.3939629 0.03602,0.4272306 0.842229,0.8147765 0.975334,0.468848 2.224778,0.728452 2.892887,0.601072 0.794894,-0.151553 0.802779,-0.172591 0.523941,-1.3981475 -0.134494,-0.5911311 -0.372816,-1.4337951 -0.529604,-1.872585 l -0.28507,-0.7978 -0.969471,-0.385624 c -2.537602,-1.0093753 -5.17373,-1.4681283 -8.436291,-1.4681283 -3.254915,0 -5.746636,0.4404262 -8.257255,1.4595178 L 9.1430214,6.1421029 8.8749217,6.9558688 C 8.5759361,7.8633825 8.1440372,9.8542614 8.2244127,9.9544511 8.4425203,10.226325 9.6500713,10.306554 10.523358,10.107193 Z"
         id="path41" />
    </g>
  </g>
</svg>
