<?xml version="1.0" encoding="UTF-8" standalone="no"?>
<svg
   version="1.0"
   width="38"
   height="31"
   id="svg6"
   sodipodi:docname="SaxophoneWeiss.svg"
   viewBox="0 0 72.2 58.9"
   inkscape:version="1.1.1 (3bf5ae0d25, 2021-09-20)"
   xmlns:inkscape="http://www.inkscape.org/namespaces/inkscape"
   xmlns:sodipodi="http://sodipodi.sourceforge.net/DTD/sodipodi-0.dtd"
   xmlns="http://www.w3.org/2000/svg"
   xmlns:svg="http://www.w3.org/2000/svg">
  <defs
     id="defs10" />
  <sodipodi:namedview
     id="namedview8"
     pagecolor="#ffffff"
     bordercolor="#111111"
     borderopacity="1"
     inkscape:pageshadow="0"
     inkscape:pageopacity="0"
     inkscape:pagecheckerboard="1"
     showgrid="false"
     height="59px"
     units="px"
     scale-x="1.9"
     inkscape:zoom="13.366667"
     inkscape:cx="10.735661"
     inkscape:cy="23.977556"
     inkscape:window-width="1920"
     inkscape:window-height="991"
     inkscape:window-x="-9"
     inkscape:window-y="-9"
     inkscape:window-maximized="1"
     inkscape:current-layer="svg6" />
  <g
     transform="matrix(0.37899628,-0.00137253,-0.00112541,-0.31075823,-1.4214372,48.106323)"
     id="g4"
     style="fill:#ffffff;fill-opacity:1">
    <path
       d="m 192,-7.03125 q 0,-4.203125 -3.71875,-12.109375 -2.04688,-4.390625 -6.73438,-7.8125 -1.17187,-0.59375 -3.60937,-1.65625 -9.67188,-4.5 -24.8125,-4.5 -4.48438,0 -10.64063,3.515625 -0.59375,0.296875 -3.42187,3.8125 Q 133.5,-19.046875 129,-7.328125 q -0.67188,2.25 -2.53125,6.34375 -1.5625,0.984375 -4.29687,3.625 -2.25,3.421875 -4.59375,9.375 -2.04688,4.78125 -4,9.671875 -0.78125,1.953125 -2.64063,5.46875 -1.07812,0.484375 -2.73437,2.046875 -0.0937,0.96875 -0.48438,2.734375 -0.20312,0.6875 -1.65625,3.21875 -1.07812,1.765625 -1.07812,3.515625 0,0 0.0937,2.4375 1.07812,0.5 2.73437,2.0625 l -28.90625,63.375005 -1.859375,-0.59375 -8.6875,17.48437 q 0.390625,0.39063 3.21875,2.4375 -1.953125,5.375 -3.125,6.75 -2.140625,2.625 -6.734375,2.625 -2.921875,0 -16.5,-1.75 -14.0625,-1.85938 -15.234375,-2.54688 -0.78125,-0.39062 -1.859375,-2.82812 -1.171875,-0.0937 -4.0625,-0.39062 -2.875,-0.29688 -4.4375,-0.29688 -0.09375,0.20313 -1.75,3.32812 H 8.59375 L 8.015625,132.125 q 6.921875,3.71875 9.46875,7.8125 0.484375,1.28125 1.65625,3.625 0.875,1.17187 14.9375,3.40625 26.078125,4.10937 29.890625,4.10937 9.5625,0 12.890625,-2.15625 Q 79,147.65625 86.140625,138.875 q 1.171875,0 3.609375,-0.20313 1.265625,-1.65625 1.265625,-2.82812 0,-0.39063 -0.875,-1.07813 -0.875,-0.6875 -0.875,-1.17187 0,-0.96875 2.921875,-7.90625 1.078125,-0.0937 3.21875,-0.20312 3.125,-5.5625 9.28125,-16.89063 h 3.03125 q 3.51563,-8 9.5625,-18.453125 2.0625,-0.59375 4.10938,-1.078125 3.125,-0.96875 3.42187,-4.984375 l 2.04688,-0.671875 q 0.875,-1.078125 2.64062,-3.421875 7.60937,4.203125 12.5,4.203125 h 22.9375 q 6.25,0 13,-2.84375 4.57812,-1.953125 4.57812,-8.6875 0,-4.203125 -8.39062,-7.90625 -1.46875,-6.640625 -1.46875,-9.1875 0,-1.84375 6.15625,-19.03125 1.07812,-3.234375 3.42187,-9.578125 1.65625,-3.21875 4.57813,-9.859375 Q 192,3.71875 192,-7.03125 q 0,10.75 0,0 M 104.5,99.8125 q -0.89062,2.82813 -3.42187,2.82813 -1.95313,0 -1.95313,-2.04688 0,-2.453125 1.95313,-2.453125 2.04687,0 3.42187,1.671875 -1.375,-1.671875 0,0 m 3.21875,-5.1875 v 1.671875 q 0,0.28125 -0.98437,1.265625 -0.67188,-0.203125 -1.95313,-0.875 V 94.625 q 0.6875,-0.578125 1.375,-0.578125 0.39063,0 0.875,0.28125 0.48438,0.296875 0.6875,0.296875 -0.20312,0 0,0 m 10.45313,-12.5 v 0.984375 q -0.5,0.96875 -1.95313,2.53125 -0.98437,-1.84375 -0.98437,-1.75 0,-1.265625 1.95312,-2.4375 0.29688,0.28125 0.98438,0.671875 -0.6875,-0.390625 0,0 m -5.375,3.234375 v 2.34375 q -1.95313,0.875 -1.85938,0.875 -0.875,0 -1.65625,-0.875 v -2.34375 q 1.95313,-0.890625 1.65625,-0.890625 -0.0937,0 1.85938,0.890625 -1.95313,-0.890625 0,0 M 126.85938,75 q 0,0.296875 -1.95313,3.125 -0.6875,-1.171875 -2.04687,-1.171875 1.35937,0 -4.01563,0.875 0.5,-2.734375 0,-5.5625 3.23438,-1.859375 4.5,-1.859375 0.57813,0 2.04688,1.953125 1.46875,1.953125 1.46875,2.640625 0,-0.6875 0,0 m 6.82812,-14.15625 v 4.09375 q -1.5625,0.78125 -3.51563,1.46875 0.89063,-1.75 3.51563,-5.5625 -2.625,3.8125 0,0 M 108.59375,81.734375 V 84.1875 q 0,0.578125 -2.53125,3.21875 -1.28125,-3.609375 -1.28125,-2.828125 0,-1.078125 1.28125,-2.84375 h 2.53125 v 0 m 7.51563,-7.421875 v 1.28125 q -1.95313,-0.203125 -2.625,-0.203125 h -0.59375 q -0.6875,0 -1.26563,0.203125 v 1.453125 q 0.57813,0.5 1.46875,1.671875 -0.59375,0 -1.28125,0.671875 -1.95312,-1.953125 -1.95312,-2.53125 0,-1.265625 1.46875,-2.828125 1.46875,-1.5625 2.73437,-1.5625 -0.0937,0 2.04688,1.84375 -2.14063,-1.84375 0,0 m 45.12499,-41.890625 q 0,5.953125 -7.32812,5.953125 -3.21875,0 -4.875,-2.53125 8,-1.765625 8,-2.9375 0,-1.359375 -1.5625,-1.953125 l -7.32813,1.765625 v -2.734375 q 0,-1.765625 1.8125,-3.078125 1.8125,-1.3125 3.65625,-1.3125 7.625,0 7.625,6.828125 0,-6.828125 0,0 m -32.625,24.21875 q -0.78124,3.125 -3.12499,6.84375 -0.28125,-1.078125 -0.96875,-3.125 1.17187,-0.296875 4.09374,-3.71875 -2.92187,3.421875 0,0 m -5.26562,8.796875 q 0,0.28125 -0.20312,0.578125 -0.1875,0.296875 -0.1875,0.484375 -5.07813,-1.453125 -5.5625,-1.453125 L 117,65.234375 v 1.375 q 0.96875,0.578125 3.01563,1.84375 -0.57813,0 -1.60938,0.6875 -1.01562,0.6875 -1.51562,0.6875 -1.95313,0 -1.95313,-3.03125 0,-4.78125 4.79688,-4.78125 0.39062,0 1.10937,0.1875 0.73438,0.203125 1.125,0.203125 1.375,2.734375 1.375,3.03125 0,-0.296875 0,0 M 184.375,-6.34375 q 0,12.890625 -4.09375,21.671875 Q 178.60937,17.875 175.98437,23.34375 172.75,32.421875 169.4375,41.5 q -3.42188,10.75 -3.42188,18.953125 0,3.421875 2.04688,6.546875 -2.14063,-0.203125 -4,-0.203125 -2.73438,0 -4.29688,0.484375 v 1.078125 q 2.64063,0.296875 7.90625,1.171875 2.64063,0.59375 7.92188,3.90625 v 1.65625 q -1.17188,1.171875 -4.59375,2.390625 -3.42188,1.234375 -5.17188,1.234375 h -22.5625 q -0.98437,0 -5.32812,-0.890625 -4.34375,-0.875 -5.03125,-1.265625 -1.84375,-1.078125 -1.84375,-2.53125 0,-3.03125 9.95312,-4.796875 6.34375,-0.671875 12.79688,-1.453125 v -1.375 q -1.95313,-1.265625 -6.64063,-1.75 -6.84375,-0.78125 -7.125,-0.890625 v -3.90625 q 0,-9.5625 5.75,-22.0625 2.25,1.5625 4.64063,3.125 2.39062,1.5625 4.84375,1.5625 0.67187,0 1.45312,-0.09375 -3.79687,11.515625 -3.79687,20.3125 0,3.515625 4.875,3.515625 1.95312,0 2.25,-1.5625 -1.07813,-0.78125 -1.07813,-4.203125 0,-10.84375 3.21875,-20.125 2.34375,-6.734375 2.34375,-10.046875 0,-1.5625 -2.92187,-5.578125 Q 162.59375,25 163.76562,25 q 4.01563,0 7.32813,-3.078125 3.32812,-3.078125 3.32812,-7.078125 0,-5.078125 -3.42187,-8.109375 -3.42188,-3.015625 -8.59375,-3.015625 -3.71875,0 -7.32813,3.125 0.0937,-0.6875 0.0937,-1.171875 0,-4.109375 -2.82812,-6.546875 0.875,-2.34375 3.03125,-5.96875 1.17187,-0.671875 2.64062,-2.53125 h 5.95313 q -1.5625,3.421875 -1.5625,2.4375 v 8.015625 q 6.04687,1.078125 8.29687,4.203125 3.32813,0.09375 6.78125,-2.15625 3.46875,-2.25 3.46875,-5.46875 0,-10.0625 -10.04687,-10.0625 -1.375,0 -2.73438,0.296875 0.875,-2.25 0.875,-4.390625 0,-3.625 -2.9375,-7.53125 2.64063,0.78125 7.625,3.03125 10.64063,6.546875 10.64063,14.65625 0,-8.109375 0,0 m -50.57813,52.828125 v 1.375 q 0,0.390625 -2.73437,6.640625 H 129 q 0.59375,-0.78125 0.59375,-2.15625 0,-0.390625 -0.59375,-3.703125 2.15625,-0.5 3.625,-2.15625 h 1.17187 v 0 m 36.42188,-32.125 q 0,2.53125 -2.54688,4.921875 -2.53125,2.40625 -5.17187,2.40625 -2.04688,0 -5.65625,-3.71875 v -1.265625 q 7.42187,-2.15625 7.42187,-3.90625 0,-0.984375 -1.46875,-0.984375 -0.6875,0 -5.95312,1.765625 Q 157.8125,7.625 162.10937,7.625 q 1.95313,0 7.03125,2.53125 1.07813,2.15625 1.07813,4.203125 0,-2.046875 0,0 m -32.03125,24.125 q -0.6875,2.046875 -2.15625,6.25 -1.95313,-1.078125 -1.95313,-2.9375 V 39.65625 q 1.46875,-0.203125 4.10938,-1.171875 -2.64063,0.96875 0,0 m -11.92187,13.28125 v 0.96875 q -1.75,-0.875 -2.23438,-0.875 -0.98437,0 -0.98437,0.875 0,0.484375 2.04687,2.546875 -0.48437,0.671875 -1.5625,1.953125 H 120.3125 V 52.25 q 2.64063,-2.15625 4.5,-2.15625 1.45313,0 1.45313,1.671875 0,-1.671875 0,0 m 29.79687,-30.1875 q -0.78125,-0.1875 -1.76563,-0.1875 -3.51562,0 -6.6875,3.015625 -3.17187,3.03125 -2.875,6.453125 -1.85937,1.078125 -4.29687,3.609375 0,-0.875 -0.34375,-2.6875 Q 139.75,29.984375 139.75,29 q 0,-0.78125 1.0625,-1.859375 1.07812,-1.0625 0.79687,-2.4375 1.5625,0.890625 1.84375,0.890625 1.67188,0 3.67188,-2.453125 2,-2.4375 1.60937,-4.09375 2.14063,0 4.29688,-1.265625 0.875,1.359375 3.03125,3.796875 -2.15625,-2.4375 0,0 m -25,18.46875 v 1.75 q -1.95313,-0.1875 -2.64063,-0.1875 -1.07812,0 -1.56249,0.1875 v 1.171875 q 1.07812,0.6875 3.31249,2.15625 -2.04687,1.359375 -2.53124,1.359375 -3.125,0 -3.125,-3.609375 V 41.5 q 0,-3.40625 3.42187,-3.40625 3.125,0 3.125,1.953125 0,-1.953125 0,0 M 31.546875,134.46875 v 1.5625 q 0,1.28125 -0.296875,3.32812 -0.390625,2.4375 -0.484375,3.3125 -1.859375,-0.1875 -1.859375,-4.1875 0,-4.40625 1.65625,-4.40625 0.6875,0 0.984375,0.39063 -0.296875,-0.39063 0,0 M 177.73437,-2.046875 q 0,1.359375 -2.34375,2.4375 Q 173.4375,1.375 171.875,1.375 q -1.75,0 -4,-1.078125 0.96875,-0.59375 3.03125,-1.5625 4.6875,-1.953125 4.6875,-3.515625 0,-1.375 -1.375,-1.375 -1.26563,0 -8.39063,3.90625 v -3.421875 q 1.65625,-3.40625 6.34375,-3.40625 5.5625,0 5.5625,7.03125 0,-7.03125 0,0 M 136.71875,29.59375 v 2.828125 q -1.07813,-0.390625 -3.21875,-0.875 l -0.29688,0.1875 V 32.8125 q 0.98438,0.78125 2.9375,2.4375 -1.46875,2.25 -2.34375,2.25 -0.98437,0 -3.1875,-2.046875 -2.1875,-2.046875 -2.1875,-3.03125 0,-1.171875 1.84375,-2.984375 1.85938,-1.796875 3.03125,-1.796875 0.6875,0 2.04688,0.671875 1.375,0.6875 1.375,1.28125 0,-0.59375 0,0 M 153.125,11.234375 v 2.921875 q -2.4375,1.5625 -4.29688,2.453125 -0.6875,-1.375 -0.6875,-2.34375 2.84375,-0.5 4.98438,-3.03125 -2.14063,2.53125 0,0 m -17.57813,0.09375 q -0.875,1.375 -2.04687,3.90625 -0.0937,3.03125 -1.65625,8.984375 -6.0625,4.203125 -6.0625,7.515625 0,1.671875 0.78125,3.328125 -5.375,1.859375 -5.375,6.9375 0,-1.28125 1.17188,5.265625 -4.6875,2.4375 -4.6875,6.25 0,3.03125 0.78125,5.46875 -1.65625,0.09375 -3.95313,2.296875 -2.29687,2.203125 -2.29687,3.859375 0,0.578125 0.14062,1.65625 0.15625,1.078125 0.15625,1.65625 0,1.859375 -1.07812,2.25 -1.75,-1.75 -2.625,-1.75 -1.17188,0 -2.45313,3.609375 -0.96875,3.125 -0.96875,4.78125 1.07813,0.59375 2.92188,1.953125 Q 104,78.125 104.5,78.125 q -1.07812,0 -1.76562,1.171875 -0.29688,0.484375 -5.468755,12.796875 0,0.578125 0.78125,0.96875 l 4.390625,-6.25 h 1.07813 q 1.375,2.9375 2.64062,3.421875 1.95313,0.390625 4,0.875 l -0.39062,1.375 q -1.65625,-0.875 -3.51563,-0.875 -2.14062,0 -3.17187,2.09375 -1.03125,2.09375 -1.70313,2.09375 -0.89062,0 -3.90625,-2.4375 -0.984375,0.984375 -2.984375,4.34375 -2,3.375005 -2,4.250005 0,0.39062 0.921875,1.3125 0.9375,0.9375 0.9375,1.32812 0,0.78125 -1.8125,4.78125 -1.8125,4 -1.8125,4.78125 0,1.07813 0.78125,1.67188 3.03125,-1.67188 6.9375,-12.21875 0.6875,0.5 0.6875,1.46875 0,1.26562 -5.765625,13.96875 H 91.40625 q -1.171875,0 -2.25,0.0937 -3.703125,8.20312 -11.90625,22.17187 -2.546875,3.21875 -12.796875,3.21875 -3.90625,0 -16.109375,-1.65625 -13.375,-1.76563 -14.359375,-2.9375 0.09375,-0.875 0.296875,-2.53125 l 27.4375,3.51562 q 0.78125,-0.39062 5.859375,-1.46875 3.21875,-0.78125 4.78125,-3.8125 Q 83.5,111.71875 106.0625,64.15625 113.76563,48.25 113.76563,46.484375 v -0.78125 q 0,-0.78125 -0.78125,-1.953125 -0.78125,-1.171875 -0.78125,-2.734375 0,-0.875 -0.73438,-1.765625 -0.71875,-0.875 -0.71875,-1.15625 0,-2.0625 2.23438,-4.6875 0.29687,-0.296875 2.15625,-1.171875 1.26562,-0.6875 1.26562,-2.15625 0,-0.484375 -0.15625,-1.3125 -0.14062,-0.828125 -0.14062,-1.328125 0,-0.09375 0.10937,-0.671875 0.28125,0 0.96875,0 0.6875,0.09375 0.98438,0.09375 1.5625,0 1.5625,-1.5625 0,-0.390625 -0.59375,-0.984375 -0.57813,-0.578125 -0.57813,-0.96875 0,-0.78125 0.96875,-2.4375 3.8125,-0.296875 3.8125,-2.15625 0,-1.5625 -0.0937,-2.25 -1.17187,-1.453125 -1.17187,-1.65625 0,0.875 4.29687,-7.515625 2.53125,0 3.70312,-0.59375 0.20313,2.34375 2.15625,4.40625 2.4375,0.28125 3.3125,0.1875 -0.875,0.09375 0,0 m 9.57813,8.015625 q 0,3.515625 -2.25,3.515625 -1.07813,0 -3.67188,-1.671875 -2.57812,-1.65625 -2.57812,-2.625 0,-5.28125 4.20312,-5.28125 4.29688,0 4.29688,6.0625 0,-6.0625 0,0 M 151.6563,4.984375 q 0,2.140625 -1.5625,4.1875 -1.5625,2.0625 -3.60938,2.0625 -2.73437,0 -4.20312,-1.859375 Q 141.5,8.40625 141.5,5.28125 q 0,-2.9375 0.875,-3.875 0.89062,-0.921875 3.8125,-0.921875 5.46875,0 5.46875,4.5 0,-4.5 0,0 M 138.67187,8.59375 v 1.375 h -0.57812 v -1.375 h 0.57812 v 0 M 136.14062,8.5 q -0.20312,0 -0.59375,0.28125 -0.39062,0.296875 -0.78125,0.296875 h -1.85937 v -2.53125 q 0.6875,-0.6875 1.375,-0.6875 1.07812,1.078125 1.85937,2.640625 -0.78125,-1.5625 0,0 m 29.57813,-24.515625 q 0,1.265625 -1.76563,2.59375 -1.75,1.3125 -3.01562,1.3125 -6.15625,0 -5.85938,-2.640625 2.9375,-0.390625 6.15625,-1.75 v -1.375 q -0.6875,-0.78125 -1.65625,-0.78125 -1.375,0 -6.64062,0.875 v -3.515625 q 2.23437,-3.015625 3.79687,-3.015625 3.625,0 6.29688,2.390625 2.6875,2.390625 2.6875,5.90625 0,-3.515625 0,0 m -17.67188,2.53125 q -1.5625,2.546875 -3.125,4.984375 -1.75,3.21875 -1.35937,5.5625 -5.57813,0.984375 -5.57813,7.4375 0,0.875 0.20313,1.65625 -2.4375,-3.03125 -4,-3.03125 -1.375,0 -2.73438,0.875 l 8.6875,-17.28125 q 1.75,0.578125 2.64063,0.578125 1.84375,0 5.26562,-0.78125 -3.42187,0.78125 0,0 m 2.4375,-10.546875 q -0.96875,3.625 -0.875,6.84375 -2.64062,0.578125 -8,1.75 v -0.1875 q 0,-1.65625 3.51563,-4.828125 3.51562,-3.1875 5.35937,-3.578125 -1.84375,0.390625 0,0 m 15.53125,98.84375 q -0.0937,-5.578125 -13.85937,-5.578125 -12.5,0 -16.3125,3.71875 2.64062,-0.296875 7.90625,-0.78125 0.875,1.75 4.10937,1.75 1.17188,0 3.21875,0.921875 2.04688,0.9375 3.21875,0.9375 h 10.75 l 0.96875,-0.96875 v 0 m -22.0625,-57.140625 q 0,-3.125 -1.95312,-3.125 -4.6875,0 -4.6875,2.9375 0,1.171875 1.45312,2.390625 1.46875,1.21875 2.64063,1.21875 0,0 2.34375,-1.859375 0.20312,-0.484375 0.20312,-1.5625 0,1.078125 0,0 m -1.5625,-0.96875 v 1.265625 q -0.29687,0.484375 -0.98437,1.375 l -1.95313,-0.984375 V 17.28125 q 0.98438,-0.96875 1.65625,-0.96875 H 141.5 q 0.5,0 0.89062,0.390625"
       style="fill:#ffffff;fill-opacity:1;stroke:#000000"
       id="path2" />
  </g>
</svg>
