<?xml version="1.0" encoding="utf-8"?>
<!-- Generator: Adobe Illustrator 19.2.1, SVG Export Plug-In . SVG Version: 6.00 Build 0)  -->
<svg version="1.1" id="layer" xmlns="http://www.w3.org/2000/svg" xmlns:xlink="http://www.w3.org/1999/xlink" x="0px" y="0px"
	 viewBox="0 0 652 652" style="enable-background:new 0 0 652 652;" xml:space="preserve">
<style type="text/css">
	.st0{fill:#E40521;}
	.st1{fill:#2B2B2A;}
	.st2{fill:#FFFFFF;}
</style>
<path class="st0" d="M284.7,338.7h8.6v57.7h-8.6V338.7z M284.7,316h8.6v8.6h-8.6V316z M159.7,346.2h-7.9v-7.5h7.9v-5
	c0-6.6,1.8-11.6,5-14.8c2.9-2.9,7.1-4.5,12.4-4.5c4,0,6.7,0.4,9.5,1.4v7.5c-3.1-0.9-5.5-1.4-8.4-1.4c-6.7,0-10,4-10,12.3v4.7h15.5
	v7.4h-15.4v50.1h-8.6L159.7,346.2L159.7,346.2z M190.7,338.6h8.6v15.1c4.2-9.6,12.6-16.5,23.5-16.1v9.3h-0.7
	c-12.6,0-22.9,9-22.9,26.4v23h-8.6V338.6z M251.1,390.1c7.9,0,13.5-3.2,18.2-8.1l5.4,4.8c-5.8,6.5-12.8,10.8-23.8,10.8
	c-15.8,0-28.8-12.2-28.8-30.1c0-16.7,11.7-30.1,27.7-30.1c17.1,0,26.9,13.6,26.9,30.6c0,0.8,0,1.7-0.1,3h-45.7
	C232,383.1,240.9,390.1,251.1,390.1 M267.9,364c-1-10.5-7-19.4-18.4-19.4c-9.9,0-17.5,8.3-18.7,19.4H267.9z M313.9,385.2v11h-8.6
	V316h8.6v34.2c4.7-6.9,11.5-12.8,22.1-12.8c13.8,0,27.5,10.9,27.5,29.9v0.2c0,18.8-13.6,30-27.5,30
	C325.3,397.5,318.4,391.7,313.9,385.2 M354.8,367.6v-0.2c0-13.6-9.4-22.3-20.3-22.3c-10.7,0-20.9,9-20.9,22.2v0.2
	c0,13.4,10.1,22.3,20.9,22.3C345.6,389.8,354.8,381.5,354.8,367.6 M370.7,374.4v-35.8h8.6v33.7c0,10.7,5.8,17.4,15.9,17.4
	c9.8,0,17.3-7.2,17.3-18.1v-33h8.5v57.7h-8.5v-10c-3.9,6.2-9.8,11.3-19.7,11.3C378.8,397.5,370.7,388.1,370.7,374.4 M432.5,338.6
	h8.6v15.1c4.2-9.6,12.6-16.5,23.5-16.1v9.3h-0.7c-12.6,0-22.9,9-22.9,26.4v23h-8.6V338.6z M466.8,406.3l3.9-6.7
	c6.6,4.8,13.9,7.4,22.2,7.4c12.7,0,21-7,21-20.5v-6.8c-5,6.7-12,12.2-22.6,12.2c-13.8,0-27.1-10.4-27.1-27v-0.2
	c0-16.8,13.4-27.2,27.1-27.2c10.8,0,17.8,5.4,22.5,11.6v-10.4h8.6v47.6c0,8.9-2.7,15.7-7.4,20.4c-5.1,5.1-12.8,7.7-22,7.7
	C483.4,414.3,474.5,411.6,466.8,406.3 M514.1,364.7v-0.2c0-11.8-10.3-19.5-21.2-19.5c-10.9,0-20,7.6-20,19.4v0.2
	c0,11.6,9.3,19.6,20,19.6C503.8,384.2,514.1,376.3,514.1,364.7"/>
<path d="M116.8,352.6c4.2,0,7.7,2,10,5H149c-3.7-13.2-16-23-32.1-23c-19.4,0-33.5,14.4-33.5,31.6v0.2c0,17.2,13.9,31.3,33.2,31.3
	c16,0,28.3-9.8,32.2-22.9h-22c-2.2,3-5.6,4.9-9.9,4.9c-7.5,0-12.8-6.2-12.8-13.6V366C104.2,358.8,109.1,352.6,116.8,352.6
	 M78.5,354.7H57.2c0-4.6-2.5-6.6-6.7-6.6c-3.6,0-5.5,1.4-5.5,4c0,2.9,2.3,3.9,11.6,6.3c11.6,3,24.1,6.8,24.1,20.4
	c0,11.7-10.3,19.5-29,19.5c-19.8,0-30.4-6.8-30.4-21.2h22.5c0,5,2.5,7.4,8,7.4c4.2,0,6.3-1.5,6.3-4.1c0-3.5-3.3-4.6-13.7-7.3
	c-10.4-2.7-21.6-5.9-21.6-19.2c0-10.8,8.8-18.9,28-18.9C67.9,335,78.5,341.3,78.5,354.7"/>
<path class="st1" d="M576.1,357.7c-24.9,0-45.2-29-45.2-64.5c0-35.6,20.3-64.5,45.2-64.5c24.9,0,45.2,29,45.2,64.5
	C621.3,328.7,601,357.7,576.1,357.7"/>
<path class="st2" d="M576.1,231.8c-23.1,0-41.9,27.5-41.9,61.3c0,33.8,18.8,61.3,41.9,61.3c23.1,0,41.9-27.5,41.9-61.3
	C618,259.3,599.2,231.8,576.1,231.8"/>
<path class="st1" d="M576.2,233.4c-22.2,0-40.3,26.7-40.3,59.6c0,32.9,18.1,59.6,40.3,59.6c22.2,0,40.3-26.7,40.3-59.6
	C616.5,260.1,598.4,233.4,576.2,233.4 M537,293c0-32.3,17.6-58.6,39.2-58.6c6.6,0,12.8,2.5,18.3,6.8l-38.4,102
	C544.6,333,537,314.3,537,293"/>
<path class="st1" d="M579.1,253.4c-2.2-3.3-6.3-4.1-10-3.3c-4.2,0.7-8.4,0.7-12.7,0.5c-0.9,0.4-1.4,1.1-2.1,1.8
	c-0.7,1.1-2.4,0.2-2.9,1.5c-0.8,0.8-2.4,0.5-2.8,1.8c-0.3,1.6-0.3,3.3,0.3,4.8c0.7,0.7,1.7,0.9,2.7,0.8c0.5-0.3-0.1-0.6,0-1
	c0.1-0.8,0.3-1.7,1.2-1.9c1.1-0.3,2.3-0.2,3.5-0.1c1.8,0.1,3.5-0.3,5.2-0.3c2,0.3,4.2,0.5,5.9,1.7c0.2,0.3,0.3,0.7,0.2,1
	c-0.1,0.3-0.3,0.4-0.6,0.6c-1.5,0.1-3-0.5-4.5-0.4c-0.7,0.2-1.7-0.1-2.2,0.5c-0.1,0.1,0,0.3,0,0.4c2.5,0.4,5.1,0.8,7.4,1.7
	c0.3,0.3,1,0.4,0.9,1c-0.8,0.7-1.9,0.4-2.8,0.6c-3.2,0-6.7,0.3-10.1,0l-0.2,0.1c-0.1,0.5,0.1,1,0.5,1.3c2.4,1.8,5.8,1.7,8.8,1.7
	c1.2,0.2,2.7-0.3,3.5,0.8c0.4,0.8-0.1,1.7-0.6,2.2c-3.4,2.2-6.9,4-10.5,5.7c-3.4,2-7,3.5-9.9,6.3c-0.9,1.2-2.1,2.3-2.2,3.9
	c0.1,0.1,0.1,0.4,0.4,0.4c2.6-1.3,5.1-2.6,7.8-3.7c0.5-0.1,1.1-0.2,1.5,0.1c0.6,0.9-0.4,1.6-0.9,2.4c-3.4,4.1-6.8,8.6-8.3,13.7
	c-0.1,0.6-0.3,1.4,0.2,1.9c0.2,0.1,0.4,0.3,0.7,0.2c3.4-4,6.5-8.3,10.6-11.8l0.7-0.1c0.4,0.2,0.2,0.6,0.3,1
	c-1.3,4.8-3.5,9.8-2.8,15.2c0.1,0.8,0.1,1.8,1,2c0.5-0.1,0.6-0.7,0.7-1.1c1.8-4.9,3.6-9.8,5.6-14.6c0.5-0.9,0.8-2,1.7-2.6
	c0.1,0.1,0.1,0,0.2-0.1c0.6,0.1,0.5,0.9,0.6,1.4c0.1,2.3-0.2,4.9-0.1,7.4c0.1,1.6,0.4,3.4,1.9,4.4c0.4,0.2,0.7,0,0.9-0.3
	c0.1-3.2,0.5-6.5,1.1-9.7c0.7-2.4,1-4.9,2.3-7c0.2-0.1,0.5-0.2,0.7,0c0.4,0,0.7,0.4,1,0.2c0.3-1.4-0.3-2.9-0.2-4.4
	c0-1.4,0.1-3.6,0.5-3.9c0.1-0.4,0.4-0.8,0.8-0.8c0.7,0.4,0.8,1.3,1.3,1.8c0.2,0.2,0.5,0.2,0.7,0c0.2-0.3,0.3-0.7,0.3-1
	c0.1-1.8-0.7-3.5-0.2-5.3c0.2-1,0.5-2.1,1.3-2.7c0.5,0,0.8,0.7,1.2,0.9c0.3,0.3,0.6,0,0.7-0.2c0.6-1.5,0.1-3,0.4-4.6
	c-0.1-2,1-3.5,1.3-5.3C581.4,258.2,580.7,255.4,579.1,253.4"/>
<path class="st2" d="M602.1,328.7c-3.3,2.4-7.2,3.7-11.3,3.7c-10.4,0-18.9-8.5-18.9-18.9c0-10.4,8.5-18.9,18.9-18.9
	c7.5,0,14.2,4.4,17.3,11.2l0,0.1l-3,0l0,0c-2.8-5.3-8.3-8.6-14.3-8.6c-8.9,0-16.2,7.3-16.2,16.2s7.3,16.2,16.2,16.2
	c6.7,0,12.8-4.2,15.2-10.5l0,0l2.8,0l0,0.1C607.6,323,605.2,326.3,602.1,328.7"/>
<path class="st2" d="M599.9,308.8v-2.3H588v3c-1.1-0.7-1.8-1.7-1.8-3.1c0-2.2,2.2-4,4.3-4c2,0,3.6,1.1,4.4,2.9l2.1-1.1
	c-1.1-2.4-3.9-4.1-6.5-4.1c-3.7,0-6.9,2.6-6.9,6.4c0,3,1.9,4.6,4.3,5.8V324c-2-0.8-3.3-2.5-4-4.7l-2.4,0.8c0.8,3.3,3.3,5.6,6.4,6.4
	v1.5h0c0.5,0,1.7,0,2.2,0h0v-1.2c0,0,0,0,0.1,0c4.6,0,8.2-3.2,8.2-7.9c0-0.4-0.1-0.8-0.1-1.1h1.2v-2.4h-2c-1.5-2.6-4.7-3.5-7.4-4.5
	v-1.9L599.9,308.8L599.9,308.8z M596,318.7c0,3.2-2.5,5.7-5.7,5.7c0,0,0,0-0.1,0v-6.7h5.7C596,318,596,318.3,596,318.7 M591.1,313.7
	c1.2,0.4,2.4,0.9,3.3,1.6h-4.1v-1.9C590.5,313.5,590.8,313.6,591.1,313.7"/>
<path class="st2" d="M553.1,254.3c0.2-0.1,0.3-0.2,0.5-0.2c0.3,0.2,0.6,0.4,0.6,0.8c-0.1,0.3-0.5,0.2-0.7,0.1
	C553.4,254.8,552.8,254.7,553.1,254.3"/>
<path class="st2" d="M551.1,258.1c-0.2,0.5-0.7,0.9-0.6,1.4c-0.1,0-0.3,0.1-0.4-0.1c-0.1-1-0.4-2.1-0.2-3.2c0.4-0.7,1.2-0.8,1.9-1
	c0.3,0.2,0.5,0.7,0.9,0.8c0.6,0.4,1.2,0.5,1.8,0.4c0.3,0,0.5-0.5,0.8-0.3l0.5,0.6C554.3,257.1,552.3,256.7,551.1,258.1"/>
<path class="st2" d="M550.5,283.4c3.9-3.9,11.2-6.5,12.2-6.7c0.4,0.4,0.4,1.1,0.3,1.6C558.7,279.7,554.4,281.4,550.5,283.4"/>
<path class="st2" d="M549.4,296.4c2.4-5.7,8.6-13.6,11.4-15.6c0.6-0.1,1.1,0.3,1.3,0.7C558.8,285,553.5,291.5,549.4,296.4"/>
<path class="st2" d="M557.1,301.9c0.9-8.3,3.4-15.3,6.2-19.7c0.5-0.2,1.1,0.3,1.4,0.6C561.7,289.5,559.6,294.3,557.1,301.9"/>
<path class="st2" d="M567.9,256.7c-0.5-0.2-1.3-0.3-1.5-1c-0.2-0.3-0.1-0.8,0-1.1c0.4-0.7,1.2-1.1,1.9-1.1c0.7,0.1,1.6,0,2,0.8
	c0.2,0.3,0.4,0.9,0.2,1.3C570,256.6,568.8,256.5,567.9,256.7"/>
<path class="st2" d="M566.8,295.9c-0.6-5.6-0.9-9.2,0.5-15.1c0.6-0.1,1.4,0.1,1.6,0.3C568.3,283,567.1,291.2,566.8,295.9"/>
<path class="st2" d="M571.3,276.1c-0.2-0.1-0.2-0.5-0.4-0.8c-0.3-1.2-0.6-2.6-1.1-3.9c0.3-0.4,0.8-0.5,1.3-0.2
	c0.3,0.5,0.4,0.9,0.5,1.4C571.7,273.8,571.8,275.1,571.3,276.1"/>
<path class="st2" d="M574,271c-0.4-1.5-0.4-3.1-1-4.6c-0.1-0.3,0.3-0.4,0.5-0.5c0.2-0.1,0.4-0.1,0.6,0c0.3,0.2,0.1,0.5,0.3,0.7
	c0.3,0.7,0.3,2.2,0.3,2.2C574.6,269.5,574.4,270.5,574,271"/>
<path class="st2" d="M576.3,264.9L576.3,264.9L576.3,264.9c-0.3-0.6-0.1-1.2-0.1-2c0-1-0.2-1.9-0.2-2.8c0.4-0.3,1.4-0.3,1.4,0.4
	C577.6,262,577.6,263.9,576.3,264.9"/>
<path class="st1" d="M568.9,254.5c0.3,0.4,0.7,0.5,0.8,1c-0.6,0.1-1.3,0.6-1.8,0.1c-0.3-0.3-0.7-0.6-0.6-1c0-0.2,0.2-0.2,0.3-0.2
	C568.1,254.3,568.5,254.4,568.9,254.5"/>
</svg>
