<?xml version="1.0" encoding="UTF-8" standalone="no"?>
<!-- Created with Inkscape (http://www.inkscape.org/) -->

<svg
   width="401mm"
   height="78mm"
   viewBox="0 0 401 78"
   version="1.1"
   id="svg6276"
   inkscape:version="1.1.1 (3bf5ae0d25, 2021-09-20)"
   sodipodi:docname="Skyline.svg"
   xmlns:inkscape="http://www.inkscape.org/namespaces/inkscape"
   xmlns:sodipodi="http://sodipodi.sourceforge.net/DTD/sodipodi-0.dtd"
   xmlns="http://www.w3.org/2000/svg"
   xmlns:svg="http://www.w3.org/2000/svg">
  <sodipodi:namedview
     id="namedview6278"
     pagecolor="#ffffff"
     bordercolor="#111111"
     borderopacity="1"
     inkscape:pageshadow="0"
     inkscape:pageopacity="0"
     inkscape:pagecheckerboard="1"
     inkscape:document-units="mm"
     showgrid="false"
     inkscape:zoom="0.61580177"
     inkscape:cx="703.9603"
     inkscape:cy="682.84961"
     inkscape:window-width="1920"
     inkscape:window-height="991"
     inkscape:window-x="-9"
     inkscape:window-y="-9"
     inkscape:window-maximized="1"
     inkscape:current-layer="layer1" />
  <defs
     id="defs6273">
    <rect
       x="87.690556"
       y="600.8427"
       width="1201.6854"
       height="202.9874"
       id="rect22600" />
    <clipPath
       clipPathUnits="userSpaceOnUse"
       id="clipPath6454">
      <rect
         style="opacity:0.222;fill:#ff0000;stroke-width:0.264583"
         id="rect6456"
         width="396.87485"
         height="76.287361"
         x="6.722188"
         y="90.266968" />
    </clipPath>
  </defs>
  <g
     inkscape:label="Ebene 1"
     inkscape:groupmode="layer"
     id="layer1">
    <path
       style="fill:#000000;stroke-width:0.264583"
       d="m 6.7220378,179.60782 v -13.0529 l 98.6234422,-0.17623 c 125.83964,-0.22486 234.90237,-0.225 270.42649,-2.6e-4 l 27.82506,0.1759 v 13.05319 13.0532 H 205.15954 6.7220378 Z m 49.5279892,0.88206 c 0.408963,0 0.477808,-0.12158 0.337084,-0.59531 -0.195046,-0.65661 -0.837673,-1.25677 -1.3457,-1.25677 -0.549217,0 -1.158954,0.79294 -1.158954,1.50718 0,0.6156 0.07347,0.66094 0.826823,0.51027 0.454752,-0.0909 1.058087,-0.16537 1.340747,-0.16537 z M 369.59363,161.37374 c -0.34612,-0.95282 -1.44944,-6.11623 -1.44121,-6.7447 0.008,-0.58837 0.10224,-0.47344 0.48797,0.59313 0.26316,0.72761 0.7206,1.79917 1.01651,2.38125 0.29593,0.58209 0.62587,1.47506 0.73318,1.98438 0.10734,0.50932 0.32256,1.08394 0.47832,1.27694 0.2069,0.25639 0.18084,0.41563 -0.0967,0.59126 -0.53702,0.33981 -1.03743,0.30487 -1.17806,-0.0823 z M 27.085649,160.92811 c 0.358643,-0.67013 0.357439,-4.96161 -0.0013,-5.18342 -0.151442,-0.0936 -0.202763,-0.39886 -0.114049,-0.67838 0.101757,-0.3206 0.01688,-0.56362 -0.229944,-0.65833 -0.21518,-0.0826 -0.459105,-0.42053 -0.542049,-0.75101 -0.08295,-0.33048 -0.436734,-0.88741 -0.786196,-1.23763 -0.349464,-0.35021 -0.680664,-0.87351 -0.736002,-1.16288 -0.26071,-1.36327 -1.971355,-0.19889 -2.767301,1.88361 -0.244708,0.64024 -0.681776,1.2132 -1.055288,1.38339 -0.669769,0.30516 -0.818086,0.68821 -0.372991,0.9633 0.14768,0.0913 0.264583,1.32566 0.264583,2.79374 v 2.63022 h -1.5875 -1.5875 v -1.5875 c 0,-0.88195 0.117595,-1.5875 0.264584,-1.5875 0.463425,0 0.288364,-0.3935 -0.595313,-1.33814 -0.472942,-0.50558 -1.308639,-1.45312 -1.857105,-2.10565 l -0.997209,-1.18642 -0.844542,1.05833 c -0.4645,0.58208 -1.295679,1.50005 -1.847069,2.03992 -0.98608,0.9655 -1.25894,1.53196 -0.73793,1.53196 0.14925,0 0.26458,0.74965 0.26458,1.71979 v 1.71979 H 8.9711478 6.7221878 V 125.72113 90.266973 H 205.15967 403.59716 v 35.321867 35.32188 h -2.24895 -2.24896 v -1.5592 c 0,-1.14187 0.10623,-1.59995 0.39687,-1.71148 0.53753,-0.20627 0.50139,-0.68026 -0.0661,-0.86718 -1.56102,-0.51414 -3.3732,-1.6054 -4.40651,-2.65353 -0.99446,-1.00869 -1.3055,-1.18099 -1.87436,-1.03821 -0.37512,0.0941 -0.88312,0.40604 -1.12892,0.6931 -0.24577,0.28705 -0.55211,0.52191 -0.68072,0.52191 -0.12862,0 -0.47062,0.30098 -0.75996,0.66884 -0.5597,0.71154 -2.30093,1.71241 -2.97911,1.71241 -0.22407,0 -0.4074,0.11907 -0.4074,0.26459 0,0.14552 0.11907,0.26458 0.26459,0.26458 0.15443,0 0.26457,0.88505 0.26457,2.12597 0,2.01991 -0.0257,2.11232 -0.51177,1.85209 -0.28147,-0.15064 -1.1149,-0.27389 -1.85209,-0.27389 h -1.3403 v -2.91042 c 0,-2.41065 0.0682,-2.91042 0.39688,-2.91042 0.61997,0 0.49771,-0.29243 -1.05953,-2.53388 -0.80102,-1.15298 -1.682,-2.58428 -1.95778,-3.18067 -0.76679,-1.65845 -2.40665,-2.73599 -2.40665,-1.58142 0,0.83089 -1.94672,4.14082 -3.01405,5.12464 -1.15343,1.0632 -1.15586,1.06932 -0.88853,2.23763 0.15727,0.68722 0.18958,2.11418 0.0781,3.45185 l -0.18994,2.28033 -0.83706,-0.15582 c -1.31892,-0.24551 -2.50672,-1.09625 -3.20046,-2.29225 -0.35139,-0.60579 -1.20038,-2.80533 -1.88666,-4.88785 -0.7688,-2.33298 -1.63433,-4.3845 -2.25486,-5.34458 -1.0623,-1.64359 -2.86395,-3.07486 -3.54272,-2.8144 -0.52514,0.20151 -0.53625,1.98722 -0.0201,3.22263 0.21084,0.50465 0.3352,0.91754 0.2763,0.91754 -0.0589,0 0.0663,0.49122 0.2781,1.0916 0.47501,1.34633 0.48173,1.83596 0.0169,1.22351 -0.19333,-0.25466 -0.4181,-0.46302 -0.49951,-0.46302 -0.25696,0 -0.93491,2.39703 -1.64618,5.82064 -0.37791,1.8189 -0.77052,3.38073 -0.87249,3.47074 -0.10198,0.09 -0.57688,0.23685 -1.05537,0.32632 -1.24095,0.23205 -1.31363,-0.26656 -0.36875,-2.52988 0.76803,-1.83962 0.831,-2.32532 0.30151,-2.32532 -0.31006,0 -1.4121,2.16367 -1.853,3.63802 l -0.33626,1.12448 h -2.07479 -2.07478 v -1.03035 c 0,-0.76814 0.19235,-1.23627 0.75584,-1.83948 0.41571,-0.44502 0.91209,-1.36722 1.10307,-2.04934 0.30244,-1.0802 0.29451,-1.27876 -0.0614,-1.53902 -0.31165,-0.22788 -0.37708,-0.62734 -0.27567,-1.68281 0.0732,-0.7612 0.23691,-1.384 0.36391,-1.384 0.41243,0 0.24537,-0.84375 -0.44739,-2.25974 -0.56319,-1.15111 -0.70381,-1.89658 -0.82854,-4.392 -0.14544,-2.91007 -0.58444,-4.95277 -0.60177,-2.80016 -0.0108,1.35483 -0.60907,4.42481 -0.86214,4.42481 -0.11232,0 -0.20423,-0.49756 -0.20423,-1.10569 0,-0.60813 -0.13214,-1.47134 -0.29366,-1.91823 l -0.29364,-0.81254 -10.31809,0.0779 c -9.66512,0.073 -10.34105,0.0478 -10.68152,-0.39688 -0.31697,-0.41403 -0.39743,-0.42399 -0.62902,-0.0779 -0.14605,0.21828 -0.26739,0.97025 -0.26961,1.67104 -0.004,1.30501 -0.35285,2.29771 -0.80711,2.29771 -0.14039,0 -0.25527,-0.4001 -0.25527,-0.88911 0,-0.48901 -0.0769,-1.4502 -0.17089,-2.13596 -0.24464,-1.78486 -0.61384,-0.97439 -0.61881,1.3584 -0.006,2.72049 -0.45458,4.53916 -1.33821,5.42278 -0.40592,0.40593 -0.62164,0.80999 -0.47937,0.89792 0.61769,0.38176 0.76062,1.53457 0.45826,3.69603 l -0.30793,2.20125 0.8287,1.29146 c 0.4558,0.7103 0.90446,1.67001 0.99698,2.13268 l 0.1682,0.84122 h -2.5095 -2.50949 l -0.16804,-7.07761 c -0.0924,-3.89268 -0.24564,-11.87376 -0.34046,-17.73572 -0.16603,-10.26451 -0.15388,-10.67193 0.32935,-11.03198 0.47617,-0.35477 0.45887,-0.38908 -0.33893,-0.67201 -1.246,-0.44189 -1.46444,-1.34892 -1.00293,-4.16436 0.52668,-3.21286 0.50874,-3.41721 -0.33594,-3.82205 -0.39839,-0.19095 -0.76843,-0.57598 -0.82227,-0.85562 -0.0539,-0.27964 -0.2607,-0.67122 -0.45966,-0.87018 -0.43694,-0.43694 -1.06683,-2.48702 -1.46283,-4.76103 -0.22575,-1.29622 -0.2172,-1.76109 0.038,-2.06858 0.26567,-0.32008 0.24961,-0.48501 -0.0831,-0.85468 -0.36499,-0.4055 -0.36841,-0.56203 -0.0298,-1.3642 0.4136,-0.97989 0.17751,-1.52897 -0.53914,-1.25396 -0.33538,0.1287 -0.41465,0.62988 -0.41465,2.62176 0,3.23931 -0.4463,6.68616 -1.03632,8.00395 -0.48493,1.08302 -1.60952,2.31405 -1.60952,1.76186 0,-0.16808 -0.11562,-0.30559 -0.25696,-0.30559 -0.14134,0 -0.52829,0.8632 -0.85989,1.91823 -0.55283,1.75879 -0.60294,2.41303 -0.60294,7.87135 0,3.27422 0.0993,7.7093 0.22059,9.85573 0.14994,2.65267 0.13298,3.9026 -0.0529,3.9026 -0.15044,0 -0.30922,-0.68461 -0.35287,-1.52135 l -0.0794,-1.52136 -1.05833,-0.13229 c -1.2182,-0.15227 -2.32328,-0.83567 -2.20242,-1.362 0.0456,-0.19839 -0.18442,-0.62794 -0.51102,-0.95456 -0.41746,-0.41746 -0.59386,-0.9082 -0.59386,-1.65219 0,-0.58208 -0.11906,-1.05833 -0.26458,-1.05833 -0.14552,0 -0.2672,0.38695 -0.2704,0.8599 -0.007,1.00772 -0.77372,2.81524 -1.42222,3.35194 -0.24947,0.20646 -1.01248,0.51679 -1.69558,0.68963 l -1.24201,0.31426 -0.0796,1.50049 c -0.0441,0.8318 -0.18854,1.43315 -0.32409,1.34938 -0.13448,-0.0831 -0.16978,-0.69656 -0.0784,-1.36321 0.13279,-0.96883 0.0784,-1.26121 -0.27123,-1.45684 -0.38592,-0.21598 -0.43735,-0.92408 -0.43735,-6.02159 0,-5.64654 0.0124,-5.7801 0.55578,-5.92217 0.57465,-0.15027 0.46911,-0.71012 -0.13388,-0.71012 -0.25397,0 -0.38089,-0.94238 -0.49911,-3.70606 -0.16078,-3.76001 -0.32025,-4.60022 -0.74557,-3.92896 -0.17965,0.28355 -0.22831,0.26632 -0.23151,-0.082 -0.003,-0.24253 -0.12491,-0.48126 -0.27262,-0.5305 -0.14775,-0.0492 -0.41013,-0.85056 -0.58312,-1.78071 -0.22111,-1.18902 -0.44722,-1.72589 -0.76144,-1.80807 -0.75809,-0.19824 -1.74596,-4.56787 -1.0327,-4.56787 0.14552,0 0.26458,-0.2311 0.26458,-0.51355 0,-0.28245 -0.11906,-0.58714 -0.26458,-0.67707 -0.44355,-0.27413 -0.29657,-0.94762 0.31488,-1.44273 l 0.57944,-0.46921 -0.56028,-0.29985 c -1.09456,-0.58579 -1.26699,-0.22099 -1.16861,2.47239 0.14218,3.89363 -0.91779,8.2619 -2.30614,9.50384 -0.42682,0.38182 -0.56795,0.41389 -0.58206,0.13229 -0.0108,-0.21534 -0.11424,-0.14911 -0.24598,0.15743 -0.12507,0.29104 -0.23577,2.09872 -0.24598,4.01707 -0.0177,3.29806 -0.0487,3.49746 -0.57193,3.66351 -0.30432,0.0966 -0.73308,0.60583 -0.95276,1.13164 -0.48694,1.1654 -0.36092,2.30695 0.76189,6.90216 1.05934,4.33543 1.11268,6.08157 0.21503,7.03813 l -0.66146,0.70486 -0.0852,7.26696 -0.0852,7.26696 -0.57628,-0.17578 c -0.31698,-0.0967 -0.98407,-0.34273 -1.48249,-0.5468 l -0.90617,-0.37102 0.50868,0.5621 c 0.27978,0.30915 0.83638,0.73156 1.23691,0.93868 0.87508,0.45252 0.94406,1.26922 0.18711,2.21507 l -0.52935,0.66146 -0.77957,-0.90633 c -0.94835,-1.10257 -1.65568,-2.53974 -1.65568,-3.36406 0,-0.5184 -0.31293,-0.73212 -2.05629,-1.40443 -2.6719,-1.03039 -4.04159,-1.32459 -6.97722,-1.49861 -2.38893,-0.14161 -2.44732,-0.13011 -6.76633,1.33248 -2.39614,0.81143 -4.57457,1.47533 -4.84095,1.47533 -0.26639,0 -0.68296,-0.34606 -0.9257,-0.76902 -0.32401,-0.56455 -0.70671,-0.81144 -1.43938,-0.9286 -0.94366,-0.1509 -5.8767,-1.87 -7.88358,-2.74733 -0.80364,-0.35131 -1.55207,-0.36573 -5.68855,-0.10955 -7.02052,0.43478 -10.3056,1.44284 -12.68703,3.89315 l -1.12103,1.15346 -0.63692,-0.61521 c -0.82279,-0.79474 -3.86212,-1.26327 -3.5897,-0.55336 0.0906,0.23611 -0.21999,1.43625 -0.6902,2.66698 -0.90013,2.35598 -1.53528,2.86888 -2.04016,1.6475 -0.13534,-0.32742 -0.49115,-0.89297 -0.79068,-1.25677 -0.44602,-0.54172 -0.51274,-0.56567 -0.36861,-0.1323 0.0968,0.29105 0.33374,0.7141 0.52654,0.94014 0.19281,0.22602 0.38307,0.70227 0.42281,1.05833 l 0.0722,0.64737 -3.55066,0.0741 c -1.98786,0.0415 -3.66077,-0.036 -3.80085,-0.17606 -0.25868,-0.25869 -0.009,-0.87056 1.1178,-2.74235 0.32859,-0.54571 0.54339,-0.99219 0.47734,-0.99219 -0.20614,0 -2.31342,3.11114 -2.31342,3.41549 0,0.62165 -0.42774,0.23187 -1.05879,-0.96481 -0.36355,-0.68942 -0.8396,-1.43519 -1.05788,-1.65727 -0.21828,-0.22209 -0.56131,-0.75935 -0.76229,-1.19391 -0.21412,-0.46298 -0.41628,-0.64923 -0.48826,-0.44984 -0.0676,0.18715 0.29994,1.04998 0.81665,1.9174 1.4958,2.51101 1.50597,2.49218 -1.39446,2.58145 -1.36941,0.0421 -2.59136,-0.0249 -2.71546,-0.14899 -0.32228,-0.32229 0.27124,-1.92409 1.00794,-2.72025 0.34401,-0.37176 0.62546,-0.81825 0.62546,-0.99219 0,-0.17393 0.11906,-0.31625 0.26459,-0.31625 0.14552,0 0.26458,-0.17859 0.26458,-0.39687 0,-0.21828 0.22489,-0.39688 0.49977,-0.39688 0.30963,0 0.48579,-0.1723 0.46302,-0.45288 -0.0214,-0.26346 0.18458,-0.49049 0.49242,-0.5428 0.29104,-0.0495 0.76729,-0.19403 1.05833,-0.32126 0.29104,-0.12723 1.51944,-0.37503 2.72978,-0.55064 2.62075,-0.38027 2.93879,-0.22766 2.50064,1.19998 -0.33973,1.10692 -0.0173,1.02171 0.45577,-0.12047 0.41408,-0.99967 0.58201,-0.99796 1.43404,0.0146 0.6987,0.83035 0.81432,0.78975 0.4345,-0.15259 -0.11796,-0.29266 -0.10212,-0.66861 0.0354,-0.84116 0.3321,-0.41657 -1.6188,-0.74635 -4.41517,-0.74635 -1.95165,0 -2.33726,0.098 -4.94609,1.25677 -1.55619,0.69123 -2.99408,1.25677 -3.19531,1.25677 -0.20124,0 -0.95206,0.53873 -1.66849,1.19718 l -1.30261,1.19718 -0.17169,-3.90916 c -0.3827,-8.71368 -0.84209,-15.41853 -1.05642,-15.41853 -0.1249,0 -0.2271,0.41672 -0.2271,0.92604 0,0.50932 -0.11459,0.92604 -0.25465,0.92604 -0.14006,0 -0.28889,-1.10132 -0.33073,-2.44739 l -0.0761,-2.4474 -1.38906,0.0576 c -1.30655,0.0542 -1.38907,0.0198 -1.38907,-0.57854 0,-0.52436 0.15116,-0.65077 0.8599,-0.71911 0.74962,-0.0723 0.87027,-0.18971 0.94079,-0.9158 0.0527,-0.54294 0.2506,-0.87727 0.56837,-0.96037 1.41836,-0.37091 1.7678,-2.55484 1.11009,-6.93798 -0.4295,-2.86234 -0.6399,-3.49241 -0.77139,-2.31009 -0.20175,1.81392 -0.59109,0.4442 -0.59109,-2.07946 0,-2.10128 -0.0808,-2.66953 -0.39688,-2.79082 -0.28054,-0.10765 -0.39841,-0.55116 -0.40213,-1.51305 -0.0106,-2.73884 -2.34263,-21.865957 -2.66598,-21.865957 -0.18935,0 -0.24181,0.27232 -1.17226,6.08542 -0.59985,3.747647 -1.97144,15.012137 -1.98129,16.271867 -0.003,0.39082 -0.0626,0.4369 -0.22786,0.17625 -0.40197,-0.63413 -0.56193,0.37628 -0.56193,3.54956 0,1.83765 -0.10365,3.02107 -0.26459,3.02107 -0.14552,0 -0.27213,-0.56555 -0.28135,-1.25677 -0.015,-1.12615 -0.0455,-1.18803 -0.2931,-0.59532 -0.1847,0.44214 -0.21884,3.30657 -0.10295,8.63879 l 0.17337,7.97733 -2.72455,0.15903 c -3.8841,0.22672 -9.41878,0.30057 -16.8136,0.22433 l -6.41615,-0.0661 v -2.38956 c 0,-1.7809 -0.0925,-2.42503 -0.36301,-2.52885 -0.19966,-0.0766 -0.4387,-0.69796 -0.5312,-1.38076 -0.25908,-1.91235 -1.56505,-6.93 -1.8037,-6.93 -0.11688,0 -0.21251,0.27384 -0.21251,0.60854 0,0.3347 -0.12943,0.73798 -0.28763,0.89618 -0.20713,0.20713 -0.20713,0.3374 0,0.46541 0.40584,0.25082 0.35728,1.21765 -0.0861,1.7132 -0.20553,0.22974 -0.50391,1.13209 -0.66306,2.00521 -0.15915,0.87313 -0.53455,1.92062 -0.83421,2.32776 -0.29966,0.40714 -0.52389,1.00245 -0.49828,1.32292 0.0256,0.32046 0.0334,0.73148 0.0173,0.91338 -0.0228,0.25753 -2.01975,0.33073 -9.02157,0.33073 h -8.99228 l -0.38124,0.91245 c -0.31462,0.75299 -0.60365,0.97729 -1.65401,1.28356 l -1.27276,0.37112 -0.71568,7.77841 c -0.39362,4.27813 -0.80001,9.64765 -0.90309,11.93226 l -0.18741,4.15385 -1.29594,0.27792 c -0.71276,0.15286 -1.99497,0.27793 -2.84935,0.27793 h -1.55342 l -0.17606,-1.65364 c -0.0968,-0.90951 -0.13608,-2.07037 -0.0872,-2.57969 0.0788,-0.82158 0.18245,-0.93514 0.91858,-1.0067 1.08354,-0.10533 1.15465,-0.48761 1.15465,-6.2071 0,-3.98019 0.0537,-4.54163 0.46302,-4.84536 0.43723,-0.3244 0.43354,-0.36644 -0.0662,-0.7546 -0.29104,-0.22609 -1.24362,-0.81799 -2.11685,-1.31534 -0.87322,-0.49735 -1.94479,-1.34848 -2.38125,-1.89139 -1.01899,-1.26753 -1.59498,-1.87997 -1.88497,-2.00425 -0.12733,-0.0546 -0.46964,-0.5735 -0.76068,-1.15317 -0.29104,-0.57968 -0.91153,-1.29405 -1.37887,-1.5875 -0.5431,-0.34103 -0.85338,-0.75135 -0.85989,-1.13716 -0.006,-0.33199 -0.18879,-0.67215 -0.40707,-0.75592 -0.21828,-0.0838 -0.39688,-0.43721 -0.39688,-0.78544 0,-0.34823 -0.11906,-0.63315 -0.26458,-0.63315 -0.14552,0 -0.26458,0.28492 -0.26458,0.63315 0,0.34823 -0.1786,0.70168 -0.39688,0.78544 -0.21828,0.0838 -0.40083,0.36439 -0.40568,0.62362 -0.0107,0.57105 -0.74383,1.48901 -1.38546,1.73466 -0.25752,0.0986 -0.71016,0.58932 -1.00586,1.09049 -0.53068,0.89944 -1.60757,1.48264 -2.73773,1.48264 -0.53078,0 -0.55556,-0.10714 -0.46042,-1.99122 0.0942,-1.86559 -0.26014,-3.56503 -0.74334,-3.56503 -0.1056,0 -0.46656,-0.23813 -0.80213,-0.52917 -0.33558,-0.29104 -0.68122,-0.52594 -0.76809,-0.52201 -0.0869,0.004 -0.60444,0.42226 -1.15014,0.92961 l -0.99219,0.92244 v 3.43602 3.43602 h -1.83519 -1.83532 l -0.0829,-0.85989 c -0.0632,-0.65587 -0.20846,-0.8599 -0.61207,-0.8599 -0.39337,0 -0.55019,0.2037 -0.6111,0.79375 -0.0613,0.59347 -0.29491,0.89389 -0.92604,1.19063 -0.48421,0.22765 -1.02626,0.78488 -1.27132,1.30689 -0.43485,0.92631 -0.97834,1.28704 -1.98933,1.32034 -0.34423,0.0114 -0.61633,-0.17976 -0.69741,-0.48983 -0.0968,-0.37006 -0.46427,-0.55811 -1.35039,-0.69099 -1.64376,-0.2465 -2.53882,0.023 -3.39475,1.02224 l -0.71837,0.83864 -0.0107,7.83697 -0.0107,7.83697 -1.14597,0.32085 c -2.93178,0.82084 -3.44204,0.11945 -3.08178,-4.23622 0.13771,-1.66503 0.25233,-3.29816 0.25469,-3.62918 0.003,-0.39628 0.23025,-0.68777 0.66577,-0.85335 0.73089,-0.27788 0.88429,-0.98943 0.26458,-1.22724 -0.21828,-0.0838 -0.40146,-0.28838 -0.40707,-0.45471 -0.006,-0.16633 -0.38741,-0.54055 -0.84847,-0.83159 -0.98426,-0.62132 -2.21788,-2.32642 -2.46388,-3.40555 -0.0974,-0.42713 -0.39256,-0.81708 -0.67428,-0.89076 -0.27562,-0.0721 -0.50111,-0.23621 -0.50111,-0.36476 0,-0.44991 -0.495077,-0.22878 -0.66146,0.29544 -0.195003,0.6144 -0.926042,0.71884 -0.926042,0.13229 0,-0.21828 -0.119062,-0.39687 -0.264583,-0.39687 -0.145521,0 -0.264583,0.59531 -0.264583,1.32292 0,1.20338 -0.05489,1.32291 -0.607489,1.32291 h -0.607486 l 0.01217,-4.56822 c 0.01394,-5.22707 -0.29297,-6.44641 -1.807588,-7.18169 -1.5547,-0.75473 -3.414861,-2.80217 -2.545858,-2.80217 0.385336,0 0.325887,-0.48721 -0.198438,-1.62629 -0.508796,-1.10533 -0.859895,-1.3077 -0.859895,-0.49562 0,1.20568 -1.387867,3.84389 -2.508137,4.76774 -0.97079,0.80058 -1.145489,1.10528 -1.28947,2.24896 -0.0916,0.72761 -0.167579,5.87706 -0.168844,11.44323 -0.0016,6.56895 -0.09514,10.12031 -0.266883,10.12031 -0.145521,0 -0.264583,0.23813 -0.264583,0.52917 0,0.47489 -0.17639,0.52917 -1.719792,0.52917 h -1.719791 v -11.48107 c 0,-9.9216 0.05349,-11.50159 0.393808,-11.63219 0.316426,-0.12142 0.361278,-0.47792 0.228256,-1.81424 -0.09105,-0.91472 -0.284602,-1.81407 -0.430106,-1.99856 -0.145823,-0.18489 -0.196358,-0.91122 -0.112602,-1.61841 0.1973,-1.66591 -0.224668,-6.09384 -0.688152,-7.22113 l -0.361479,-0.87919 -0.186775,1.62992 c -0.321373,2.8045 -0.766828,2.55259 -1.302663,-0.73666 -0.608864,-3.73758 -0.78905,-4.20056 -1.634781,-4.20056 -0.585544,0 -0.668006,-0.11298 -0.668006,-0.91523 0,-0.50338 0.134987,-1.82282 0.299968,-2.93209 0.226598,-1.52353 0.224317,-2.26937 -0.0093,-3.0492 -0.304329,-1.01576 -1.171974,-1.80601 -1.464037,-1.33344 -0.08095,0.13098 -0.176168,2.03088 -0.211604,4.222 l -0.06442,3.98387 -0.775951,0.0782 c -0.766435,0.0772 -0.781508,0.11065 -1.229064,2.72403 -0.54401,3.17661 -0.961959,4.39646 -1.31218,3.82979 -0.131074,-0.21208 -0.37424,-0.95219 -0.540366,-1.64467 -0.398119,-1.65956 -0.778434,-1.60213 -0.778434,0.11754 0,0.75715 -0.18796,3.6291 -0.417687,6.38211 -0.298762,3.58032 -0.336428,5.08674 -0.132291,5.29087 0.195336,0.19535 0.285382,3.90005 0.285382,11.74186 v 11.45646 h -2.42379 -2.423792 l 0.168648,-7.51469 c 0.149508,-6.6619 0.121856,-7.53265 -0.243681,-7.67292 -0.226783,-0.087 -1.593218,-0.15823 -3.036525,-0.15823 -2.564821,0 -2.624193,-0.0138 -2.624193,-0.61089 0,-1.0877 -0.583766,-1.61363 -3.175,-2.86043 -0.654844,-0.31508 -1.527183,-0.85356 -1.938531,-1.19661 -0.411345,-0.34306 -0.861825,-0.62373 -1.001064,-0.62373 -0.139237,0 -1.435796,-0.71438 -2.881239,-1.5875 -1.445442,-0.87313 -2.742631,-1.5875 -2.88264,-1.5875 -0.14001,0 -0.45466,-0.2001 -0.699223,-0.44466 -0.392916,-0.39292 -0.470884,-0.3978 -0.670017,-0.042 -0.123947,0.22148 -1.303396,0.84953 -2.621,1.39567 -1.317604,0.54614 -2.508654,1.20414 -2.646778,1.46222 -0.138123,0.25809 -0.582781,0.53809 -0.988131,0.62222 -1.140494,0.23673 -6.880048,4.00246 -6.759392,4.43485 0.08443,0.30258 -1.527601,0.71278 -3.634902,0.92494 l -1.719791,0.17315 -0.02357,5.32793 c -0.01296,2.93037 -0.113379,6.4888 -0.223128,7.90763 l -0.199549,2.57968 h -1.439825 c -1.341525,0 -1.421125,-0.0349 -1.165932,-0.51177 z M 366.56069,144.85723 c -0.30522,-0.55667 -0.80481,-1.40828 -1.11017,-1.89245 -0.51638,-0.81878 -0.52464,-0.91089 -0.11779,-1.31775 0.35984,-0.35981 0.52972,-0.3798 0.9575,-0.11265 0.67837,0.42365 0.72052,0.20567 0.90903,-4.70075 0.15666,-4.07799 0.65847,-7.25048 1.3054,-8.25286 0.21678,-0.33587 0.42762,-1.26552 0.46855,-2.06589 l 0.0744,-1.4552 -1.0477,-0.0733 c -1.70095,-0.11893 -2.23832,-0.52121 -2.23832,-1.67563 0,-1.46121 -0.38907,-1.46116 -0.99637,1.4e-4 -0.50572,1.21693 -0.60092,1.29634 -1.81917,1.51763 -1.12813,0.20493 -1.29558,0.32057 -1.36776,0.94465 -0.0452,0.39113 0.12457,1.02678 0.37735,1.41256 0.3729,0.5691 0.47022,1.40069 0.51599,4.40859 0.0503,3.30547 0.11692,3.78903 0.61487,4.46251 0.48508,0.65614 0.55842,1.12157 0.55842,3.54418 0,1.79863 -0.10017,2.78883 -0.28215,2.78883 -0.1552,0 -0.2445,0.32054 -0.19843,0.71232 0.0641,0.54532 0.27686,0.762 0.9076,0.92427 0.45312,0.11658 1.28656,0.71877 1.85208,1.33821 1.15737,1.26773 1.47233,1.01669 0.63664,-0.50745 z m -124.48894,16.09799 c -0.0743,-0.1938 -0.13513,-0.56201 -0.13513,-0.81825 0,-0.42009 0.4486,-0.48289 4.56407,-0.63901 5.84535,-0.22173 14.09363,-0.22352 16.69497,-0.004 2.00597,0.16956 2.0243,0.1779 2.0243,0.92056 v 0.74945 l -11.50655,0.0716 c -9.38814,0.0584 -11.53142,0.007 -11.64166,-0.28075 z m 35.58362,0.20868 c -5.31151,-0.079 -9.69496,-0.16832 -9.74101,-0.19844 -0.046,-0.0301 -0.046,-0.38217 0,-0.78235 l 0.0837,-0.7276 11.62563,-0.069 c 6.39408,-0.0379 11.72361,0.029 11.84342,0.14883 0.11977,0.11979 0.14753,0.56754 0.0617,0.99501 l -0.15608,0.77721 h -2.03004 c -1.11652,0 -6.37583,-0.0647 -11.68734,-0.14369 z M 75.169346,161.00733 c -0.272561,-0.27256 -0.221858,-2.20155 0.08711,-3.31392 0.317066,-1.14154 1.173874,-1.54574 3.273298,-1.5442 1.338651,10e-4 1.353307,0.0101 1.809575,1.12448 0.253,0.61792 0.491125,1.7188 0.529167,2.4464 l 0.06917,1.32292 -2.791757,0.0746 c -1.535464,0.041 -2.874917,-0.009 -2.976562,-0.11024 z m 140.838114,-0.62578 v -0.79375 h 11.77395 11.77396 v 0.79375 0.79375 h -11.77396 -11.77395 z m 145.75493,-0.31316 c -0.0644,-0.73623 0.0788,-1.46507 0.6086,-3.09844 0.69876,-2.15429 1.06402,-1.68539 0.95443,1.22529 -0.0762,2.02221 -0.0886,2.05531 -0.80494,2.13774 -0.45742,0.0526 -0.73893,-0.0456 -0.75809,-0.26459 z m -128.1676,-1.55098 c -0.15715,-0.25428 1.80429,-3.80956 2.25561,-4.08849 0.10834,-0.067 0.65886,0.61765 1.22338,1.52135 1.43767,2.30151 1.49685,2.4975 0.80977,2.68177 -0.97666,0.26193 -4.10775,0.17824 -4.28876,-0.11463 z m 8.25364,0.10025 c -0.24107,-0.24107 -0.22369,-1.14613 0.022,-1.1482 0.20773,-0.002 0.86428,-1.03167 1.72774,-2.71031 0.28071,-0.5457 0.61539,-0.99218 0.74375,-0.99218 0.12837,0 0.4075,-0.41672 0.62031,-0.92605 0.47299,-1.13202 0.69402,-1.15455 1.29788,-0.13229 0.25789,0.43657 0.58121,0.79375 0.71851,0.79375 0.35978,0 0.30756,-0.29118 -0.14115,-0.787 -0.21492,-0.23749 -0.42328,-0.71451 -0.46302,-1.06004 -0.0678,-0.58962 0.0742,-0.65841 2.309,-1.11889 1.30969,-0.26985 3.15516,-0.51659 4.10104,-0.54829 l 1.71979,-0.0576 -0.0536,0.75489 c -0.0305,0.42957 -0.64907,1.56982 -1.43539,2.64583 -0.76002,1.04002 -1.50982,2.24637 -1.66624,2.68079 -0.30052,0.83461 -0.94172,1.7237 -1.24311,1.7237 -0.0988,0 -0.4209,-0.38696 -0.71577,-0.8599 -0.29487,-0.47294 -0.91895,-1.39568 -1.38685,-2.05052 -1.25859,-1.76147 -0.69877,-0.49509 0.70812,1.60183 0.66693,0.99404 1.13479,1.93326 1.03969,2.08714 -0.19039,0.30805 -7.60119,0.405 -7.9028,0.10339 z m 8.99583,0 c -0.27276,-0.27276 -0.20825,-1.14653 0.0847,-1.14653 0.14356,0 0.42278,-0.38695 0.62047,-0.85989 0.19769,-0.47295 0.55648,-1.02331 0.7973,-1.22302 0.24082,-0.19972 0.43786,-0.52715 0.43786,-0.72761 0,-0.20046 0.10874,-0.36448 0.24165,-0.36448 0.13291,0 0.68591,-0.8991 1.22889,-1.998 0.69599,-1.40858 1.0994,-1.95495 1.36748,-1.85208 0.20914,0.0803 0.43005,0.14592 0.49091,0.14592 0.0609,0 0.11065,0.127 0.11065,0.28223 0,0.15523 0.28434,0.66125 0.63186,1.12448 0.58754,0.78316 0.95469,1.42208 2.86778,4.9906 0.39683,0.74021 0.6577,1.4491 0.5797,1.57531 -0.16448,0.26613 -9.19547,0.3168 -9.4592,0.0531 z m 10.84792,0 c -0.097,-0.097 -0.17639,-0.38352 -0.17639,-0.63669 0,-0.33003 -0.14975,-0.42114 -0.52917,-0.32192 -0.346,0.0905 -0.52916,0.008 -0.52916,-0.23795 0,-0.20698 -0.31099,-0.78641 -0.69108,-1.28763 -0.3801,-0.50121 -0.91893,-1.38755 -1.19741,-1.96963 -0.27848,-0.58208 -0.7445,-1.35878 -1.03561,-1.72599 -0.29112,-0.36722 -0.60419,-1.12915 -0.69572,-1.69318 l -0.16642,-1.02551 1.40836,0.18682 c 2.63978,0.35018 4.43508,1.49453 5.21712,3.32546 l 0.39282,0.91967 0.50725,-0.62643 c 0.27899,-0.34453 0.53404,-0.5798 0.56678,-0.5228 0.0327,0.057 0.2903,0.5569 0.57234,1.1109 0.28205,0.55401 0.7583,1.27497 1.05833,1.60215 0.70553,0.76934 1.52414,2.51542 1.32805,2.83271 -0.17194,0.27819 -5.75707,0.34305 -6.03009,0.07 z m 11.84974,-0.25695 c -0.24836,-0.3951 -0.45834,-0.40639 -2.03274,-0.10932 -2.63456,0.4971 -2.89387,0.1127 -1.39443,-2.06711 0.50932,-0.74042 0.92604,-1.46816 0.92604,-1.61718 0,-0.39649 0.41481,-0.33069 0.79375,0.12591 0.47527,0.57266 0.86225,0.49009 0.53848,-0.1149 -0.48855,-0.91287 -0.29599,-1.26589 0.98287,-1.80176 1.68791,-0.70727 4.55481,-1.24113 4.88609,-0.90986 0.28414,0.28413 -0.60037,2.06826 -1.55652,3.13965 -0.31517,0.35316 -0.82179,1.17132 -1.12583,1.81813 -0.30405,0.64682 -0.68789,1.17603 -0.85301,1.17603 -0.1651,0 -0.43238,0.18023 -0.59397,0.40051 -0.25997,0.35449 -0.32557,0.34988 -0.57073,-0.0401 z m -0.23423,-2.12927 c -0.37367,-0.5499 -0.67895,-0.82335 -0.67842,-0.60766 0.003,0.57487 1.11945,2.29984 1.2482,1.92585 0.0603,-0.17511 -0.19614,-0.76829 -0.56978,-1.31819 z m 2.16442,2.40783 c -0.19595,-0.19597 0.31583,-1.6973 0.57862,-1.6973 0.1076,0 0.64222,-0.8681 1.18803,-1.9291 0.54584,-1.06101 1.20568,-2.21186 1.46637,-2.55746 l 0.47398,-0.62835 0.7099,0.70991 c 0.39045,0.39045 0.98756,1.33771 1.32689,2.10502 0.5911,1.33657 1.46656,2.42231 1.46656,1.81882 0,-0.15475 -0.13089,-0.36227 -0.29089,-0.46115 -0.39663,-0.24513 -1.8253,-3.30598 -1.82557,-3.91117 -1.8e-4,-0.43395 0.15325,-0.46887 1.38885,-0.31605 2.5359,0.31364 4.29189,0.71523 4.94316,1.1305 l 0.64365,0.41042 -0.57751,0.46765 c -0.31765,0.25721 -0.57753,0.54651 -0.57753,0.64288 0,0.0964 0.31372,-0.0715 0.69715,-0.37314 0.38341,-0.3016 0.79513,-0.54837 0.91488,-0.54837 0.11975,0 0.54681,0.56555 0.94898,1.25677 0.40217,0.69123 1.00251,1.66034 1.33406,2.15359 1.17144,1.74269 0.99491,1.88131 -2.39575,1.88131 -1.64926,0 -3.07039,-0.0718 -3.15812,-0.1595 -0.2172,-0.21721 0.27273,-1.45038 0.71644,-1.80331 0.19788,-0.15738 0.44558,-0.5838 0.55046,-0.94761 0.13364,-0.46351 -0.10927,-0.26557 -0.81171,0.66146 -0.55134,0.72761 -1.04233,1.373 -1.09109,1.4342 -0.0487,0.0612 -0.39352,-0.17513 -0.76613,-0.52519 l -0.67752,-0.63649 0.28358,0.74584 c 0.15595,0.41021 0.21614,0.85491 0.13375,0.98822 -0.16153,0.26137 -7.33695,0.34414 -7.59349,0.0876 z m -36.52362,-0.64331 c -0.97367,-0.76589 -1.82442,-2.25733 -1.72634,-3.02644 0.0776,-0.60853 0.13563,-0.63494 0.73443,-0.33415 0.7123,0.3578 1.95526,2.02003 2.36779,3.16649 0.22398,0.62248 0.1925,0.72761 -0.21791,0.72761 -0.26385,0 -0.78493,-0.24008 -1.15797,-0.53351 z M 214.82947,157.321 c -0.42787,-0.65301 -0.41938,-0.71302 0.21922,-1.55027 0.70405,-0.92307 2.37502,-1.87624 2.81378,-1.60508 0.41645,0.25738 0.30965,0.65851 -0.3998,1.50165 -0.36381,0.43235 -0.66146,0.94881 -0.66146,1.14767 0,0.33892 -0.96497,1.18533 -1.35136,1.18533 -0.0964,0 -0.37558,-0.30569 -0.62038,-0.6793 z m 25.28,-0.82127 c -0.45027,-0.67979 -0.81868,-1.31129 -0.81868,-1.40334 0,-0.27565 3.51529,-2.85957 4.29011,-3.15345 0.40278,-0.15277 0.78129,-0.17041 0.86179,-0.0402 0.23553,0.3811 -0.35926,1.64061 -1.33993,2.83738 -0.50589,0.61737 -1.09588,1.54392 -1.3111,2.05901 -0.21522,0.5151 -0.49755,0.93654 -0.6274,0.93654 -0.12986,0 -0.60451,-0.5562 -1.05479,-1.23599 z m 27.17616,-0.28019 c -1.65631,-2.72944 -1.61027,-3.53906 0.11716,-2.06044 0.59808,0.51193 1.29708,0.93078 1.55334,0.93078 0.25626,0 0.52742,0.0995 0.60258,0.22111 0.25048,0.40528 -0.25582,1.71075 -0.80487,2.0753 -0.50546,0.33561 -0.60409,0.25723 -1.46821,-1.16675 z m 29.89015,-22.92647 c -0.1115,-0.58325 -0.0262,-0.67495 0.69342,-0.74509 0.73199,-0.0713 0.84603,-0.20133 1.05658,-1.20445 0.17521,-0.83473 0.36269,-1.12448 0.72761,-1.12448 0.41809,0 0.49157,0.21266 0.49157,1.42281 0,1.62411 -0.21217,1.8829 -1.75176,2.13663 -1.01592,0.16743 -1.09897,0.13432 -1.21742,-0.48542 z"
       id="path4974"
       clip-path="url(#clipPath6454)"
       transform="translate(-47.415601,131.49755)" />
    <ellipse
       style="opacity:1;fill:#ff2a2a;stroke-width:0.406657"
       id="path6645"
       cx="267.11023"
       cy="49.305634"
       rx="16.036448"
       ry="9.5251007" />
    <text
       xml:space="preserve"
       transform="matrix(0.28567899,0,0,0.40183337,21.716163,-88.954064)"
       id="text22598"
       style="font-style:normal;font-variant:normal;font-weight:normal;font-stretch:normal;font-size:64.6653px;line-height:0;font-family:'Architects Daughter';-inkscape-font-specification:'Architects Daughter';white-space:pre;shape-inside:url(#rect22600);fill:#000000;fill-opacity:1;stroke:none;stroke-width:2.94594;stroke-miterlimit:4;stroke-dasharray:none"><tspan
         x="87.691406"
         y="720.09687"
         id="tspan144609"><tspan
           style="line-height:3.3;fill:#f9f9f9;stroke:#666666"
           id="tspan144607">Dein Treffpunkt in Freiburg!!!</tspan></tspan></text>
  </g>
</svg>
